<svg width="374" height="307" viewBox="0 0 374 307" fill="none" xmlns="http://www.w3.org/2000/svg">
<mask id="mask0_46_133" style="mask-type:luminance" maskUnits="userSpaceOnUse" x="0" y="0" width="374" height="307">
<path d="M0 0H374V307H0V0Z" fill="white"/>
</mask>
<g mask="url(#mask0_46_133)">
<path d="M369.246 118.055L368.776 117.958L367.735 117.747L365.899 117.37L365.497 117.287L363.059 116.791L362.186 116.611L358.255 115.811L356.731 115.499L354.809 115.108L353.714 114.887L352.199 114.575L303.269 73.3904L311.555 40.7933L162.566 0.0180664L149.784 50.5343L95.5578 47.3072L93.7034 87.163C89.5422 77.0956 85.3855 69.0555 83.6532 67.5753C80.4916 65.0101 75.3353 64.5321 69.5323 65.3411L66.719 57.5676C66.4928 56.9333 65.8008 56.6069 65.1721 56.8321L59.6631 58.8272C55.2983 48.1208 51.0422 42.4574 48.5681 39.7957C47.6047 38.7614 46.1709 39.2809 46.0397 40.7197C45.212 49.6746 46.492 56.5241 48.1429 62.9921L42.2946 65.1113C41.6569 65.3411 41.3267 66.0583 41.5574 66.7018L44.4295 74.6408C39.4632 77.661 35.8403 80.8651 35.0352 83.4394C32.3033 92.1737 45.8859 140.984 56.5693 148.114C61.4451 151.374 78.7864 148.013 91.1343 142.382L89.9176 168.548C89.0356 167.628 87.8867 167.031 86.5886 166.879C85.0644 166.704 83.5492 167.146 82.3189 168.12L52.3674 191.855L48.1791 186.039L50.5084 183.906L22.2622 143.513C18.8699 138.658 12.0582 137.762 7.28641 141.541L4.57712 143.687C-0.194672 147.466 -0.99977 154.403 2.80409 158.931L35.9714 197.238L37.6992 195.652L41.58 200.4L11.6014 224.162C9.07753 226.157 8.57548 229.803 10.4797 232.285L19.4126 243.934L19.2724 244.044C18.2005 244.89 18.0105 246.462 18.8427 247.552L20.4529 249.648C21.2897 250.737 22.8321 250.935 23.904 250.085L30.0825 245.189L37.0208 254.236L87.9139 211.695L86.5208 241.654L114.45 242.794L82.1063 271.051C81.7173 271.387 82.0928 272.017 82.5451 271.791L118.974 253.73L118.508 254.783L116.866 258.469L103.781 287.844C103.573 288.308 104.206 288.672 104.527 288.276L133.967 251.358L139.558 244.347L139.96 243.837L192.084 245.975L185.788 273.083L301.894 299.534L301.903 299.539L334.731 307.018L373.959 119.015L369.246 118.055ZM20.6248 232.855L25.4464 239.148L22.1672 241.746L13.2387 230.101C12.4834 229.113 12.6824 227.67 13.682 226.874L43.7465 203.053L46.103 205.944L56.5512 197.665L54.3711 194.636L84.3995 170.837C84.888 170.451 85.4895 170.276 86.0956 170.345C86.7017 170.414 87.2354 170.718 87.5973 171.205L89.6643 173.959L89.3658 180.385L88.4114 179.139L20.6248 232.855Z" fill="#FFB923"/>
</g>
<path d="M127.309 231.564L114.45 242.794L86.5206 241.649L87.9137 211.691L103.432 198.723L97.8734 191.473L107.281 184.017C108.353 183.167 108.543 181.599 107.711 180.51L106.101 178.409C105.264 177.324 103.722 177.126 102.65 177.977L99.1625 180.74L90.3788 169.049C90.2431 168.866 90.0757 168.714 89.922 168.548L91.1386 142.387C97.5161 139.482 102.568 135.965 103.88 132.448C106.929 124.256 100.311 103.147 93.7077 87.1634L95.5576 47.3076L149.789 50.5393L232.126 55.4397L191.414 106.576C190.912 105.79 190.247 105.11 189.433 104.609L183.63 101.042C182.296 100.214 181.314 98.9041 180.889 97.3733L180.229 94.9599C182.658 94.2382 184.991 93.3234 187.135 92.1557L185.439 75.3492C172.436 68.6652 148.35 72.9909 144.461 78.6176L143.705 94.8266C145.031 95.2357 147.102 95.7046 149.667 96.1137L149.495 97.0377C149.042 99.5063 147.179 101.46 144.759 101.993L142.068 102.582C139.404 103.175 137.436 105.469 137.237 108.236L137.151 109.468L135.885 127.157L135.709 129.681C135.505 132.54 137.219 135.257 139.929 136.071C148.694 138.705 157.184 139.661 165.443 139.187L138.789 172.672L151.933 183.332C143.185 180.684 133.149 187.603 130.566 199.78C127.544 214.026 134.519 216.136 131.543 224.723C130.647 226.576 128.739 228.953 127.309 231.564ZM89.6687 173.959L89.3701 180.386L93.2373 185.428L96.4035 182.923L89.6687 173.959ZM156.293 224.921C149.151 229.077 155.167 234.032 165.787 234.041C176.407 234.046 188.325 222.737 183.128 216.729C177.931 210.716 156.723 224.668 156.293 224.921ZM191.039 215.042C194.408 223.616 186.868 234.202 171.712 239.254C154.253 245.079 153.774 235.071 140.928 242.624L140.883 242.679L139.96 243.838L192.084 245.975L197.959 220.655L191.039 215.042ZM156.637 205.931C159.662 199.982 158.093 193.05 153.14 190.448C148.183 187.842 141.715 190.549 138.689 196.498C135.663 202.442 137.228 209.369 142.186 211.976C147.143 214.582 153.615 211.875 156.637 205.931ZM146.256 224.277C153.855 219.57 172.237 207.517 182.816 208.377L160.662 190.412C170.64 206.027 151.716 218.55 146.256 224.277ZM230.163 212.78C230.235 212.803 230.276 212.693 230.204 212.67C230.136 212.647 230.095 212.757 230.163 212.78ZM219.032 260.649C218.783 261.159 218.638 261.711 218.466 262.249C218.322 262.717 218.109 263.145 217.982 263.618C217.706 264.644 217.376 265.664 217.132 266.694C216.644 268.767 216.232 270.859 215.811 272.946C215.703 273.474 216.16 273.998 216.657 274.063C217.227 274.136 217.634 273.727 217.756 273.203C218.24 271.13 218.751 269.057 219.154 266.965C219.357 265.935 219.529 264.86 219.66 263.816C219.719 263.329 219.719 262.842 219.778 262.35C219.841 261.821 219.918 261.302 219.9 260.764C219.887 260.267 219.217 260.281 219.032 260.649ZM337.635 230.428C337.716 230.088 337.843 229.766 337.915 229.426C338.2 228.079 338.467 226.732 338.738 225.385C338.896 224.618 337.702 224.484 337.549 225.252C337.282 226.594 336.956 227.941 336.743 229.297C336.635 229.969 336.558 230.653 336.445 231.329C336.336 231.982 336.178 232.639 336.192 233.301C336.205 233.692 336.743 233.674 336.875 233.38C337.146 232.777 337.246 232.079 337.395 231.435C337.476 231.099 337.558 230.764 337.635 230.428ZM343.501 227.197C343.135 229.017 342.831 230.851 342.614 232.699C342.506 233.614 342.388 234.52 342.433 235.439C342.47 236.28 342.216 237.374 342.569 238.156C342.718 238.482 343.243 238.634 343.46 238.275C343.913 237.512 343.808 236.478 344.003 235.627C344.206 234.736 344.283 233.83 344.401 232.92C344.636 231.076 344.917 229.238 345.265 227.417C345.482 226.273 343.723 226.066 343.501 227.197ZM342.352 216.881C340.095 227.026 337.847 237.315 336.902 247.69C336.861 248.145 337.485 248.209 337.585 247.777C339.919 237.613 341.479 227.256 343.487 217.023C343.632 216.283 342.51 216.159 342.352 216.881ZM222.288 263.182C222.098 262.897 221.737 263.035 221.601 263.283C221.465 263.536 221.488 263.825 221.429 264.101C221.361 264.409 221.316 264.694 221.28 265.011C221.212 265.586 221.081 266.142 220.981 266.708C220.778 267.838 220.452 268.928 220 269.981C219.832 270.367 220.063 270.845 220.438 270.997C220.845 271.157 221.266 270.937 221.438 270.546C221.958 269.383 222.347 268.146 222.564 266.887C222.668 266.289 222.668 265.646 222.664 265.039C222.664 264.703 222.646 264.432 222.569 264.11C222.487 263.784 222.483 263.462 222.288 263.182ZM210.221 254.622C210.248 254.245 209.692 254.048 209.561 254.443C208.697 257.049 207.887 259.665 207.349 262.368C206.801 265.108 206.308 267.861 205.806 270.61C205.589 271.783 207.362 271.994 207.607 270.845C208.167 268.156 208.746 265.471 209.267 262.777C209.791 260.079 210.035 257.362 210.221 254.622ZM236.4 109.955C235.812 109.914 235.301 110.309 235.22 110.916C235.147 111.426 235.093 111.941 235.052 112.461C235.03 112.759 235.021 113.054 235.039 113.352C235.03 113.178 235.043 113.467 235.048 113.504C235.048 113.693 235.052 113.881 235.057 114.074C235.061 114.313 235.07 114.552 235.084 114.791C235.093 114.984 235.098 115.154 235.17 115.338C235.22 115.467 235.193 115.352 235.211 115.504C235.283 116.028 235.315 116.607 235.572 117.071C235.699 117.297 235.885 117.458 236.151 117.448C236.391 117.444 236.635 117.297 236.717 117.058C236.88 116.575 236.852 116.083 236.884 115.577C236.893 115.352 236.97 115.154 236.984 114.865C236.993 114.607 237.006 114.35 237.024 114.093C237.061 113.61 237.133 113.132 237.174 112.649C237.219 112.148 237.278 111.652 237.35 111.155C237.431 110.594 236.966 109.992 236.4 109.955ZM204.183 261.518C203.794 261.375 203.301 261.527 203.147 261.945C202.912 262.589 202.681 263.274 202.645 263.963C202.627 264.28 202.604 264.602 202.595 264.924C202.591 265.108 202.581 265.292 202.595 265.476C202.604 265.687 202.663 265.853 202.767 266.032C202.907 266.271 203.264 266.239 203.414 266.046C203.64 265.765 203.676 265.393 203.762 265.053C203.794 264.924 203.803 264.896 203.843 264.749C203.889 264.598 203.943 264.455 203.997 264.303C204.214 263.733 204.377 263.14 204.603 262.57C204.757 262.18 204.585 261.674 204.183 261.518ZM240.186 102.853C239.702 106.535 239.204 110.213 238.766 113.899C238.327 117.563 237.861 121.31 237.798 125.001C237.784 125.553 238.499 125.622 238.625 125.093C239.48 121.503 239.969 117.752 240.462 114.093C240.959 110.415 241.394 106.728 241.846 103.041C241.977 101.961 240.331 101.768 240.186 102.853ZM252.941 94.3255C252.697 97.0239 252.452 99.727 252.208 102.43C252.059 104.057 251.964 105.694 251.91 107.326C251.855 108.944 251.625 110.613 251.828 112.226C251.905 112.847 252.846 112.998 253.049 112.373C253.524 110.884 253.615 109.284 253.845 107.744C254.099 106.066 254.32 104.388 254.479 102.697C254.727 100.063 254.976 97.4239 255.225 94.7898L254.85 94.7117L252.941 94.3255ZM363.968 127.805C363.904 129.198 363.588 130.761 363.823 132.136C363.891 132.554 364.533 132.696 364.678 132.241C365.076 130.945 365.012 129.465 365.207 128.122C365.429 126.628 365.578 125.121 365.786 123.617C366.062 121.59 366.392 119.563 366.754 117.545L365.899 117.37L365.496 117.287C365.089 119.333 364.718 121.388 364.443 123.457C364.248 124.9 364.031 126.357 363.968 127.805ZM367.437 122.758C367.419 123.484 367.288 124.289 367.491 124.992C367.618 125.438 368.219 125.328 368.382 124.983C368.672 124.376 368.658 123.581 368.748 122.914C368.798 122.537 368.893 122.16 368.934 121.779C368.97 121.425 368.993 121.066 369.02 120.712C369.097 119.825 369.169 118.942 369.246 118.055L368.776 117.959L367.735 117.743L367.514 120.611C367.459 121.333 367.459 122.036 367.437 122.758ZM359.06 126.468C358.603 129.313 358.241 132.149 357.884 135.004C357.504 138.011 356.934 141.114 356.97 144.148C356.98 144.901 358.146 145.403 358.386 144.502C359.132 141.674 359.39 138.696 359.852 135.804C360.318 132.871 360.838 129.947 361.317 127.015C361.869 123.604 362.452 120.193 363.058 116.791L362.186 116.612L360.851 116.34C360.209 119.71 359.603 123.084 359.06 126.468ZM308.036 279.198C308.823 274.357 309.551 269.507 310.324 264.667C311.112 259.762 311.953 254.765 312.346 249.809C312.414 248.917 311.007 248.425 310.759 249.391C309.551 254.103 308.723 258.975 307.891 263.77C307.036 268.698 306.168 273.626 305.295 278.554C304.056 285.528 302.97 292.533 301.894 299.535L301.903 299.539L304.436 300.114C305.675 293.149 306.901 286.18 308.036 279.198ZM354.786 125.222C354.605 126.693 354.266 128.279 354.419 129.764C354.474 130.311 355.315 130.467 355.496 129.915C355.926 128.591 355.993 127.13 356.224 125.76C356.477 124.256 356.767 122.753 357.052 121.259C357.405 119.43 357.821 117.618 358.255 115.812L356.731 115.499C356.256 117.278 355.844 119.071 355.487 120.873C355.202 122.317 354.967 123.76 354.786 125.222ZM243.329 134.25C243.357 135.092 244.6 135.05 244.732 134.269C245.962 126.987 246.704 119.6 247.504 112.254C248.178 106.052 248.906 99.8511 249.675 93.6589L247.088 93.1303C244.691 106.645 242.818 120.533 243.329 134.25ZM215.413 248.136C214.644 250.549 214.359 253.128 213.803 255.597C213.183 258.341 212.51 261.081 211.854 263.816C210.7 268.62 209.619 273.442 208.421 278.237L211.162 278.862C212.505 274.164 213.695 269.397 214.558 264.588C215.047 261.872 215.449 259.132 215.716 256.383C215.979 253.68 216.567 250.986 216.494 248.26C216.476 247.681 215.576 247.616 215.413 248.136ZM256.767 98.0307C256.704 98.5593 256.632 99.0788 256.6 99.6074C256.586 99.8787 256.532 100.182 256.573 100.453C256.586 100.573 256.645 100.679 256.663 100.793C256.686 100.945 256.686 101.106 256.699 101.262C256.754 101.943 257.771 102.044 257.989 101.419C258.034 101.29 258.07 101.152 258.124 101.028C258.179 100.899 258.269 100.789 258.319 100.66C258.418 100.403 258.445 100.099 258.5 99.8281C258.604 99.3132 258.667 98.7892 258.739 98.2651C258.857 97.3687 258.97 96.4723 259.092 95.5805L257.129 95.1805C257.012 96.1275 256.889 97.0837 256.767 98.0307ZM352.764 117.853C352.646 118.51 352.547 119.168 352.456 119.83C352.416 120.133 352.429 120.441 352.402 120.749C352.375 121.094 352.325 121.438 352.384 121.788C352.443 122.123 352.945 122.33 353.148 121.99C353.329 121.682 353.411 121.379 353.51 121.039C353.596 120.735 353.723 120.45 353.795 120.147C353.954 119.471 354.103 118.791 354.234 118.11C354.424 117.108 354.614 116.111 354.804 115.108L353.714 114.888L353.307 114.805C353.126 115.821 352.945 116.837 352.764 117.853ZM46.1074 205.945L56.5556 197.666L54.371 194.636L52.3673 191.855L48.1835 186.04L37.7036 195.652L41.5844 200.401L43.7464 203.058L46.1074 205.945Z" fill="#F79228"/>
<path d="M232.121 55.4351L149.789 50.5348L162.566 0.0185547L311.555 40.7938L303.268 73.3909L252.109 30.331L232.121 55.4351ZM182.436 129.649C184.96 129.097 190.234 126.95 193.033 125.769L192.436 110.856C189.903 111.532 186.145 112.038 181.744 112.36L182.436 129.649ZM144.727 129.63L146.537 111.569C147.599 111.707 148.717 111.831 149.87 111.946C148.717 111.831 147.599 111.707 146.541 111.569C142.511 111.04 139.209 110.341 137.151 109.468L135.885 127.153C138.816 128.136 141.769 128.968 144.727 129.63ZM153.289 131.097C161.413 132.085 169.636 131.901 177.972 130.499C169.64 131.901 161.413 132.085 153.289 131.097ZM22.1714 241.746L22.4112 242.059L19.6521 244.242L19.4124 243.93L19.2722 244.04C18.2002 244.89 18.0102 246.463 18.8425 247.552L20.4527 249.648C21.2894 250.738 22.8318 250.931 23.9038 250.085L30.0822 245.189L25.4461 239.149L22.1714 241.746ZM96.5481 183.116L96.4034 182.923L93.2372 185.428L97.8733 191.474L107.281 184.017C108.353 183.167 108.543 181.595 107.711 180.51L106.101 178.409C105.264 177.319 103.722 177.126 102.65 177.977L99.1624 180.735L99.3252 180.956L96.5481 183.116ZM84.4038 170.838C84.8923 170.452 85.4938 170.277 86.0999 170.346C86.7015 170.415 87.2352 170.723 87.6015 171.205L89.6686 173.959L96.4034 182.923L96.5481 183.116L99.3252 180.956L99.1624 180.735L90.3787 169.045C90.2385 168.861 90.0756 168.709 89.9173 168.548C89.0353 167.629 87.8865 167.031 86.5929 166.88C85.0641 166.705 83.5489 167.146 82.3186 168.121L52.3672 191.855L54.3709 194.636L84.4038 170.838ZM22.4112 242.059L22.1714 241.742L13.2385 230.097C12.4831 229.114 12.6821 227.67 13.6817 226.875L43.7463 203.053L41.5797 200.401L11.6011 224.163C9.07727 226.158 8.57521 229.803 10.4794 232.286L19.4124 243.934L19.6521 244.247L22.4112 242.059ZM92.301 111.068L56.4062 123.443C52.6973 114.833 49.3593 103.051 48.1653 95.438C52.037 96.9045 57.8491 97.0746 66.5604 94.2336C75.7015 91.2502 80.1702 87.3014 82.1332 83.4491C85.3672 90.0044 90.0078 101.635 92.301 111.068ZM86.6608 100.807C86.7603 99.4282 84.5847 98.7801 83.5399 98.7846C82.2327 98.7892 81.0205 99.4052 80.324 100.541C79.9983 101.069 79.7858 101.672 79.5822 102.26C79.3968 102.793 79.2249 103.414 78.8178 103.828C77.7866 104.862 76.0723 103.657 75.1089 103.097C73.8334 102.356 72.3318 101.662 70.8437 102.186C69.3737 102.701 68.4691 104.034 67.7907 105.381C67.2208 106.503 66.5242 108.411 65.0814 108.581C64.023 108.705 62.9782 107.799 62.0826 107.367C60.7121 106.701 59.1788 106.572 57.9667 107.661C56.845 108.673 56.4515 110.374 57.1118 111.753C57.5098 112.576 58.7084 111.895 58.3376 111.068C57.9033 110.107 58.6089 108.714 59.6628 108.544C60.6443 108.388 61.6394 109.229 62.4354 109.689C63.4848 110.291 64.6788 110.714 65.882 110.346C67.2796 109.919 68.2204 108.659 68.8898 107.413C69.4732 106.314 69.9527 104.871 71.0563 104.191C72.1735 103.501 73.458 104.342 74.4305 104.917C75.6562 105.643 77.0584 106.337 78.5148 106.062C79.8219 105.818 80.6089 104.802 81.0929 103.621C81.4909 102.646 81.6809 101.23 82.7936 100.817C83.2233 100.656 83.7208 100.656 84.1505 100.784C84.7837 100.968 85.1365 101.575 85.7969 101.639C86.2627 101.685 86.6291 101.239 86.6608 100.807Z" fill="#2497D6"/>
<path d="M146.541 111.569C142.511 111.04 139.209 110.341 137.151 109.468L137.237 108.236C137.436 105.468 139.404 103.17 142.068 102.582L144.759 101.993C147.174 101.46 149.042 99.5061 149.495 97.0375L149.667 96.1136C157.419 97.3501 169.767 98.0443 180.229 94.9551L180.889 97.3731C181.314 98.9039 182.296 100.214 183.63 101.042L189.433 104.609C190.247 105.105 190.912 105.786 191.414 106.572C191.998 107.496 192.346 108.567 192.391 109.698L192.441 110.861C189.904 111.532 186.149 112.037 181.744 112.359C180.509 112.447 179.229 112.525 177.908 112.585C169.206 113.003 158.862 112.814 150.494 112.015C150.282 111.992 150.083 111.969 149.87 111.95C148.717 111.831 147.6 111.707 146.541 111.569ZM193.115 127.782L193.033 125.764C190.234 126.95 184.96 129.097 182.436 129.649C181.16 129.924 179.885 130.177 178.619 130.398C178.401 130.439 178.184 130.462 177.972 130.499C169.64 131.901 161.413 132.085 153.29 131.097C151.254 130.848 149.223 130.55 147.206 130.154C146.858 130.09 146.514 130.007 146.17 129.934C145.691 129.832 145.211 129.74 144.728 129.63C141.769 128.968 138.816 128.136 135.89 127.152L135.709 129.681C135.505 132.54 137.219 135.257 139.929 136.066C148.694 138.705 157.188 139.661 165.448 139.187C173.643 138.718 181.613 136.838 189.388 133.781C191.767 132.843 193.219 130.379 193.115 127.782ZM156.7 124.642C156.542 127.185 158.441 129.382 160.947 129.543C163.448 129.708 165.61 127.778 165.769 125.231C165.931 122.684 161.716 116.326 161.716 116.326C161.716 116.326 156.863 122.096 156.7 124.642ZM165.529 118.63C165.452 119.843 166.361 120.891 167.555 120.969C168.749 121.048 169.781 120.124 169.853 118.91C169.93 117.696 167.922 114.667 167.922 114.667C167.922 114.667 165.606 117.416 165.529 118.63ZM162.747 82.387C166.158 82.5433 169.6 82.3916 172.929 81.5917C172.951 82.2583 172.978 82.9202 173.028 83.5822C173.091 84.3683 173.177 85.1773 173.381 85.9358C173.467 86.253 173.973 86.2944 173.987 85.9175C174.019 85.136 173.964 84.3499 173.915 83.573C173.874 82.8375 173.833 82.1066 173.815 81.371C175.57 80.8838 177.271 80.2172 178.872 79.33C178.885 79.6794 178.908 80.0287 178.931 80.3781C178.953 80.6677 178.971 80.9573 178.998 81.2469C179.026 81.5365 179.039 81.8491 179.13 82.125C179.179 82.2675 179.36 82.3456 179.496 82.3226C179.659 82.295 179.745 82.1617 179.776 82.01C179.808 81.8583 179.795 81.702 179.795 81.5457C179.795 81.4124 179.799 81.2791 179.795 81.1458C179.785 80.8562 179.772 80.5666 179.763 80.277C179.74 79.6794 179.7 79.0818 179.663 78.4887C179.659 78.4244 179.636 78.3692 179.6 78.3187C179.496 78.029 179.202 77.8222 178.863 78.0244C171.879 82.1341 163.543 81.5457 155.832 80.6401C153.543 80.3735 151.254 80.0655 149.024 79.4817C148.445 79.33 148.12 80.2126 148.708 80.3827C149.599 80.6401 150.499 80.8562 151.408 81.0493C151.358 81.7848 151.327 82.5203 151.336 83.2558C151.34 83.6603 151.345 84.0695 151.376 84.4786C151.404 84.8693 151.367 85.3428 151.539 85.706C151.679 85.9956 152.132 86.0002 152.236 85.6784C152.362 85.3107 152.29 84.8693 152.29 84.4832C152.295 84.0879 152.29 83.6879 152.299 83.2926C152.308 82.6076 152.331 81.9273 152.367 81.2423C155.266 81.794 158.229 82.0882 161.146 82.2996C161.354 82.3134 161.558 82.3226 161.766 82.3364C161.716 83.334 161.707 84.3269 161.743 85.329C161.788 86.4185 161.861 87.5586 162.168 88.6113C162.272 88.979 162.86 89.025 162.878 88.5745C162.928 87.5034 162.815 86.4185 162.774 85.3474C162.729 84.3591 162.729 83.3707 162.747 82.387ZM188.067 210.578C189.438 211.967 190.424 213.47 191.039 215.042C194.413 223.615 186.869 234.202 171.716 239.254C154.258 245.079 153.774 235.071 140.928 242.624C140.58 242.831 140.227 243.038 139.861 243.272C133.732 246.283 128.843 244.545 126.744 241.102C126.739 241.098 126.73 241.088 126.726 241.079C126.721 241.075 126.721 241.07 126.717 241.065C126.586 240.845 126.468 240.62 126.36 240.39C124.849 237.425 125.781 234.363 127.314 231.559C128.739 228.952 130.647 226.576 131.543 224.719C134.519 216.131 127.545 214.026 130.566 199.775C133.149 187.598 143.185 180.684 151.933 183.327C155.099 184.284 158.102 186.486 160.517 190.163C160.572 190.246 160.612 190.324 160.662 190.407C170.64 206.027 151.72 218.549 146.256 224.273C153.855 219.57 172.241 207.512 182.82 208.372C184.924 208.546 186.728 209.222 188.067 210.578ZM139.892 236.326C140.123 233.549 138.097 231.108 135.365 230.874C132.633 230.644 130.236 232.704 130.005 235.48C129.774 238.257 131.801 240.693 134.533 240.928C137.265 241.162 139.666 239.103 139.892 236.326ZM156.637 205.931C159.663 199.982 158.093 193.05 153.14 190.448C148.183 187.842 141.715 190.549 138.689 196.498C135.663 202.442 137.228 209.369 142.186 211.976C147.143 214.582 153.615 211.875 156.637 205.931ZM183.128 216.729C177.931 210.716 156.723 224.673 156.293 224.921C149.151 229.077 155.167 234.032 165.787 234.041C176.407 234.046 188.325 222.737 183.128 216.729ZM48.568 39.796C47.6046 38.7617 46.1708 39.2811 46.0396 40.72C45.2119 49.6749 46.4919 56.5244 48.1428 62.9923L59.663 58.8275C55.2982 48.1211 51.0421 42.4576 48.568 39.796ZM56.4064 123.443C58.5322 128.361 60.7756 132.241 62.811 133.712C67.6823 137.238 90.9261 130.692 93.2691 123.608C94.1375 120.988 93.5947 116.372 92.3011 111.068L56.4064 123.443Z" fill="#903F6D"/>
<path d="M252.109 30.3306L303.269 73.3905L352.199 114.575L259.093 95.5755L257.13 95.1755L255.225 94.7894L254.85 94.7112L228.449 89.3236L197.959 220.655L191.039 215.042C190.419 213.47 189.438 211.966 188.063 210.578C186.724 209.222 184.924 208.546 182.816 208.376L160.662 190.411C160.608 190.328 160.567 190.246 160.513 190.163C158.098 186.49 155.099 184.288 151.928 183.327L138.785 172.671L165.443 139.187C173.639 138.718 181.609 136.838 189.384 133.781C191.767 132.843 193.219 130.379 193.111 127.786L193.029 125.768L192.437 110.856L192.387 109.697C192.346 108.567 191.993 107.495 191.41 106.571L232.122 55.4347L252.109 30.3306ZM181.744 112.359L182.436 129.648C181.161 129.924 179.885 130.177 178.619 130.398C178.402 130.439 178.185 130.462 177.972 130.499C169.641 131.901 161.413 132.085 153.29 131.096C151.255 130.848 149.224 130.549 147.206 130.154C146.858 130.09 146.514 130.007 146.171 129.938C145.691 129.837 145.212 129.74 144.728 129.63L146.537 111.568C147.6 111.706 148.717 111.83 149.87 111.945C150.079 111.968 150.282 111.991 150.495 112.014C158.862 112.814 169.206 113.003 177.904 112.584C179.229 112.525 180.509 112.446 181.744 112.354V112.359ZM165.769 125.231C165.932 122.684 161.716 116.326 161.716 116.326C161.716 116.326 156.863 122.095 156.705 124.642C156.542 127.184 158.442 129.382 160.947 129.543C163.449 129.708 165.611 127.777 165.769 125.231ZM169.853 118.91C169.93 117.696 167.922 114.667 167.922 114.667C167.922 114.667 165.606 117.416 165.529 118.629C165.452 119.843 166.361 120.891 167.556 120.969C168.75 121.047 169.776 120.123 169.853 118.91ZM97.8738 191.473L93.2377 185.428L89.3705 180.385L88.4161 179.139L20.625 232.855L25.4465 239.148L30.0826 245.189L37.021 254.236L87.9141 211.691L103.433 198.722L97.8738 191.473ZM91.1345 142.386C78.7866 148.013 61.4498 151.374 56.5695 148.119C45.8861 140.989 32.3035 92.1737 35.0354 83.444C35.845 80.8697 39.4634 77.6611 44.4297 74.6408L41.5576 66.7065C41.3269 66.0583 41.6571 65.3412 42.2948 65.1113L48.1431 62.9921L59.6632 58.8272L65.1723 56.8321C65.801 56.6069 66.493 56.9333 66.7237 57.5677L69.5325 65.3412C75.3355 64.5321 80.4963 65.0148 83.6534 67.5753C85.3857 69.0555 89.5469 77.0956 93.7081 87.163C100.312 103.147 106.933 124.256 103.88 132.443C102.569 135.965 97.5164 139.477 91.1345 142.386ZM47.5822 76.3095C49.4186 76.0429 51.2323 75.7855 53.0325 75.335C54.8236 74.8891 56.5876 74.3466 58.3199 73.7076C61.7891 72.4389 65.1271 70.8299 68.2796 68.8854C69.3154 68.2464 68.4017 66.5593 67.384 67.1891C67.1941 66.7019 67.0041 66.21 66.8006 65.7227C66.7327 65.5572 66.6694 65.3779 66.5835 65.2216C66.4885 65.0561 66.398 64.9182 66.3121 64.7435C66.1493 64.408 66.0136 63.9804 65.697 63.7644C65.5025 63.6357 65.1859 63.723 65.1225 63.9713C65.023 64.3666 65.1994 64.7803 65.308 65.1619C65.3532 65.3274 65.3758 65.4883 65.4075 65.6583C65.4437 65.8468 65.5251 66.0353 65.5884 66.2192C65.7829 66.7938 65.991 67.3638 66.199 67.9338C63.6797 69.483 61.0382 70.8253 58.2973 71.9286C58.1073 71.3632 57.9174 70.7978 57.7002 70.2461C57.6279 70.0577 57.56 69.8646 57.4696 69.6807C57.4243 69.575 57.352 69.5152 57.2932 69.4233C57.2479 69.3497 57.2253 69.2624 57.1891 69.1842C57.0308 68.8349 56.8906 68.4395 56.6283 68.1591C56.4428 67.9614 56.1443 68.1039 56.1217 68.3568C56.0855 68.7337 56.2167 69.1291 56.3072 69.4922C56.3252 69.5704 56.3614 69.6669 56.366 69.7497C56.375 69.8554 56.3614 69.9565 56.3886 70.0622C56.4293 70.2507 56.4881 70.4346 56.5424 70.6185C56.7233 71.2115 56.9268 71.7953 57.1303 72.3791C55.6287 72.9446 54.0999 73.4456 52.5576 73.8731C52.0465 74.0111 51.5308 74.1536 51.0197 74.2915C50.8026 73.5422 50.5855 72.7974 50.3684 72.0481C50.2237 71.5471 50.0428 71.0598 49.8664 70.5633C49.7081 70.1128 49.5362 69.5244 49.1924 69.1842C49.0748 69.0693 48.8351 69.0831 48.7944 69.2716C48.6949 69.7313 48.8351 70.2691 48.9346 70.7196C49.0522 71.2483 49.1743 71.7723 49.3281 72.2918C49.5543 73.0457 49.7759 73.7996 49.9975 74.5535C49.102 74.7787 48.1974 74.9764 47.2928 75.1281C46.5284 75.2614 46.8314 76.4199 47.5822 76.3095ZM92.3014 111.067C90.0082 101.634 85.3676 90.0039 82.1336 83.4486C80.8536 80.8514 79.7952 79.0539 79.1937 78.5023C71.9568 72.209 49.5362 82.7315 47.8853 88.7214C47.5506 89.9488 47.6863 92.3484 48.1657 95.4376C49.3598 103.05 52.6978 114.832 56.4067 123.442C58.5325 128.361 60.7759 132.241 62.8113 133.712C67.6826 137.238 90.9264 130.692 93.2693 123.608C94.1377 120.988 93.595 116.372 92.3014 111.067ZM83.5403 98.7842C82.2331 98.7888 81.021 99.4048 80.3244 100.54C79.9988 101.069 79.7862 101.671 79.5826 102.259C79.3972 102.793 79.2253 103.413 78.8183 103.827C77.787 104.861 76.0728 103.657 75.1094 103.096C73.8339 102.356 72.3322 101.662 70.8442 102.186C69.3742 102.701 68.4696 104.034 67.7911 105.381C67.2212 106.502 66.5247 108.41 65.0818 108.58C64.0234 108.704 62.9786 107.799 62.0831 107.367C60.7126 106.7 59.1793 106.571 57.9671 107.661C56.8454 108.672 56.4519 110.373 57.1123 111.752C57.5103 112.575 58.7089 111.895 58.338 111.067C57.9038 110.107 58.6094 108.714 59.6632 108.544C60.6447 108.387 61.6398 109.229 62.4359 109.688C63.4852 110.29 64.6793 110.713 65.8824 110.346C67.28 109.918 68.2208 108.658 68.8902 107.413C69.4737 106.314 69.9531 104.871 71.0567 104.19C72.1739 103.501 73.4585 104.342 74.4309 104.917C75.6567 105.643 77.0588 106.337 78.5152 106.061C79.8224 105.818 80.6094 104.802 81.0933 103.62C81.4914 102.646 81.6813 101.23 82.794 100.816C83.2237 100.655 83.7212 100.655 84.1509 100.784C84.7841 100.968 85.1369 101.575 85.7973 101.639C86.2632 101.685 86.6295 101.244 86.6612 100.807C86.7562 99.4277 84.5851 98.7796 83.5403 98.7842Z" fill="#EFE9CE"/>
<mask id="mask1_46_133" style="mask-type:luminance" maskUnits="userSpaceOnUse" x="0" y="63" width="374" height="244">
<path d="M0 63.5483H374V307H0V63.5483Z" fill="white"/>
</mask>
<g mask="url(#mask1_46_133)">
<path d="M369.246 118.055C369.17 118.942 369.097 119.829 369.02 120.717C368.993 121.071 368.971 121.425 368.934 121.779C368.894 122.16 368.799 122.537 368.749 122.919C368.659 123.581 368.672 124.376 368.383 124.987C368.22 125.327 367.618 125.438 367.492 124.992C367.288 124.288 367.419 123.484 367.437 122.758C367.46 122.041 367.46 121.337 367.514 120.615L367.736 117.747L365.899 117.375L366.754 117.549C366.397 119.567 366.062 121.59 365.786 123.622C365.578 125.125 365.429 126.628 365.212 128.127C365.013 129.469 365.076 130.949 364.678 132.246C364.538 132.696 363.896 132.558 363.823 132.14C363.588 130.766 363.905 129.203 363.968 127.81C364.036 126.357 364.249 124.904 364.443 123.461C364.719 121.392 365.09 119.338 365.497 117.292L363.059 116.795C362.453 120.197 361.869 123.604 361.318 127.019C360.838 129.952 360.318 132.876 359.852 135.808C359.391 138.695 359.133 141.679 358.387 144.506C358.147 145.407 356.98 144.906 356.971 144.152C356.935 141.113 357.505 138.015 357.885 135.004C358.242 132.149 358.599 129.313 359.061 126.472C359.603 123.089 360.209 119.714 360.852 116.345L362.186 116.616L358.256 115.816C357.821 117.623 357.405 119.434 357.057 121.259C356.767 122.758 356.483 124.261 356.229 125.764C355.994 127.134 355.926 128.596 355.496 129.915C355.32 130.471 354.474 130.311 354.42 129.768C354.271 128.279 354.61 126.697 354.791 125.222C354.967 123.764 355.202 122.316 355.487 120.873C355.845 119.071 356.261 117.278 356.731 115.504L354.809 115.113C354.619 116.11 354.425 117.113 354.235 118.115C354.103 118.795 353.954 119.475 353.796 120.147C353.723 120.455 353.601 120.74 353.511 121.038C353.416 121.379 353.33 121.687 353.149 121.99C352.945 122.335 352.443 122.123 352.389 121.788C352.326 121.443 352.376 121.098 352.403 120.753C352.43 120.441 352.416 120.137 352.457 119.829C352.547 119.172 352.647 118.51 352.765 117.857C352.945 116.841 353.126 115.821 353.307 114.805L353.714 114.888L352.199 114.58L259.093 95.5803C258.975 96.4767 258.857 97.3732 258.74 98.265C258.668 98.7936 258.604 99.3131 258.5 99.8325C258.446 100.104 258.419 100.407 258.319 100.665C258.27 100.793 258.179 100.904 258.125 101.028C258.07 101.156 258.034 101.29 257.989 101.418C257.772 102.048 256.754 101.947 256.7 101.267C256.686 101.11 256.686 100.95 256.664 100.798C256.646 100.678 256.587 100.573 256.573 100.453C256.533 100.187 256.587 99.8785 256.6 99.6073C256.632 99.0832 256.705 98.5592 256.768 98.0351C256.89 97.0835 257.012 96.132 257.13 95.1804L255.225 94.7942C254.977 97.4283 254.728 100.062 254.479 102.696C254.321 104.388 254.099 106.071 253.846 107.749C253.615 109.284 253.52 110.888 253.045 112.373C252.846 112.998 251.906 112.847 251.829 112.231C251.625 110.617 251.856 108.948 251.91 107.33C251.964 105.694 252.059 104.062 252.204 102.43C252.453 99.7314 252.697 97.0284 252.941 94.3254L254.85 94.7161L228.449 89.3284L197.959 220.655L192.084 245.975L185.788 273.083L301.894 299.534C302.971 292.533 304.056 285.527 305.295 278.554C306.168 273.626 307.037 268.698 307.892 263.77C308.724 258.975 309.552 254.103 310.759 249.391C311.008 248.425 312.415 248.917 312.342 249.809C311.953 254.764 311.112 259.761 310.325 264.666C309.552 269.507 308.819 274.357 308.032 279.197C306.897 286.18 305.671 293.145 304.432 300.114L301.903 299.534L334.731 307.014L373.959 119.016L369.246 118.055ZM204.604 262.57C204.378 263.14 204.215 263.733 203.998 264.303C203.943 264.455 203.889 264.597 203.844 264.749C203.803 264.896 203.794 264.924 203.763 265.053C203.677 265.393 203.64 265.765 203.414 266.045C203.265 266.239 202.908 266.275 202.767 266.032C202.663 265.852 202.605 265.687 202.596 265.475C202.587 265.292 202.591 265.108 202.596 264.924C202.605 264.602 202.627 264.28 202.645 263.963C202.686 263.274 202.912 262.589 203.147 261.945C203.301 261.527 203.794 261.375 204.183 261.517C204.586 261.674 204.758 262.179 204.604 262.57ZM205.802 270.61C206.309 267.861 206.802 265.108 207.349 262.368C207.888 259.665 208.697 257.049 209.561 254.443C209.692 254.047 210.249 254.245 210.221 254.622C210.036 257.362 209.787 260.083 209.267 262.782C208.747 265.475 208.168 268.16 207.603 270.845C207.363 271.994 205.59 271.787 205.802 270.61ZM214.559 264.588C213.695 269.397 212.501 274.164 211.162 278.862L208.421 278.237C209.62 273.442 210.701 268.62 211.854 263.816C212.51 261.081 213.184 258.336 213.804 255.597C214.36 253.128 214.649 250.549 215.414 248.136C215.577 247.616 216.477 247.681 216.495 248.26C216.567 250.986 215.979 253.68 215.717 256.383C215.45 259.132 215.047 261.871 214.559 264.588ZM219.779 262.35C219.72 262.841 219.72 263.333 219.661 263.821C219.53 264.864 219.358 265.935 219.154 266.965C218.752 269.057 218.241 271.13 217.757 273.203C217.635 273.732 217.228 274.141 216.658 274.063C216.16 273.998 215.703 273.474 215.812 272.946C216.232 270.859 216.644 268.771 217.133 266.698C217.377 265.664 217.707 264.643 217.983 263.618C218.11 263.145 218.322 262.717 218.467 262.248C218.639 261.711 218.783 261.159 219.032 260.653C219.213 260.281 219.887 260.267 219.901 260.768C219.919 261.301 219.842 261.821 219.779 262.35ZM222.565 266.887C222.348 268.151 221.959 269.387 221.438 270.546C221.262 270.932 220.846 271.157 220.439 270.996C220.063 270.845 219.833 270.367 220 269.98C220.452 268.928 220.778 267.838 220.977 266.707C221.081 266.142 221.212 265.586 221.276 265.011C221.312 264.694 221.362 264.409 221.429 264.101C221.488 263.825 221.466 263.536 221.601 263.283C221.732 263.039 222.094 262.897 222.289 263.182C222.479 263.462 222.488 263.784 222.565 264.11C222.642 264.432 222.66 264.703 222.66 265.039C222.669 265.646 222.669 266.289 222.565 266.887ZM230.163 212.78C230.096 212.757 230.136 212.647 230.204 212.67C230.281 212.693 230.236 212.803 230.163 212.78ZM237.17 112.649C237.129 113.132 237.057 113.61 237.025 114.092C237.007 114.35 236.993 114.607 236.98 114.865C236.971 115.154 236.894 115.352 236.88 115.577C236.853 116.083 236.88 116.575 236.717 117.057C236.631 117.296 236.387 117.444 236.152 117.453C235.881 117.462 235.7 117.296 235.573 117.076C235.311 116.607 235.283 116.032 235.211 115.504C235.188 115.352 235.216 115.467 235.166 115.338C235.094 115.159 235.094 114.984 235.08 114.796C235.071 114.557 235.062 114.313 235.053 114.074C235.048 113.886 235.048 113.692 235.044 113.504C235.044 113.467 235.03 113.182 235.039 113.357C235.017 113.053 235.03 112.759 235.053 112.46C235.089 111.946 235.148 111.431 235.216 110.916C235.302 110.314 235.808 109.914 236.401 109.955C236.962 109.992 237.427 110.594 237.346 111.159C237.274 111.651 237.215 112.152 237.17 112.649ZM240.462 114.092C239.969 117.756 239.481 121.503 238.626 125.093C238.499 125.622 237.785 125.553 237.798 125.001C237.862 121.31 238.327 117.563 238.766 113.899C239.205 110.213 239.702 106.535 240.186 102.853C240.331 101.768 241.978 101.956 241.846 103.041C241.394 106.728 240.96 110.415 240.462 114.092ZM247.505 112.254C246.704 119.6 245.962 126.987 244.732 134.269C244.601 135.05 243.362 135.091 243.33 134.25C242.823 120.533 244.696 106.645 247.089 93.1301L249.676 93.6542C248.907 99.8509 248.183 106.052 247.505 112.254ZM336.192 233.301C336.179 232.635 336.332 231.982 336.441 231.329C336.554 230.653 336.635 229.968 336.74 229.293C336.952 227.941 337.282 226.594 337.549 225.247C337.703 224.484 338.897 224.618 338.739 225.381C338.463 226.732 338.196 228.079 337.915 229.426C337.843 229.766 337.716 230.088 337.635 230.428C337.554 230.764 337.477 231.099 337.395 231.435C337.242 232.078 337.147 232.773 336.871 233.375C336.74 233.669 336.201 233.687 336.192 233.301ZM336.902 247.685C337.843 237.314 340.096 227.026 342.353 216.881C342.511 216.159 343.633 216.283 343.488 217.023C341.48 227.256 339.919 237.613 337.585 247.772C337.486 248.205 336.862 248.145 336.902 247.685ZM344.401 232.92C344.284 233.83 344.207 234.735 344.003 235.627C343.809 236.482 343.918 237.512 343.461 238.275C343.244 238.634 342.719 238.482 342.57 238.156C342.217 237.379 342.475 236.28 342.434 235.439C342.389 234.524 342.506 233.618 342.615 232.699C342.832 230.851 343.14 229.021 343.501 227.196C343.728 226.066 345.483 226.272 345.265 227.417C344.917 229.242 344.637 231.076 344.401 232.92ZM180.229 94.9551C182.658 94.238 184.992 93.3232 187.136 92.1556L185.44 75.349C172.436 68.6604 148.351 72.9908 144.461 78.6175L143.706 94.8264C145.031 95.2356 147.103 95.7045 149.667 96.1136C157.42 97.3502 169.767 98.0443 180.229 94.9551ZM162.164 88.6067C161.857 87.5586 161.789 86.414 161.744 85.3245C161.703 84.3269 161.712 83.3294 161.762 82.3318C161.558 82.318 161.35 82.3089 161.147 82.2951C158.225 82.0836 155.262 81.794 152.363 81.2378C152.327 81.9227 152.309 82.6031 152.295 83.288C152.286 83.6879 152.295 84.0833 152.29 84.4786C152.286 84.8648 152.358 85.3061 152.236 85.6738C152.128 85.9956 151.675 85.991 151.535 85.7014C151.368 85.3429 151.404 84.8648 151.372 84.474C151.341 84.0695 151.336 83.6604 151.332 83.2512C151.327 82.5157 151.359 81.7802 151.404 81.0447C150.495 80.8516 149.595 80.6356 148.708 80.3781C148.12 80.208 148.441 79.3254 149.02 79.4771C151.25 80.0609 153.543 80.3689 155.827 80.6402C163.539 81.5412 171.875 82.1342 178.863 78.0199C179.198 77.8176 179.492 78.0245 179.596 78.3141C179.632 78.3646 179.655 78.4198 179.659 78.4842C179.695 79.0772 179.736 79.6748 179.759 80.2724C179.772 80.562 179.781 80.8516 179.795 81.1412C179.8 81.2745 179.79 81.4078 179.795 81.5412C179.795 81.6975 179.809 81.8538 179.777 82.0055C179.741 82.1572 179.655 82.2859 179.496 82.318C179.361 82.341 179.175 82.2629 179.13 82.1204C179.035 81.8446 179.022 81.532 178.994 81.2424C178.967 80.9527 178.954 80.6631 178.931 80.3735C178.904 80.0242 178.886 79.6748 178.868 79.33C177.271 80.2126 175.566 80.8792 173.811 81.3665C173.829 82.102 173.87 82.8329 173.915 83.5684C173.96 84.3453 174.019 85.136 173.987 85.9129C173.974 86.2898 173.467 86.2485 173.381 85.9359C173.173 85.1728 173.092 84.3637 173.029 83.5776C172.974 82.9157 172.947 82.2537 172.929 81.5871C169.6 82.387 166.158 82.5433 162.743 82.387C162.725 83.3708 162.73 84.3545 162.766 85.3383C162.811 86.4094 162.924 87.4988 162.874 88.5653C162.861 89.0204 162.273 88.9745 162.164 88.6067ZM140.883 242.679L139.961 243.837L139.558 244.348L133.968 251.358L104.527 288.276C104.206 288.672 103.577 288.309 103.781 287.844L116.866 258.465L118.508 254.778L118.974 253.73L82.5454 271.787C82.0931 272.012 81.7177 271.383 82.1067 271.047L114.451 242.794L127.31 231.559C125.781 234.363 124.849 237.425 126.355 240.39C126.469 240.62 126.586 240.845 126.717 241.066C126.722 241.07 126.722 241.075 126.726 241.079C126.731 241.088 126.735 241.098 126.744 241.102C128.839 244.545 133.732 246.283 139.861 243.272C140.228 243.038 140.58 242.826 140.929 242.624L140.883 242.679ZM139.893 236.326C139.667 239.103 137.265 241.162 134.533 240.928C131.801 240.693 129.775 238.257 130.006 235.48C130.236 232.704 132.633 230.644 135.365 230.874C138.097 231.108 140.124 233.549 139.893 236.326ZM48.184 186.04L37.7041 195.652L35.9763 197.238L2.80898 158.931C-0.994888 154.403 -0.189788 147.466 4.582 143.688L7.2913 141.541C12.0631 137.762 18.8702 138.659 22.267 143.513L50.5133 183.907L48.184 186.04ZM48.1659 95.4378C47.6864 92.3487 47.5508 89.949 47.8855 88.7216C49.5364 82.7318 71.957 72.2093 79.1938 78.5026C79.7954 79.0542 80.8538 80.8516 82.1338 83.4489C80.1708 87.3058 75.7021 91.25 66.5656 94.2334C57.8497 97.0743 52.0376 96.9043 48.1659 95.4378ZM53.0327 75.3352C51.2325 75.7857 49.4188 76.0432 47.5824 76.3098C46.8316 76.4247 46.5331 75.2617 47.2929 75.133C48.1975 74.9813 49.1021 74.779 49.9977 74.5583C49.7761 73.8044 49.5545 73.0505 49.3283 72.2966C49.1745 71.7772 49.0524 71.2531 48.9348 70.7245C48.8353 70.2694 48.6951 69.7361 48.7946 69.2718C48.8353 69.0879 49.075 69.0742 49.1926 69.1845C49.5364 69.5293 49.7082 70.1131 49.8665 70.5682C50.0429 71.06 50.2239 71.5473 50.3686 72.053C50.5857 72.7977 50.8028 73.547 51.0199 74.2917C51.5355 74.1584 52.0466 74.0159 52.5577 73.8734C54.1001 73.4459 55.6289 72.9494 57.1305 72.384C56.927 71.8002 56.7234 71.2117 56.5425 70.6233C56.4883 70.4395 56.4295 70.251 56.3887 70.0671C56.3616 69.9568 56.3752 69.8602 56.3661 69.7499C56.3616 69.6672 56.3254 69.5752 56.3073 69.4925C56.2169 69.1293 56.0857 68.734 56.1219 68.3616C56.1445 68.1088 56.443 67.9663 56.6285 68.164C56.8908 68.4444 57.031 68.8397 57.1893 69.1891C57.2255 69.2626 57.2481 69.3546 57.2934 69.4235C57.3521 69.5155 57.4245 69.5798 57.4697 69.681C57.5602 69.8648 57.6281 70.0625 57.7004 70.251C57.9175 70.8026 58.1075 71.368 58.2975 71.9335C61.0384 70.8302 63.6799 69.4833 66.1992 67.9387C65.9911 67.3641 65.7831 66.7987 65.5886 66.2194C65.5253 66.0401 65.4393 65.8517 65.4077 65.6586C65.376 65.4931 65.3534 65.3322 65.3082 65.1667C65.1996 64.7806 65.0232 64.3714 65.1227 63.9715C65.186 63.7279 65.5026 63.6359 65.6971 63.7692C66.0183 63.9853 66.1494 64.4128 66.3123 64.7484C66.3982 64.9231 66.4887 65.061 66.5836 65.2219C66.6696 65.3782 66.7329 65.5621 66.8008 65.7276C67.0043 66.2102 67.1897 66.7021 67.3842 67.194C68.4019 66.5642 69.3156 68.2513 68.2798 68.8903C65.1272 70.8302 61.7892 72.4437 58.3201 73.7125C56.5878 74.3469 54.8238 74.8893 53.0327 75.3352Z" fill="#FFB923"/>
</g>
</svg>
