<svg width="1761" height="521" viewBox="0 0 1761 521" fill="none" xmlns="http://www.w3.org/2000/svg">
<rect x="1321" y="35" width="440" height="450" rx="45" fill="#CEFA90"/>
<path d="M1589 297.333V222.667C1589 216.8 1584.2 212 1578.33 212H1503.67C1497.8 212 1493 216.8 1493 222.667V297.333C1493 303.2 1497.8 308 1503.67 308H1578.33C1584.2 308 1589 303.2 1589 297.333ZM1522.33 268L1535.67 284.053L1554.33 260L1578.33 292H1503.67L1522.33 268Z" fill="#E6FE8C"/>
<rect y="35" width="440" height="450" rx="45" fill="#CEFA90"/>
<path d="M268 297.333V222.667C268 216.8 263.2 212 257.333 212H182.667C176.8 212 172 216.8 172 222.667V297.333C172 303.2 176.8 308 182.667 308H257.333C263.2 308 268 303.2 268 297.333ZM201.333 268L214.667 284.053L233.333 260L257.333 292H182.667L201.333 268Z" fill="#E6FE8C"/>
<g filter="url(#filter0_d_9_4373)">
<rect x="1016" y="20" width="468" height="479" rx="45" fill="#CEFA90" shape-rendering="crispEdges"/>
<path d="M1298 296.833V222.167C1298 216.3 1293.2 211.5 1287.33 211.5H1212.67C1206.8 211.5 1202 216.3 1202 222.167V296.833C1202 302.7 1206.8 307.5 1212.67 307.5H1287.33C1293.2 307.5 1298 302.7 1298 296.833ZM1231.33 267.5L1244.67 283.553L1263.33 259.5L1287.33 291.5H1212.67L1231.33 267.5Z" fill="#E6FE8C"/>
</g>
<g filter="url(#filter1_d_9_4373)">
<rect x="277" y="18.0005" width="468" height="479" rx="45" fill="#CEFA90" shape-rendering="crispEdges"/>
<path d="M559 294.834V220.167C559 214.3 554.2 209.5 548.333 209.5H473.667C467.8 209.5 463 214.3 463 220.167V294.834C463 300.7 467.8 305.5 473.667 305.5H548.333C554.2 305.5 559 300.7 559 294.834ZM492.333 265.5L505.667 281.554L524.333 257.5L548.333 289.5H473.667L492.333 265.5Z" fill="#E6FE8C"/>
</g>
<rect x="643" width="509" height="521" rx="45" fill="#B9F465"/>
<path d="M945.5 297.833V223.167C945.5 217.3 940.7 212.5 934.833 212.5H860.167C854.3 212.5 849.5 217.3 849.5 223.167V297.833C849.5 303.7 854.3 308.5 860.167 308.5H934.833C940.7 308.5 945.5 303.7 945.5 297.833ZM878.833 268.5L892.167 284.553L910.833 260.5L934.833 292.5H860.167L878.833 268.5Z" fill="#E6FE8C"/>
<g filter="url(#filter2_d_9_4373)">
<path fill-rule="evenodd" clip-rule="evenodd" d="M576 293C557.775 293 543 278.225 543 260C543 241.775 557.775 227 576 227C594.225 227 609 241.775 609 260C609 278.225 594.225 293 576 293ZM589.504 241.446C590.854 240.063 590.828 237.847 589.446 236.496C588.063 235.146 585.847 235.172 584.496 236.554L563.496 258.054L561.107 260.5L563.496 262.946L584.496 284.446C585.847 285.828 588.063 285.854 589.446 284.504C590.828 283.153 590.854 280.937 589.504 279.554L570.893 260.5L589.504 241.446Z" fill="white"/>
</g>
<g filter="url(#filter3_d_9_4373)">
<path fill-rule="evenodd" clip-rule="evenodd" d="M1217 293C1235.23 293 1250 278.225 1250 260C1250 241.775 1235.23 227 1217 227C1198.77 227 1184 241.775 1184 260C1184 278.225 1198.77 293 1217 293ZM1203.5 241.446C1202.15 240.063 1202.17 237.847 1203.55 236.496C1204.94 235.146 1207.15 235.172 1208.5 236.554L1229.5 258.054L1231.89 260.5L1229.5 262.946L1208.5 284.446C1207.15 285.828 1204.94 285.854 1203.55 284.504C1202.17 283.153 1202.15 280.937 1203.5 279.554L1222.11 260.5L1203.5 241.446Z" fill="white"/>
</g>
<defs>
<filter id="filter0_d_9_4373" x="941" y="-80" width="668" height="679" filterUnits="userSpaceOnUse" color-interpolation-filters="sRGB">
<feFlood flood-opacity="0" result="BackgroundImageFix"/>
<feColorMatrix in="SourceAlpha" type="matrix" values="0 0 0 0 0 0 0 0 0 0 0 0 0 0 0 0 0 0 127 0" result="hardAlpha"/>
<feOffset dx="25"/>
<feGaussianBlur stdDeviation="50"/>
<feComposite in2="hardAlpha" operator="out"/>
<feColorMatrix type="matrix" values="0 0 0 0 0 0 0 0 0 0 0 0 0 0 0 0 0 0 0.25 0"/>
<feBlend mode="normal" in2="BackgroundImageFix" result="effect1_dropShadow_9_4373"/>
<feBlend mode="normal" in="SourceGraphic" in2="effect1_dropShadow_9_4373" result="shape"/>
</filter>
<filter id="filter1_d_9_4373" x="133" y="-77.9995" width="668" height="679" filterUnits="userSpaceOnUse" color-interpolation-filters="sRGB">
<feFlood flood-opacity="0" result="BackgroundImageFix"/>
<feColorMatrix in="SourceAlpha" type="matrix" values="0 0 0 0 0 0 0 0 0 0 0 0 0 0 0 0 0 0 127 0" result="hardAlpha"/>
<feOffset dx="-44" dy="4"/>
<feGaussianBlur stdDeviation="50"/>
<feComposite in2="hardAlpha" operator="out"/>
<feColorMatrix type="matrix" values="0 0 0 0 0 0 0 0 0 0 0 0 0 0 0 0 0 0 0.25 0"/>
<feBlend mode="normal" in2="BackgroundImageFix" result="effect1_dropShadow_9_4373"/>
<feBlend mode="normal" in="SourceGraphic" in2="effect1_dropShadow_9_4373" result="shape"/>
</filter>
<filter id="filter2_d_9_4373" x="515.9" y="200.9" width="124.2" height="124.2" filterUnits="userSpaceOnUse" color-interpolation-filters="sRGB">
<feFlood flood-opacity="0" result="BackgroundImageFix"/>
<feColorMatrix in="SourceAlpha" type="matrix" values="0 0 0 0 0 0 0 0 0 0 0 0 0 0 0 0 0 0 127 0" result="hardAlpha"/>
<feOffset dx="2" dy="3"/>
<feGaussianBlur stdDeviation="14.55"/>
<feComposite in2="hardAlpha" operator="out"/>
<feColorMatrix type="matrix" values="0 0 0 0 0 0 0 0 0 0 0 0 0 0 0 0 0 0 0.3 0"/>
<feBlend mode="normal" in2="BackgroundImageFix" result="effect1_dropShadow_9_4373"/>
<feBlend mode="normal" in="SourceGraphic" in2="effect1_dropShadow_9_4373" result="shape"/>
</filter>
<filter id="filter3_d_9_4373" x="1156.9" y="200.9" width="124.2" height="124.2" filterUnits="userSpaceOnUse" color-interpolation-filters="sRGB">
<feFlood flood-opacity="0" result="BackgroundImageFix"/>
<feColorMatrix in="SourceAlpha" type="matrix" values="0 0 0 0 0 0 0 0 0 0 0 0 0 0 0 0 0 0 127 0" result="hardAlpha"/>
<feOffset dx="2" dy="3"/>
<feGaussianBlur stdDeviation="14.55"/>
<feComposite in2="hardAlpha" operator="out"/>
<feColorMatrix type="matrix" values="0 0 0 0 0 0 0 0 0 0 0 0 0 0 0 0 0 0 0.3 0"/>
<feBlend mode="normal" in2="BackgroundImageFix" result="effect1_dropShadow_9_4373"/>
<feBlend mode="normal" in="SourceGraphic" in2="effect1_dropShadow_9_4373" result="shape"/>
</filter>
</defs>
</svg>
