<svg width="382" height="340" viewBox="0 0 382 340" fill="none" xmlns="http://www.w3.org/2000/svg">
<path d="M89.6517 315.658C75.4354 294.486 69.1562 269.159 61.3077 244.893C54.5006 223.795 45.7998 202.322 30.6863 186.435C76.1791 206.576 112.357 246.917 127.201 294.426C129.255 301.005 130.923 307.9 130.037 314.708C129.167 321.536 125.176 328.337 118.785 330.845C107.75 335.192 96.2579 325.505 89.6517 315.658Z" fill="#3377DC"/>
<path d="M117.293 174.596C90.1836 182.941 60.3039 181.961 33.7495 171.963C70.2861 160.916 102.802 137.003 124.029 105.249C131.624 93.8684 138.005 81.3453 148.306 72.323C158.642 63.3228 174.542 58.7433 186.087 66.0718C194.735 71.5422 198.805 82.4492 198.257 92.6599C197.695 102.866 193.123 112.437 187.626 121.047C171.405 146.385 146.042 165.691 117.293 174.596Z" fill="#EF3062"/>
<path d="M102.031 207.006L102.063 206.835C121.989 210.281 142.571 206.34 161.971 200.533C182.089 194.496 201.648 186.397 222.185 181.917C232.676 179.633 245.303 178.967 252.48 186.975C260.683 196.162 256.402 211.13 248.574 220.621C231.311 241.522 200.975 247.869 174.365 242.698C147.779 237.514 124.146 222.673 102.031 207.006Z" fill="#00ADC7"/>
<path d="M317.76 202.521C310.586 206.423 301.619 203.77 297.715 196.59C293.816 189.421 296.463 180.452 303.637 176.551C310.802 172.654 319.764 175.31 323.663 182.48C327.567 189.659 324.925 198.625 317.76 202.521Z" fill="#FFD36B"/>
<path d="M275.425 144.196C262.352 151.305 245.962 146.446 238.853 133.374C231.737 120.288 236.592 103.934 249.665 96.8255C262.728 89.7218 279.103 94.5299 286.219 107.616C293.328 120.688 288.488 137.092 275.425 144.196Z" fill="#FDB50E"/>
<mask id="mask0_102_1465" style="mask-type:luminance" maskUnits="userSpaceOnUse" x="321" y="119" width="36" height="35">
<path d="M321.698 131.376L344.059 119.216L356.161 141.472L333.801 153.632L321.698 131.376Z" fill="white"/>
</mask>
<g mask="url(#mask0_102_1465)">
<path d="M345.087 146.967C339.125 150.209 331.651 147.989 328.394 141.999C325.147 136.028 327.351 128.557 333.313 125.315C339.298 122.061 346.78 124.264 350.027 130.235C353.284 136.225 351.072 143.712 345.087 146.967Z" fill="#5D9AF5"/>
</g>
</svg>
