<svg width="382" height="340" viewBox="0 0 382 340" fill="none" xmlns="http://www.w3.org/2000/svg">
<path d="M291.866 315.658C306.082 294.486 312.361 269.159 320.21 244.893C327.017 223.795 335.718 202.322 350.831 186.435C305.339 206.576 269.16 246.917 254.317 294.426C252.263 301.005 250.594 307.9 251.481 314.708C252.351 321.536 256.342 328.337 262.732 330.845C273.767 335.192 285.26 325.505 291.866 315.658Z" fill="#3377DC"/>
<path d="M264.225 174.596C291.334 182.941 321.214 181.961 347.768 171.963C311.231 160.916 278.715 137.003 257.489 105.249C249.893 93.8684 243.512 81.3453 233.212 72.323C222.875 63.3228 206.975 58.7433 195.431 66.0718C186.782 71.5422 182.713 82.4492 183.261 92.6599C183.823 102.866 188.395 112.437 193.892 121.047C210.112 146.385 235.476 165.691 264.225 174.596Z" fill="#EF3062"/>
<path d="M279.486 207.006L279.455 206.835C259.528 210.281 238.947 206.34 219.546 200.533C199.429 194.496 179.87 186.397 159.333 181.917C148.842 179.633 136.214 178.967 129.038 186.975C120.834 196.162 125.115 211.13 132.943 220.621C150.207 241.522 180.543 247.869 207.152 242.698C233.739 237.514 257.372 222.673 279.486 207.006Z" fill="#00ADC7"/>
<path d="M63.7576 202.521C70.932 206.423 79.8984 203.77 83.8024 196.59C87.7013 189.421 85.055 180.452 77.8805 176.551C70.7152 172.654 61.7534 175.31 57.8544 182.48C53.9504 189.659 56.5922 198.625 63.7576 202.521Z" fill="#FFD36B"/>
<path d="M106.093 144.196C119.165 151.305 135.556 146.446 142.665 133.374C149.781 120.288 144.925 103.934 131.853 96.8255C118.79 89.7218 102.415 94.5299 95.2986 107.616C88.1899 120.688 93.0297 137.092 106.093 144.196Z" fill="#FDB50E"/>
<mask id="mask0_102_1477" style="mask-type:luminance" maskUnits="userSpaceOnUse" x="25" y="119" width="35" height="35">
<path d="M59.8193 131.376L37.4586 119.216L25.3561 141.472L47.7168 153.632L59.8193 131.376Z" fill="white"/>
</mask>
<g mask="url(#mask0_102_1477)">
<path d="M36.4305 146.967C42.3925 150.209 49.8663 147.989 53.1234 141.999C56.3704 136.028 54.1666 128.557 48.2046 125.315C42.2198 122.061 34.7372 124.264 31.4901 130.235C28.2331 136.225 30.4457 143.712 36.4305 146.967Z" fill="#5D9AF5"/>
</g>
</svg>
