<svg width="1999" height="128" viewBox="0 0 1999 128" fill="none" xmlns="http://www.w3.org/2000/svg">
<mask id="mask0_210_143" style="mask-type:luminance" maskUnits="userSpaceOnUse" x="169" y="44" width="58" height="84">
<path d="M169.061 44.1067H226.556V128H169.061V44.1067Z" fill="white"/>
</mask>
<g mask="url(#mask0_210_143)">
<path fill-rule="evenodd" clip-rule="evenodd" d="M173.104 46.1873L224.075 48.4933L221.628 128L196.757 110.307L170.681 125.694L173.104 46.1873Z" fill="#FDB50E"/>
</g>
<path fill-rule="evenodd" clip-rule="evenodd" d="M28.6178 3.28638L75.262 26.3603L46.6206 99.2799L29.3507 72.6011L0 76.2059L28.6178 3.28638Z" fill="#EF3062"/>
<path fill-rule="evenodd" clip-rule="evenodd" d="M95.4163 32.0862L144.921 45.8033L128.124 123.136L106.953 100.235L78.6191 109.472L95.4163 32.0862Z" fill="#3377DC"/>
<path fill-rule="evenodd" clip-rule="evenodd" d="M366.111 3.28638L319.49 26.3603L348.143 99.2799L365.366 72.6011L394.717 76.2059L366.111 3.28638Z" fill="#3377DC"/>
<path fill-rule="evenodd" clip-rule="evenodd" d="M299.348 32.0862L249.808 45.8033L266.605 123.136L287.764 100.235L316.145 109.472L299.348 32.0862Z" fill="#EF3062"/>
<mask id="mask1_210_143" style="mask-type:luminance" maskUnits="userSpaceOnUse" x="538" y="44" width="55" height="84">
<path d="M538.241 44.1067H592.711V128H538.241V44.1067Z" fill="white"/>
</mask>
<g mask="url(#mask1_210_143)">
<path fill-rule="evenodd" clip-rule="evenodd" d="M540.911 46.1873L591.894 48.4933L589.482 128L564.612 110.307L538.5 125.694L540.911 46.1873Z" fill="#3377DC"/>
</g>
<mask id="mask2_210_143" style="mask-type:luminance" maskUnits="userSpaceOnUse" x="904" y="44" width="58" height="85">
<path d="M904.398 44.1068H961.894V128H904.398V44.1068Z" fill="white"/>
</mask>
<g mask="url(#mask2_210_143)">
<path fill-rule="evenodd" clip-rule="evenodd" d="M908.772 46.1874L959.719 48.4934L957.296 128L932.389 110.307L906.36 125.694L908.772 46.1874Z" fill="#EF3062"/>
</g>
<path fill-rule="evenodd" clip-rule="evenodd" d="M396.466 3.28638L443.086 26.3603L414.48 99.2799L397.21 72.6011L367.824 76.2059L396.466 3.28638Z" fill="#FDB50E"/>
<path fill-rule="evenodd" clip-rule="evenodd" d="M463.241 32.0862L512.734 45.8033L495.973 123.136L474.814 100.235L446.479 109.472L463.241 32.0862Z" fill="#EF3062"/>
<path fill-rule="evenodd" clip-rule="evenodd" d="M733.921 3.28638L687.312 26.3603L715.954 99.2799L733.188 72.6011L762.575 76.2059L733.921 3.28638Z" fill="#EF3062"/>
<path fill-rule="evenodd" clip-rule="evenodd" d="M667.158 32.0862L617.665 45.8033L634.462 123.136L655.621 100.235L683.955 109.472L667.158 32.0862Z" fill="#FDB50E"/>
<path fill-rule="evenodd" clip-rule="evenodd" d="M764.289 3.28638L810.898 26.3603L782.292 99.2799L765.034 72.6011L735.636 76.2059L764.289 3.28638Z" fill="#3377DC"/>
<path fill-rule="evenodd" clip-rule="evenodd" d="M831.052 32.0862L880.557 45.8033L863.795 123.136L842.624 100.235L814.29 109.472L831.052 32.0862Z" fill="#FDB50E"/>
<path fill-rule="evenodd" clip-rule="evenodd" d="M874.823 60.594L869.918 63.364L869.173 63.7616L868.665 63.0194L864.456 56.3795L858.653 60.1964L857.943 60.6338L857.4 59.8916L852.447 52.9999L845.863 56.6843L845.082 57.1217L844.621 56.3397L840.331 49.6601L833.817 53.3842L833.037 53.7818L832.576 53.0397L830.082 49.1432L830.626 46.7974L833.593 51.3963L840.13 47.7516L840.91 47.3142L841.383 48.0564L845.626 54.7361L852.175 51.0517L852.884 50.6541L853.392 51.3565L858.333 58.2482L864.185 54.3915L864.929 53.9144L865.473 54.7361L869.717 61.376L875.331 58.2084L874.823 60.594Z" fill="#FDB50E"/>
<path fill-rule="evenodd" clip-rule="evenodd" d="M872.908 69.1821L868.003 71.9123L867.258 72.3497L866.797 71.5677L862.541 64.9676L856.773 68.7448L856.04 69.2617L855.496 68.4797L850.508 61.5482L843.912 65.2724L843.179 65.7098L842.706 64.9278L838.463 58.2879L831.867 61.9326L831.134 62.3699L830.661 61.588L828.167 57.7313L828.711 55.3457L831.678 59.9844L838.226 56.2999L838.971 55.8626L839.468 56.6445L843.723 63.3242L850.272 59.6398L850.969 59.2024L851.477 59.8916L856.43 66.7965L862.234 62.9796L863.05 62.4495L863.523 63.2844L867.766 69.9641L873.464 66.7965L872.908 69.1821Z" fill="#FDB50E"/>
<path fill-rule="evenodd" clip-rule="evenodd" d="M871.004 77.7698L865.354 80.9373L864.845 80.1554L860.637 73.5155L854.833 77.3325L854.124 77.8096L853.58 77.0674L848.627 70.1359L842.043 73.8601L841.263 74.2577L840.802 73.5155L836.511 66.8359L829.998 70.5203L829.218 70.9576L828.757 70.1757L826.263 66.319L826.806 63.8804L829.762 68.572L836.31 64.8876L837.09 64.4503L837.563 65.2322L841.807 71.8721L848.355 68.1744L849.065 67.7901L849.561 68.5323L854.514 75.3842L860.365 71.5673L861.098 71.0504L861.654 71.8721L865.897 78.4987L871.512 75.3445L871.004 77.7698Z" fill="#FDB50E"/>
<path fill-rule="evenodd" clip-rule="evenodd" d="M869.089 86.3186L864.183 89.0886L863.439 89.4862L862.978 88.744L858.722 82.1041L852.954 85.921L852.221 86.3584L851.665 85.656L846.677 78.7245L840.093 82.4089L839.36 82.8463L838.887 82.0643L834.643 75.4244L828.048 79.1089L827.315 79.5065L826.806 78.7643L824.348 74.8678L824.891 72.522L827.858 77.1209L834.407 73.4762L835.14 73.0389L835.648 73.781L839.904 80.4607L846.452 76.7763L847.15 76.3787L847.658 77.0678L852.611 83.9728L858.415 80.1161L859.23 79.639L859.703 80.4607L863.982 87.0873L869.644 83.933L869.089 86.3186Z" fill="#FDB50E"/>
<path fill-rule="evenodd" clip-rule="evenodd" d="M867.187 94.9067L861.536 98.0743L861.028 97.2923L856.82 90.6922L851.004 94.4694L850.307 94.9863L849.763 94.2043L844.81 87.2728L838.226 90.997L837.446 91.4344L836.973 90.6524L832.694 84.0125L826.181 87.6572L825.401 88.0946L824.94 87.3126L822.434 83.4559L822.989 81.0703L825.909 85.709L832.493 82.0245L833.238 81.5872L833.746 82.3691L837.99 89.0488L844.538 85.3644L845.236 84.927L845.744 85.6559L850.661 92.5211L856.548 88.7042L857.281 88.1741L857.825 89.009L862.08 95.6887L867.695 92.5211L867.187 94.9067Z" fill="#FDB50E"/>
<path fill-rule="evenodd" clip-rule="evenodd" d="M865.272 103.495L860.367 106.225L859.622 106.662L859.161 105.88L854.906 99.2406L849.137 103.058L848.393 103.535L847.849 102.792L842.86 95.861L836.276 99.5852L835.532 99.9828L835.035 99.2406L830.815 92.5609L824.267 96.2453L823.498 96.6827L822.99 95.9007L820.531 92.044L821.075 89.6584L824.042 94.2971L830.591 90.6127L831.323 90.1753L831.832 90.9573L836.087 97.5972L842.624 93.8995L843.333 93.5152L843.842 94.2573L848.783 101.109L854.598 97.2923L855.414 96.8152L855.887 97.5972L860.166 104.224L865.816 101.056L865.272 103.495Z" fill="#FDB50E"/>
<mask id="mask3_210_143" style="mask-type:luminance" maskUnits="userSpaceOnUse" x="1052" y="0" width="79" height="102">
<path d="M1052.68 0H1131V101.785H1052.68V0Z" fill="white"/>
</mask>
<g mask="url(#mask3_210_143)">
<path fill-rule="evenodd" clip-rule="evenodd" d="M1101.78 3.28699L1055.17 26.361L1083.78 99.2805L1101.05 72.6017L1130.38 76.2066L1101.78 3.28699Z" fill="#FDB50E"/>
</g>
<path fill-rule="evenodd" clip-rule="evenodd" d="M1034.98 32.0862L985.477 45.8033L1002.27 123.136L1023.44 100.235L1051.78 109.472L1034.98 32.0862Z" fill="#3377DC"/>
<mask id="mask4_210_143" style="mask-type:luminance" maskUnits="userSpaceOnUse" x="1300" y="43" width="58" height="85">
<path d="M1300.06 43.8203H1357.56V127.714H1300.06V43.8203Z" fill="white"/>
</mask>
<g mask="url(#mask4_210_143)">
<path fill-rule="evenodd" clip-rule="evenodd" d="M1304.1 45.9009L1355.07 48.207L1352.63 127.713L1327.76 110.02L1301.68 125.407L1304.1 45.9009Z" fill="#FDB50E"/>
</g>
<path fill-rule="evenodd" clip-rule="evenodd" d="M1159.62 3L1206.26 26.074L1177.62 98.9935L1160.35 72.3147L1131 75.9196L1159.62 3Z" fill="#EF3062"/>
<path fill-rule="evenodd" clip-rule="evenodd" d="M1226.42 31.7998L1275.92 45.517L1259.12 122.85L1237.95 99.9482L1209.62 109.186L1226.42 31.7998Z" fill="#3377DC"/>
<path fill-rule="evenodd" clip-rule="evenodd" d="M1497.11 3L1450.49 26.074L1479.14 98.9935L1496.37 72.3147L1525.72 75.9196L1497.11 3Z" fill="#3377DC"/>
<path fill-rule="evenodd" clip-rule="evenodd" d="M1430.35 31.7998L1380.81 45.517L1397.6 122.85L1418.76 99.9482L1447.15 109.186L1430.35 31.7998Z" fill="#EF3062"/>
<mask id="mask5_210_143" style="mask-type:luminance" maskUnits="userSpaceOnUse" x="1669" y="43" width="55" height="85">
<path d="M1669.24 43.8203H1723.71V127.714H1669.24V43.8203Z" fill="white"/>
</mask>
<g mask="url(#mask5_210_143)">
<path fill-rule="evenodd" clip-rule="evenodd" d="M1671.91 45.9009L1722.89 48.207L1720.48 127.713L1695.61 110.02L1669.5 125.407L1671.91 45.9009Z" fill="#3377DC"/>
</g>
<path fill-rule="evenodd" clip-rule="evenodd" d="M1527.47 3L1574.09 26.074L1545.48 98.9935L1528.21 72.3147L1498.82 75.9196L1527.47 3Z" fill="#FDB50E"/>
<path fill-rule="evenodd" clip-rule="evenodd" d="M1594.24 31.7998L1643.73 45.517L1626.97 122.85L1605.81 99.9482L1577.48 109.186L1594.24 31.7998Z" fill="#EF3062"/>
<path fill-rule="evenodd" clip-rule="evenodd" d="M1864.92 3L1818.31 26.074L1846.95 98.9935L1864.19 72.3147L1893.57 75.9196L1864.92 3Z" fill="#EF3062"/>
<path fill-rule="evenodd" clip-rule="evenodd" d="M1798.16 31.7998L1748.67 45.517L1765.46 122.85L1786.62 99.9482L1814.96 109.186L1798.16 31.7998Z" fill="#FDB50E"/>
<path fill-rule="evenodd" clip-rule="evenodd" d="M1895.29 3L1941.9 26.074L1913.29 98.9935L1896.03 72.3147L1866.64 75.9196L1895.29 3Z" fill="#3377DC"/>
<path fill-rule="evenodd" clip-rule="evenodd" d="M1998.19 94.6204L1992.54 97.7879L1992.03 97.006L1987.82 90.4058L1982 94.183L1981.31 94.6999L1980.76 93.9179L1975.81 86.9865L1969.23 90.7106L1968.45 91.148L1967.97 90.3661L1963.69 83.7262L1957.18 87.3708L1956.4 87.8082L1955.94 87.0262L1953.43 83.1695L1953.99 80.7839L1956.91 85.4226L1963.49 81.7382L1964.24 81.3008L1964.75 82.0828L1968.99 88.7624L1975.54 85.078L1976.24 84.6406L1976.74 85.3696L1981.66 92.2348L1987.55 88.4178L1988.28 87.8877L1988.82 88.7227L1993.08 95.4023L1998.69 92.2348L1998.19 94.6204Z" fill="#FDB50E"/>
</svg>
