<svg width="77" height="64" viewBox="0 0 77 64" fill="none" xmlns="http://www.w3.org/2000/svg">
<path d="M24.1941 20.7132C14.1995 28.0909 19.7731 38.7849 26.1327 44.7578C28.2885 46.7826 30.0424 49.0644 31.0641 51.5877C31.4065 52.4352 32.2352 53.1045 33.2969 53.3931L39.0746 54.9621C42.099 55.7831 45.4435 53.3202 46.236 50.8639C46.6583 49.5562 47.4434 48.2464 48.7769 47.1169C53.5329 43.0893 60.4317 36.4405 57.4825 26.9784C54.8108 18.4115 38.4315 10.204 24.1941 20.7132Z" fill="#FFB74B"/>
<path d="M32.6561 39.4454C34.4295 42.5776 34.3488 52.4867 34.268 52.743C37.9225 54.3621 44.9725 56.6299 43.9406 52.743C42.6507 47.8841 47.4874 35.9929 47.0837 34.5866C46.681 33.1802 42.1672 32.6685 39.5075 31.7732C36.8479 30.8786 35.0745 32.413 31.4478 33.9475C27.8203 35.4812 30.8836 36.3125 32.6561 39.4454Z" fill="#F99A42"/>
<path fill-rule="evenodd" clip-rule="evenodd" d="M38.1437 30.6907C38.8183 31.0669 39.4373 31.7384 39.8828 32.7317C40.1528 33.3333 40.2094 33.8766 40.0517 34.3552C39.9542 34.6512 39.7798 34.9082 39.5487 35.1283C40.2688 35.4104 41.0029 35.5606 41.7174 35.5937C42.0357 35.6084 42.3531 35.5996 42.6658 35.5687C42.7122 35.2469 42.7651 34.9745 42.8236 34.7602C43.3915 32.6883 45.1585 31.6979 46.5208 31.7495C46.8641 31.7627 47.2001 31.8452 47.4664 32.019C47.7402 32.1971 47.9072 32.4512 47.9406 32.7494C48.0046 33.3185 47.5833 33.9959 46.7092 34.7234C45.8155 35.4656 44.7297 35.9758 43.5567 36.2144C43.476 36.9551 43.4147 37.899 43.3711 38.9726C43.296 40.8354 43.2755 43.0531 43.296 45.2039C43.3164 47.3546 43.3767 49.4332 43.4621 51.0169C43.5048 51.8092 43.553 52.4741 43.6059 52.9608C43.6328 53.2045 43.6588 53.3981 43.6857 53.5388C43.6987 53.6095 43.7117 53.6617 43.7219 53.6978C43.7266 53.7133 43.7303 53.7221 43.7321 53.7265C43.8435 53.9099 43.7553 54.1315 43.528 54.2302C43.2932 54.3318 42.999 54.2633 42.8719 54.077C42.8236 54.0071 42.7967 53.9283 42.78 53.8731C42.7614 53.809 42.7447 53.7339 42.7289 53.6529C42.6983 53.4887 42.6696 53.2767 42.6426 53.0263C42.5879 52.5242 42.5387 51.8468 42.4951 51.0501C42.4097 49.4553 42.3494 47.3664 42.329 45.2098C42.3086 43.0524 42.329 40.8236 42.4051 38.9483C42.4441 37.9741 42.4988 37.0854 42.5721 36.3484C42.2714 36.3698 41.9671 36.3734 41.6608 36.3594C40.6799 36.3138 39.6925 36.0841 38.7506 35.6607C37.8309 36.1003 36.5726 36.2821 35.3179 36.316C35.0664 36.3226 34.8131 36.3234 34.5588 36.3189C34.8205 37.0494 35.046 38.0684 35.2353 39.2428C35.4636 40.6543 35.6455 42.3198 35.7708 44.0368C36.0232 47.4665 36.0566 51.1296 35.7986 53.4158C35.7745 53.6271 35.5397 53.7825 35.2734 53.7641C35.007 53.7449 34.8112 53.5587 34.8344 53.3473C35.0868 51.1164 35.0562 47.4952 34.8057 44.081C34.6804 42.3765 34.5013 40.7294 34.2767 39.3407C34.0595 38.0021 33.8053 36.9293 33.5287 36.2718C32.6982 36.2122 31.8917 36.1003 31.1837 35.9537C30.5777 35.8286 30.0292 35.6747 29.5931 35.4994C29.181 35.3338 28.782 35.1144 28.5973 34.822C28.2874 34.3309 28.3904 33.8104 28.7504 33.4209C29.1049 33.0365 29.6989 32.7847 30.3819 32.7641C31.7033 32.7258 33.1826 33.5247 34.2164 35.5414C34.5746 35.5554 34.9328 35.5591 35.2854 35.5495C36.2682 35.523 37.1535 35.4 37.8282 35.1733C37.2983 34.85 36.7897 34.4591 36.3137 33.9989C35.5221 33.2361 35.1537 32.5049 35.1351 31.8798C35.1165 31.251 35.4627 30.7194 36.0872 30.4713C36.7081 30.2253 37.4681 30.313 38.1437 30.6907ZM38.6996 34.7293C38.1316 34.4156 37.5795 34.0121 37.0607 33.5114C36.3601 32.8363 36.1141 32.2649 36.1021 31.8621C36.0909 31.4645 36.2988 31.2451 36.5206 31.1575C36.7461 31.0677 37.1247 31.0596 37.5869 31.318C38.0509 31.5764 38.5706 32.0955 38.9715 32.9887C39.1951 33.4871 39.2118 33.8693 39.1162 34.1616C39.0448 34.3773 38.9056 34.5651 38.6996 34.7293ZM33.1204 35.4656C32.1998 33.8973 31.0983 33.5114 30.4181 33.5313C30.0125 33.5431 29.6998 33.6904 29.5309 33.8737C29.3666 34.0519 29.3286 34.2661 29.4622 34.4789C29.4993 34.5378 29.6525 34.663 30.0311 34.8154C30.3856 34.9583 30.8635 35.0945 31.4277 35.2116C31.9446 35.3183 32.5209 35.4052 33.1204 35.4656ZM43.669 35.389C44.5274 35.163 45.3283 34.7595 46.0094 34.1932C46.827 33.5144 47.0033 33.049 46.9773 32.8171C46.9653 32.7148 46.9161 32.6536 46.8521 32.6117C46.7806 32.5653 46.659 32.5233 46.4744 32.516C45.7264 32.488 44.2694 33.0954 43.7683 34.9237C43.733 35.0525 43.6996 35.2086 43.669 35.389Z" fill="#33342C"/>
<path d="M45.4775 51.9815L32.2748 52.1553C31.705 52.1627 31.1463 52.3791 30.9273 52.7966C30.2889 54.013 30.9199 55.4657 31.6085 56.0673C31.6085 56.0673 30.7065 57.4287 30.803 58.3049C30.9255 59.4138 32.0122 60.9894 32.0122 60.9894C32.0122 62.2043 32.8177 62.5916 33.6241 63.0997C35.8161 64.4802 43.9407 63.8028 45.1499 62.8434C46.3591 61.8848 46.3591 59.0721 46.3591 59.0721C46.3591 59.0721 46.8426 57.9625 46.8426 57.2181C46.8426 56.0032 46.3591 55.1079 46.3591 55.1079C46.3591 55.1079 46.8806 54.2133 46.8426 53.5734C46.7934 52.7628 46.4797 52.5912 46.2394 52.2797C46.0798 52.0728 45.7828 51.9779 45.4775 51.9815Z" fill="#B2C1A2"/>
<path d="M36.3289 6.51952C36.3521 6.80078 36.3734 7.09825 36.3947 7.40307C36.5349 9.36458 36.5349 11.6221 37.3432 11.8113C38.2777 12.0307 38.0401 7.79626 37.8127 5.22216C37.7877 4.94678 37.7654 4.65079 37.7413 4.34449C37.5872 2.34617 37.5594 -0.0895059 36.7288 0.00253159C35.9307 0.0908875 36.1201 3.97413 36.3289 6.51952Z" fill="#FFB74B"/>
<path d="M19.6243 11.0564C19.8349 11.2832 20.0558 11.5247 20.2813 11.7721C21.7327 13.3639 23.4031 15.4513 24.2133 15.2651C25.1487 15.0501 22.2051 11.6447 20.2628 9.5742C20.0558 9.35331 19.8349 9.11401 19.6067 8.86588C18.1181 7.24897 16.302 5.15051 15.6654 5.58346C15.0539 5.99947 17.7172 9.00209 19.6243 11.0564Z" fill="#FFB74B"/>
<path d="M57.8823 11.7721C58.1078 11.5247 58.3287 11.2832 58.5394 11.0564C60.4464 9.00209 63.1107 5.99947 62.4982 5.58346C61.8616 5.15051 60.0464 7.24897 58.557 8.86588C58.3287 9.11401 58.1078 9.35331 57.9009 9.5742C55.9586 11.6447 53.0149 15.0501 53.9504 15.2651C54.7605 15.4513 56.4309 13.3639 57.8823 11.7721Z" fill="#FFB74B"/>
<mask id="mask0_46_260" style="mask-type:luminance" maskUnits="userSpaceOnUse" x="62" y="21" width="15" height="5">
<path d="M62.4463 21.5981H76.9343V25.9335H62.4463V21.5981Z" fill="white"/>
</mask>
<g mask="url(#mask0_46_260)">
<path d="M67.5011 24.9941C65.3231 25.564 63.0578 26.1567 62.5994 25.673C62.0138 25.0552 67.0158 23.8094 70.1366 23.079C70.6832 22.9509 71.2976 22.7918 71.9249 22.6291C74.1744 22.0467 76.6011 21.4186 76.7644 22.004C76.9389 22.6284 72.3295 23.8153 69.2495 24.5494C68.7001 24.6804 68.1043 24.8365 67.5011 24.9941Z" fill="#FFB74B"/>
</g>
<mask id="mask1_46_260" style="mask-type:luminance" maskUnits="userSpaceOnUse" x="0" y="21" width="15" height="5">
<path d="M0 21.5981H14.4574V25.9335H0V21.5981Z" fill="white"/>
</mask>
<g mask="url(#mask1_46_260)">
<path d="M8.74534 24.8294C8.37785 24.7389 8.01871 24.6512 7.67814 24.5695C4.5981 23.8354 0.000768989 22.6279 0.175233 22.0035C0.357122 21.3541 3.30075 22.1927 5.71541 22.7759C6.08568 22.8657 6.44297 22.9519 6.77705 23.0299C9.89699 23.7603 14.9258 25.0547 14.3412 25.6725C13.8345 26.207 11.1117 25.4104 8.74534 24.8294Z" fill="#FFB74B"/>
</g>
<path d="M67.8798 40.7878C67.3481 40.7451 66.7449 40.7083 66.1185 40.6693C63.6398 40.5154 60.7955 40.3387 60.6015 39.7423C60.3574 38.9942 65.2888 39.366 68.5248 39.637C69.1178 39.6871 69.8101 39.7268 70.5228 39.7688C72.9365 39.9087 75.5878 40.0626 75.4588 40.6457C75.3196 41.276 71.0796 41.0433 67.8798 40.7878Z" fill="#FFB74B"/>
<path d="M11.0588 40.5151C10.1819 40.5534 9.33366 40.5902 8.63766 40.6454C8.35369 40.6682 8.06508 40.6918 7.77555 40.7154C4.79016 40.9598 1.60804 41.2197 1.4809 40.6454C1.3482 40.0468 4.28533 39.8605 6.80485 39.7C7.46559 39.658 8.09756 39.6183 8.63766 39.5726C11.8736 39.3017 16.5823 38.9939 16.3392 39.742C16.1601 40.292 13.5004 40.4083 11.0588 40.5151Z" fill="#FFB74B"/>
<path fill-rule="evenodd" clip-rule="evenodd" d="M45.0193 54.8435C45.1149 54.9628 45.0694 55.1204 44.9191 55.1962C44.7261 55.2934 44.4505 55.3737 44.1359 55.4436C43.8157 55.5143 43.4297 55.5791 42.9991 55.6387C42.1369 55.7588 41.0753 55.8604 39.958 55.9443C37.7206 56.1137 35.2391 56.216 33.6346 56.2587C33.4564 56.2631 33.3079 56.1527 33.3014 56.0121C33.2959 55.8707 33.4351 55.7521 33.6132 55.7477C35.2085 55.705 37.677 55.6027 39.8967 55.4355C41.0066 55.3516 42.0497 55.2515 42.8877 55.1351C43.3072 55.077 43.6709 55.0151 43.9633 54.9503C44.2621 54.8848 44.4625 54.82 44.5748 54.764C44.7251 54.6889 44.9237 54.7243 45.0193 54.8435Z" fill="#33342C"/>
<path d="M22.6499 33.5603C21.8379 32.0524 22.1358 29.5099 22.6499 27.9166C22.816 27.4019 22.9524 26.5736 23.6373 26.5956C24.0336 26.6082 23.9148 27.7214 23.8275 28.4946C23.5668 30.8183 24.0679 32.6767 24.2489 33.5603C24.4289 34.4431 23.8517 35.7913 22.6499 33.5603Z" fill="#FFE9C7"/>
</svg>
