<svg width="315" height="614" viewBox="0 0 315 614" fill="none" xmlns="http://www.w3.org/2000/svg">
<path d="M263.415 237.679L243.598 273.443C247.656 288.772 255.463 319.318 258.644 338.782C241.654 354.691 221.653 326.758 221.653 326.758L171.366 311.494L123.109 288.263C123.109 288.263 86.5867 246.268 79.049 232.159C71.5162 218.044 50.937 156.087 51.2261 149.205C62.5327 139.562 74.7018 136.464 74.7018 136.464C74.7018 136.464 91.223 171.233 105.137 193.966C116.703 212.026 141.39 232.603 141.39 232.603L181.98 237.3L221.758 204.184C221.758 204.184 232.247 170.605 233.139 147.937C233.722 119.844 230.706 80.0813 230.706 80.0813C230.706 80.0813 242.212 74.4247 256.121 74.7445C259.651 80.2116 272.323 145.094 272.867 161.791C273.41 178.489 263.415 237.679 263.415 237.679ZM67.6077 391.433C48.1352 386.973 31.8981 386.138 30.8712 392.487L17.7001 473.599C16.6731 479.949 31.619 488.709 51.0915 493.163C70.564 497.624 87.18 496.089 88.2119 489.746L101.378 408.628C102.41 402.278 87.0753 395.887 67.6077 391.433Z" fill="#CC7564"/>
<path d="M166.291 267.609C166.291 267.609 169.362 291.017 170.639 292.735C171.92 294.459 209.768 283.442 210.057 282.411C210.346 281.38 205.017 245.924 205.017 245.924L221.359 241.257C221.359 241.257 233.623 311.5 239.625 320.533C246.146 330.341 260.199 332.32 260.199 332.32C260.199 332.32 265.274 371.904 263.101 405.98C260.927 440.056 230.327 588.236 226.932 589.267C223.537 590.304 188.062 585.914 187.015 582.301C185.968 578.688 194.623 516.726 196.363 499.176C199.169 470.875 197.489 448.319 197.489 448.319C197.489 448.319 185.201 487.554 181.98 497.884C178.755 508.208 164.262 575.33 163.684 576.704C163.106 578.084 137.89 574.643 124.844 568.447C125.716 557.773 136.051 487.211 138.13 475.163C140.208 463.121 154.471 388.685 155.628 379.16C156.789 369.63 148.324 276.903 148.324 276.903L163.624 261.413L166.291 267.609ZM166.291 267.609C166.291 267.609 169.362 291.017 170.639 292.735C171.92 294.459 209.768 283.442 210.057 282.411C210.346 281.38 205.017 245.924 205.017 245.924L221.359 241.257C221.359 241.257 233.623 311.5 239.625 320.533C246.146 330.341 260.199 332.32 260.199 332.32C260.199 332.32 265.274 371.904 263.101 405.98C260.927 440.056 230.327 588.236 226.932 589.267C223.537 590.304 188.062 585.914 187.015 582.301C185.968 578.688 194.623 516.726 196.363 499.176C199.169 470.875 197.489 448.319 197.489 448.319C197.489 448.319 185.201 487.554 181.98 497.884C178.755 508.208 164.262 575.33 163.684 576.704C163.106 578.084 137.89 574.643 124.844 568.447C125.716 557.773 136.051 487.211 138.13 475.163C140.208 463.121 154.471 388.685 155.628 379.16C156.789 369.63 148.324 276.903 148.324 276.903L163.624 261.413L166.291 267.609Z" fill="#3D2420"/>
<path d="M299.977 317.115C302.36 328.108 295.684 335.151 290.32 333.516C285.42 343.722 274.283 348.934 271.237 332.883C268.195 316.837 263.489 313.413 251.729 317.115C243.319 319.757 234.744 310.185 236.105 297.563C237.466 284.94 238.438 273.349 224.215 270.369C209.997 267.39 198.068 262.936 198.302 238.9C198.765 213.933 186.078 193.096 186.078 193.096L169.193 170.214L163.624 199.428C163.624 199.428 160.832 224.927 171.272 246.612C181.123 267.609 172.428 278.277 161.127 288.95C149.82 299.618 155.329 309.261 161.595 319.585C167.857 329.909 169.532 341.957 157.647 345.055C145.762 348.152 141.126 354.692 144.894 370.524C148.663 386.363 136.778 388.081 128.373 381.885C124.315 386.363 115.621 383.952 113.303 372.935C105.476 379.818 94.7525 373.972 95.0416 369.494C95.3308 365.022 101.079 364.678 101.079 364.678C101.079 364.678 93.88 361.924 103.397 352.63C112.909 343.337 105.476 336.105 101.996 322.683C98.5213 309.261 105.187 294.115 117.067 287.227C128.952 280.344 123.154 272.774 121.997 254.187C120.835 235.6 141.415 228.368 141.415 228.368L138.842 221.711L133.623 222.729C121.738 206.891 115.621 190.507 123.737 160.903C131.853 131.305 159.601 125.453 159.601 125.453C159.601 125.453 186.651 115.224 205.67 136.648C224.689 158.072 225.89 175.936 221.802 196.584L216.807 198.646L217.216 205.961C217.216 205.961 238.209 200.66 244.655 217.653C251.096 234.647 249.042 244.586 262.253 243.911C275.459 243.229 287.404 252.772 289.737 266.537C292.065 280.308 288.436 290.869 300.53 293.653C312.624 296.437 307.405 302.929 307.405 302.929C307.405 302.929 312.594 299.979 314.643 303.746C316.697 307.52 309.618 318.732 299.977 317.115ZM156.879 576.627C156.879 576.627 153.255 599.864 152.123 600.438C150.991 601.013 112.435 594.716 112.884 591.097C113.826 585.808 132.835 575.425 132.835 575.425L133.663 571.764C144.466 574.815 156.879 576.627 156.879 576.627ZM218.507 589.048C218.507 589.048 215.845 612.456 214.738 613.096C213.632 613.742 174.866 609.69 175.165 606.053C175.888 600.717 194.443 589.238 194.443 589.238L195.121 585.518C206.478 587.585 218.507 589.048 218.507 589.048Z" fill="#1E1C1D"/>
<path d="M219.933 199.943C221.683 211.546 216.772 236.631 187 245.77C157.777 254.744 141.156 236.584 137.895 225.448C123.378 231.78 119.061 217.979 120.776 209.26C122.491 200.547 132.342 203.118 132.342 203.118C153.265 229.843 152.283 181.042 157.069 166.003C161.85 150.964 169.243 164.777 169.243 164.777C168.49 154.583 175.375 151.231 187.284 167.585C205.202 192.184 215.327 185.686 216.075 176.991C216.075 176.991 222.775 168.917 227.865 175.516C232.955 182.114 235.702 198.581 219.933 199.943ZM253.983 56.6258C253.938 53.2792 250.862 50.5486 247.656 52.5032C247.906 46.1062 248.274 27.4067 244.092 27.4067C240.936 27.4067 239.46 45.6383 239.146 50.1458C239.097 50.211 239.042 50.2643 238.997 50.3294C238.558 46.2898 236.414 28.4729 232.556 29.8471C229.266 31.0199 229.899 44.6254 230.402 51.1587C230.043 52.4618 229.091 55.3819 227.446 56.9752C225.457 58.0532 223.393 59.7887 222.894 62.1758C220.93 71.5403 231.1 79.8268 231.1 79.8268C236.185 79.9749 255.349 74.727 255.349 74.727C255.349 74.727 256.341 71.2145 256.156 67.7732C262.627 64.0416 258.429 52.9297 253.983 56.6258ZM73.964 136.725C73.964 136.725 78.2314 122.989 72.0696 116.693C70.5042 115.087 67.9717 115.087 65.823 115.573C63.0512 115.354 60.1248 112.44 60.1248 112.44C60.1248 112.44 54.9102 109.798 53.1953 118.085C49.3217 116.859 46.4801 122.432 47.4672 125.743C43.6535 126.14 42.3573 130.665 43.9974 133.503C38.5735 133.544 40.5526 145.491 47.6566 144.093C49.1722 147.031 51.6947 148.808 51.6947 148.808C51.6947 148.808 69.886 140.338 73.964 136.725Z" fill="#FFB7A4"/>
<path d="M168.385 209.183C169.163 212.489 165.668 216.54 160.583 218.222C155.498 219.91 150.747 218.595 149.969 215.284C149.192 211.973 152.681 207.928 157.766 206.246C162.851 204.557 167.607 205.872 168.385 209.183ZM196.083 194.358C190.998 196.04 187.504 200.091 188.281 203.397C189.059 206.708 193.81 208.023 198.895 206.34C203.98 204.652 207.475 200.607 206.697 197.296C205.919 193.991 201.168 192.67 196.083 194.358Z" fill="#D76746" fill-opacity="0.5"/>
<path d="M181.97 200.091C181.901 200.98 181.242 201.625 180.495 201.548C178.525 201.329 177.289 202.952 177.234 203.017C177.025 203.302 176.746 203.473 176.457 203.539C176.063 203.622 175.649 203.503 175.325 203.171C174.767 202.591 174.697 201.59 175.18 200.915C175.27 200.796 177.349 197.959 180.749 198.338C181.492 198.421 182.04 199.209 181.97 200.091ZM131.474 222.73C131.948 222.262 132.013 221.433 131.624 220.87C131.1 220.124 131.21 219.016 131.639 218.447C132.232 217.665 133.209 218.246 133.738 218.666C134.137 218.974 134.655 218.957 135.029 218.607C135.408 218.264 135.557 217.671 135.403 217.138C133.872 211.825 132.023 209.029 129.744 208.591C127.302 208.123 125.607 210.712 125.537 210.824C125.163 211.399 125.258 212.222 125.741 212.666C126.225 213.11 126.918 213.004 127.297 212.429C127.307 212.417 128.274 210.972 129.4 211.197C130.034 211.328 131.18 212.086 132.456 215.426C131.38 215.385 130.542 215.948 129.989 216.682C128.772 218.293 128.737 220.87 129.909 222.552C130.128 222.866 130.447 223.032 130.766 223.032C131.016 223.032 131.27 222.931 131.474 222.73ZM226.923 192.291C227.062 190.111 225.791 188.026 224.016 187.546C223.209 187.321 222.241 187.451 221.389 188.198C220.811 184.596 221.384 183.193 221.838 182.654C222.64 181.712 224.111 182.209 224.156 182.227C224.739 182.44 225.362 182.055 225.542 181.362C225.731 180.669 225.407 179.929 224.819 179.704C224.709 179.662 222.062 178.703 220.292 180.758C218.642 182.677 218.483 186.225 219.804 191.615C219.938 192.154 220.347 192.539 220.821 192.563C221.294 192.587 221.733 192.249 221.907 191.728C222.137 191.023 222.655 189.88 223.518 190.117C224.141 190.288 224.769 191.118 224.704 192.083C224.659 192.812 225.113 193.446 225.726 193.499C225.756 193.505 225.786 193.505 225.816 193.505C226.389 193.505 226.873 192.978 226.923 192.291ZM62.8021 113.536C62.5229 113.684 56.5904 116.971 55.9024 122.729C55.389 121.828 54.8805 120.739 54.4368 119.412C54.2124 118.731 53.5644 118.399 52.996 118.671C52.4227 118.938 52.1485 119.708 52.3729 120.383C54.2224 125.915 57.1089 128.125 58.1957 128.788C58.5696 129.783 58.5746 130.719 58.2007 131.394C57.737 132.241 56.73 132.656 55.4338 132.526C55.4288 132.526 55.4239 132.526 55.4189 132.526C55.4139 132.526 55.4089 132.526 55.4039 132.526C55.379 132.52 52.5424 132.194 49.1723 126.413C48.8233 125.815 48.1354 125.667 47.6319 126.075L47.6269 126.081C47.1234 126.496 46.9987 127.319 47.3477 127.917C50.5283 133.373 53.4198 134.717 54.6711 135.049C55.03 135.914 54.8107 136.861 54.4717 137.46C54.2374 137.88 53.33 139.195 51.5054 138.597C51.4655 138.579 51.4207 138.585 51.3808 138.573C51.3559 138.573 51.3409 138.555 51.316 138.555C51.1814 138.538 47.8911 138.076 45.1542 133.438C44.8002 132.84 44.1222 132.686 43.6038 133.112C43.1052 133.533 42.9806 134.356 43.3345 134.954C45.907 139.314 48.9928 140.635 50.3738 141.025C50.5383 141.766 50.3738 142.139 50.309 142.275C49.8752 143.211 48.4794 143.649 48.0257 143.726C47.4175 143.827 46.9987 144.496 47.0835 145.213C47.1682 145.936 47.7266 146.439 48.3348 146.339C48.5392 146.309 49.8752 146.054 51.0119 145.13C51.4905 144.739 51.9342 144.23 52.2482 143.566C52.4925 143.045 52.7019 142.317 52.662 141.369C54.1476 141.268 55.4837 140.409 56.3212 138.929C56.9942 137.732 57.2235 136.358 57.0092 135.079C58.3403 134.8 59.4121 134.03 60.0652 132.834C60.6385 131.785 60.8179 130.536 60.6185 129.232C61.1868 129.25 61.6056 129.173 61.7153 129.144C61.8599 129.108 62.1989 128.61 62.3135 128.516C62.6725 128.22 62.8669 127.692 62.7722 127.153C62.6426 126.443 62.1889 126.496 61.5907 126.644C61.0822 126.768 59.9804 127.005 58.6444 125.702C58.2954 125.359 58.091 124.873 58.0561 124.156C57.9564 122.326 58.8288 120.602 59.8109 119.317C60.105 117.309 62.7074 114.004 63.2807 114.934C63.6396 115.514 64.522 114.857 64.2678 114.193C64.0135 113.53 63.3554 113.24 62.8021 113.536ZM257.133 67.1575C256.849 66.5119 256.176 66.2631 255.633 66.6067C255.344 66.7903 254.102 67.3767 253.345 66.9384C253.026 66.7548 252.781 66.352 252.622 65.7537C254.596 62.7744 255.04 57.4139 255.089 56.7387C255.139 56.0101 254.691 55.3704 254.077 55.3112C253.474 55.246 252.926 55.785 252.876 56.5136C252.697 58.9836 251.854 63.4082 250.353 64.7409C249.965 65.0903 249.556 65.197 249.077 65.0844C248.519 64.9482 248.11 64.6165 247.791 64.036C246.654 61.9511 247.158 57.5916 247.442 56.0871C247.582 55.3763 247.208 54.6715 246.61 54.5056C246.011 54.3457 245.418 54.7899 245.278 55.4948C245.149 56.1641 244.077 62.0755 245.922 65.4635C246.565 66.6363 247.502 67.4004 248.644 67.6729C248.908 67.7321 249.172 67.7676 249.431 67.7676C249.91 67.7676 250.373 67.6432 250.812 67.43C251.261 68.4606 251.864 69.0233 252.377 69.3136C252.916 69.6275 253.484 69.74 254.018 69.74C255.349 69.74 256.5 69.047 256.675 68.9404C257.218 68.5969 257.423 67.8032 257.133 67.1575ZM233.608 53.7179C232.995 53.7652 232.536 54.3931 232.576 55.1216C232.616 55.8443 233.174 56.3892 233.752 56.3477C234.974 56.2589 237.686 56.4958 238.319 57.8345C238.713 58.6696 238.309 60.18 237.182 62.0873C236.828 62.6855 236.948 63.5089 237.452 63.9235C237.646 64.0893 237.87 64.1663 238.09 64.1663C238.439 64.1663 238.783 63.9709 239.002 63.6036C240.697 60.7368 241.116 58.3557 240.258 56.5373C238.768 53.398 234.131 53.6705 233.608 53.7179Z" fill="#D76746"/>
<path d="M185.126 175.361C184.667 175.361 184.238 175.023 184.079 174.484C183.87 173.803 184.169 173.045 184.747 172.802C184.872 172.749 187.763 171.535 191.552 171.321C192.15 171.292 192.684 171.843 192.713 172.577C192.743 173.3 192.27 173.922 191.657 173.957C188.217 174.147 185.525 175.272 185.5 175.284C185.375 175.337 185.25 175.361 185.126 175.361ZM153.29 185.857C156.371 184.027 159.182 183.446 159.212 183.44C159.816 183.316 160.219 182.641 160.12 181.918C160.015 181.201 159.452 180.722 158.838 180.84C158.714 180.864 155.688 181.486 152.293 183.499C151.744 183.825 151.525 184.613 151.799 185.271C151.994 185.733 152.382 185.999 152.791 185.999C152.961 185.999 153.13 185.952 153.29 185.857ZM153.589 200.078C162.104 196.637 167.204 201.299 167.413 201.494C167.897 201.95 167.976 202.779 167.598 203.348C167.473 203.538 167.318 203.668 167.144 203.751C166.79 203.929 166.366 203.869 166.037 203.567C165.843 203.39 161.6 199.628 154.302 202.578C153.724 202.809 153.09 202.442 152.891 201.755C152.697 201.062 153.021 200.309 153.589 200.078ZM197.39 185.579C197.988 185.407 198.591 185.839 198.736 186.544C198.88 187.255 198.521 187.971 197.923 188.143C190.415 190.323 188.551 196.228 188.476 196.477C188.366 196.844 188.132 197.117 187.848 197.259C187.604 197.372 187.324 197.389 187.06 197.277C186.482 197.04 186.178 196.294 186.377 195.606C186.467 195.304 188.66 188.12 197.39 185.579Z" fill="#1E1C1D"/>
<path d="M171.8 309.604C171.8 309.604 214.115 297.213 215.277 297.213C216.433 297.213 224.26 334.73 224.26 336.104C224.26 337.485 208.382 360.2 205.017 359.513C201.652 358.826 180.489 351.286 179.338 349.189C177.453 345.741 171.8 309.604 171.8 309.604ZM171.8 309.604C171.8 309.604 214.115 297.213 215.277 297.213C216.433 297.213 224.26 334.73 224.26 336.104C224.26 337.485 208.382 360.2 205.017 359.513C201.652 358.826 180.489 351.286 179.338 349.189C177.453 345.741 171.8 309.604 171.8 309.604Z" fill="#D76746" fill-opacity="0.2"/>
<path d="M67.0993 394.555C50.5831 390.776 36.8087 390.065 35.9313 395.449C35.0589 400.833 47.7415 408.267 64.2577 412.046C80.7789 415.831 94.8773 414.528 95.7497 409.144C96.6272 403.76 83.6156 398.34 67.0993 394.555ZM61.6155 417.626C61.4959 418.609 60.783 419.32 59.9704 419.32C59.8906 419.32 59.8108 419.314 59.7261 419.296C57.6771 418.947 9.42457 410.435 1.23873 391.042C-0.541018 386.819 -0.401431 382.406 1.64752 377.929C6.38853 367.575 19.7042 367.314 36.8785 375.95C36.719 377.532 36.6342 378.639 36.5445 380.067C25.3575 374.274 9.45946 369.156 4.57887 379.818C3.05836 383.141 2.93871 386.233 4.21993 389.265C11.633 406.84 59.7211 415.298 60.2047 415.381C61.117 415.535 61.7501 416.542 61.6155 417.626Z" fill="#1E1C1D"/>
<mask id="mask0_29_173" style="mask-type:luminance" maskUnits="userSpaceOnUse" x="34" y="0" width="183" height="482">
<path d="M34.0818 0H216.583V481.892H34.0818V0Z" fill="white"/>
</mask>
<g mask="url(#mask0_29_173)">
<path d="M163.625 213.957C163.739 212.814 164.103 212.47 165.14 212.251C165.33 212.216 180.59 208.887 193.157 203.556C194.598 202.946 195.132 203.911 195.042 204.794C189.673 257.8 163.48 215.379 163.625 213.957ZM64.258 412.046C66.9849 412.674 69.6471 413.153 72.1945 413.509C62.9668 404.6 64.8113 390.669 65.9829 383.461C71.5664 367.012 68.4705 364.512 61.4712 373.077C63.8791 367.32 76.8608 351.007 76.796 349.592C76.7262 348.176 69.4925 345.463 59.831 355.888C62.9269 351.357 76.447 338.995 74.3232 335.708C72.2045 332.415 51.1616 340.215 41.0814 356.842C31.0061 373.462 35.9316 395.449 35.9316 395.449C35.0592 400.833 47.7417 408.267 64.258 412.046ZM77.469 358.66C73.7549 357.671 86.4774 351.671 88.1125 355.189C89.7527 358.702 79.6326 359.241 77.469 358.66ZM64.1383 327.96C61.4064 331.1 64.1632 315.184 67.5383 315.486C70.9083 315.788 65.7336 326.13 64.1383 327.96ZM59.5519 84.6127C59.5519 84.6127 54.9355 83.3985 57.3484 73.9273C59.7014 64.699 61.5161 60.9141 61.88 60.3988C62.7474 60.997 71.8057 81.6748 63.7445 84.3995C60.6985 84.3639 59.5519 84.6127 59.5519 84.6127ZM216.399 27.3119L213.153 21.6198C212.944 21.2585 212.6 21.0452 212.231 21.0452H206.543L195.785 0.746502C195.456 0.130492 194.773 -0.0531269 194.249 0.337803C193.731 0.722809 193.576 1.54021 193.9 2.15622L197.126 21.91C197.33 22.295 205.546 23.681 205.93 23.681H211.643L214.539 28.7631C215.123 27.768 215.826 27.4067 216.399 27.3119ZM96.5327 438.493C96.5327 438.493 79.3883 439.968 61.9597 434.809C59.5419 454.343 55.763 476.976 55.763 476.976C55.763 476.976 71.372 483.373 89.7427 480.304C92.3052 464.543 96.5327 438.493 96.5327 438.493Z" fill="white"/>
</g>
</svg>
