<svg width="209" height="610" viewBox="0 0 209 610" fill="none" xmlns="http://www.w3.org/2000/svg">
<path d="M140.772 381.762C140.772 381.762 142.864 439.78 142.268 468.789C141.666 497.798 139.27 578.379 139.27 590.306C133.361 591.396 105.148 592.24 103.354 591.92C101.554 591.599 87.7855 502.632 87.1894 499.091C86.5875 495.545 75.5133 435.593 75.5133 435.593C75.5133 435.593 67.9471 485.871 67.0471 492.964C66.1472 500.058 51.565 578.582 49.1691 591.156C32.0304 593.009 7.85858 590.633 7.85858 590.633C7.85858 590.633 7.85858 586.759 7.85858 519.073C7.85858 451.387 12.6505 375.314 12.6505 375.314L140.772 381.762ZM140.772 381.762C140.772 381.762 142.864 439.78 142.268 468.789C141.666 497.798 139.27 578.379 139.27 590.306C133.361 591.396 105.148 592.24 103.354 591.92C101.554 591.599 87.7855 502.632 87.1894 499.091C86.5875 495.545 75.5133 435.593 75.5133 435.593C75.5133 435.593 67.9471 485.871 67.0471 492.964C66.1472 500.058 51.565 578.582 49.1691 591.156C32.0304 593.009 7.85858 590.633 7.85858 590.633C7.85858 590.633 7.85858 586.759 7.85858 519.073C7.85858 451.387 12.6505 375.314 12.6505 375.314L140.772 381.762Z" fill="#3D2420"/>
<path d="M151.961 187.774C151.439 195.231 146.968 202.996 135.533 199.073C134.364 205.176 129.102 217.109 119.398 221.321C111.751 224.634 94.8417 235.619 79.9327 233.606C45.6956 228.988 48.1546 198.371 48.6246 187.343C32.661 186.85 32.982 173.063 37.4415 166.197C41.9067 159.331 47.3808 160.304 47.3808 160.304C47.3808 160.304 49.7423 142.342 68.1879 131.03C84.3063 121.141 115.815 125.377 131.062 139.515C145.381 152.792 139.247 177.527 139.247 177.527C139.247 177.527 147.605 171 151.285 180.391C152.087 182.435 152.666 185.569 151.961 187.774ZM41.9755 67.716C41.9755 67.716 52.3676 59.791 50.2181 51.0532C49.6736 48.8302 47.5126 47.2415 45.4433 46.2624C43.1907 44.3474 42.136 40.2586 42.136 40.2586C42.136 40.2586 38.9949 34.9383 33.452 40.2586C30.758 36.8719 25.5992 39.3904 24.8082 42.5739C21.369 40.4741 18.0387 43.1589 18.0387 46.3794C13.3958 42.9988 9.20569 53.4732 15.9408 56.8599C15.7918 60.0804 16.8407 63.3071 16.8407 63.3071C16.8407 63.3071 36.725 67.9439 41.9755 67.716ZM17.7406 591.365V595.3C17.7406 595.3 3.37053 603.04 2.61963 606.261C1.87448 609.487 40.3419 607.874 41.5341 607.227C42.7321 606.587 42.606 591.654 42.606 591.654L17.7406 591.365ZM108.277 591.962C108.277 591.962 108.157 606.587 109.355 607.227C110.553 607.874 149.015 609.487 148.27 606.261C147.519 603.04 133.154 595.3 133.154 595.3V590.946L108.277 591.962ZM156.936 384.853C156.936 384.853 156.604 393.424 153.125 396.485C148.986 398.51 149.611 402.205 149.611 402.205C149.611 402.205 150.431 407.384 159.367 403.843C157.383 406.743 162.921 407.55 168.309 403.843C169.507 406.903 172.648 406.257 176.093 404.003C179.383 407.224 182.266 401.583 184.209 398.203C186.158 394.816 187.625 385.216 187.625 385.216C187.625 385.216 169.1 385.61 156.936 384.853Z" fill="#FFB7A4"/>
<path d="M83.1197 185.804C82.7929 189 78.1386 191.075 72.7161 190.441C67.2994 189.807 63.1666 186.697 63.4876 183.501C63.8143 180.299 68.4687 178.224 73.8912 178.865C79.3136 179.499 83.4407 182.608 83.1197 185.804ZM114.468 184.363C109.045 183.729 104.391 185.804 104.064 189C103.743 192.196 107.876 195.306 113.293 195.94C118.715 196.58 123.37 194.505 123.696 191.303C124.017 188.107 119.89 184.998 114.468 184.363Z" fill="#D76746" fill-opacity="0.5"/>
<path d="M74.0686 188.889C76.1551 186.487 110.014 191.61 111.218 193.815C111.848 194.973 109.189 213.649 91.0353 211.986C73.3063 210.367 72.7159 190.44 74.0686 188.889ZM74.0686 188.889C76.1551 186.487 110.014 191.61 111.218 193.815C111.848 194.973 109.189 213.649 91.0353 211.986C73.3063 210.367 72.7159 190.44 74.0686 188.889Z" fill="white"/>
<mask id="mask0_29_172" style="mask-type:luminance" maskUnits="userSpaceOnUse" x="0" y="39" width="195" height="349">
<path d="M0 39.0156H194.481V387.397H0V39.0156Z" fill="white"/>
</mask>
<g mask="url(#mask0_29_172)">
<path d="M119.397 221.322C119.397 221.322 151.038 241.722 172.59 292.487C202.402 350.795 191.059 384.853 191.059 384.853C191.059 384.853 188.605 385.691 187.625 385.216C181.022 385.851 166.675 386.965 159.367 385.58C158.535 385.931 157.034 386.202 156.248 385.808C144.246 347.279 132.105 333.682 132.105 333.682C132.105 333.682 139.425 383.215 93.3397 384.662C47.2545 386.116 0.0744629 378.862 0.0744629 378.862C0.0744629 378.862 12.5129 272.172 16.1011 251.224C12.4212 225.989 0.0744629 187.774 0.0744629 152.269C0.0744629 136.794 6.96432 83.2896 15.6426 63.3077C30.3107 65.2412 44.0331 68.1415 44.0331 68.1415C44.0331 68.1415 42.2848 100.698 44.0331 138.728C48.1716 186.432 66.7605 218.107 66.7605 218.107C91.9869 230.928 119.397 221.322 119.397 221.322ZM43.8726 42.7901C43.5631 42.7285 36.8968 41.5339 33.4748 45.5487C33.4805 44.5327 33.5837 43.3689 33.8646 42.0635C34.0021 41.3984 33.6181 40.7334 32.999 40.5856C32.3742 40.4316 31.7666 40.8504 31.6233 41.5154C30.4769 46.9527 31.8526 50.4749 32.4487 51.6757C32.2768 52.6733 31.824 53.3937 31.1705 53.6831C30.3623 54.0464 29.2962 53.7324 28.2587 52.821C28.2529 52.8149 28.2472 52.8149 28.2415 52.8087C28.2415 52.8087 28.2415 52.8026 28.2357 52.7964C28.2128 52.7779 25.9601 50.7397 25.9315 44.1632C25.9315 43.4797 25.4156 42.9317 24.7851 42.9317C24.7851 42.9317 24.7851 42.9317 24.7793 42.9317C24.1488 42.9317 23.6329 43.492 23.6387 44.1694C23.6616 50.3887 25.4672 53.2398 26.3671 54.2866C26.2467 55.1795 25.599 55.7706 25.0086 56.0231C24.6074 56.2017 23.1801 56.645 21.9305 55.0378C21.9019 55.0009 21.8618 54.9763 21.8274 54.9393C21.8102 54.9208 21.8044 54.9024 21.7872 54.8839C21.6783 54.7854 19.1047 52.3654 19.0531 47.0574C19.0474 46.3739 18.5487 45.8258 17.8952 45.832C17.259 45.8382 16.7546 46.3985 16.7603 47.082C16.8061 52.0698 18.7837 55.0255 19.7696 56.2016C19.5403 56.8728 19.2193 57.0576 19.0932 57.1253C18.2678 57.5748 16.8635 57.0329 16.4393 56.8113C15.8718 56.5095 15.184 56.7558 14.9031 57.3655C14.6223 57.9751 14.8515 58.7202 15.419 59.0219C15.6082 59.1266 16.8692 59.7731 18.2965 59.7731C18.8926 59.7731 19.5231 59.6561 20.1135 59.3421C20.5778 59.0896 21.1166 58.6586 21.5465 57.9073C22.8591 58.7633 24.424 58.9357 25.8627 58.3199C27.0263 57.8211 27.8975 56.9036 28.3446 55.7768C29.6114 56.4049 30.9068 56.4787 32.0475 55.9677C33.0563 55.5243 33.8244 54.6684 34.2945 53.5415C34.7702 53.9048 35.1657 54.1142 35.2689 54.1573C35.4122 54.225 35.9453 54.0464 36.0886 54.0464C36.5414 54.0464 36.9656 53.7632 37.149 53.2829C37.3897 52.6548 36.9828 52.4146 36.3981 52.1498C35.8994 51.9282 34.8447 51.4171 34.3518 49.5697C34.2199 49.0894 34.2887 48.5784 34.6097 47.9995C35.4237 46.5278 37.0171 45.7458 38.4845 45.3702C39.7226 44.0031 43.5631 43.0918 43.5917 44.1694C43.6147 44.8468 44.6923 44.8899 44.8012 44.2187C44.9101 43.5475 44.4974 42.9071 43.8726 42.7901ZM98.252 184.32C97.8164 185.01 96.9509 185.182 96.3089 184.714C94.6179 183.47 92.8181 184.129 92.7436 184.16C92.434 184.277 92.1073 184.271 91.8207 184.166C91.4309 184.024 91.1042 183.698 90.9552 183.255C90.6915 182.479 91.0526 181.623 91.7749 181.333C91.9067 181.278 94.979 180.083 97.8909 182.226C98.5271 182.694 98.6934 183.636 98.252 184.32ZM144.704 195.305C145.547 193.476 144.996 191.136 143.454 189.985C142.744 189.455 141.781 189.172 140.72 189.468C141.334 186.093 142.337 185.108 142.944 184.831C144.028 184.344 145.283 185.397 145.306 185.416C145.799 185.847 146.515 185.767 146.917 185.237C147.318 184.714 147.249 183.932 146.756 183.501C146.664 183.421 144.44 181.487 142.079 182.546C139.878 183.532 138.577 186.549 138.101 191.783C138.055 192.306 138.324 192.805 138.771 193.027C139.219 193.242 139.74 193.132 140.078 192.75C140.531 192.233 141.391 191.451 142.148 192.011C142.686 192.417 143.019 193.403 142.646 194.215C142.365 194.825 142.6 195.564 143.168 195.872C143.328 195.958 143.506 195.995 143.678 195.995C144.096 195.995 144.503 195.742 144.704 195.305Z" fill="#D76746"/>
</g>
<path d="M67.0472 218.243C69.3343 219.394 71.6443 220.361 73.9428 221.168C80.4945 225.946 91.8381 231.032 105.744 224.197C108.134 223.914 110.289 223.551 112.141 223.181C112.072 223.268 112.003 223.354 111.911 223.421C104.867 228.181 98.2866 229.918 92.4342 229.918C79.3652 229.918 69.9304 221.254 67.0472 218.243ZM31.6522 152.127L40.3648 150.563C40.9896 150.452 41.408 149.818 41.3048 149.141C41.2017 148.469 40.617 148.02 39.9865 148.124L31.2796 149.689C30.6491 149.806 30.2306 150.44 30.3338 151.111C30.4255 151.714 30.9127 152.146 31.463 152.146C31.5261 152.146 31.5891 152.139 31.6522 152.127ZM35.6187 242.098L49.685 226.858C50.1321 226.377 50.1321 225.589 49.6793 225.109C49.2322 224.628 48.5042 224.635 48.0571 225.115L33.9851 240.355C33.5437 240.842 33.5437 241.624 33.9908 242.104C34.2144 242.344 34.5067 242.461 34.8047 242.461C35.0971 242.461 35.3894 242.344 35.6187 242.098ZM67.0472 333.682C66.7491 333.682 66.4511 333.559 66.2218 333.307L53.7375 319.532C53.2962 319.039 53.3019 318.257 53.7547 317.783C54.2133 317.309 54.9355 317.315 55.3769 317.808L67.8669 331.582C68.3082 332.075 68.3025 332.857 67.8497 333.331C67.6261 333.565 67.3338 333.682 67.0472 333.682ZM83.0223 331.607C66.9211 318.054 48.3093 298.768 48.0743 298.528C47.6158 298.053 47.6043 297.271 48.0457 296.779C48.487 296.286 49.2092 296.274 49.6678 296.748C49.8914 296.982 67.0931 314.803 82.621 328.116C82.6439 328.861 82.7586 329.963 83.0223 331.607Z" fill="#3D2420" fill-opacity="0.5"/>
<mask id="mask1_29_172" style="mask-type:luminance" maskUnits="userSpaceOnUse" x="0" y="0" width="209" height="610">
<path d="M0.7854 0H209V609.667H0.7854V0Z" fill="white"/>
</mask>
<g mask="url(#mask1_29_172)">
<path d="M132.684 306.607C106.684 315.985 84.1458 324.55 82.9306 326.385C82.3631 327.241 81.4116 328.676 91.7292 369.36C96.7561 389.195 102.087 408.936 102.144 409.133C102.236 409.484 102.471 409.774 102.786 409.922C104.638 410.79 113.952 415.149 115.494 415.482C115.511 415.482 115.528 415.482 115.546 415.482C117.042 415.482 135.097 408.21 154.879 400.032C157.945 397.237 159 390.309 159.367 385.58C158.673 385.327 157.326 385.013 156.936 384.853C154.317 359.705 142.452 322.05 132.684 306.607ZM208.845 375.937C208.702 372.07 204.03 351.207 199.519 333.03C191.059 298.928 190.434 296.939 189.041 296.188C187.803 295.517 179.354 291.403 177.686 290.917C177.468 290.849 177.245 290.855 177.027 290.929C175.64 291.416 174.15 291.939 172.59 292.487C172.734 292.82 172.883 293.14 173.02 293.478C191.431 351.016 191.059 384.853 191.059 384.853L187.603 385.217L187.419 386.454C187.419 386.454 208.003 377.747 208.209 377.618C208.885 377.175 208.857 376.313 208.845 375.937ZM55.3368 18.4117C55.3368 18.4117 51.8861 15.7885 56.466 11.0716C61.0458 6.3548 68.5605 0 68.5605 0C68.5605 0 65.8722 10.6714 64.4334 16.4227C64.0035 18.1284 62.112 21.897 59.011 20.8809C56.6207 20.2898 55.3368 18.4117 55.3368 18.4117ZM17.7406 595.301L36.5989 601.871H42.6117C42.6117 601.871 42.9958 606.686 42.0959 608.207C41.2017 609.728 2.24706 609.365 2.02351 607.555C1.79996 605.738 2.02351 603.361 17.7406 595.301ZM148.946 607.555C148.722 609.365 109.768 609.728 108.874 608.207C107.974 606.686 108.358 601.871 108.358 601.871H114.371L133.229 595.301C148.946 603.361 149.169 605.738 148.946 607.555Z" fill="#FFDCB4"/>
</g>
<path d="M41.1098 54.0773C30.7292 72.5814 19.1907 91.5903 16.5138 89.7923C13.8771 88.0188 24.3323 69.0222 35.0511 51.0723C36.3121 52.4763 39.0348 53.48 41.1098 54.0773ZM45.4432 46.2631C52.9865 32.5375 59.0108 20.8809 59.0108 20.8809L55.3366 18.4116C55.3366 18.4116 47.2889 30.8626 38.4846 45.3703C42.1645 44.0402 45.4432 46.2631 45.4432 46.2631ZM70.5493 173.088C70.5092 173.772 70.9907 174.357 71.6269 174.394C79.5715 174.905 82.3916 179.948 82.5235 180.188C82.7355 180.588 83.1196 180.81 83.5208 180.81C83.71 180.81 83.9049 180.761 84.0826 180.65C84.6386 180.317 84.8334 179.56 84.5182 178.969C84.3806 178.704 81.0389 172.528 71.7645 171.931C71.1454 171.887 70.5894 172.405 70.5493 173.088ZM104.592 181.832C104.173 182.343 104.219 183.119 104.689 183.569C104.907 183.778 105.182 183.877 105.451 183.877C105.767 183.877 106.082 183.741 106.305 183.47C106.46 183.285 110.186 178.944 118.079 180.213C118.71 180.311 119.288 179.843 119.38 179.172C119.478 178.495 119.042 177.867 118.417 177.768C109.229 176.296 104.775 181.604 104.592 181.832ZM76.2183 159.757C79.8237 158.488 82.4317 160.058 82.5521 160.138C82.7355 160.249 82.9361 160.305 83.1368 160.305C83.5266 160.305 83.9106 160.089 84.1227 159.701C84.4437 159.116 84.266 158.359 83.7214 158.008C83.5781 157.915 80.1447 155.773 75.5018 157.411C74.8999 157.62 74.5732 158.316 74.7681 158.968C74.9687 159.615 75.6107 159.972 76.2183 159.757ZM43.3224 139.054C44.1076 148.143 45.7298 156.296 47.7475 164.147C48.6187 164.51 49.553 164.991 50.5217 165.637C50.5217 165.637 61.5157 178.211 70.0506 137.361C77.0093 153.075 94.6867 162.349 99.9086 158.032C102.883 155.569 98.4985 145.335 98.4985 145.335C98.4985 145.335 111.195 158.032 120.561 158.032C124.155 158.032 125.634 154.997 126.207 151.789C126.259 162.392 127.915 181.056 139.247 177.528C144.36 174.591 152.717 175.939 151.961 187.774C151.961 187.774 173.1 162.257 157.16 125.643C139.597 85.3033 99.685 94.3305 99.685 94.3305C99.685 94.3305 80.6892 88.807 63.4703 99.1828C52.3216 105.901 46.2342 111.104 43.3224 113.937C42.8065 121.326 42.9211 130.396 43.3224 139.054ZM117.546 165.563C117.758 165.736 118.004 165.822 118.245 165.822C118.589 165.822 118.933 165.656 119.157 165.342C119.541 164.8 119.449 164.024 118.945 163.605C115.07 160.403 111.172 161.191 111.011 161.228C110.392 161.364 109.991 162.01 110.112 162.675C110.232 163.34 110.834 163.778 111.453 163.655C111.573 163.63 114.525 163.07 117.546 165.563ZM20.4288 600.202C20.2224 600.202 20.0104 600.147 19.8269 600.017C16.5884 597.838 13.8313 597.788 13.8026 597.788C13.1721 597.782 12.6619 597.228 12.6677 596.544C12.6677 595.867 13.1778 595.319 13.8083 595.319C13.9459 595.319 17.2131 595.35 21.0421 597.924C21.5752 598.281 21.7414 599.044 21.4032 599.623C21.1854 599.999 20.8128 600.202 20.4288 600.202ZM16.8406 602.684C16.6801 602.684 16.5196 602.647 16.3705 602.573C13.1492 601.009 9.60106 600.504 9.56666 600.498C8.93615 600.411 8.49478 599.79 8.57503 599.112C8.65528 598.435 9.22848 597.973 9.859 598.047C10.0138 598.072 13.7739 598.601 17.3106 600.319C17.8895 600.602 18.1475 601.335 17.8838 601.957C17.6946 602.413 17.2762 602.684 16.8406 602.684ZM129.778 600.202C129.984 600.202 130.196 600.147 130.386 600.017C133.624 597.838 136.376 597.788 136.404 597.788C137.035 597.782 137.551 597.228 137.545 596.544C137.545 595.867 137.035 595.319 136.398 595.319C136.261 595.319 132.999 595.35 129.17 597.924C128.632 598.281 128.471 599.044 128.804 599.623C129.021 599.999 129.394 600.202 129.778 600.202ZM133.372 602.684C133.527 602.684 133.687 602.647 133.842 602.573C137.058 601.009 140.611 600.504 140.646 600.498C141.271 600.411 141.718 599.79 141.637 599.112C141.551 598.435 140.978 597.973 140.354 598.047C140.193 598.072 136.439 598.601 132.896 600.319C132.323 600.602 132.065 601.335 132.323 601.957C132.518 602.413 132.931 602.684 133.372 602.684Z" fill="#3D2420"/>
<path d="M136.118 315.167C136.015 315.21 125.76 319.175 115.632 323.307C101.921 328.898 97.0772 331.201 95.3633 332.439L86.6908 328.178C86.1119 327.895 85.4355 328.172 85.1719 328.794C84.9082 329.416 85.1604 330.142 85.7393 330.432L94.5494 334.754C96.0856 342.753 110.954 400.298 114.067 412.311C114.21 412.859 114.669 413.217 115.173 413.217C115.271 413.217 115.379 413.204 115.483 413.173C116.09 412.989 116.446 412.305 116.279 411.646C108.816 382.822 97.7765 339.644 96.7849 334.348C100.075 332.1 122.762 322.956 136.892 317.494C137.488 317.26 137.797 316.552 137.585 315.912C137.367 315.271 136.708 314.939 136.118 315.167ZM189.689 297.272C189.5 296.62 188.858 296.25 188.25 296.453L176.58 300.327C175.972 300.524 175.634 301.213 175.818 301.866C175.972 302.402 176.425 302.74 176.918 302.74C177.027 302.74 177.142 302.722 177.251 302.685L188.927 298.818C189.534 298.615 189.872 297.925 189.689 297.272Z" fill="#D76746" fill-opacity="0.5"/>
</svg>
