<svg width="143" height="119" viewBox="0 0 143 119" fill="none" xmlns="http://www.w3.org/2000/svg">
<mask id="mask0_196_956" style="mask-type:luminance" maskUnits="userSpaceOnUse" x="16" y="16" width="32" height="55">
<path d="M16 16.9062H48V70.2396H16V16.9062Z" fill="white"/>
</mask>
<g mask="url(#mask0_196_956)">
<mask id="mask1_196_956" style="mask-type:luminance" maskUnits="userSpaceOnUse" x="-11" y="3" width="102" height="118">
<path d="M-10.6665 31.5156L49.12 3.5625L90.6304 92.3333L30.8439 120.292L-10.6665 31.5156Z" fill="white"/>
</mask>
<g mask="url(#mask1_196_956)">
<mask id="mask2_196_956" style="mask-type:luminance" maskUnits="userSpaceOnUse" x="-11" y="3" width="102" height="118">
<path d="M-10.6665 31.5156L49.12 3.5625L90.6304 92.3333L30.8439 120.292L-10.6665 31.5156Z" fill="white"/>
</mask>
<g mask="url(#mask2_196_956)">
<mask id="mask3_196_956" style="mask-type:luminance" maskUnits="userSpaceOnUse" x="-11" y="3" width="102" height="118">
<path d="M-10.6665 31.5156L49.12 3.5625L90.6304 92.3333L30.8439 120.292L-10.6665 31.5156Z" fill="white"/>
</mask>
<g mask="url(#mask3_196_956)">
<path d="M44.1666 37.75C49.1562 48.4115 48.9531 60.1094 44.5885 69.8021L44.526 69.9531C34.3906 67.1302 25.375 59.8594 20.4375 49.3021C15.5052 38.7448 15.7187 27.0625 20.1145 17.4531C20.1822 17.3021 20.2395 17.1563 20.3125 17.0156C30.3541 19.974 39.2656 27.2552 44.1666 37.75Z" fill="#98C152"/>
</g>
</g>
</g>
</g>
<mask id="mask4_196_956" style="mask-type:luminance" maskUnits="userSpaceOnUse" x="20" y="16" width="28" height="55">
<path d="M20 16.9062H48V70.2396H20V16.9062Z" fill="white"/>
</mask>
<g mask="url(#mask4_196_956)">
<mask id="mask5_196_956" style="mask-type:luminance" maskUnits="userSpaceOnUse" x="-11" y="3" width="102" height="118">
<path d="M-10.6665 31.5156L49.12 3.5625L90.6304 92.3333L30.8439 120.292L-10.6665 31.5156Z" fill="white"/>
</mask>
<g mask="url(#mask5_196_956)">
<mask id="mask6_196_956" style="mask-type:luminance" maskUnits="userSpaceOnUse" x="-11" y="3" width="102" height="118">
<path d="M-10.6665 31.5156L49.12 3.5625L90.6304 92.3333L30.8439 120.292L-10.6665 31.5156Z" fill="white"/>
</mask>
<g mask="url(#mask6_196_956)">
<mask id="mask7_196_956" style="mask-type:luminance" maskUnits="userSpaceOnUse" x="-11" y="3" width="102" height="118">
<path d="M-10.6665 31.5156L49.12 3.5625L90.6304 92.3333L30.8439 120.292L-10.6665 31.5156Z" fill="white"/>
</mask>
<g mask="url(#mask7_196_956)">
<path d="M44.1667 37.75C49.1563 48.4115 48.9531 60.1094 44.5885 69.8021L20.1094 17.4531C20.1771 17.3021 20.2396 17.1615 20.3073 17.0156C30.3542 19.974 39.2656 27.2552 44.1667 37.75Z" fill="#84AF38"/>
</g>
</g>
</g>
</g>
<mask id="mask8_196_956" style="mask-type:luminance" maskUnits="userSpaceOnUse" x="0" y="43" width="46" height="34">
<path d="M0 43.5732H45.3333V76.9066H0V43.5732Z" fill="white"/>
</mask>
<g mask="url(#mask8_196_956)">
<mask id="mask9_196_956" style="mask-type:luminance" maskUnits="userSpaceOnUse" x="-11" y="3" width="102" height="118">
<path d="M-10.6665 31.5161L49.12 3.56299L90.6304 92.3338L30.8439 120.292L-10.6665 31.5161Z" fill="white"/>
</mask>
<g mask="url(#mask9_196_956)">
<mask id="mask10_196_956" style="mask-type:luminance" maskUnits="userSpaceOnUse" x="-11" y="3" width="102" height="118">
<path d="M-10.6665 31.5161L49.12 3.56299L90.6304 92.3338L30.8439 120.292L-10.6665 31.5161Z" fill="white"/>
</mask>
<g mask="url(#mask10_196_956)">
<mask id="mask11_196_956" style="mask-type:luminance" maskUnits="userSpaceOnUse" x="-11" y="3" width="102" height="118">
<path d="M-10.6665 31.5161L49.12 3.56299L90.6304 92.3338L30.8439 120.292L-10.6665 31.5161Z" fill="white"/>
</mask>
<g mask="url(#mask11_196_956)">
<path d="M28.7295 49.5941C30.8597 50.9535 32.8128 52.5316 34.5837 54.3285C36.3597 56.1306 37.9066 58.0993 39.2347 60.2503C40.5576 62.3962 41.6253 64.6618 42.4378 67.0524C43.2503 69.4378 43.7868 71.891 44.0472 74.4014C44.068 74.4483 44.0628 74.5056 44.068 74.5524C42.8701 74.9535 41.6618 75.2868 40.4274 75.5524C39.1982 75.8181 37.9587 76.016 36.7087 76.1462C35.4535 76.2764 34.1982 76.3337 32.943 76.3233C31.6826 76.3076 30.4326 76.2295 29.1878 76.0785C27.9378 75.9274 26.7035 75.7035 25.4847 75.417C24.2607 75.1253 23.0628 74.7712 21.8805 74.3441C20.7035 73.9222 19.5472 73.4326 18.4274 72.8806C17.3024 72.3285 16.2139 71.7139 15.1566 71.042C14.1045 70.3649 13.0941 69.6306 12.1253 68.8441C11.1514 68.0576 10.2295 67.2139 9.35449 66.3233C8.47949 65.4326 7.66178 64.4951 6.89095 63.5108C6.12533 62.5264 5.41699 61.5003 4.76595 60.4378C4.1097 59.3701 3.52116 58.2764 2.99512 57.141C2.46907 56.0108 2.00553 54.8545 1.6097 53.6722C1.21387 52.4847 0.885742 51.2868 0.625326 50.0628C0.370118 48.8441 0.177408 47.6097 0.0576172 46.3649C0.0419919 46.2191 0.0211595 46.0733 0.0107422 45.9222C2.40137 45.1566 4.84408 44.6618 7.33887 44.4326C9.83366 44.2035 12.3232 44.2451 14.8024 44.5628C17.2868 44.8806 19.7035 45.4639 22.0524 46.3128C24.4014 47.1618 26.6253 48.2556 28.7295 49.5941Z" fill="#A2D159"/>
</g>
</g>
</g>
</g>
<mask id="mask12_196_956" style="mask-type:luminance" maskUnits="userSpaceOnUse" x="0" y="43" width="46" height="33">
<path d="M0 43.5732H45.3333V75.5732H0V43.5732Z" fill="white"/>
</mask>
<g mask="url(#mask12_196_956)">
<mask id="mask13_196_956" style="mask-type:luminance" maskUnits="userSpaceOnUse" x="-11" y="3" width="102" height="118">
<path d="M-10.6665 31.5161L49.12 3.56299L90.6304 92.3338L30.8439 120.292L-10.6665 31.5161Z" fill="white"/>
</mask>
<g mask="url(#mask13_196_956)">
<mask id="mask14_196_956" style="mask-type:luminance" maskUnits="userSpaceOnUse" x="-11" y="3" width="102" height="118">
<path d="M-10.6665 31.5161L49.12 3.56299L90.6304 92.3338L30.8439 120.292L-10.6665 31.5161Z" fill="white"/>
</mask>
<g mask="url(#mask14_196_956)">
<mask id="mask15_196_956" style="mask-type:luminance" maskUnits="userSpaceOnUse" x="-11" y="3" width="102" height="118">
<path d="M-10.6665 31.5161L49.12 3.56299L90.6304 92.3338L30.8439 120.292L-10.6665 31.5161Z" fill="white"/>
</mask>
<g mask="url(#mask15_196_956)">
<path d="M28.7292 49.5941C30.8594 50.9535 32.8125 52.5316 34.5833 54.3285C36.3594 56.1306 37.9063 58.0993 39.2344 60.2504C40.5573 62.3962 41.625 64.6618 42.4375 67.0525C43.25 69.4379 43.7865 71.891 44.0469 74.4014L0.0625 46.3754C0.0468747 46.2243 0.026041 46.0785 0.015625 45.9327C2.40104 45.167 4.84375 44.6723 7.33854 44.4379C9.83333 44.2087 12.3229 44.2556 14.8073 44.5681C17.2865 44.8858 19.7031 45.4691 22.0521 46.3129C24.401 47.1618 26.625 48.2556 28.7292 49.5941Z" fill="#84AF38"/>
</g>
</g>
</g>
</g>
<mask id="mask16_196_956" style="mask-type:luminance" maskUnits="userSpaceOnUse" x="37" y="26" width="29" height="54">
<path d="M37.3335 26.2397H65.3335V79.5731H37.3335V26.2397Z" fill="white"/>
</mask>
<g mask="url(#mask16_196_956)">
<mask id="mask17_196_956" style="mask-type:luminance" maskUnits="userSpaceOnUse" x="-11" y="3" width="102" height="118">
<path d="M-10.6665 31.5156L49.12 3.5625L90.6304 92.3333L30.8439 120.292L-10.6665 31.5156Z" fill="white"/>
</mask>
<g mask="url(#mask17_196_956)">
<mask id="mask18_196_956" style="mask-type:luminance" maskUnits="userSpaceOnUse" x="-11" y="3" width="102" height="118">
<path d="M-10.6665 31.5156L49.12 3.5625L90.6304 92.3333L30.8439 120.292L-10.6665 31.5156Z" fill="white"/>
</mask>
<g mask="url(#mask18_196_956)">
<mask id="mask19_196_956" style="mask-type:luminance" maskUnits="userSpaceOnUse" x="-11" y="3" width="102" height="118">
<path d="M-10.6665 31.5156L49.12 3.5625L90.6304 92.3333L30.8439 120.292L-10.6665 31.5156Z" fill="white"/>
</mask>
<g mask="url(#mask19_196_956)">
<path d="M63.6669 55.672C63.0575 58.1408 62.1825 60.5106 61.0367 62.7866C59.8961 65.0627 58.5159 67.1825 56.8961 69.1512C55.2763 71.1252 53.4586 72.8908 51.4377 74.4585C49.4221 76.0262 47.2606 77.3543 44.9481 78.4377L44.8075 78.5054C44.0367 77.5158 43.3231 76.4897 42.6669 75.422C42.0159 74.3543 41.4221 73.2502 40.8961 72.1147C40.3648 70.9793 39.9065 69.8231 39.5054 68.6304C39.1096 67.4429 38.7815 66.2397 38.5211 65.0106C38.2659 63.7866 38.0731 62.5522 37.9534 61.3022C37.8336 60.0575 37.7867 58.8022 37.8075 57.5522C37.8336 56.297 37.9221 55.047 38.0888 53.8022C38.2502 52.5575 38.4846 51.3231 38.7867 50.1043C39.094 48.8856 39.4638 47.6877 39.9013 46.5054C40.3388 45.3283 40.844 44.1772 41.4117 43.0522C41.9794 41.9325 42.6096 40.8387 43.3023 39.7866C43.995 38.7345 44.745 37.7189 45.5471 36.7502C46.3544 35.7762 47.2138 34.8543 48.12 33.9793C49.0315 33.1043 49.9846 32.2814 50.9898 31.5106C51.9898 30.7397 53.0315 30.0314 54.1148 29.3752C55.1981 28.7241 56.3127 28.1304 57.4586 27.6043L57.8648 27.4116C59.37 29.4012 60.6356 31.5314 61.6617 33.8022C62.6877 36.0731 63.4534 38.4325 63.9534 40.8752C64.4586 43.3179 64.6825 45.7866 64.6356 48.2866C64.5836 50.7814 64.2606 53.245 63.6669 55.672Z" fill="#A2D159"/>
</g>
</g>
</g>
</g>
<mask id="mask20_196_956" style="mask-type:luminance" maskUnits="userSpaceOnUse" x="44" y="26" width="22" height="54">
<path d="M44 26.2397H65.3333V79.5731H44V26.2397Z" fill="white"/>
</mask>
<g mask="url(#mask20_196_956)">
<mask id="mask21_196_956" style="mask-type:luminance" maskUnits="userSpaceOnUse" x="-11" y="3" width="102" height="118">
<path d="M-10.6665 31.5156L49.12 3.5625L90.6304 92.3333L30.8439 120.292L-10.6665 31.5156Z" fill="white"/>
</mask>
<g mask="url(#mask21_196_956)">
<mask id="mask22_196_956" style="mask-type:luminance" maskUnits="userSpaceOnUse" x="-11" y="3" width="102" height="118">
<path d="M-10.6665 31.5156L49.12 3.5625L90.6304 92.3333L30.8439 120.292L-10.6665 31.5156Z" fill="white"/>
</mask>
<g mask="url(#mask22_196_956)">
<mask id="mask23_196_956" style="mask-type:luminance" maskUnits="userSpaceOnUse" x="-11" y="3" width="102" height="118">
<path d="M-10.6665 31.5156L49.12 3.5625L90.6304 92.3333L30.8439 120.292L-10.6665 31.5156Z" fill="white"/>
</mask>
<g mask="url(#mask23_196_956)">
<path d="M63.667 55.6719C63.0576 58.1406 62.1826 60.5104 61.0368 62.7865C59.8962 65.0625 58.516 67.1823 56.8962 69.151C55.2764 71.125 53.4587 72.8906 51.4378 74.4583C49.4222 76.026 47.2607 77.3542 44.9482 78.4375L57.4482 27.6094L57.8545 27.4219C59.3597 29.4115 60.6253 31.5365 61.6514 33.8073C62.6826 36.0781 63.4482 38.4375 63.9482 40.8802C64.4482 43.3177 64.6774 45.7917 64.6305 48.2865C64.5837 50.7813 64.2607 53.2448 63.667 55.6719Z" fill="#84AF38"/>
</g>
</g>
</g>
</g>
<mask id="mask24_196_956" style="mask-type:luminance" maskUnits="userSpaceOnUse" x="22" y="63" width="59" height="52">
<path d="M22.667 63.5732H80.0003V114.24H22.667V63.5732Z" fill="white"/>
</mask>
<g mask="url(#mask24_196_956)">
<mask id="mask25_196_956" style="mask-type:luminance" maskUnits="userSpaceOnUse" x="-11" y="3" width="102" height="118">
<path d="M-10.6665 31.5161L49.12 3.56299L90.6304 92.3338L30.8439 120.292L-10.6665 31.5161Z" fill="white"/>
</mask>
<g mask="url(#mask25_196_956)">
<mask id="mask26_196_956" style="mask-type:luminance" maskUnits="userSpaceOnUse" x="-11" y="3" width="102" height="118">
<path d="M-10.6665 31.5161L49.12 3.56299L90.6304 92.3338L30.8439 120.292L-10.6665 31.5161Z" fill="white"/>
</mask>
<g mask="url(#mask26_196_956)">
<mask id="mask27_196_956" style="mask-type:luminance" maskUnits="userSpaceOnUse" x="-11" y="3" width="102" height="118">
<path d="M-10.6665 31.5161L49.12 3.56299L90.6304 92.3338L30.8439 120.292L-10.6665 31.5161Z" fill="white"/>
</mask>
<g mask="url(#mask27_196_956)">
<path d="M68.1458 64.2607L69.2813 67.4951L78.5365 93.7295C79.2604 95.7816 77.9115 98.2503 75.4427 99.4066L45.875 113.229C43.401 114.386 40.6406 113.834 39.5313 111.964L25.3333 88.042L23.5781 85.0993L68.1458 64.2607Z" fill="#E58E6C"/>
</g>
</g>
</g>
</g>
<mask id="mask28_196_956" style="mask-type:luminance" maskUnits="userSpaceOnUse" x="16" y="55" width="56" height="33">
<path d="M16 55.5732H72V87.5732H16V55.5732Z" fill="white"/>
</mask>
<g mask="url(#mask28_196_956)">
<mask id="mask29_196_956" style="mask-type:luminance" maskUnits="userSpaceOnUse" x="-11" y="3" width="102" height="118">
<path d="M-10.6665 31.5161L49.12 3.56299L90.6304 92.3338L30.8439 120.292L-10.6665 31.5161Z" fill="white"/>
</mask>
<g mask="url(#mask29_196_956)">
<mask id="mask30_196_956" style="mask-type:luminance" maskUnits="userSpaceOnUse" x="-11" y="3" width="102" height="118">
<path d="M-10.6665 31.5161L49.12 3.56299L90.6304 92.3338L30.8439 120.292L-10.6665 31.5161Z" fill="white"/>
</mask>
<g mask="url(#mask30_196_956)">
<mask id="mask31_196_956" style="mask-type:luminance" maskUnits="userSpaceOnUse" x="-11" y="3" width="102" height="118">
<path d="M-10.6665 31.5161L49.12 3.56299L90.6304 92.3338L30.8439 120.292L-10.6665 31.5161Z" fill="white"/>
</mask>
<g mask="url(#mask31_196_956)">
<path d="M69.5263 56.5735L71.4638 60.709C71.8857 61.6204 71.2972 62.7923 70.167 63.3183L21.5628 86.0423C20.4222 86.5787 19.1566 86.2767 18.7295 85.3652L16.7972 81.2298C16.3701 80.3183 16.9586 79.1465 18.0888 78.6152L66.7034 55.886C67.8336 55.36 69.0993 55.6621 69.5263 56.5735Z" fill="#E58E6C"/>
</g>
</g>
</g>
</g>
<mask id="mask32_196_956" style="mask-type:luminance" maskUnits="userSpaceOnUse" x="22" y="63" width="48" height="26">
<path d="M22.667 63.5732H69.3337V88.9066H22.667V63.5732Z" fill="white"/>
</mask>
<g mask="url(#mask32_196_956)">
<mask id="mask33_196_956" style="mask-type:luminance" maskUnits="userSpaceOnUse" x="-11" y="3" width="102" height="118">
<path d="M-10.6665 31.5161L49.12 3.56299L90.6304 92.3338L30.8439 120.292L-10.6665 31.5161Z" fill="white"/>
</mask>
<g mask="url(#mask33_196_956)">
<mask id="mask34_196_956" style="mask-type:luminance" maskUnits="userSpaceOnUse" x="-11" y="3" width="102" height="118">
<path d="M-10.6665 31.5161L49.12 3.56299L90.6304 92.3338L30.8439 120.292L-10.6665 31.5161Z" fill="white"/>
</mask>
<g mask="url(#mask34_196_956)">
<mask id="mask35_196_956" style="mask-type:luminance" maskUnits="userSpaceOnUse" x="-11" y="3" width="102" height="118">
<path d="M-10.6665 31.5161L49.12 3.56299L90.6304 92.3338L30.8439 120.292L-10.6665 31.5161Z" fill="white"/>
</mask>
<g mask="url(#mask35_196_956)">
<path d="M68.1462 64.2607L69.2868 67.4847L25.3337 88.0368L23.5889 85.0941L68.1462 64.2607Z" fill="#C16C52"/>
</g>
</g>
</g>
</g>
<mask id="mask36_196_956" style="mask-type:luminance" maskUnits="userSpaceOnUse" x="42" y="55" width="39" height="52">
<path d="M42.667 55.5732H80.0003V106.24H42.667V55.5732Z" fill="white"/>
</mask>
<g mask="url(#mask36_196_956)">
<mask id="mask37_196_956" style="mask-type:luminance" maskUnits="userSpaceOnUse" x="-11" y="3" width="102" height="118">
<path d="M-10.6665 31.5161L49.12 3.56299L90.6304 92.3338L30.8439 120.292L-10.6665 31.5161Z" fill="white"/>
</mask>
<g mask="url(#mask37_196_956)">
<mask id="mask38_196_956" style="mask-type:luminance" maskUnits="userSpaceOnUse" x="-11" y="3" width="102" height="118">
<path d="M-10.6665 31.5161L49.12 3.56299L90.6304 92.3338L30.8439 120.292L-10.6665 31.5161Z" fill="white"/>
</mask>
<g mask="url(#mask38_196_956)">
<mask id="mask39_196_956" style="mask-type:luminance" maskUnits="userSpaceOnUse" x="-11" y="3" width="102" height="118">
<path d="M-10.6665 31.5161L49.12 3.56299L90.6304 92.3338L30.8439 120.292L-10.6665 31.5161Z" fill="white"/>
</mask>
<g mask="url(#mask39_196_956)">
<path d="M69.5262 56.5735L71.4637 60.709C71.8856 61.6204 71.297 62.7923 70.1668 63.3183L68.146 64.261L69.2814 67.4954L78.5366 93.7298C79.2606 95.7819 77.9116 98.2506 75.4429 99.4069L61.3179 106.011L43.0522 66.9485L66.7033 55.886C67.8335 55.36 69.0991 55.6621 69.5262 56.5735Z" fill="#231F20" fill-opacity="0.1"/>
</g>
</g>
</g>
</g>
<mask id="mask40_196_956" style="mask-type:luminance" maskUnits="userSpaceOnUse" x="89" y="0" width="30" height="68">
<path d="M89.3335 0H118.667V67.5729H89.3335V0Z" fill="white"/>
</mask>
<g mask="url(#mask40_196_956)">
<path d="M118.156 32.9585C118.156 46.3908 112.708 58.3856 104.162 66.2866L104.031 66.4116C95.5679 58.5991 90.1616 46.7345 90.1616 33.4377C90.1616 20.1356 95.62 8.18245 104.162 0.343913C104.292 0.218913 104.417 0.10433 104.547 -0.0102539C112.865 7.91162 118.156 19.745 118.156 32.9585Z" fill="#96BA58"/>
</g>
<mask id="mask41_196_956" style="mask-type:luminance" maskUnits="userSpaceOnUse" x="104" y="0" width="15" height="68">
<path d="M104 0H118.667V67.5729H104V0Z" fill="white"/>
</mask>
<g mask="url(#mask41_196_956)">
<path d="M118.156 32.9582C118.156 46.3905 112.708 58.3853 104.162 66.2863V0.359212C104.292 0.23942 104.417 0.119629 104.547 0.0102539C112.865 7.9113 118.156 19.7446 118.156 32.9582Z" fill="#84AF38"/>
</g>
<path d="M100.089 39.5156C106.391 50.0104 107.006 62.3906 102.849 73.2604C102.829 73.3177 102.808 73.3802 102.787 73.4323C91.3285 71.9792 80.7869 65.6667 74.5421 55.276C68.3025 44.8802 67.7087 32.526 71.9223 21.724C71.99 21.5573 72.0473 21.3958 72.1098 21.2344C83.4691 22.8385 93.891 29.1875 100.089 39.5156Z" fill="#A2D159"/>
<path d="M100.089 39.5156C106.391 50.0104 107.005 62.3906 102.849 73.2604L71.9062 21.724C71.974 21.5573 72.026 21.3958 72.0938 21.2344C83.4688 22.8385 93.8906 29.1875 100.089 39.5156Z" fill="#84AF38"/>
<path d="M132.125 57.8335C130.667 60.3283 128.943 62.6252 126.964 64.7345C124.984 66.8387 122.797 68.7033 120.401 70.3179C118 71.9377 115.453 73.2658 112.755 74.3127C110.057 75.3595 107.276 76.0939 104.412 76.5158L104.234 76.547C103.719 75.2137 103.281 73.8595 102.917 72.4741C102.557 71.0939 102.271 69.6981 102.068 68.2814C101.859 66.87 101.734 65.4481 101.688 64.021C101.646 62.5939 101.682 61.172 101.797 59.745C101.912 58.3231 102.109 56.9116 102.38 55.5106C102.656 54.1095 103.01 52.7241 103.443 51.3647C103.875 50.0002 104.38 48.6668 104.964 47.3647C105.542 46.0575 106.198 44.7918 106.922 43.5575C107.646 42.3283 108.438 41.1408 109.297 40.0002C110.156 38.8543 111.078 37.7658 112.057 36.7241C113.042 35.6877 114.078 34.7033 115.172 33.7814C116.26 32.8595 117.401 32.0002 118.594 31.2033C119.781 30.4116 121.016 29.6825 122.287 29.0262C123.557 28.37 124.859 27.7866 126.198 27.2762C127.537 26.7658 128.896 26.3335 130.281 25.9741C131.667 25.62 133.073 25.3387 134.49 25.1408L134.995 25.0679C135.984 27.7345 136.667 30.4793 137.042 33.297C137.422 36.1147 137.484 38.9377 137.24 41.771C136.99 44.6043 136.438 47.3752 135.573 50.0835C134.708 52.797 133.563 55.3804 132.125 57.8335Z" fill="#A2D159"/>
<path d="M132.125 57.8333C130.667 60.3281 128.943 62.625 126.964 64.7344C124.985 66.8385 122.797 68.7031 120.401 70.3177C118 71.9375 115.453 73.2656 112.755 74.3125C110.057 75.3594 107.276 76.0938 104.412 76.5156L134.49 25.1354L134.995 25.0625C135.985 27.7292 136.667 30.474 137.042 33.2917C137.422 36.1094 137.49 38.9375 137.24 41.7708C136.99 44.6042 136.438 47.375 135.573 50.0833C134.714 52.7969 133.563 55.3802 132.125 57.8333Z" fill="#84AF38"/>
<mask id="mask42_196_956" style="mask-type:luminance" maskUnits="userSpaceOnUse" x="65" y="63" width="78" height="57">
<path d="M65.9482 63.5732H142.948V119H65.9482V63.5732Z" fill="white"/>
</mask>
<g mask="url(#mask42_196_956)">
<path d="M142.781 87.7035C142.787 93.5212 141.521 99.0524 138.979 104.292C138.146 106.021 137.188 107.677 136.094 109.261C134.802 111.157 133.344 112.922 131.729 114.552C130.115 116.188 128.37 117.662 126.49 118.979H82.4221C78.9169 116.516 75.9117 113.552 73.396 110.089C72.7242 109.167 72.0835 108.214 71.5106 107.24C69.745 104.282 68.4065 101.146 67.495 97.8285C66.5835 94.516 66.1252 91.1357 66.1304 87.6982C66.1304 87.5472 66.1304 87.391 66.1304 87.2399C66.1721 82.9587 66.9169 78.8024 68.37 74.7712C69.8179 70.7399 71.8908 67.0576 74.5887 63.7295H134.313C136.802 66.8024 138.761 70.1878 140.198 73.8753C141.63 77.5576 142.464 81.3753 142.703 85.3232C142.755 86.1149 142.781 86.9066 142.781 87.7035Z" fill="#E58E6C"/>
</g>
<mask id="mask43_196_956" style="mask-type:luminance" maskUnits="userSpaceOnUse" x="65" y="75" width="78" height="16">
<path d="M65.9482 75.5732H142.948V90.2399H65.9482V75.5732Z" fill="white"/>
</mask>
<g mask="url(#mask43_196_956)">
<path d="M142.704 85.3441C136.881 88.0368 120.688 89.6097 104.454 89.9587C88.3234 90.3024 72.1515 89.4326 66.1411 87.2451C66.1567 85.542 66.2869 83.8493 66.5317 82.167C70.1932 80.068 74.1307 79.0055 78.3547 78.9795C83.938 79.0472 84.9536 81.5941 92.0994 83.2451C96.1776 84.1618 100.292 84.4326 104.454 84.0628C107.625 83.7764 110.74 83.193 113.797 82.318C122.855 79.8232 123.948 76.542 130.292 76.5264C134.459 76.5941 138.339 77.6618 141.943 79.7399C142.339 81.5889 142.589 83.4535 142.704 85.3441Z" fill="white"/>
</g>
<path d="M138.979 104.292C138.146 106.021 137.188 107.677 136.094 109.26C129.594 111.094 116.912 112.135 104.453 112.344C102.985 112.37 101.521 112.375 100.063 112.375C88.5889 112.375 77.9639 111.63 73.3962 110.089C72.7243 109.167 72.0837 108.214 71.5107 107.24C73.1045 105.286 78.4951 102.885 83.5889 102.938C88.3545 102.99 89.2295 105.172 95.3441 106.583C98.3441 107.266 101.381 107.526 104.453 107.37C107.662 107.203 110.808 106.682 113.891 105.802C121.651 103.677 122.568 100.865 128 100.844C132.209 100.844 136.683 102.526 138.979 104.292Z" fill="white"/>
<mask id="mask44_196_956" style="mask-type:luminance" maskUnits="userSpaceOnUse" x="104" y="63" width="39" height="57">
<path d="M104 63.5732H142.948V119H104V63.5732Z" fill="white"/>
</mask>
<g mask="url(#mask44_196_956)">
<path d="M142.781 87.7035C142.786 93.5212 141.521 99.0524 138.979 104.292C138.146 106.021 137.188 107.677 136.094 109.261C134.802 111.157 133.344 112.922 131.729 114.552C130.115 116.188 128.37 117.662 126.49 118.979H104.453V63.7451H134.313C136.802 66.8232 138.76 70.2035 140.198 73.891C141.63 77.5785 142.464 81.3962 142.703 85.3441C142.755 86.1149 142.781 86.9066 142.781 87.7035Z" fill="#231F20" fill-opacity="0.15"/>
</g>
</svg>
