<svg width="160" height="147" viewBox="0 0 160 147" fill="none" xmlns="http://www.w3.org/2000/svg">
<path d="M153.34 61.7186V137.599C153.34 138.62 152.512 139.443 151.491 139.443H35.6995C34.6787 139.443 33.8506 138.62 33.8506 137.599V61.7186C33.8506 60.6978 34.6787 59.8696 35.6995 59.8696H151.491C152.512 59.8696 153.34 60.6978 153.34 61.7186Z" fill="#A3E0E6"/>
<path d="M153.34 130.276V130.995H33.8506V130.276H153.34Z" fill="#DAF3F2"/>
<path d="M153.34 114.786V115.505H33.8506V114.786H153.34Z" fill="#DAF3F2"/>
<path d="M153.34 99.2969V100.021H33.8506V99.2969H153.34Z" fill="#DAF3F2"/>
<path d="M153.34 83.8071V84.5311H33.8506V83.8071H153.34Z" fill="#DAF3F2"/>
<path d="M153.34 68.3228V69.0415H33.8506V68.3228H153.34Z" fill="#DAF3F2"/>
<path d="M43.804 59.8696V139.443H43.1113V59.8696H43.804Z" fill="#DAF3F2"/>
<path d="M58.1995 59.8696V139.443H57.5068V59.8696H58.1995Z" fill="#DAF3F2"/>
<path d="M72.5902 59.8696V139.443H71.8975V59.8696H72.5902Z" fill="#DAF3F2"/>
<path d="M86.9862 59.8696V139.443H86.2935V59.8696H86.9862Z" fill="#DAF3F2"/>
<path d="M101.377 59.8696V139.443H100.684V59.8696H101.377Z" fill="#DAF3F2"/>
<path d="M115.767 59.8696V139.443H115.075V59.8696H115.767Z" fill="#DAF3F2"/>
<path d="M130.163 59.8696V139.443H129.471V59.8696H130.163Z" fill="#DAF3F2"/>
<path d="M144.554 59.8696V139.443H143.866V59.8696H144.554Z" fill="#DAF3F2"/>
<path d="M138.934 59.875H135.893L137.07 59.7656L138.934 59.875Z" fill="#A6E1DD"/>
<path d="M132.132 75.9948C131.575 75.9948 130.934 75.8958 130.163 75.6927V69.0417H137.731C137.335 70.9271 136.83 72.5625 136.21 73.3073C134.778 75.0156 133.882 75.9948 132.132 75.9948ZM137.871 68.3229H130.163V60.3906L135.892 59.875H138.934C138.934 59.875 138.616 64.4323 137.871 68.3229Z" fill="#86D6D6"/>
<path d="M137.731 69.0415H130.163V68.3228H137.877C137.83 68.5623 137.778 68.8071 137.731 69.0415Z" fill="#98DCD8"/>
<path d="M129.471 75.4945C125.84 74.4632 118.382 72.7913 115.768 72.4632V69.0413H129.471V75.4945ZM129.471 68.3226H115.768V61.7028L129.471 60.458V68.3226Z" fill="#86D6D6"/>
<path d="M129.471 69.0415H115.768V68.3228H129.471V69.0415Z" fill="#98DCD8"/>
<path d="M110.012 72.4167C108.705 72.4167 107.294 72.3542 105.742 72.1198C103.481 71.7708 102.163 71.6979 101.377 71.151V69.0417H115.08V72.3958C114.637 72.3646 114.179 72.3542 113.71 72.3542C113.143 72.3542 112.554 72.3698 111.939 72.3854C111.32 72.401 110.679 72.4167 110.012 72.4167ZM115.08 68.3177H101.377V63.0104L115.08 61.7656V68.3177Z" fill="#86D6D6"/>
<path d="M115.08 69.0413H101.377V68.3174H115.08V69.0413Z" fill="#98DCD8"/>
<path d="M100.684 70.2707C100.544 69.9478 100.445 69.5467 100.366 69.0415H100.684V70.2707ZM100.684 68.3228H100.278C100.054 66.0832 100.408 64.5311 100.684 63.7134V68.3228Z" fill="#86D6D6"/>
<path d="M100.684 69.0415H100.366C100.33 68.8228 100.299 68.5832 100.278 68.3228H100.684V69.0415Z" fill="#98DCD8"/>
<path d="M101.377 71.1509C101.075 70.9373 100.856 70.6613 100.684 70.2707V63.7134C100.835 63.2707 100.96 63.0467 100.96 63.0467L101.377 63.0103V71.1509Z" fill="#98DCD8"/>
<path d="M115.767 72.4635C115.543 72.4323 115.309 72.4115 115.075 72.3958V61.7656L115.767 61.7031V72.4635Z" fill="#98DCD8"/>
<path d="M130.163 75.6875C130.049 75.6615 129.934 75.6302 129.814 75.5938C129.705 75.5625 129.59 75.526 129.471 75.4948V60.4583L130.163 60.3906V75.6875Z" fill="#98DCD8"/>
<path d="M61.783 89.4113C61.408 89.4113 61.0122 89.3332 60.6112 89.1353C59.1789 88.4321 59.0487 87.7186 58.1997 87.4269V84.5311H65.8143C64.9653 86.5311 64.5435 87.4686 64.4289 87.9217C64.3299 88.3228 63.1789 89.4113 61.783 89.4113ZM66.1216 83.8071H58.1997V69.0415H66.7622C66.7726 69.3071 66.7935 69.5571 66.8143 69.7863C67.0955 72.8384 67.1789 81.3019 66.1216 83.8071ZM66.7466 68.3228H58.1997V64.4634C62.1268 62.2498 66.4028 59.8696 66.4028 59.8696H67.2257C67.2257 59.8696 66.7101 64.9582 66.7466 68.3228Z" fill="#86D6D6"/>
<path d="M65.8143 84.5311H58.1997V83.8071H66.1216C66.0122 84.0623 65.9132 84.3019 65.8143 84.5311Z" fill="#98DCD8"/>
<path d="M66.7622 69.0415H58.1997V68.3228H66.7466C66.7466 68.5728 66.757 68.8123 66.7622 69.0415Z" fill="#98DCD8"/>
<path d="M54.7778 87.4842C53.9289 87.4842 53.2153 87.2134 52.6893 86.0155C52.4445 85.4634 52.1841 84.979 51.9341 84.5311H57.507V87.2967C57.4081 87.2915 57.2987 87.2863 57.1789 87.2863C56.3039 87.2863 55.4914 87.4842 54.7778 87.4842ZM57.507 83.8071H51.5383C50.9758 82.7707 50.5695 81.7811 50.6997 80.255C50.8716 78.203 51.4445 71.4686 51.6685 69.0415H57.507V83.8071ZM57.507 68.3228H51.7362C51.7466 68.229 51.757 68.1717 51.757 68.1613C51.7778 68.0988 54.4497 66.5728 57.507 64.854V68.3228Z" fill="#86D6D6"/>
<path d="M57.5068 84.5311H51.9339C51.7985 84.2811 51.6631 84.0467 51.5381 83.8071H57.5068V84.5311Z" fill="#98DCD8"/>
<path d="M57.507 69.0415H51.6685C51.6997 68.7186 51.7205 68.4686 51.7362 68.3228H57.507V69.0415Z" fill="#98DCD8"/>
<path d="M58.1995 87.4269C58.012 87.3592 57.7881 87.3175 57.5068 87.2967V64.854C57.736 64.7238 57.9652 64.5936 58.1995 64.4634V87.4269Z" fill="#98DCD8"/>
<path d="M33.8506 88.2184V85.7184L34.2412 84.5309H43.111V86.2393C43.0485 86.3018 42.9756 86.3695 42.9027 86.4424C41.512 87.6872 38.5173 87.8018 37.2881 87.8018C37.012 87.8018 36.8245 87.7965 36.762 87.7965C36.4183 87.7965 33.8506 88.2184 33.8506 88.2184ZM42.9027 83.807H34.4808L38.6891 71.0986C38.6891 71.0986 40.6995 71.9476 40.6995 73.432C40.6995 74.9163 41.7568 79.1507 41.8402 79.4893C41.9287 79.833 42.6891 83.4632 42.9027 83.807Z" fill="#86D6D6"/>
<path d="M43.111 84.5311H34.2412L34.4808 83.8071H42.9027C42.9391 83.8696 43.0173 83.9478 43.111 84.0363V84.5311Z" fill="#98DCD8"/>
<path d="M43.1113 86.2393V84.0361C43.5176 84.4268 44.2103 85.109 43.1113 86.2393Z" fill="#98DCD8"/>
<path d="M69.7676 32.8386C69.7676 32.8386 70.7936 32.9896 71.1895 32.8386C71.5853 32.6823 73.3665 32.1719 73.9603 32.4063C74.554 32.6459 82.0645 54.5105 82.3822 55.6146C82.6999 56.724 82.6165 58.1927 81.9863 58.1511C81.3561 58.1094 76.2155 59.099 75.5801 58.8594C74.9499 58.6198 73.4863 58.1042 73.4863 58.1042L69.7676 32.8386Z" fill="#CE3930"/>
<path d="M134.497 139.443H130.163V130.995H134.445C134.445 135.109 134.497 139.443 134.497 139.443ZM129.471 139.443H115.768V130.995H129.471V139.443ZM115.075 139.443H115.033C115.033 139.443 115.054 138.885 115.075 138.01V139.443ZM134.445 130.276H130.163V115.505H135.179C134.898 119.521 134.648 123.083 134.554 124.203C134.476 125.187 134.445 127.625 134.445 130.276ZM129.471 130.276H115.768V115.505H129.471V130.276ZM135.231 114.786H130.163V100.021H131.924C131.403 103.5 130.742 106.969 130.804 107.458C130.861 107.885 131.21 108.219 131.46 108.219C131.59 108.219 131.695 108.13 131.715 107.917C131.757 107.515 133.075 103.026 133.965 100.021H136.143C136.195 100.547 136.2 101.172 136.143 101.922C135.971 104.167 135.585 109.734 135.231 114.786ZM129.471 114.786H115.768V104.364C116.695 104.25 117.788 104.208 118.893 104.208C120.07 104.208 121.262 104.255 122.288 104.297C123.309 104.344 124.169 104.385 124.674 104.385C124.934 104.385 125.101 104.375 125.148 104.344C125.34 104.219 125.492 102.109 125.492 100.255C125.492 100.177 125.492 100.099 125.492 100.021H129.471V114.786ZM136.033 99.2967H134.179C134.528 98.13 134.768 97.3228 134.768 97.3228C134.768 97.3228 135.669 97.5571 136.033 99.2967ZM132.028 99.2967H130.163V91.8488L130.742 91.3696C130.742 91.3696 132.799 92.5363 132.351 96.755C132.268 97.5571 132.153 98.4217 132.028 99.2967ZM129.471 99.2967H125.476C125.439 98.2707 125.34 97.4894 125.148 97.453C125.085 97.4373 124.95 97.4269 124.762 97.4269L127.195 90.104C127.195 90.104 128.299 90.3592 128.465 91.2915C128.637 92.2238 128.903 92.8905 128.903 92.8905L129.471 92.4217V99.2967ZM116.976 97.7707L119.012 89.078C119.012 89.078 119.117 89.0259 119.283 89.0259C119.783 89.0259 120.84 89.479 121.393 93.0467C121.752 95.4009 121.804 96.7394 121.768 97.4894C120.268 97.5519 118.507 97.6509 116.976 97.7707Z" fill="#86D6D6"/>
<path d="M134.445 130.995H130.163V130.276H134.445C134.445 130.515 134.445 130.755 134.445 130.995ZM129.471 130.995H115.768V130.276H129.471V130.995Z" fill="#98DCD8"/>
<path d="M135.179 115.505H130.163V114.786H135.231C135.215 115.026 135.194 115.271 135.179 115.505ZM129.47 115.505H115.772V114.786H129.47V115.505Z" fill="#98DCD8"/>
<path d="M136.142 100.021H133.965C134.038 99.7656 134.111 99.526 134.179 99.2969H136.033C136.08 99.5156 136.116 99.7552 136.142 100.021ZM131.924 100.021H130.163V99.2969H132.033C131.996 99.5365 131.96 99.776 131.924 100.021ZM129.47 100.021H125.491C125.491 99.7708 125.486 99.526 125.476 99.2969H129.47V100.021Z" fill="#98DCD8"/>
<path d="M72.6891 139.443H72.5902V137.859C72.6475 138.807 72.6891 139.443 72.6891 139.443ZM71.8975 139.443H58.1995V130.995H71.8975V139.443ZM57.5068 139.443H52.7464C52.7464 139.443 53.2256 135.536 53.611 130.995H57.5068V139.443ZM71.8975 130.276H58.1995V115.505H71.8975V130.276ZM57.5068 130.276H53.6683C53.9912 126.276 54.2152 121.932 53.96 119.401C53.861 118.396 53.7412 117.047 53.6214 115.505H57.5068V130.276ZM71.8975 114.786H58.1995V107.146C58.3454 107.13 58.4443 107.114 58.4443 107.114L58.1995 104.989V100.021H61.7568C61.7152 100.463 61.6943 100.963 61.6943 101.489C61.6943 102.729 61.8089 104.125 61.986 105.359C61.986 105.359 64.8089 107.281 65.1475 107.448C65.1631 107.453 65.1891 107.458 65.2152 107.458C65.7777 107.458 68.5693 106.036 71.361 106.036C71.5173 106.036 71.6943 106.031 71.8975 106.021V114.786ZM57.5068 114.786H53.5641C53.1839 109.932 52.762 103.536 52.5329 100.021H55.0745C55.7048 102.547 56.4183 106.469 56.7308 106.885C56.8714 107.078 57.1839 107.151 57.5068 107.172V114.786ZM61.861 99.2967H58.1995V91.2967C58.6527 91.4894 58.7933 91.6769 58.7933 91.6769C58.7933 91.6769 59.7256 90.9113 59.7256 90.828C59.7256 90.7446 60.1631 90.1613 60.1631 90.1613C60.1631 90.1613 60.387 90.0103 60.7568 90.0103C61.3298 90.0103 62.2464 90.3853 63.1787 92.2811C63.7777 93.505 64.4391 95.7342 65.0329 97.9998C64.1006 98.0103 63.3818 98.0155 62.9704 98.0155C62.8298 98.0155 62.7256 98.0155 62.6631 98.0155C62.6579 98.0155 62.6579 98.0155 62.6527 98.0155C62.262 98.0155 62.0068 98.5155 61.861 99.2967ZM54.8818 99.2967H52.486C52.4131 98.13 52.3662 97.4269 52.3662 97.4269C52.3662 97.4269 52.5693 97.3592 52.861 97.3592C53.4495 97.3592 54.4131 97.6248 54.8662 99.2342C54.8714 99.255 54.8766 99.2759 54.8818 99.2967ZM67.7725 97.9582C68.3193 93.7134 68.8818 89.1821 68.8818 89.1821C68.8818 89.1821 68.9548 89.1665 69.0745 89.1665C69.5745 89.1665 70.9443 89.4634 71.7777 92.5155C71.8193 92.6665 71.861 92.8175 71.8975 92.9686V97.854C70.4704 97.9009 69.0537 97.9321 67.7725 97.9582Z" fill="#86D6D6"/>
<path d="M71.8978 130.995H58.1999V130.276H71.8978V130.995ZM57.5072 130.995H53.6113C53.6322 130.755 53.653 130.515 53.6686 130.276H57.5072V130.995Z" fill="#98DCD8"/>
<path d="M71.8978 115.505H58.1999V114.786H71.8978V115.505ZM57.5072 115.505H53.6217C53.6009 115.271 53.5853 115.031 53.5645 114.786H57.5072V115.505Z" fill="#98DCD8"/>
<path d="M61.7572 100.021H58.1999V99.2969H61.8561C61.8197 99.5156 61.7832 99.7604 61.7572 100.021ZM55.0749 100.021H52.5332C52.5176 99.7604 52.502 99.5208 52.4863 99.2969H54.8822C54.9447 99.5208 55.0072 99.7604 55.0749 100.021Z" fill="#98DCD8"/>
<path d="M115.08 129.974C115.033 129.172 114.965 128.547 114.867 128.245C114.356 126.719 111.814 124.458 111.137 121.01C110.919 119.891 110.309 117.807 109.585 115.505H115.08V129.974ZM115.08 114.786H109.361C107.898 110.177 106.111 105.021 106.111 105.021L111.304 108.807C111.304 108.807 113.226 108.526 113.455 107.792C113.679 107.057 111.59 107.276 110.403 106.661C109.387 106.135 108.788 106.094 108.632 106.094C108.606 106.094 108.596 106.094 108.596 106.094L107.174 105.005C107.752 105.021 108.33 105.026 108.903 105.026C111.226 105.026 113.393 104.891 114.643 104.568C114.778 104.531 114.924 104.5 115.08 104.474V114.786ZM106.419 110.328C106.419 110.328 103.283 107.281 101.872 106.776C101.747 106.729 101.58 106.677 101.377 106.615V104.563C102.262 104.693 103.372 104.802 104.57 104.885C104.851 106.021 106.419 110.328 106.419 110.328Z" fill="#86D6D6"/>
<path d="M115.08 115.505H109.585C109.512 115.271 109.434 115.026 109.361 114.786H115.08V115.505Z" fill="#98DCD8"/>
<path d="M72.5903 128.067V115.505H74.0851L73.1893 125.494C73.1893 125.494 72.8612 126.588 72.5903 128.067ZM74.1528 114.786H72.5903V105.968C75.7414 105.682 82.2362 104.599 86.2935 103.843V106.359C84.6528 107.39 83.1476 108.765 81.9862 109.937C79.8351 112.104 78.7622 114.234 78.7622 114.234C78.7622 114.234 76.7882 112.651 76.9549 111.974C77.1268 111.291 77.8039 108.698 77.8039 108.698C77.8039 108.698 75.7674 107.791 75.4028 107.791C75.033 107.791 72.8872 108.156 72.8872 108.156C72.8872 108.156 72.4653 109.088 73.3143 110.135C74.158 111.182 74.3872 112.172 74.3872 112.172L74.1528 114.786ZM74.8976 104.026C73.4966 104.026 72.9185 102.547 72.9132 100.974C72.9132 100.958 72.9132 100.942 72.9185 100.927C72.9028 102.521 73.481 104.026 74.8976 104.026ZM75.4862 103.953C77.3039 103.536 80.9705 101.859 82.5955 101.859C80.9705 101.854 77.3039 103.536 75.4862 103.953ZM72.5903 97.833V96.083C72.7101 96.6872 72.8143 97.2757 72.9028 97.8226C72.7987 97.8278 72.6945 97.8278 72.5903 97.833Z" fill="#86D6D6"/>
<path d="M74.0851 115.505H72.5903V114.786H74.1528L74.0851 115.505Z" fill="#98DCD8"/>
<path d="M100.684 106.422C98.3249 105.791 93.6478 104.791 90.9655 104.791C90.8509 104.791 90.7363 104.791 90.627 104.797C89.4134 104.838 88.1738 105.286 86.9863 105.948V103.713C88.1061 103.5 88.9759 103.323 89.4395 103.213C89.9238 103.099 90.5384 103.047 91.2363 103.047C93.9603 103.047 97.929 103.802 100.174 104.343C100.33 104.38 100.502 104.416 100.684 104.453V106.422ZM57.5072 98.9997L56.627 91.3851C56.627 91.3851 57.054 91.208 57.5072 91.1768V98.9997Z" fill="#86D6D6"/>
<path d="M58.1995 139.443H57.5068V107.172C57.5693 107.172 57.637 107.177 57.6995 107.177C57.887 107.177 58.0641 107.161 58.1995 107.146V139.443ZM58.1995 104.99L57.5068 99.0052V91.1771C57.5485 91.1719 57.5954 91.1719 57.637 91.1719C57.7829 91.1719 57.9287 91.1875 58.0589 91.2396C58.1058 91.2552 58.1527 91.276 58.1995 91.2917V104.99Z" fill="#98DCD8"/>
<path d="M72.5902 139.443H71.8975V106.021C72.1058 106.01 72.3402 105.99 72.5902 105.969V128.068C72.3818 129.224 72.21 130.62 72.2673 131.901C72.3454 133.74 72.4912 136.245 72.5902 137.859V139.443ZM71.8975 97.8542V92.9688C72.1631 93.9896 72.3975 95.0625 72.5902 96.0833V97.8333C72.361 97.8437 72.1318 97.849 71.8975 97.8542Z" fill="#98DCD8"/>
<path d="M86.2935 106.359V103.844C86.533 103.802 86.7622 103.755 86.9862 103.713V105.948C86.7518 106.078 86.5174 106.213 86.2935 106.359Z" fill="#98DCD8"/>
<path d="M101.377 106.615C101.179 106.557 100.944 106.49 100.684 106.422V104.453C100.898 104.49 101.127 104.526 101.377 104.563V106.615Z" fill="#98DCD8"/>
<path d="M115.767 139.442H115.075V138.01C115.132 135.979 115.2 132.25 115.075 129.974V104.474C115.293 104.432 115.528 104.396 115.767 104.364V139.442Z" fill="#98DCD8"/>
<path d="M130.163 139.442H129.471V92.4215L130.163 91.8486V139.442Z" fill="#98DCD8"/>
<path d="M72.9185 100.87C72.8872 102.651 73.5904 104.344 75.3716 103.974C77.1529 103.609 80.9966 101.828 82.632 101.859C84.2726 101.885 86.9289 102.364 89.5539 101.63C92.1841 100.896 96.6737 100.896 98.9601 101.573C100.59 102.057 102.502 102.01 103.767 101.963C104.278 101.948 104.684 101.927 104.924 101.943C105.741 102 110.627 103.213 112.58 102.734C114.528 102.255 115.403 100.052 114.554 98.8905C113.71 97.7342 111.45 98.505 107.887 97.7238C104.33 96.9425 102.304 96.4946 102.304 96.4946C98.231 95.9321 94.3872 95.4165 92.606 95.4165C88.4237 95.4165 84.9237 96.5467 81.3039 97.2238C80.1372 97.4425 77.9029 97.604 75.3716 97.7238C75.3716 97.7238 72.9445 99.0884 72.9185 100.87Z" fill="#ECEF33"/>
<path d="M62.6634 98.0155C61.5176 97.9998 61.5332 102.198 61.9863 105.359C61.9863 105.359 64.8092 107.281 65.1478 107.443C65.4863 107.609 68.4238 106.036 71.3613 106.036C74.2988 106.036 87.0696 103.776 89.4446 103.213C91.8144 102.646 97.3509 103.667 100.179 104.344C103.002 105.021 111.59 105.359 114.643 104.568C116.497 104.088 119.861 104.193 122.288 104.297C123.846 104.364 125.018 104.432 125.148 104.344C125.486 104.12 125.715 97.5623 125.148 97.453C124.585 97.3384 118.82 97.5623 115.538 97.9009C113.653 98.0988 107.768 97.2498 102.304 96.4946C102.304 96.4946 104.33 96.9425 107.887 97.7238C111.45 98.505 113.71 97.7342 114.554 98.8905C115.403 100.052 114.528 102.255 112.58 102.734C110.627 103.213 105.742 102 104.924 101.943C104.684 101.927 104.278 101.943 103.768 101.963C102.502 102.01 100.59 102.057 98.9603 101.573C96.6738 100.896 92.1842 100.896 89.554 101.63C86.929 102.364 84.2728 101.885 82.6321 101.859C80.9967 101.828 77.153 103.609 75.3717 103.974C73.5905 104.344 72.8874 102.646 72.9186 100.87C72.9446 99.0884 75.3717 97.7238 75.3717 97.7238C70.054 97.9686 63.4394 98.0259 62.6634 98.0155Z" fill="#ECEF33"/>
<path d="M65.2152 107.458C65.1891 107.458 65.1631 107.453 65.1475 107.443C64.8089 107.281 61.986 105.359 61.986 105.359C61.8089 104.125 61.6943 102.729 61.6943 101.489C61.6943 99.5675 61.96 98.0155 62.6527 98.0155C62.6579 98.0155 62.6579 98.0155 62.6631 98.0155C62.7256 98.0155 62.8298 98.0155 62.9704 98.0155C64.5225 98.0155 70.4964 97.953 75.3714 97.7238C75.3714 97.7238 72.9443 99.0884 72.9183 100.87C72.9131 100.89 72.9131 100.906 72.9131 100.927C72.9131 100.943 72.9131 100.958 72.9131 100.974C72.9131 102.547 73.4964 104.026 74.8975 104.026C75.0485 104.026 75.2048 104.01 75.3714 103.974C77.137 103.614 80.9339 101.859 82.5954 101.859C82.6058 101.859 82.6214 101.859 82.6318 101.859C83.5693 101.875 84.8402 102.036 86.2464 102.036C87.2985 102.036 88.4287 101.948 89.5537 101.63C90.8923 101.255 92.7204 101.073 94.4912 101.073C96.1891 101.073 97.8402 101.245 98.96 101.573C100.106 101.917 101.392 101.989 102.491 101.989C102.96 101.989 103.392 101.979 103.767 101.963C104.142 101.948 104.46 101.937 104.7 101.937C104.783 101.937 104.861 101.937 104.924 101.943C105.606 101.989 109.132 102.844 111.408 102.844C111.856 102.844 112.257 102.812 112.58 102.734C114.022 102.375 114.882 101.073 114.877 99.9478C114.877 99.5571 114.772 99.1925 114.554 98.8905C113.71 97.7342 111.45 98.505 107.887 97.7238C104.33 96.9425 102.304 96.4946 102.304 96.4946C107.231 97.1769 112.496 97.9321 114.866 97.9321C115.127 97.9321 115.351 97.9217 115.538 97.9009C118.241 97.6248 122.621 97.4217 124.403 97.4217C124.783 97.4217 125.049 97.4321 125.147 97.453C125.397 97.4998 125.491 98.8019 125.491 100.255C125.491 102.109 125.34 104.219 125.147 104.344C125.101 104.375 124.934 104.385 124.674 104.385C124.168 104.385 123.309 104.344 122.288 104.297C121.262 104.255 120.069 104.208 118.892 104.208C117.788 104.208 116.694 104.25 115.767 104.364C115.528 104.396 115.293 104.427 115.08 104.474C114.924 104.5 114.778 104.531 114.642 104.568C113.392 104.89 111.226 105.026 108.903 105.026C106.2 105.026 103.283 104.844 101.377 104.562C101.127 104.526 100.897 104.489 100.684 104.453C100.502 104.417 100.33 104.38 100.179 104.344C97.9287 103.802 93.96 103.047 91.236 103.047C90.5381 103.047 89.9235 103.099 89.4391 103.213C88.9756 103.323 88.1058 103.5 86.986 103.713C86.762 103.755 86.5329 103.802 86.2933 103.844C82.236 104.599 75.7412 105.682 72.5902 105.969C72.3402 105.989 72.1058 106.01 71.8975 106.021C71.6943 106.031 71.5173 106.036 71.361 106.036C68.5693 106.036 65.7777 107.458 65.2152 107.458Z" fill="#E8E52A"/>
<mask id="mask0_195_954" style="mask-type:luminance" maskUnits="userSpaceOnUse" x="102" y="88" width="34" height="59">
<path d="M102.491 88.8018H135.825V147H102.491V88.8018Z" fill="white"/>
</mask>
<g mask="url(#mask0_195_954)">
<path d="M133.637 97.5049C132.585 98.2862 132.267 103.62 132.101 104.474C131.929 105.328 131.137 109.005 130.757 109.041C130.382 109.083 129.929 108.557 129.908 107.864C129.892 107.172 131.189 100.62 131.356 98.4737C131.528 96.3227 132.267 91.6456 130.429 91.2445C129.543 91.0518 128.97 91.3643 128.611 91.7341C128.517 92.5258 128.382 93.3174 128.262 94.1091C127.824 97.057 127.314 99.9945 126.861 102.937C126.861 103.588 126.793 104.224 126.715 104.87C126.627 105.635 126.491 106.39 126.262 107.13C126.173 107.432 125.726 107.323 125.783 107.01C126.007 105.797 126.189 104.578 126.377 103.359C126.72 101.192 127.059 99.0206 127.392 96.8539C127.559 95.781 127.72 94.7081 127.897 93.6352C127.976 93.156 128.048 92.682 128.127 92.2081C128.147 91.4685 128.017 89.932 126.554 90.0154C124.637 90.1195 124.168 92.9372 123.804 94.9008C123.439 96.8643 122.574 101.515 122.298 103.067C122.017 104.62 121.189 105.583 120.767 105.057C120.345 104.531 120.72 99.1664 120.736 97.1143C120.752 95.0674 120.981 88.7602 118.434 89.0102C115.887 89.2549 115.83 92.1872 115.694 94.3695C115.554 96.5466 115.507 99.7914 115.335 101.906C115.163 104.026 115.507 109.026 113.538 109.797C111.569 110.567 109.569 105.953 107.538 103.953C105.502 101.953 103.476 102.911 103.309 103.672C103.137 104.432 104.335 107.146 106.101 109.817C107.866 112.484 108.726 116.906 109.731 119.343C110.731 121.776 113.153 124.526 114.293 125.854C116.84 128.807 115.491 146.859 115.491 146.859H129.814C129.814 146.859 129.845 146.172 129.923 145.354C129.996 144.531 130.496 125.88 131.257 123.432C132.017 120.989 133.455 115.125 134.074 111.927C134.689 108.729 135.715 101.552 135.767 99.6299C135.814 97.7029 134.689 96.7237 133.637 97.5049Z" fill="#E6C278"/>
</g>
<path d="M127.392 96.8542C127.059 99.0208 126.72 101.193 126.377 103.359C126.189 104.578 126.007 105.797 125.783 107.005C125.726 107.323 126.174 107.432 126.262 107.13C126.491 106.391 126.627 105.635 126.715 104.87C126.793 104.224 126.861 103.589 126.861 102.938C127.314 99.9948 127.825 97.0573 128.262 94.1094C128.382 93.3177 128.517 92.526 128.611 91.7344C128.231 92.125 128.101 92.5938 128.101 92.5938C128.101 92.5938 128.121 92.4375 128.127 92.2083C128.049 92.6823 127.976 93.1563 127.897 93.6354C127.72 94.7031 127.559 95.7813 127.392 96.8542Z" fill="#B89353"/>
<mask id="mask1_195_954" style="mask-type:luminance" maskUnits="userSpaceOnUse" x="50" y="88" width="34" height="59">
<path d="M50.4912 88.8018H83.8245V147H50.4912V88.8018Z" fill="white"/>
</mask>
<g mask="url(#mask1_195_954)">
<path d="M53.4182 97.6402C54.4703 98.4215 54.788 103.755 54.9547 104.609C55.1266 105.463 55.9182 109.14 56.2985 109.182C56.6735 109.218 57.1266 108.697 57.1474 108.005C57.163 107.312 55.8662 100.755 55.6995 98.609C55.5276 96.4631 54.788 91.7808 56.6266 91.3798C57.512 91.1871 58.0849 91.4996 58.4443 91.8694C58.538 92.6662 58.6735 93.4579 58.7932 94.2496C59.2307 97.1923 59.7412 100.13 60.1943 103.078C60.1943 103.724 60.262 104.359 60.3401 105.01C60.4287 105.776 60.5641 106.526 60.7932 107.265C60.887 107.572 61.3297 107.458 61.2724 107.145C61.0485 105.932 60.8714 104.713 60.6787 103.494C60.3349 101.328 59.9964 99.161 59.663 96.9892C59.4964 95.9162 59.3349 94.8433 59.1578 93.7704C59.0797 93.2965 59.0068 92.8173 58.9287 92.3433C58.9078 91.609 59.038 90.0673 60.4964 90.1506C62.4182 90.26 62.887 93.0725 63.2516 95.036C63.6162 96.9996 64.4807 101.651 64.7568 103.203C65.038 104.755 65.8662 105.718 66.288 105.192C66.7099 104.666 66.3349 99.3017 66.3193 97.2548C66.3037 95.2027 66.0745 88.8954 68.6214 89.1454C71.1682 89.3954 71.2255 92.3277 71.361 94.5048C71.5016 96.6819 71.5485 99.9319 71.7203 102.046C71.8922 104.161 71.5537 109.161 73.5172 109.937C75.486 110.708 77.486 106.088 79.5172 104.088C81.5537 102.088 83.5797 103.052 83.7464 103.812C83.9182 104.572 82.7203 107.286 80.9547 109.953C79.1891 112.619 78.3297 117.046 77.3245 119.479C76.3245 121.911 73.9026 124.661 72.762 125.989C70.2151 128.942 71.5641 146.994 71.5641 146.994L57.1682 146.885C57.1682 146.885 57.2099 146.312 57.1318 145.489C57.0589 144.666 56.5589 126.015 55.7985 123.572C55.038 121.125 53.6005 115.26 52.986 112.062C52.3662 108.864 51.3401 101.687 51.288 99.7652C51.2412 97.8433 52.3662 96.859 53.4182 97.6402Z" fill="#E6C278"/>
</g>
<path d="M59.6631 96.9894C59.9964 99.1613 60.335 101.328 60.6787 103.495C60.8714 104.713 61.0485 105.932 61.2725 107.146C61.3298 107.458 60.887 107.573 60.7933 107.265C60.5641 106.526 60.4287 105.776 60.3402 105.005C60.262 104.359 60.1943 103.724 60.1943 103.078C59.7412 100.13 59.2308 97.1925 58.7933 94.2498C58.6735 93.4582 58.5381 92.6613 58.4443 91.8696C58.8245 92.2655 58.9548 92.729 58.9548 92.729C58.9548 92.729 58.9339 92.578 58.9287 92.3436C59.0068 92.8175 59.0798 93.2967 59.1579 93.7707C59.335 94.8436 59.4964 95.9165 59.6631 96.9894Z" fill="#B89353"/>
<path d="M74.1945 58.0675C74.1945 58.0675 75.382 58.1456 76.0539 58.0675C76.7257 57.9894 78.2674 57.7133 78.783 57.5154C79.2987 57.3175 79.6112 57.1196 80.007 56.9217C80.4028 56.7237 81.4341 55.8123 81.0382 55.656C80.6424 55.4998 78.3195 46.6404 77.6632 44.7446C77.0018 42.8435 73.9601 33.354 73.0903 33.0779C72.2205 32.8019 71.8612 33.1613 71.2726 33.2394C70.6789 33.3175 69.0955 32.1717 68.3039 33.4373C67.5122 34.6977 67.2362 35.2133 66.2466 35.6092C65.2622 36.005 64.7466 35.7654 64.4705 36.755C64.1945 37.7446 63.7987 36.9529 64.8664 39.0519C65.9341 41.1456 73.2882 57.979 73.4862 58.104C73.6841 58.2238 74.1945 58.0675 74.1945 58.0675Z" fill="#F14B3E"/>
<path d="M61.9288 49.5884C61.9288 49.5884 64.9236 53.3175 65.2622 53.7134C65.6007 54.1092 67.0694 58.0675 66.1059 61.6821C65.1476 65.2967 65.5434 72.9217 65.3142 77.3853C65.0903 81.8488 63.4497 84.5103 63.2257 85.5832C63.0017 86.6509 61.4184 87.0467 60.1163 86.5415C58.8194 86.0311 58.4497 85.4165 57.5069 85.5832C56.559 85.7498 55.2049 86.0936 54.2413 85.5832C53.283 85.0728 54.0747 78.6978 54.2413 78.4113C54.4132 78.1196 61.9288 49.5884 61.9288 49.5884Z" fill="#D58E23"/>
<path d="M38.6891 71.0986L39.3298 72.4059C39.3298 72.4059 40.6006 77.2965 40.2464 78.1924C39.8923 79.0934 39.8662 80.0934 40.2464 80.3382C40.6266 80.5882 42.0381 82.0049 41.1943 83.234C40.3454 84.4684 34.2985 85.9372 30.7985 86.0361C27.2933 86.1299 20.6266 87.3799 19.1006 87.9268C17.5745 88.4788 13.96 89.7288 12.4339 89.4268C10.9079 89.1247 9.21517 88.8278 8.81934 88.0778C8.4235 87.3278 7.29329 85.1038 7.29329 85.1038L6.77246 83.984C6.77246 83.984 11.8714 79.2445 14.2412 79.0934C16.6162 78.9424 38.6891 71.0986 38.6891 71.0986Z" fill="#6742A4"/>
<path d="M132.934 57.0729C132.934 57.0729 136.616 57.724 137.408 60.6094C138.2 63.4896 136.439 70.4375 135.174 71.5104C133.908 72.5833 131.309 72.5833 129.471 72.3021C127.632 72.0208 120.517 70.9844 116.616 70.4844C112.721 69.9844 105.486 72.1302 102.887 69.875C100.288 67.6146 101.361 62.9219 100.684 60.8333C100.007 58.7448 101.08 56.4688 101.08 56.4688L127.747 60.2656L132.934 57.0729Z" fill="#8CC025"/>
<path d="M104.528 69.0259C104.528 69.0259 119.554 68.854 122.945 69.3644C126.335 69.8748 128.283 70.1561 130.163 70.2134C132.044 70.2707 133.002 70.7186 133.908 70.3227C134.809 69.9269 134.637 68.9998 134.637 68.9998L135.658 64.6196C135.658 64.6196 136.898 61.229 135.658 59.5884C134.413 57.9529 133.565 56.8227 131.361 56.8227C129.158 56.8227 120.799 56.4842 115.768 56.4269C110.742 56.3696 106.617 56.3123 104.528 56.255C102.434 56.1977 101.096 55.2967 101.028 56.8227C100.966 58.3488 101.08 58.9113 101.757 60.6092C102.434 62.3019 102.773 63.2082 102.773 64.3384C102.773 65.4686 103.111 67.7238 103.455 68.0675C103.794 68.4061 104.528 69.0259 104.528 69.0259Z" fill="#A7D820"/>
<path d="M51.8145 80.6092C51.8145 79.9269 51.0801 70.5519 51.2468 68.5728C51.4187 66.5936 52.4916 64.6197 53.002 60.1561C53.5072 55.6926 52.7728 52.3019 53.903 51.3436C55.0332 50.3801 55.5437 50.4374 56.7312 50.4374C57.9187 50.4374 61.3614 48.854 61.9291 49.5884C62.4916 50.3228 63.9603 53.1509 64.1895 54.3332C64.4134 55.5207 65.6009 53.7134 64.4134 59.1353C63.2259 64.5624 63.903 69.5884 63.9603 73.0936C64.0176 76.5936 64.0749 77.2186 62.9447 80.6092C61.8145 83.9947 62.7728 85.2967 61.3041 85.2394C59.8353 85.1822 58.9187 84.7342 58.0801 84.6769C57.2364 84.6197 56.3926 86.1457 54.6947 85.354C53.002 84.5624 52.4916 84.1092 52.2676 82.979C52.0384 81.8488 51.8145 80.6092 51.8145 80.6092Z" fill="#F0AA33"/>
<path d="M12.9443 88.5519C15.6526 87.5832 23.2828 85.2603 26.7568 84.4321C30.2307 83.6092 36.5016 83.3123 37.7724 83.0884C39.0432 82.8644 40.8245 82.3384 40.0641 81.2134C39.2984 80.0936 38.111 81.1405 38.6214 78.3696C39.1318 75.5988 39.4703 76.0467 39.1318 74.4738C38.7932 72.9009 38.7047 72.229 38.538 71.703C38.3662 71.1821 39.7255 70.505 36.7568 71.0311C33.7932 71.5571 25.4026 72.9009 23.6214 72.9009C21.8401 72.9009 9.29845 74.4738 7.09532 75.2967C4.8922 76.1248 4.29845 76.7967 4.80887 77.4686C5.31407 78.1457 5.65262 78.4425 6.0797 79.2707C6.50157 80.0936 5.82449 83.2342 7.35053 84.8853C8.87657 86.5311 8.62137 87.5832 10.4026 88.0311C12.1787 88.479 12.9443 88.5519 12.9443 88.5519Z" fill="#8A5FB6"/>
<path d="M65.7258 37.5989C67.1945 40.9062 68.6789 44.2135 69.9237 47.6094C70.5383 49.2916 71.1685 50.9739 71.8872 52.6146C72.2258 53.3802 72.6008 54.1406 73.0278 54.8594C73.2674 55.2656 73.5278 55.6562 73.7778 56.0521C73.9966 56.4062 74.1893 56.8021 74.5226 57.0625C74.6528 57.1614 74.7987 57.0312 74.7674 56.8854C74.6737 56.4791 74.3924 56.125 74.1945 55.7552C73.9653 55.3333 73.7778 54.8958 73.5799 54.4583C73.1997 53.6354 72.8195 52.8073 72.4497 51.9791C71.7414 50.3698 71.1268 48.7187 70.5174 47.0625C69.2883 43.7083 68.3768 40.2552 66.2935 37.3021C66.0851 37.0156 65.5747 37.2604 65.7258 37.5989Z" fill="#CE3930"/>
<path d="M67.9079 36.4948C68.1839 37.3594 68.6422 38.1979 69.0225 39.0209C69.4131 39.8594 69.835 40.6823 70.262 41.5C71.1006 43.1042 71.7881 44.7657 72.4183 46.4636C72.7308 47.2917 72.9079 48.1615 73.1631 49.0104C73.4287 49.8907 73.6891 50.7761 73.9704 51.6511C74.2516 52.5261 74.5693 53.3959 74.887 54.2552C75.1735 55.0365 75.4495 55.9844 75.9547 56.6563C76.1787 56.9479 76.5954 56.7604 76.5954 56.4167C76.5902 55.5781 76.2204 54.6459 75.96 53.8594C75.6735 52.9896 75.3662 52.1146 75.0225 51.2604C74.6787 50.4063 74.3037 49.5677 73.9235 48.7292C73.5381 47.8854 73.0745 47.0834 72.7308 46.2292C72.0381 44.5157 71.387 42.8073 70.8193 41.0521C70.2777 39.375 69.71 37.5521 68.8089 36.0209C68.5016 35.5 67.7412 35.9636 67.9079 36.4948Z" fill="#CE3930"/>
<path d="M70.314 35.4061C70.5015 35.7863 70.7151 36.0467 70.9442 36.3852C71.1995 36.7654 71.3713 37.3227 71.5224 37.7498C71.8349 38.604 72.1422 39.4634 72.4911 40.3019C72.8609 41.1925 73.3453 42.005 73.7099 42.8904C74.0536 43.7342 74.3922 44.5832 74.7307 45.4269C75.4078 47.13 76.1422 48.7863 76.7203 50.5259C77.012 51.4009 77.1265 52.3123 77.3765 53.1977C77.6265 54.0884 77.8661 55.104 78.3817 55.88C78.6786 56.3279 79.314 56.0154 79.2984 55.5363C79.2776 54.6509 78.8817 53.7029 78.5692 52.88C78.2515 52.0207 77.7776 51.2342 77.4599 50.3748C76.8245 48.6196 76.2932 46.8332 75.6474 45.0884C75.3349 44.2342 75.0015 43.3852 74.6682 42.5363C74.3297 41.6821 74.1213 40.8019 73.762 39.9582C73.413 39.1404 73.0276 38.3384 72.6213 37.5571C72.3765 37.0936 72.163 36.6144 71.9495 36.1352C71.7828 35.755 71.762 35.3332 71.5901 34.9373C71.2463 34.1196 69.9338 34.63 70.314 35.4061Z" fill="#CE3930"/>
<path d="M125.825 65.479C123.616 65.3019 121.429 65.5675 119.221 65.6248C117.012 65.6873 114.809 65.8019 112.601 65.9269C111.366 65.9998 110.143 65.9842 108.908 65.8956C107.83 65.8227 106.825 65.7185 105.778 66.0362C105.132 66.2342 105.257 67.229 105.903 67.3175C106.924 67.4633 107.866 67.2185 108.856 66.9946C110.054 66.7237 111.257 66.531 112.486 66.4477C114.825 66.2967 117.189 66.2342 119.533 66.3123C121.721 66.38 123.898 66.8175 126.075 67.0467C127.226 67.1665 128.382 67.3019 129.538 67.3696C130.622 67.4373 131.799 67.656 132.877 67.4894C134.049 67.3071 133.882 65.6196 132.7 65.6612C131.538 65.7081 130.46 65.906 129.288 65.8175C128.132 65.7237 126.981 65.5727 125.825 65.479Z" fill="#8CC025"/>
<path d="M108.106 62.1716C106.965 62.1143 105.689 61.807 104.564 61.9633C103.726 62.0779 103.679 63.2654 104.518 63.432C105.585 63.6456 106.804 63.4216 107.898 63.4164C109.075 63.4164 110.252 63.432 111.429 63.4529C113.846 63.4893 116.268 63.4685 118.679 63.6299C120.929 63.781 123.179 63.7237 125.429 63.6924C127.736 63.656 130.122 63.6924 132.372 63.1768C132.7 63.0987 132.59 62.6299 132.314 62.5779C130.085 62.1404 127.726 62.2445 125.455 62.2341C123.153 62.2185 120.851 62.1664 118.554 62.2862C116.257 62.4112 113.95 62.3331 111.653 62.2862C110.471 62.2654 109.288 62.2341 108.106 62.1716Z" fill="#8CC025"/>
<path d="M111.637 58.0573C109.142 58.0677 106.46 57.9948 104.028 58.6094C103.543 58.7292 103.668 59.474 104.116 59.5365C106.559 59.8906 109.153 59.6094 111.611 59.5313C114.168 59.4479 116.731 59.375 119.288 59.4219C121.908 59.4688 124.512 59.6042 127.127 59.7396C128.351 59.8021 129.575 59.875 130.793 59.9531C131.46 60 132.127 60.0469 132.793 60.099C133.397 60.1459 133.892 60.2656 134.46 60.0469C135.002 59.8438 134.955 59.1563 134.496 58.8959C133.955 58.5886 133.314 58.6459 132.7 58.6042C132.033 58.5573 131.361 58.5104 130.694 58.474C129.47 58.3959 128.252 58.3334 127.022 58.2761C124.46 58.1615 121.892 58.1406 119.33 58.1146C116.762 58.0886 114.2 58.0417 111.637 58.0573Z" fill="#8CC025"/>
<path d="M60.981 52.4584C61.0643 53.1406 61.3247 53.7761 61.2466 54.4688C61.1841 55.0625 61.1529 55.5729 61.1841 56.1771C61.2466 57.4584 61.2154 58.7344 61.0591 60.0156C60.757 62.4063 59.9862 64.7761 59.9393 67.1979C59.882 69.8177 60.6112 72.375 60.6841 74.9948C60.7206 76.3594 60.6268 77.7188 60.4758 79.0781C60.33 80.4115 59.757 81.7031 59.7622 83.0365C59.7675 83.8334 60.8716 83.7292 61.0487 83.0781C61.231 82.4167 61.1789 81.7709 61.1685 81.0938C61.1529 80.3438 61.231 79.6146 61.2831 78.8698C61.382 77.5573 61.4289 76.2396 61.382 74.9271C61.2831 72.1979 60.7362 69.4792 61.0175 66.7448C61.2779 64.2031 62.4289 61.8802 62.6841 59.3281C62.8039 58.1511 62.8404 56.8959 62.6945 55.7136C62.6216 55.1511 62.4602 54.7448 62.2206 54.2448C61.9289 53.6302 61.9185 52.9271 61.6633 52.3021C61.5122 51.9427 60.9289 52.0469 60.981 52.4584Z" fill="#D58E23"/>
<path d="M59.3613 53.1667C59.1738 53.7188 59.2467 54.2656 59.1738 54.8438C59.0905 55.5156 58.8613 56.0521 58.5905 56.6615C58.0853 57.7917 57.804 58.8854 57.679 60.1146C57.554 61.3542 57.6895 62.5156 57.6895 63.7448C57.6842 65.0573 57.6009 66.375 57.5905 67.6875C57.5697 70.2084 57.6113 72.7448 57.6478 75.2709C57.6634 76.5729 57.7884 77.875 57.6061 79.1771C57.4447 80.3698 57.1738 81.5834 56.903 82.75C56.7936 83.2448 57.5384 83.4531 57.7415 83C58.6947 80.8542 58.3301 78.4271 58.252 76.1302C58.153 73.4688 58.1061 70.8698 58.278 68.2031C58.3613 66.9427 58.4551 65.6823 58.5853 64.4323C58.7259 63.1094 59.1478 61.8646 59.304 60.5469C59.4499 59.2552 59.4811 58.0625 59.304 56.7761C59.2207 56.1563 59.1478 55.6511 59.2624 55.0261C59.377 54.4011 59.653 53.8438 59.6634 53.2136C59.6686 53.0573 59.4134 53.0209 59.3613 53.1667Z" fill="#D58E23"/>
<path d="M55.2413 52.5467C54.9861 53.7811 55.0851 55.0884 55.0695 56.3436C55.0538 57.6717 55.059 58.9998 55.033 60.3279C54.9757 63.0102 54.7778 65.6769 54.5226 68.3488C54.2726 70.9477 54.0903 73.5415 53.8872 76.1456C53.7934 77.38 53.5799 78.5519 53.6268 79.8019C53.6684 81.0154 53.6268 82.5154 54.2257 83.5988C54.5382 84.1613 55.3247 83.8279 55.4445 83.3123C55.5851 82.7238 55.4653 82.1404 55.408 81.5467C55.3455 80.8592 55.3038 80.1717 55.257 79.4842C55.1788 78.2238 54.908 76.9634 54.9184 75.6977C54.9445 73.0206 55.1528 70.3436 55.4184 67.6821C55.6736 65.13 56.0538 62.5988 56.3038 60.0467C56.4184 58.8227 56.507 57.5988 56.5018 56.3644C56.4965 55.0727 56.4809 53.6925 56.0174 52.4686C55.8715 52.0831 55.3247 52.1561 55.2413 52.5467Z" fill="#D58E23"/>
<path d="M20.3662 83.9063C18.8662 84.3438 17.3193 84.849 15.7672 85.1303C14.3297 85.3907 12.7412 85.3282 11.3974 85.8855C10.8245 86.1198 10.736 87.0834 11.5276 87.1094C13.1735 87.1615 14.6422 86.4271 16.111 85.8698C16.8662 85.5834 17.6214 85.3021 18.3818 85.0209C19.137 84.7448 19.7464 84.4011 20.4443 84.0365C20.5276 83.9896 20.4547 83.8803 20.3662 83.9063Z" fill="#6742A4"/>
<path d="M33.252 80.6611C32.0176 80.984 30.7624 81.2236 29.5176 81.5048C28.9187 81.635 28.3405 81.7913 27.7832 82.0309C27.0853 82.3277 26.5384 82.4684 25.778 82.6142C24.5072 82.859 23.2884 83.2392 22.0176 83.4892C21.9916 83.4944 21.9968 83.5361 22.0228 83.5309C23.2416 83.3277 24.4759 83.2496 25.6843 83.0152C26.4447 82.8694 27.0905 82.7392 27.8614 82.7496C28.4603 82.76 29.0437 82.6975 29.627 82.5986C30.8353 82.3902 32.028 82.1142 33.2312 81.9006C34.1999 81.7288 35.9707 81.7965 36.5541 80.9996C36.778 80.7027 36.6999 80.3746 36.3405 80.1975C35.4551 79.76 34.1478 80.4319 33.252 80.6611Z" fill="#6742A4"/>
<path d="M36.4603 76.8435C31.6946 77.8018 26.9134 78.7133 22.1373 79.6143C19.778 80.057 17.3925 80.3175 15.028 80.7289C13.8457 80.932 12.6634 81.1664 11.4915 81.432C10.6478 81.6247 9.08005 81.7706 8.76755 82.6247C8.69463 82.8227 8.73629 82.9737 8.89775 83.1195C9.6165 83.7654 11.0696 83.2706 11.929 83.1091C13.1061 82.88 14.2832 82.6247 15.4446 82.3435C17.7675 81.7758 20.0384 81.057 22.3717 80.5206C27.1009 79.432 31.8353 78.3591 36.5853 77.3279C36.8925 77.2602 36.7728 76.781 36.4603 76.8435Z" fill="#6742A4"/>
<path d="M32.8611 73.3751C31.7257 73.7344 30.6267 74.1355 29.4549 74.3855C27.0174 74.9063 24.5174 75.2969 22.033 75.6042C19.6476 75.9011 17.2934 76.3282 14.934 76.7709C12.5851 77.2084 10.2465 77.6667 7.96528 78.3386C7.66841 78.4271 7.80382 78.7813 8.07986 78.7813C12.8455 78.849 17.8038 78.1042 22.3924 76.9844C24.6997 76.4219 27.0226 75.8699 29.3507 75.3855C30.5851 75.1251 31.8194 75.0053 33.0747 74.8438C34.2101 74.6928 35.5122 74.5938 36.4809 74.0105C37.033 73.6771 36.8559 72.7761 36.1424 72.724C35.0122 72.6407 33.908 73.0417 32.8611 73.3751Z" fill="#6742A4"/>
<mask id="mask2_195_954" style="mask-type:luminance" maskUnits="userSpaceOnUse" x="86" y="0" width="74" height="51">
<path d="M86.4912 0H159.825V50.1354H86.4912V0Z" fill="white"/>
</mask>
<g mask="url(#mask2_195_954)">
<path d="M159.752 15.4427L151.596 49.625L86.856 34.1823L95.0122 0L159.752 15.4427Z" fill="#E3D5CC"/>
</g>
<path d="M157.596 16.6769L150.2 47.6665L88.8716 33.0363L96.2674 2.0415L157.596 16.6769Z" fill="#CBBFB4"/>
<path d="M104.971 4.11947L97.5749 35.1091L96.5801 34.8747L103.976 3.87988L104.971 4.11947Z" fill="#EFE7E5"/>
<path d="M113.976 6.26546L106.58 37.2603L105.585 37.0207L112.981 6.02588L113.976 6.26546Z" fill="#EFE7E5"/>
<path d="M122.981 8.41634L115.585 39.4111L114.59 39.1716L121.986 8.17676L122.981 8.41634Z" fill="#EFE7E5"/>
<path d="M131.986 10.5625L124.59 41.5573L123.596 41.3229L130.992 10.3281L131.986 10.5625Z" fill="#EFE7E5"/>
<path d="M140.991 12.7132L133.601 43.708L132.601 43.4684L139.996 12.4736L140.991 12.7132Z" fill="#EFE7E5"/>
<path d="M149.997 14.8594L142.606 45.8542L141.606 45.6198L149.002 14.625L149.997 14.8594Z" fill="#EFE7E5"/>
<path d="M100.153 5.5C100.153 5.5 100.715 5.97396 101.033 5.96875C101.351 5.96354 102.7 6.09375 102.955 6.50521C103.21 6.91146 97.4653 28.8802 97.1372 29.9688C96.8039 31.0625 96.0591 32.3438 95.6841 32.099C95.3143 31.849 91.658 31.0313 91.382 30.6094C91.1007 30.1927 89.856 27.7813 89.856 27.7813L100.153 5.5Z" fill="#D5C012"/>
<path d="M90.8977 29.4476C90.8977 29.4476 91.5956 29.9111 92.0487 30.0621C92.507 30.2132 93.5904 30.4788 94.0018 30.4736C94.4185 30.4684 94.7049 30.3955 95.0487 30.3486C95.382 30.3017 96.4549 29.833 96.2831 29.5621C96.1164 29.2913 98.8872 20.6298 99.382 18.7184C99.8768 16.8121 102.502 7.3486 102.096 6.81214C101.689 6.28089 101.299 6.4788 100.892 6.3538C100.486 6.2288 100.054 4.68193 98.9602 5.54651C97.8716 6.4163 97.4549 6.78089 96.6529 6.80693C95.8508 6.83297 95.6477 6.45276 95.0018 7.23922C94.3612 8.03089 94.4966 7.19235 94.1581 9.4163C93.8247 11.6351 89.7935 27.609 89.8612 27.7809C89.9237 27.958 90.8977 29.4476 90.8977 29.4476Z" fill="#EEE22C"/>
<path d="M95.3822 8.40629C94.7155 11.8386 94.0644 15.2761 93.2207 18.7188C92.804 20.4219 92.3926 22.125 92.0592 23.8282C91.9082 24.6198 91.778 25.4219 91.6999 26.2032C91.653 26.6459 91.6322 27.0782 91.5957 27.5157C91.5644 27.9011 91.4967 28.3177 91.5801 28.6615C91.6113 28.7917 91.7676 28.724 91.8144 28.5886C91.9499 28.1927 91.9447 27.7813 91.9967 27.3907C92.054 26.9375 92.1478 26.4844 92.2311 26.0261C92.3874 25.1667 92.5436 24.3073 92.7103 23.448C93.0384 21.7761 93.4394 20.099 93.8509 18.4271C94.6842 15.0313 95.7624 11.6511 95.8717 8.33337C95.8822 8.00525 95.4499 8.05733 95.3822 8.40629Z" fill="#D5C012"/>
<path d="M97.2624 8.14564C97.0176 9.00502 96.903 9.90606 96.7467 10.7654C96.5905 11.6404 96.4603 12.5154 96.3353 13.3852C96.0957 15.0883 95.7311 16.8019 95.3145 18.5206C95.1113 19.3592 94.8092 20.1977 94.5645 21.0311C94.3092 21.9061 94.0488 22.7811 93.8092 23.6561C93.5697 24.5311 93.3509 25.4061 93.1374 26.2811C92.9447 27.0675 92.6634 28.0102 92.6582 28.7706C92.6582 29.1092 93.0072 29.0779 93.1686 28.7706C93.5645 28.0206 93.778 27.0675 93.9915 26.2811C94.2259 25.4113 94.4551 24.5311 94.6478 23.6561C94.8405 22.7811 95.0072 21.9061 95.1686 21.0363C95.3301 20.1561 95.4238 19.2915 95.6165 18.4113C96.002 16.6561 96.4134 14.9165 96.8978 13.1665C97.3613 11.4946 97.8717 9.67689 98.0436 8.02064C98.1009 7.45814 97.4082 7.6196 97.2624 8.14564Z" fill="#D5C012"/>
<path d="M99.2675 7.96861C99.205 8.36965 99.2154 8.67174 99.1946 9.05194C99.1686 9.47382 99.0123 10.0311 98.9029 10.4582C98.6894 11.3228 98.4706 12.1926 98.2884 13.0519C98.0956 13.9686 98.0071 14.854 97.8144 15.7603C97.6269 16.6301 97.429 17.4947 97.2363 18.3592C96.8508 20.0988 96.5175 21.8176 96.0488 23.5624C95.8144 24.4374 95.4498 25.2863 95.1842 26.1613C94.9186 27.0363 94.58 28.0207 94.5331 28.8853C94.5071 29.3801 95.0436 29.3124 95.2623 28.8853C95.6738 28.0832 95.8769 27.1092 96.08 26.2707C96.2884 25.4009 96.3665 24.5415 96.58 23.6717C97.0175 21.9009 97.5384 20.1353 97.9706 18.3644C98.179 17.4947 98.3821 16.6301 98.5748 15.7655C98.7727 14.8905 99.0644 14.0415 99.2415 13.1665C99.4134 12.3228 99.554 11.4842 99.6738 10.6457C99.7467 10.1561 99.8352 9.66132 99.9342 9.16132C100.012 8.77069 100.2 8.38528 100.283 7.97382C100.46 7.13007 99.3977 7.15611 99.2675 7.96861Z" fill="#D5C012"/>
<path d="M117.215 12.1196C117.215 12.1196 117.778 12.5988 118.096 12.5936C118.413 12.5884 119.762 12.7186 120.017 13.1248C120.273 13.5311 114.528 35.4998 114.2 36.5936C113.866 37.6821 113.122 38.9686 112.747 38.7186C112.377 38.4738 108.721 37.6561 108.439 37.2342C108.163 36.8123 106.918 34.4061 106.918 34.4061L117.215 12.1196Z" fill="#CE3930"/>
<path d="M107.96 36.0726C107.96 36.0726 108.658 36.5362 109.111 36.6872C109.565 36.8383 110.653 37.1039 111.065 37.0935C111.476 37.0883 111.768 37.0206 112.106 36.9737C112.445 36.9268 113.518 36.4581 113.346 36.182C113.174 35.9112 115.95 27.2497 116.445 25.3435C116.94 23.4372 119.565 13.9737 119.158 13.4372C118.747 12.9008 118.361 13.1039 117.955 12.9789C117.549 12.8487 117.111 11.307 116.023 12.1716C114.929 13.0362 114.512 13.406 113.716 13.432C112.913 13.4581 112.71 13.0726 112.065 13.8643C111.424 14.6508 111.554 13.8174 111.221 16.0362C110.887 18.2601 106.856 34.2289 106.919 34.406C106.986 34.5778 107.96 36.0726 107.96 36.0726Z" fill="#F14B3E"/>
<path d="M112.445 15.0311C111.778 18.4634 111.127 21.9009 110.283 25.3384C109.867 27.0415 109.455 28.7499 109.122 30.453C108.965 31.2447 108.84 32.0468 108.762 32.828C108.715 33.2655 108.695 33.6978 108.658 34.1353C108.627 34.5259 108.559 34.9426 108.643 35.2811C108.674 35.4165 108.83 35.3488 108.877 35.2082C109.012 34.8124 109.007 34.4061 109.059 34.0103C109.117 33.5624 109.21 33.104 109.294 32.6509C109.45 31.7915 109.606 30.927 109.773 30.0676C110.101 28.3957 110.502 26.7238 110.913 25.0468C111.747 21.6509 112.825 18.2759 112.934 14.953C112.945 14.6249 112.512 14.677 112.445 15.0311Z" fill="#CE3930"/>
<path d="M114.325 14.7706C114.08 15.63 113.965 16.5258 113.809 17.3904C113.653 18.2654 113.523 19.1352 113.398 20.0102C113.158 21.7133 112.794 23.4216 112.377 25.1456C112.174 25.9841 111.872 26.8175 111.627 27.656C111.372 28.531 111.111 29.406 110.872 30.281C110.632 31.1508 110.413 32.031 110.2 32.9008C110.007 33.6925 109.726 34.63 109.721 35.3956C109.721 35.7289 110.07 35.7029 110.231 35.3956C110.627 34.6456 110.84 33.6925 111.054 32.906C111.288 32.031 111.518 31.1508 111.71 30.281C111.903 29.406 112.07 28.531 112.231 27.656C112.393 26.781 112.486 25.9112 112.679 25.0362C113.064 23.281 113.476 21.5414 113.96 19.7914C114.424 18.1143 114.934 16.3018 115.106 14.6456C115.163 14.0779 114.471 14.2393 114.325 14.7706Z" fill="#CE3930"/>
<path d="M116.33 14.5936C116.262 14.9894 116.278 15.2967 116.257 15.6769C116.231 16.0936 116.075 16.6509 115.965 17.0832C115.752 17.9478 115.533 18.8124 115.351 19.6769C115.158 20.5884 115.069 21.4738 114.877 22.3853C114.684 23.2499 114.491 24.1196 114.299 24.9842C113.913 26.7238 113.58 28.4426 113.111 30.1821C112.877 31.0624 112.512 31.9113 112.247 32.7811C111.981 33.6561 111.642 34.6457 111.596 35.5051C111.564 35.9999 112.106 35.9321 112.325 35.5051C112.736 34.703 112.939 33.7342 113.137 32.8957C113.351 32.0207 113.429 31.1665 113.642 30.2967C114.08 28.5207 114.601 26.7551 115.033 24.9842C115.241 24.1196 115.444 23.2499 115.637 22.3853C115.835 21.5103 116.127 20.6613 116.304 19.7863C116.476 18.9478 116.616 18.104 116.736 17.2707C116.809 16.7759 116.898 16.2811 116.997 15.7863C117.075 15.3905 117.262 15.0051 117.346 14.5988C117.523 13.7551 116.46 13.7759 116.33 14.5936Z" fill="#CE3930"/>
<path d="M126.481 13.1821C126.481 13.1821 127.043 13.6561 127.361 13.6509C127.679 13.6509 129.028 13.7759 129.283 14.1873C129.533 14.5936 123.793 36.5623 123.465 37.6561C123.132 38.7446 122.387 40.0259 122.012 39.7811C121.642 39.5363 117.986 38.7134 117.705 38.2967C117.429 37.8748 116.184 35.4634 116.184 35.4634L126.481 13.1821Z" fill="#8CC025"/>
<path d="M117.226 37.1353C117.226 37.1353 117.924 37.5989 118.377 37.7499C118.83 37.9009 119.919 38.1614 120.33 38.1562C120.742 38.1509 121.033 38.078 121.372 38.0312C121.71 37.9895 122.783 37.5155 122.611 37.2447C122.44 36.9739 125.216 28.3124 125.71 26.4062C126.205 24.4947 128.83 15.0312 128.424 14.4999C128.012 13.9634 127.627 14.1614 127.221 14.0364C126.815 13.9114 126.377 12.3645 125.288 13.2343C124.195 14.0989 123.778 14.4634 122.981 14.4895C122.179 14.5155 121.976 14.1353 121.33 14.927C120.69 15.7134 120.82 14.8801 120.486 17.0989C120.153 19.3176 116.122 35.2916 116.184 35.4687C116.252 35.6405 117.226 37.1353 117.226 37.1353Z" fill="#A7D820"/>
<path d="M121.71 16.0936C121.044 19.5259 120.393 22.9582 119.549 26.4009C119.132 28.104 118.721 29.8124 118.387 31.5103C118.231 32.302 118.106 33.1093 118.028 33.8905C117.981 34.328 117.96 34.7603 117.924 35.1978C117.893 35.5832 117.825 36.0051 117.908 36.3436C117.939 36.479 118.096 36.4061 118.143 36.2707C118.278 35.8749 118.273 35.4634 118.325 35.0728C118.382 34.6197 118.476 34.1665 118.559 33.7134C118.715 32.8488 118.872 31.9895 119.038 31.1301C119.367 29.4582 119.768 27.7811 120.179 26.1093C121.012 22.7134 122.09 19.3384 122.2 16.0155C122.21 15.6874 121.778 15.7395 121.71 16.0936Z" fill="#8CC025"/>
<path d="M123.585 15.8278C123.346 16.6924 123.231 17.5882 123.075 18.4476C122.919 19.3278 122.788 20.1976 122.663 21.0674C122.424 22.7757 122.059 24.4841 121.643 26.2028C121.439 27.0414 121.137 27.8799 120.893 28.7184C120.637 29.5934 120.377 30.4632 120.137 31.3434C119.898 32.2132 119.679 33.0882 119.465 33.9632C119.273 34.7549 118.992 35.6924 118.986 36.4528C118.986 36.7914 119.335 36.7601 119.497 36.4528C119.893 35.708 120.106 34.7549 120.32 33.9632C120.554 33.0934 120.783 32.2132 120.976 31.3434C121.169 30.4632 121.335 29.5934 121.497 28.7184C121.658 27.8434 121.752 26.9736 121.945 26.0934C122.33 24.3434 122.742 22.6039 123.226 20.8539C123.689 19.1768 124.2 17.3643 124.372 15.708C124.429 15.1403 123.736 15.3018 123.585 15.8278Z" fill="#8CC025"/>
<path d="M125.596 15.6563C125.533 16.0521 125.544 16.3542 125.518 16.7344C125.497 17.1563 125.34 17.7136 125.231 18.1407C125.018 19.0052 124.799 19.875 124.616 20.7396C124.424 21.6511 124.335 22.5365 124.137 23.4427C123.955 24.3125 123.757 25.1771 123.564 26.0469C123.179 27.7865 122.846 29.5052 122.377 31.2448C122.143 32.125 121.778 32.974 121.512 33.8438C121.247 34.7188 120.908 35.7084 120.861 36.5677C120.835 37.0625 121.372 36.9948 121.59 36.5677C122.002 35.7657 122.205 34.7917 122.403 33.9532C122.616 33.0834 122.695 32.2292 122.908 31.3542C123.346 29.5834 123.866 27.8177 124.299 26.0469C124.507 25.1823 124.71 24.3125 124.903 23.448C125.101 22.573 125.393 21.724 125.57 20.849C125.741 20.0052 125.882 19.1667 126.002 18.3334C126.07 17.8386 126.163 17.3438 126.262 16.8438C126.34 16.4532 126.528 16.0677 126.611 15.6563C126.788 14.8125 125.726 14.8386 125.596 15.6563Z" fill="#8CC025"/>
<path d="M134.882 15.979C134.882 15.979 135.481 16.4165 135.794 16.3853C136.111 16.3592 137.465 16.3905 137.747 16.7811C138.033 17.1665 133.887 39.4946 133.637 40.604C133.387 41.7186 132.731 43.0519 132.346 42.8332C131.955 42.6092 128.252 42.0571 127.939 41.6561C127.632 41.2603 126.221 38.9478 126.221 38.9478L134.882 15.979Z" fill="#58A6B8"/>
<path d="M127.377 40.5364C127.377 40.5364 128.106 40.9426 128.569 41.0624C129.033 41.1822 130.137 41.3697 130.548 41.3333C130.96 41.2968 131.241 41.203 131.58 41.1353C131.913 41.0624 132.944 40.5155 132.757 40.2603C132.569 39.9999 134.71 31.1614 135.064 29.2239C135.423 27.2812 137.361 17.6562 136.913 17.151C136.47 16.6457 136.095 16.8749 135.684 16.7812C135.267 16.6822 134.726 15.1718 133.699 16.1145C132.673 17.0572 132.283 17.453 131.486 17.5364C130.689 17.6197 130.455 17.2551 129.871 18.0885C129.293 18.9218 129.361 18.078 129.189 20.3176C129.012 22.5572 126.142 38.776 126.22 38.9478C126.298 39.1145 127.377 40.5364 127.377 40.5364Z" fill="#7FD0E2"/>
<path d="M130.335 19.2238C129.919 22.6978 129.518 26.1717 128.924 29.6613C128.627 31.3905 128.341 33.1196 128.132 34.8436C128.033 35.6457 127.966 36.453 127.94 37.2394C127.929 37.6821 127.94 38.1144 127.934 38.5519C127.929 38.9426 127.893 39.3644 128.002 39.6978C128.044 39.828 128.19 39.7498 128.226 39.604C128.335 39.203 128.304 38.7967 128.325 38.4009C128.351 37.9478 128.413 37.4842 128.46 37.0259C128.554 36.1561 128.648 35.2863 128.752 34.4165C128.96 32.7238 129.242 31.0259 129.528 29.328C130.117 25.8801 130.945 22.4321 130.82 19.1144C130.804 18.7863 130.377 18.8696 130.335 19.2238Z" fill="#58A6B8"/>
<path d="M132.189 18.8282C132.007 19.7032 131.96 20.6094 131.866 21.4792C131.773 22.3646 131.705 23.2449 131.642 24.1199C131.528 25.8386 131.288 27.573 130.997 29.3178C130.856 30.1667 130.611 31.0261 130.429 31.8751C130.236 32.7657 130.043 33.6563 129.861 34.5469C129.684 35.4324 129.533 36.3282 129.382 37.2136C129.247 38.0157 129.033 38.9688 129.085 39.7292C129.106 40.0678 129.455 40.0105 129.596 39.6928C129.934 38.9219 130.08 37.9532 130.236 37.1511C130.408 36.2657 130.57 35.3699 130.7 34.4896C130.83 33.599 130.934 32.7188 131.033 31.8334C131.132 30.948 131.163 30.073 131.288 29.1876C131.549 27.4115 131.835 25.6459 132.189 23.8646C132.528 22.1615 132.913 20.3126 132.96 18.6511C132.976 18.0782 132.299 18.2917 132.189 18.8282Z" fill="#58A6B8"/>
<path d="M134.179 18.5104C134.143 18.9114 134.174 19.2135 134.184 19.5937C134.189 20.0156 134.07 20.5781 133.997 21.0156C133.846 21.8958 133.689 22.776 133.57 23.651C133.439 24.5729 133.419 25.4635 133.288 26.3854C133.163 27.2604 133.033 28.1406 132.903 29.0208C132.643 30.7812 132.434 32.5208 132.09 34.2916C131.919 35.1822 131.617 36.0572 131.413 36.9479C131.215 37.8385 130.95 38.8489 130.96 39.7083C130.971 40.2031 131.502 40.0989 131.689 39.6562C132.044 38.8281 132.174 37.8437 132.314 36.9895C132.46 36.1093 132.476 35.2447 132.627 34.3645C132.939 32.5625 133.33 30.7656 133.632 28.9687C133.783 28.0885 133.919 27.2083 134.054 26.3333C134.184 25.4479 134.413 24.5781 134.528 23.6927C134.637 22.8385 134.721 21.9895 134.778 21.151C134.814 20.651 134.872 20.151 134.929 19.651C134.976 19.25 135.137 18.8541 135.195 18.4375C135.309 17.5833 134.252 17.6875 134.179 18.5104Z" fill="#58A6B8"/>
<path d="M137.747 44.531C137.747 44.531 138.476 44.4112 138.747 44.5779C139.017 44.7498 140.236 45.3279 140.668 45.1091C141.096 44.8956 147.476 23.0987 147.752 21.9946C148.033 20.8904 148.049 19.406 147.606 19.4269C147.158 19.4425 143.606 18.2654 143.148 18.4841C142.694 18.6977 140.387 20.1248 140.387 20.1248L137.747 44.531Z" fill="#457CB8"/>
<path d="M142.137 19.2343C142.137 19.2343 142.976 19.1926 143.439 19.2968C143.908 19.401 144.976 19.7343 145.325 19.9531C145.679 20.1718 145.887 20.3801 146.158 20.5937C146.424 20.8072 147.101 21.7603 146.814 21.9062C146.528 22.052 144.45 30.9062 143.892 32.7968C143.335 34.6874 140.715 44.1562 140.09 44.401C139.465 44.651 139.236 44.2812 138.825 44.177C138.408 44.0781 137.241 45.177 136.752 43.8749C136.262 42.5676 136.095 42.0416 135.418 41.6093C134.747 41.1718 134.377 41.3958 134.231 40.3853C134.085 39.3801 133.767 40.1666 134.627 38.0885C135.481 36.0103 140.241 20.2447 140.387 20.1249C140.533 20.0103 142.137 19.2343 142.137 19.2343Z" fill="#6096D6"/>
<path d="M135.158 39.5832C136.351 36.2967 137.559 33.0154 138.606 29.63C139.127 27.9529 139.653 26.2811 140.242 24.6509C140.518 23.8904 140.82 23.1352 141.153 22.4269C141.34 22.0259 141.544 21.6404 141.742 21.2498C141.913 20.9009 142.07 20.5102 142.314 20.2602C142.413 20.1613 142.507 20.3019 142.476 20.4425C142.393 20.854 142.179 21.2029 142.018 21.5623C141.84 21.979 141.684 22.4217 141.523 22.854C141.21 23.6717 140.903 24.4894 140.601 25.3123C140.023 26.9165 139.507 28.5571 138.997 30.2029C137.965 33.5467 137.148 36.9946 135.533 39.9009C135.377 40.1873 135.033 39.9165 135.158 39.5832Z" fill="#457CB8"/>
<path d="M136.632 40.7705C136.867 39.9111 137.231 39.083 137.538 38.2653C137.856 37.4319 138.195 36.6142 138.533 35.8069C139.205 34.2184 139.773 32.5621 140.304 30.8746C140.559 30.0517 140.731 29.1767 140.95 28.333C141.184 27.4528 141.408 26.5726 141.653 25.6976C141.898 24.8278 142.158 23.958 142.429 23.1038C142.669 22.3226 142.908 21.3746 143.299 20.7184C143.471 20.4267 143.752 20.6351 143.736 20.984C143.689 21.8278 143.382 22.7549 143.158 23.5413C142.913 24.4111 142.658 25.2809 142.372 26.1246C142.091 26.9788 141.783 27.8121 141.471 28.6455C141.158 29.4788 140.794 30.2705 140.507 31.1246C139.934 32.8278 139.393 34.5309 138.903 36.2809C138.439 37.9528 137.945 39.7705 137.236 41.2809C136.997 41.7965 136.486 41.3017 136.632 40.7705Z" fill="#457CB8"/>
<path d="M138.262 41.953C138.413 41.578 138.575 41.328 138.757 40.9894C138.95 40.6144 139.101 40.0572 139.231 39.6353C139.491 38.7863 139.752 37.9269 140.038 37.0936C140.34 36.2082 140.726 35.4061 141.022 34.5259C141.309 33.6874 141.59 32.8436 141.866 31.9999C142.429 30.3124 143.033 28.6665 143.528 26.9322C143.772 26.0572 143.897 25.1405 144.121 24.2551C144.345 23.3697 144.564 22.3488 144.96 21.5884C145.194 21.1457 145.621 21.4842 145.59 21.9634C145.528 22.8592 145.2 23.8019 144.944 24.6197C144.674 25.4738 144.299 26.2499 144.038 27.1092C143.502 28.854 143.038 30.6405 142.496 32.3749C142.231 33.229 141.96 34.0728 141.679 34.9165C141.397 35.7655 141.21 36.6457 140.913 37.4894C140.627 38.2967 140.314 39.0936 139.986 39.8697C139.793 40.328 139.616 40.8019 139.444 41.2759C139.309 41.6509 139.272 42.078 139.132 42.4738C138.851 43.2915 137.955 42.7238 138.262 41.953Z" fill="#457CB8"/>
<path d="M151.757 18.3486C151.757 18.3486 151.038 18.5257 150.757 18.3799C150.476 18.234 149.21 17.7497 148.799 17.9997C148.392 18.2497 143.757 40.484 143.564 41.6038C143.377 42.7288 143.476 44.2132 143.918 44.1559C144.361 44.0986 147.997 44.9945 148.434 44.7392C148.872 44.4892 151.059 42.8851 151.059 42.8851L151.757 18.3486Z" fill="#5B44A4"/>
<path d="M149.382 43.9163C149.382 43.9163 148.554 44.0204 148.08 43.9527C147.606 43.885 146.512 43.6402 146.148 43.4475C145.783 43.26 145.554 43.0673 145.267 42.8746C144.986 42.6819 144.236 41.786 144.512 41.6194C144.783 41.4527 146.158 32.4631 146.559 30.5308C146.965 28.6038 148.825 18.9579 149.429 18.6611C150.033 18.3642 150.293 18.7183 150.71 18.7861C151.132 18.8538 152.205 17.661 152.799 18.9215C153.392 20.1871 153.601 20.6975 154.304 21.0777C155.012 21.4579 155.366 21.2079 155.59 22.1975C155.814 23.1923 156.064 22.385 155.377 24.5204C154.689 26.6611 151.194 42.7548 151.059 42.885C150.924 43.0152 149.382 43.9163 149.382 43.9163Z" fill="#6B4DAA"/>
<path d="M154.731 23.0779C153.799 26.4477 152.856 29.8122 152.08 33.2654C151.695 34.9789 151.304 36.6924 150.846 38.3643C150.632 39.1404 150.387 39.9164 150.111 40.6508C149.955 41.0674 149.783 41.4633 149.622 41.8695C149.476 42.2341 149.351 42.6352 149.127 42.906C149.038 43.0102 148.929 42.8799 148.95 42.7341C149.002 42.3174 149.189 41.9529 149.32 41.5831C149.465 41.1508 149.585 40.7029 149.71 40.2549C149.955 39.4164 150.2 38.5779 150.434 37.7289C150.882 36.0883 151.268 34.4112 151.643 32.7289C152.413 29.3174 152.95 25.8122 154.325 22.7862C154.46 22.4945 154.83 22.7289 154.731 23.0779Z" fill="#5B44A4"/>
<path d="M153.163 22.0051C153.002 22.8853 152.7 23.7394 152.46 24.578C152.21 25.4322 151.939 26.2707 151.663 27.1092C151.121 28.7447 150.684 30.4374 150.288 32.1613C150.101 32.9999 149.996 33.8853 149.845 34.7447C149.684 35.6405 149.528 36.5415 149.356 37.4322C149.184 38.3176 148.986 39.203 148.788 40.078C148.611 40.8749 148.444 41.8384 148.111 42.5207C147.96 42.828 147.663 42.6457 147.653 42.2967C147.632 41.453 147.866 40.4999 148.022 39.703C148.2 38.8176 148.387 37.927 148.606 37.0572C148.819 36.1874 149.059 35.3332 149.304 34.479C149.548 33.6197 149.851 32.802 150.069 31.927C150.502 30.1874 150.908 28.4478 151.257 26.6613C151.59 24.9582 151.934 23.1092 152.517 21.5467C152.72 21.0155 153.267 21.4686 153.163 22.0051Z" fill="#5B44A4"/>
<path d="M151.445 20.9582C151.33 21.3384 151.184 21.6092 151.033 21.9582C150.867 22.3436 150.762 22.9113 150.663 23.3436C150.471 24.2134 150.283 25.0884 150.059 25.9426C149.83 26.8488 149.512 27.6822 149.283 28.578C149.064 29.4374 148.851 30.3019 148.643 31.1665C148.215 32.8957 147.747 34.5832 147.387 36.3488C147.21 37.2394 147.158 38.1613 147.007 39.0624C146.856 39.9634 146.721 40.9999 146.382 41.7915C146.184 42.2499 145.731 41.9478 145.726 41.4634C145.715 40.5676 145.965 39.604 146.158 38.7655C146.361 37.8905 146.669 37.0884 146.867 36.2134C147.262 34.4322 147.58 32.6144 147.981 30.8384C148.179 29.9686 148.387 29.104 148.596 28.2394C148.809 27.3749 148.929 26.479 149.158 25.6197C149.377 24.7915 149.627 23.9738 149.893 23.1717C150.049 22.6978 150.184 22.2134 150.32 21.7238C150.424 21.3384 150.429 20.9113 150.533 20.5051C150.752 19.6717 151.689 20.1665 151.445 20.9582Z" fill="#5B44A4"/>
<path d="M103.163 29.4167C103.163 29.4167 102.57 28.9792 102.252 29C101.939 29.0261 100.585 28.9844 100.304 28.5886C100.028 28.198 104.387 5.91671 104.648 4.80734C104.913 3.69796 105.58 2.36984 105.966 2.59379C106.351 2.81775 110.049 3.4063 110.356 3.80734C110.658 4.20838 112.049 6.5365 112.049 6.5365L103.163 29.4167Z" fill="#CF741B"/>
<path d="M110.908 4.96326C110.908 4.96326 110.184 4.5466 109.721 4.4216C109.257 4.3018 108.158 4.10389 107.747 4.13514C107.335 4.16639 107.049 4.26014 106.715 4.32264C106.377 4.39034 105.34 4.9268 105.528 5.18722C105.71 5.44764 103.486 14.2653 103.111 16.2028C102.736 18.1403 100.705 27.7445 101.142 28.2549C101.585 28.7601 101.96 28.5362 102.372 28.6403C102.783 28.7393 103.314 30.2549 104.351 29.3226C105.387 28.3903 105.778 27.9997 106.575 27.9216C107.372 27.8487 107.601 28.2133 108.195 27.3851C108.783 26.557 108.705 27.4008 108.903 25.1612C109.096 22.9268 112.127 6.7341 112.049 6.56222C111.976 6.39555 110.908 4.96326 110.908 4.96326Z" fill="#E99219"/>
<path d="M107.741 26.2448C108.195 22.7761 108.627 19.3073 109.257 15.8229C109.57 14.099 109.872 12.3698 110.096 10.6511C110.205 9.84898 110.283 9.04169 110.314 8.25523C110.33 7.81253 110.325 7.38023 110.33 6.94273C110.34 6.55211 110.382 6.13023 110.278 5.7969C110.236 5.66669 110.085 5.74482 110.049 5.88544C109.939 6.28648 109.965 6.69794 109.939 7.08857C109.908 7.5469 109.846 8.00523 109.788 8.46357C109.689 9.33336 109.585 10.2032 109.471 11.0729C109.252 12.7604 108.95 14.4584 108.648 16.1511C108.028 19.5938 107.163 23.0313 107.257 26.3542C107.267 26.6823 107.695 26.6042 107.741 26.2448Z" fill="#CF741B"/>
<path d="M105.887 26.6247C106.075 25.7497 106.132 24.8434 106.231 23.9789C106.335 23.0934 106.413 22.2132 106.481 21.3382C106.617 19.6195 106.872 17.8903 107.179 16.1507C107.33 15.2966 107.58 14.4424 107.773 13.5934C107.971 12.7028 108.179 11.8174 108.361 10.9268C108.549 10.0414 108.71 9.15073 108.872 8.27052C109.012 7.46844 109.236 6.51531 109.195 5.75489C109.174 5.41635 108.825 5.46844 108.684 5.78614C108.335 6.55698 108.184 7.52052 108.018 8.31739C107.835 9.20281 107.663 10.0986 107.528 10.9789C107.387 11.8643 107.278 12.7445 107.169 13.6299C107.064 14.5153 107.023 15.3851 106.882 16.2757C106.611 18.0518 106.309 19.8122 105.934 21.5882C105.58 23.2914 105.179 25.1299 105.111 26.7966C105.09 27.3643 105.768 27.1611 105.887 26.6247Z" fill="#CF741B"/>
<path d="M103.892 26.8958C103.934 26.4948 103.903 26.1927 103.903 25.8125C103.898 25.3906 104.023 24.8229 104.101 24.3906C104.262 23.5156 104.424 22.6354 104.554 21.7604C104.689 20.8385 104.72 19.9479 104.861 19.0312C104.991 18.151 105.132 17.276 105.273 16.3958C105.549 14.6406 105.773 12.901 106.132 11.1354C106.314 10.2448 106.627 9.375 106.835 8.48437C107.049 7.59895 107.319 6.58854 107.314 5.72916C107.314 5.23437 106.778 5.33333 106.585 5.77604C106.226 6.59895 106.085 7.58333 105.939 8.43229C105.783 9.3125 105.757 10.1719 105.595 11.0573C105.273 12.8542 104.861 14.651 104.538 16.4427C104.382 17.3229 104.236 18.1979 104.095 19.0729C103.955 19.9583 103.72 20.8281 103.595 21.7083C103.476 22.5573 103.387 23.4062 103.319 24.25C103.283 24.7448 103.22 25.2448 103.153 25.75C103.101 26.1458 102.939 26.5417 102.877 26.9583C102.757 27.8073 103.809 27.7187 103.892 26.8958Z" fill="#CF741B"/>
<path d="M62.7883 43.8332L61.3143 39.9634L0.314289 63.2082C-0.0190443 63.3384 -0.107587 63.7707 0.147622 64.0207C1.132 64.9894 3.5695 66.7967 7.50179 65.9738C12.7674 64.8748 16.6789 60.5467 17.3091 60.3019C17.9445 60.0623 21.1216 59.5155 22.9705 58.8123C24.8195 58.104 62.7883 43.8332 62.7883 43.8332Z" fill="#5D70C0"/>
<path d="M0.704674 64.0934C0.704674 64.0934 3.32447 65.9632 7.74634 65.1872C12.163 64.4111 15.9443 61.0049 16.1995 59.7601C16.4495 58.5153 13.5901 58.3955 10.9599 59.4267C8.32967 60.458 0.636966 63.5153 0.538007 63.6403C0.43384 63.7705 0.704674 64.0934 0.704674 64.0934Z" fill="#7187CD"/>
<path d="M16.0693 57.9946C16.0693 57.9946 17.6735 59.3488 23.5745 57.854C29.4704 56.3592 49.585 48.3644 49.585 48.3644L48.5381 45.6196L15.8037 57.703L16.0693 57.9946Z" fill="#4C64B8"/>
<path d="M48.8247 45.1195L61.1372 40.4268L61.3455 40.9736L49.033 45.6715L48.8247 45.1195Z" fill="#3A56AD"/>
<path d="M49.1475 45.9686L61.46 41.2759L61.6683 41.828L49.3558 46.5207L49.1475 45.9686Z" fill="#3A56AD"/>
<path d="M49.4863 46.8646L61.804 42.1719L62.0124 42.724L49.6999 47.4167L49.4863 46.8646Z" fill="#3A56AD"/>
<path d="M49.8145 47.7186L62.127 43.0259L62.3353 43.578L50.0228 48.2707L49.8145 47.7186Z" fill="#3A56AD"/>
</svg>
