<svg width="1896" height="142" viewBox="0 0 1896 142" fill="none" xmlns="http://www.w3.org/2000/svg">
<mask id="mask0_46_234" style="mask-type:luminance" maskUnits="userSpaceOnUse" x="0" y="7" width="1896" height="73">
<path d="M0 7.35229H1896V79.5121H0V7.35229Z" fill="white"/>
</mask>
<g mask="url(#mask0_46_234)">
<path d="M0.389628 79.4829C27.0607 51.5949 76.5621 33.6255 122.464 23.9478C160.462 15.9378 198.154 12.6904 235.651 12.6904C383.664 12.6845 528.485 63.369 676.211 71.6902C682.036 72.0191 687.853 72.1717 693.66 72.1717C760.046 72.1717 825.309 51.8005 884.634 34.383C949.804 15.2449 1017.35 8.02188 1086.08 8.02188C1120.84 8.02188 1155.92 9.87168 1191.15 12.9605C1251.52 18.2574 1310.52 33.2261 1369.73 42.6689C1449.99 55.4531 1531.21 65.348 1612.81 73.3169H1612.85C1612.86 73.3169 1636.88 73.1524 1665.14 71.7254C1679.26 71.0149 1694.45 69.9755 1708.23 68.4898C1721.99 67.0041 1734.36 65.0603 1742.86 62.5117L1742.75 62.3825L1742.85 62.5117C1759.49 57.7844 1775.74 52.2644 1791.45 46.2922C1804.54 41.3183 1818.05 36.0507 1829.56 29.4796C1836.09 25.7565 1843.28 20.671 1851.02 16.531C1858.73 12.3792 1866.98 9.17874 1875.56 9.17874C1882.05 9.17874 1888.78 10.9933 1895.69 15.6677L1896.03 15.4681C1889.05 10.7643 1882.2 8.89099 1875.56 8.89099C1866.79 8.89099 1858.47 12.1443 1850.71 16.3137C1842.96 20.4713 1835.77 25.5627 1829.26 29.2681C1817.79 35.81 1804.31 41.0775 1791.21 46.0455C1775.51 52.0177 1759.28 57.526 1742.65 62.2474C1734.24 64.7784 1721.9 66.7163 1708.15 68.202C1687.52 70.4335 1663.69 71.6432 1645.02 72.2892C1635.69 72.618 1627.66 72.8001 1621.94 72.9058C1619.08 72.9586 1616.8 72.988 1615.24 73.0115C1613.7 73.0232 1612.85 73.035 1612.85 73.035V73.1759L1612.89 73.035C1531.27 65.072 1450.09 55.1712 1369.85 42.387C1310.68 32.956 1251.66 17.9756 1191.21 12.6787C1155.96 9.58393 1120.88 7.73413 1086.08 7.73413C1017.29 7.73413 949.684 14.9689 884.439 34.1187C825.104 51.5421 759.897 71.884 693.66 71.884C687.862 71.884 682.064 71.7313 676.248 71.4025C528.662 63.0989 383.822 12.4085 235.651 12.3968C198.117 12.3968 160.369 15.656 122.316 23.6776C76.358 33.3612 26.7638 51.3542 0 79.3302L0.389628 79.4829Z" fill="black"/>
</g>
<path d="M161.464 90.3114C161.464 90.3114 156.826 86.142 149.154 79.9936C141.547 73.9216 130.841 66.1818 119.022 58.5712C107.398 51.2014 94.7633 44.131 84.8278 38.9868C75.0407 34.0012 68.1016 30.8125 68.1016 30.8125C68.1016 30.8125 70.0033 30.2252 73.3152 29.1976C74.985 28.7043 76.9517 28.0172 79.3359 27.3947C81.7107 26.7605 84.3825 26.0382 87.3047 25.2572C90.2269 24.4879 93.3996 23.6423 96.7486 22.7556C100.098 21.863 103.762 21.1348 107.482 20.2715C111.221 19.4435 115.089 18.5862 119.013 17.7171C123.002 16.9771 127.056 16.2255 131.101 15.4797C147.317 12.4613 163.839 10.4705 176.214 9.23735C182.402 8.5033 187.56 8.28015 191.178 7.97479C194.796 7.7164 196.855 7.56372 196.855 7.56372C196.855 7.56372 193.349 12.6844 188.747 20.3361C187.634 22.2447 186.428 24.3176 185.148 26.5021C183.905 28.716 182.643 31.0885 181.391 33.5196C178.877 38.3878 176.409 43.5614 174.173 48.7056C171.919 53.797 169.98 59.1526 168.329 64.0032C166.678 68.889 165.342 73.4107 164.312 77.2689C163.282 81.1329 162.614 84.4743 162.151 86.7351C161.715 89.0136 161.464 90.3114 161.464 90.3114Z" fill="#60D3CC"/>
<path d="M283.427 85.4843C283.427 85.4843 281.108 80.4517 277.165 72.8822C275.199 69.0593 272.824 64.6902 270.115 60.0334C267.415 55.3649 264.372 50.3734 261.172 45.376C254.78 35.4751 247.526 25.7035 241.7 18.3278C235.846 11.1048 231.551 6.30115 231.551 6.30115C231.551 6.30115 233.601 6.28354 237.173 6.25417C240.772 6.17196 245.828 6.26005 251.895 6.38337C254.938 6.44209 258.231 6.50669 261.71 6.57128C265.142 6.71222 268.779 6.87078 272.527 7.0352C276.265 7.22312 280.18 7.32295 284.067 7.59895C287.954 7.86321 291.897 8.13334 295.849 8.39759C297.825 8.5444 299.792 8.67947 301.758 8.81453C303.697 8.9907 305.627 9.161 307.547 9.3313C311.378 9.6719 315.145 10.0184 318.8 10.3472C326.045 11.0578 332.715 11.8388 338.476 12.4613C349.831 13.8824 357.392 14.8337 357.392 14.8337C357.392 14.8337 352.169 19.1029 344.636 25.5449C340.86 28.7806 336.537 32.5037 331.973 36.6085C327.4 40.7074 322.622 45.0941 317.974 49.4925C308.651 58.2365 299.875 67.3504 293.604 74.086C290.459 77.4568 287.908 80.2873 286.164 82.3132C284.42 84.3333 283.427 85.4843 283.427 85.4843Z" fill="#FFE05E"/>
<path d="M415.696 104.047C415.696 104.047 409.954 82.8889 403.321 61.719C400.028 51.1369 396.419 40.5901 393.608 32.6213C390.769 24.6819 388.691 19.4026 388.691 19.4026C388.691 19.4026 396.085 20.5125 406.902 22.3447C412.366 23.2314 418.646 24.3178 425.326 25.4981C432.07 26.6608 439.111 27.9528 446.18 29.2388C460.123 31.8403 474.057 34.4418 484.512 36.3973C494.81 38.3469 501.665 39.6329 501.665 39.6329C501.665 39.6329 480.069 55.6998 458.472 71.7607C447.739 79.8235 437.005 87.8804 428.953 93.9172C420.994 99.9951 415.696 104.047 415.696 104.047Z" fill="#FFAB3F"/>
<path d="M557.131 129.645C557.131 129.645 555.193 124.354 552.28 116.426C549.459 108.486 545.944 97.8632 542.632 87.3223C539.338 76.7109 536.249 66.1347 534.013 58.2129C531.787 50.2734 530.303 44.9766 530.303 44.9766C530.303 44.9766 557.289 50.0092 583.636 54.1668C596.846 56.2809 609.908 58.1013 619.658 59.3521C624.556 60.0392 628.573 60.4444 631.421 60.7909C634.241 61.1139 635.855 61.3018 635.855 61.3018C635.855 61.3018 631.486 65.7119 624.584 72.2949C617.7 78.9248 608.201 87.4456 598.274 96.0428C588.376 104.593 578.144 112.961 570.277 119.262C562.391 125.493 557.131 129.645 557.131 129.645Z" fill="#FE4337"/>
<mask id="mask1_46_234" style="mask-type:luminance" maskUnits="userSpaceOnUse" x="660" y="59" width="98" height="83">
<path d="M660.533 59.9688H757.903V142H660.533V59.9688Z" fill="white"/>
</mask>
<g mask="url(#mask1_46_234)">
<path d="M716.482 141.977C716.482 141.977 715.35 140.802 713.383 138.735C711.435 136.668 708.689 133.743 705.553 130.155C702.418 126.556 698.893 122.345 695.33 117.835C691.759 113.278 688.159 108.381 684.773 103.512C681.387 98.5855 678.215 93.6234 675.413 89.0077C672.611 84.345 670.181 79.9584 668.195 76.2294C666.21 72.5181 664.652 69.3294 663.594 67.139C662.555 64.9486 661.952 63.6919 661.952 63.6919C661.952 63.6919 668.075 64.1382 677.185 64.5081C686.295 64.837 698.364 64.9897 710.248 64.5669C722.141 64.1793 733.811 63.1986 742.411 62.1885C746.743 61.7364 750.268 61.202 752.754 60.8555C755.25 60.5267 756.651 60.2859 756.651 60.2859C756.651 60.2859 756.344 61.5778 755.806 63.8387C755.24 66.0819 754.378 69.2941 753.181 73.1758C751.994 77.0809 750.426 81.5498 748.515 86.3827C746.613 91.2392 744.331 96.3658 741.789 101.475C739.266 106.631 736.473 111.722 733.653 116.473C730.842 121.265 728.004 125.698 725.443 129.445C722.892 133.215 720.647 136.368 719.033 138.571C717.409 140.737 716.482 141.977 716.482 141.977Z" fill="#FFE05E"/>
</g>
<path d="M875.914 113.384C875.914 113.384 869.532 109.984 859.949 104.892C850.366 99.76 837.777 92.8834 825.596 85.7309C819.52 82.184 813.546 78.5431 808.082 75.0784C802.618 71.6254 797.645 68.3839 793.489 65.4947C789.333 62.6289 785.956 60.2154 783.628 58.5242C781.29 56.8388 780.01 55.8463 780.01 55.8463C780.01 55.8463 780.344 55.7818 781.03 55.6115C781.707 55.447 782.7 55.2063 783.962 54.9009C786.494 54.296 790.094 53.468 794.51 52.2818C803.295 50.0386 815.216 46.6561 827.693 42.8508C840.634 38.8752 853.557 34.8937 863.261 31.9164C873.363 28.8275 880.451 26.7781 880.451 26.7781C880.451 26.7781 879.829 32.2453 879.217 40.3903C878.642 48.5352 878.094 59.3463 877.76 70.1338C877.38 80.9214 877.102 91.7031 876.675 99.8246C876.471 103.888 876.295 107.277 876.174 109.643C876.007 112.027 875.914 113.384 875.914 113.384Z" fill="#60D3CC"/>
<mask id="mask2_46_234" style="mask-type:luminance" maskUnits="userSpaceOnUse" x="909" y="0" width="132" height="83">
<path d="M909.895 0H1040.51V82.5187H909.895V0Z" fill="white"/>
</mask>
<g mask="url(#mask2_46_234)">
<path d="M997.998 82.1487C997.998 82.1487 993.684 77.8149 986.615 71.3846C983.035 68.1489 978.888 64.4669 974.212 60.5853C969.527 56.6978 964.277 52.5578 958.831 48.6174C947.894 40.6016 936.066 33.0673 926.798 27.471C917.651 21.9627 911.213 18.3864 911.213 18.3864C911.213 18.3864 913.115 17.9225 916.445 17.1062C919.729 16.2606 924.655 15.1683 930.555 13.8647C933.459 13.1893 936.771 12.5551 940.231 11.868C943.71 11.1869 947.337 10.4352 951.252 9.80097C955.102 9.16675 959.221 8.40334 963.163 7.8396C967.125 7.28172 971.151 6.70623 975.168 6.13661C991.282 4.06366 1007.46 2.46637 1019.55 1.76168C1022.58 1.56202 1025.35 1.37411 1027.8 1.21555C1030.26 1.10398 1032.39 1.00415 1034.15 0.927805C1037.67 0.769252 1039.68 0.675293 1039.68 0.675293C1039.68 0.675293 1036.05 5.69618 1031.12 13.2011C1028.65 16.9359 1025.87 21.44 1023.06 26.179C1020.27 30.9533 1017.42 35.9448 1014.82 41.1125C1012.19 46.2391 1009.76 51.3539 1007.65 56.1282C1005.53 60.92 1003.77 65.4711 1002.34 69.3117C1000.92 73.1639 999.826 76.3644 999.102 78.5959C998.397 80.8568 997.998 82.1487 997.998 82.1487Z" fill="#FD81CB"/>
</g>
<mask id="mask3_46_234" style="mask-type:luminance" maskUnits="userSpaceOnUse" x="1071" y="0" width="127" height="80">
<path d="M1071.39 0H1197.25V79.512H1071.39V0Z" fill="white"/>
</mask>
<g mask="url(#mask3_46_234)">
<path d="M1124.82 79.4065C1124.82 79.4065 1122.33 74.3797 1118.23 66.8044C1114.14 59.3406 1108.37 49.2401 1101.98 39.351C1098.8 34.4006 1095.47 29.4384 1092.23 24.7875C1088.98 20.1894 1085.81 15.9026 1083.04 12.2265C1077.47 4.8449 1073.43 0.0354229 1073.43 0.0354229C1073.43 0.0354229 1073.93 0.0354225 1074.86 0.0295505C1075.79 0.0295505 1077.17 0.0119341 1078.89 0.0471676C1082.35 0.100019 1087.29 0.17636 1093.22 0.264446C1105.02 0.610916 1120.72 1.15118 1136.11 2.24344C1143.88 2.70148 1151.47 3.4003 1158.66 3.94643C1165.77 4.62175 1172.46 5.1855 1178.09 5.78448C1183.72 6.38347 1188.42 6.88849 1191.72 7.23496C1194.98 7.61079 1196.84 7.82807 1196.84 7.82807C1196.84 7.82807 1176.89 25.1692 1158.86 43.0976C1149.79 52.006 1141.18 61.114 1134.96 67.9377C1131.85 71.3379 1129.32 74.2153 1127.55 76.2413C1125.81 78.2555 1124.82 79.4065 1124.82 79.4065Z" fill="#FFAB3F"/>
</g>
<path d="M1259.04 95.7373C1259.04 95.7373 1252.39 74.7142 1244.7 53.7204C1240.88 43.2089 1236.78 32.7267 1233.59 24.8401C1230.3 16.9769 1228.1 11.7329 1228.1 11.7329C1228.1 11.7329 1229.94 11.9795 1233.14 12.42C1236.37 12.8369 1240.92 13.4829 1246.39 14.2815C1257.32 15.8318 1271.72 18.0575 1286.03 20.3359C1314.6 24.9399 1342.48 29.8316 1342.48 29.8316C1342.48 29.8316 1321.21 46.1627 1300.28 62.6171C1279.3 79.0656 1259.04 95.7373 1259.04 95.7373Z" fill="#FE4337"/>
<path d="M1398.48 119.603C1398.48 119.603 1396.72 114.312 1394.09 106.372C1391.49 98.427 1388.11 87.8567 1384.81 77.2688C1378.29 56.1047 1371.76 34.9348 1371.76 34.9348C1371.76 34.9348 1378.65 36.1387 1388.98 37.9415C1399.29 39.7325 1412.96 42.105 1426.54 44.3776C1440.14 46.6737 1453.61 48.8112 1463.71 50.3909C1473.78 51.906 1480.48 52.9219 1480.48 52.9219C1480.48 52.9219 1475.54 57.1442 1468.14 63.4863C1460.66 69.8285 1450.56 78.1966 1440.26 86.5295C1429.98 94.8566 1419.55 103.119 1411.64 109.314C1403.75 115.486 1398.48 119.603 1398.48 119.603Z" fill="#FD81CB"/>
<path d="M1546.86 139.469C1546.86 139.469 1543.9 134.313 1539.79 126.614C1535.65 118.939 1530.53 108.539 1525.79 98.2566C1516.27 77.5564 1508.62 56.8152 1508.62 56.8152C1508.62 56.8152 1515.25 57.6314 1525.17 58.8588C1535.09 60.0274 1548.25 61.4309 1561.3 62.5466C1574.33 63.6037 1587.28 64.5021 1596.89 64.8545C1601.71 65.0952 1605.69 65.2068 1608.47 65.2714C1611.26 65.3478 1612.85 65.3947 1612.85 65.3947C1612.85 65.3947 1609.49 70.1455 1604.01 77.2746C1598.55 84.3743 1590.82 93.7407 1582.5 103.013C1574.21 112.256 1565.33 121.435 1558.49 128.188C1555.02 131.582 1552.12 134.413 1550.1 136.386C1548.03 138.347 1546.86 139.469 1546.86 139.469Z" fill="#60D3CC"/>
<path d="M1707.97 138.729C1707.97 138.729 1702.57 134.383 1695.09 127.801C1693.25 126.156 1691.27 124.365 1689.16 122.474C1687.1 120.536 1684.95 118.493 1682.78 116.379C1678.42 112.133 1673.97 107.647 1669.7 103.037C1661.15 93.7877 1653.49 84.4976 1648.08 77.3333C1645.38 73.7864 1643.22 70.8267 1641.74 68.7538C1640.27 66.6632 1639.42 65.4652 1639.42 65.4652C1639.42 65.4652 1640.99 65.4535 1643.7 65.3536C1646.4 65.2421 1650.29 65.1833 1654.89 64.9543C1664.11 64.5139 1676.28 63.68 1688.15 62.3352C1699.98 60.9083 1711.62 59.1642 1720.1 57.4436C1724.41 56.7095 1727.85 55.8286 1730.31 55.3236C1732.78 54.7951 1734.17 54.4897 1734.17 54.4897C1734.17 54.4897 1733.85 59.6457 1732.7 67.5499C1732.4 69.523 1732.05 71.6723 1731.65 73.9567C1731.22 76.2058 1730.72 78.5665 1730.15 81.0388C1729.03 85.954 1727.64 91.2802 1725.98 96.5712C1722.69 107.042 1718.36 117.753 1714.6 125.563C1712.74 129.504 1711.07 132.804 1709.88 135.118C1708.65 137.414 1707.97 138.729 1707.97 138.729Z" fill="#FFAB3F"/>
<path d="M1863.8 96.9414C1863.8 96.9414 1856.17 94.5044 1845.27 90.5875C1839.87 88.6555 1833.52 86.2361 1826.92 83.57C1820.34 80.8922 1813.51 78.0089 1806.84 74.9611C1793.35 68.7716 1780.91 62.3414 1771.85 57.0914C1762.82 51.912 1757.25 48.3475 1757.25 48.3475C1757.25 48.3475 1758.57 47.9188 1760.89 47.1671C1762.05 46.7972 1763.46 46.3391 1765.08 45.8224C1766.7 45.3115 1768.53 44.736 1770.46 44.0078C1774.33 42.5808 1778.97 41.0599 1783.68 39.0809C1786.05 38.106 1788.56 37.19 1791.01 36.1212C1793.46 35.0407 1795.96 33.9425 1798.44 32.8503C1800.97 31.7991 1803.35 30.56 1805.75 29.4149C1808.12 28.2346 1810.53 27.1658 1812.75 25.9796C1814.98 24.8051 1817.12 23.6717 1819.15 22.5853C1821.2 21.5224 1823.14 20.5007 1824.83 19.4671C1828.3 17.4764 1831.19 15.8086 1833.21 14.6459C1835.17 13.4127 1836.29 12.708 1836.29 12.708C1836.29 12.708 1836.96 13.953 1838.12 16.1316C1839.29 18.3396 1840.86 21.4402 1842.64 25.2044C1846.21 32.7152 1850.71 43.1034 1854.09 53.568C1855.81 58.8238 1857.44 64.2088 1858.71 69.2473C1859.94 74.2564 1860.94 79.013 1861.71 83.1355C1862.46 87.2402 1863.04 90.7402 1863.35 93.1479C1863.63 95.5614 1863.8 96.9414 1863.8 96.9414Z" fill="#FFE05E"/>
</svg>
