<svg width="2069" height="224" viewBox="0 0 2069 224" fill="none" xmlns="http://www.w3.org/2000/svg">
<path d="M660.355 99.936L727.271 35.5662L638.209 9.65479L660.355 99.936Z" fill="#00E994"/>
<mask id="mask0_180_223" style="mask-type:luminance" maskUnits="userSpaceOnUse" x="218" y="9" width="618" height="215">
<path d="M218.506 9.15479H835.839V223.556H218.506V9.15479Z" fill="white"/>
</mask>
<g mask="url(#mask0_180_223)">
<path d="M255.532 223.035L311.626 148.993L219.615 137.316L255.532 223.035ZM604.475 101.452L615.933 9.19125L530.506 45.3683L604.475 101.452ZM772.178 130.358L834.683 61.6756L744.1 41.7538L772.178 130.358Z" fill="#FF0051"/>
</g>
<path d="M19.3232 155.233L99.641 108.748L19.3232 62.264V155.233ZM518.855 151.472V58.5088L438.537 104.993L518.855 151.472ZM895.974 148.488L945.641 69.9827L852.974 66.1182L895.974 148.488Z" fill="#FEE926"/>
<mask id="mask1_180_223" style="mask-type:luminance" maskUnits="userSpaceOnUse" x="109" y="38" width="928" height="176">
<path d="M109.173 38.4883H1036.26V213.155H109.173V38.4883Z" fill="white"/>
</mask>
<g mask="url(#mask1_180_223)">
<path d="M131.642 201.681L198.558 137.316L109.491 111.4L131.642 201.681ZM395.157 212.801L424.736 124.691L333.824 143.066L395.157 212.801ZM1014.22 129.457L1036.23 39.1445L947.204 65.1966L1014.22 129.457Z" fill="#FF7852"/>
</g>
<path d="M0.302743 11.134C32.2298 76.0924 103.209 105.785 169.86 120.603C208.089 129.103 247.412 136.415 286.522 139.15C324.98 141.848 362.709 137.572 398.303 122.233C466.501 92.8424 519.147 34.7017 591.011 12.7694C609.131 7.23819 628.042 4.36319 647.001 5.54549C666.511 6.75382 685.433 12.3476 703.746 18.9309C721.917 25.4674 739.709 33.0038 758.032 39.1236C776.73 45.3684 795.824 50.4465 815.173 54.2486C852.751 61.634 891.355 64.2538 929.532 60.9049C947.943 59.2799 966.579 56.5976 984.428 51.7382C997.86 48.0872 1011.8 42.4934 1021.65 32.2851C1026.26 27.509 1029.57 21.8684 1031.54 15.5351C1032.56 12.233 1027.39 10.8163 1026.38 14.108C1021.74 29.0715 1007.99 37.8111 994.048 43.0403C977.959 49.0715 960.438 51.8736 943.48 54.0455C905.673 58.8736 867.11 57.6392 829.542 51.4257C791.626 45.1444 755.834 33.0663 720.058 19.3267C702.74 12.6809 685.199 6.27465 666.938 2.76424C649.589 -0.574305 632.006 -0.886806 614.553 1.81632C542.36 13.0038 487.829 66.733 426.693 101.868C393.943 120.686 359.173 132.775 321.23 134.394C281.511 136.092 241.923 128.952 203.016 121.79C134.683 109.223 59.4173 88.8892 17.0319 28.858C12.459 22.3736 8.44337 15.5455 4.95379 8.4309C3.40691 5.32674 -1.21809 8.0559 0.302743 11.134Z" fill="#F59C4E"/>
<path d="M1407.91 99.936L1340.99 35.5662L1430.05 9.65479L1407.91 99.936Z" fill="#00E994"/>
<mask id="mask2_180_223" style="mask-type:luminance" maskUnits="userSpaceOnUse" x="1232" y="9" width="618" height="215">
<path d="M1849.76 9.15479H1232.42V223.556H1849.76V9.15479Z" fill="white"/>
</mask>
<g mask="url(#mask2_180_223)">
<path d="M1812.73 223.035L1756.64 148.993L1848.65 137.316L1812.73 223.035ZM1463.79 101.452L1452.33 9.19125L1537.76 45.3683L1463.79 101.452ZM1296.08 130.358L1233.58 61.6756L1324.16 41.7538L1296.08 130.358Z" fill="#FF0051"/>
</g>
<path d="M2048.94 155.233L1968.62 108.748L2048.94 62.264V155.233ZM1549.41 151.472V58.5088L1629.72 104.993L1549.41 151.472ZM1172.29 148.488L1122.62 69.9827L1215.29 66.1182L1172.29 148.488Z" fill="#FEE926"/>
<mask id="mask3_180_223" style="mask-type:luminance" maskUnits="userSpaceOnUse" x="1032" y="38" width="928" height="176">
<path d="M1959.09 38.4883H1032V213.155H1959.09V38.4883Z" fill="white"/>
</mask>
<g mask="url(#mask3_180_223)">
<path d="M1936.62 201.681L1869.7 137.316L1958.77 111.4L1936.62 201.681ZM1673.1 212.801L1643.53 124.691L1734.44 143.066L1673.1 212.801ZM1054.04 129.457L1032.03 39.1445L1121.06 65.1966L1054.04 129.457Z" fill="#FF7852"/>
</g>
<path d="M2067.96 11.134C2036.03 76.0924 1965.05 105.785 1898.4 120.603C1860.17 129.103 1820.85 136.415 1781.74 139.15C1743.28 141.848 1705.55 137.572 1669.96 122.233C1601.76 92.8424 1549.12 34.7017 1477.25 12.7694C1459.13 7.23819 1440.22 4.36319 1421.26 5.54549C1401.75 6.75382 1382.83 12.3476 1364.52 18.9309C1346.34 25.4674 1328.55 33.0038 1310.23 39.1236C1291.53 45.3684 1272.44 50.4465 1253.09 54.2486C1215.51 61.634 1176.91 64.2538 1138.73 60.9049C1120.32 59.2799 1101.68 56.5976 1083.83 51.7382C1070.4 48.0872 1056.46 42.4934 1046.61 32.2851C1042.01 27.509 1038.69 21.8684 1036.72 15.5351C1035.7 12.233 1040.87 10.8163 1041.89 14.108C1046.52 29.0715 1060.27 37.8111 1074.21 43.0403C1090.3 49.0715 1107.82 51.8736 1124.78 54.0455C1162.59 58.8736 1201.15 57.6392 1238.72 51.4257C1276.64 45.1444 1312.43 33.0663 1348.2 19.3267C1365.52 12.6809 1383.06 6.27465 1401.32 2.76424C1418.67 -0.574305 1436.26 -0.886806 1453.71 1.81632C1525.9 13.0038 1580.43 66.733 1641.57 101.868C1674.32 120.686 1709.09 132.775 1747.03 134.394C1786.75 136.092 1826.34 128.952 1865.25 121.79C1933.58 109.223 2008.84 88.8892 2051.23 28.858C2055.8 22.3736 2059.82 15.5455 2063.31 8.4309C2064.85 5.32674 2069.48 8.0559 2067.96 11.134Z" fill="#F59C4E"/>
</svg>
