<svg width="185" height="137" viewBox="0 0 185 137" fill="none" xmlns="http://www.w3.org/2000/svg">
<mask id="mask0_203_3446" style="mask-type:luminance" maskUnits="userSpaceOnUse" x="66" y="0" width="119" height="51">
<path d="M66.4639 0H184.464V50.224H66.4639V0Z" fill="white"/>
</mask>
<g mask="url(#mask0_203_3446)">
<path d="M184.464 49.1667H66.4639V13.1094C66.4639 5.86979 72.3337 0 79.5732 0H171.349C178.594 0 184.464 5.86979 184.464 13.1094V49.1667Z" fill="#AFB076"/>
</g>
<mask id="mask1_203_3446" style="mask-type:luminance" maskUnits="userSpaceOnUse" x="66" y="31" width="107" height="76">
<path d="M66.4639 31.5576H172V106.224H66.4639V31.5576Z" fill="white"/>
</mask>
<g mask="url(#mask1_203_3446)">
<path d="M99.2399 104.891L66.4639 66.9639V38.1201C70.5576 36.0576 76.2972 34.417 82.8493 36.0576C95.9639 39.3337 92.6826 39.3337 109.073 42.6097C125.464 45.891 141.849 32.7764 151.683 32.7764C161.516 32.7764 171.349 49.167 171.349 49.167C171.349 49.167 99.2399 112.136 99.2399 104.891Z" fill="#737953"/>
</g>
<mask id="mask2_203_3446" style="mask-type:luminance" maskUnits="userSpaceOnUse" x="66" y="47" width="119" height="56">
<path d="M66.4639 47.5576H184.464V102.224H66.4639V47.5576Z" fill="white"/>
</mask>
<g mask="url(#mask2_203_3446)">
<path d="M184.464 48.9065V62.2763L71.6722 101.438L66.4639 74.8024V66.9638C70.3962 68.1461 77.5732 68.7034 86.1305 62.2763C99.2399 52.443 115.631 52.443 122.183 52.443C128.641 52.443 145.49 47.9899 184.464 48.9065Z" fill="#485343"/>
</g>
<mask id="mask3_203_3446" style="mask-type:luminance" maskUnits="userSpaceOnUse" x="66" y="62" width="119" height="56">
<path d="M66.4639 62.2241H184.464V118H66.4639V62.2241Z" fill="white"/>
</mask>
<g mask="url(#mask3_203_3446)">
<path d="M184.464 62.2764V104.891C184.464 112.136 178.594 118 171.349 118H79.5732C72.3285 118 66.4639 112.136 66.4639 104.891V74.8024C68.9847 76.6357 72.6253 78.667 76.2972 78.667C82.8493 78.667 95.9639 68.8337 112.349 68.8337C128.74 68.8337 158.24 62.2764 168.073 62.2764H184.464Z" fill="#8A472A"/>
</g>
<mask id="mask4_203_3446" style="mask-type:luminance" maskUnits="userSpaceOnUse" x="77" y="15" width="102" height="104">
<path d="M77.3335 15.5576H178.667V118H77.3335V15.5576Z" fill="white"/>
</mask>
<g mask="url(#mask4_203_3446)">
<path d="M178.432 115.902C176.365 117.245 173.943 118 171.349 118H79.5729C79.0156 118 78.4896 117.969 77.9688 117.902C81.3125 113.214 84.6875 107.412 86.1302 101.61C89.4063 88.5005 105.797 81.9432 105.797 68.8338C105.797 55.7244 102.516 52.4432 105.797 36.0578C109.073 19.6672 118.906 16.3911 125.464 16.3911C135.297 16.3911 148.406 26.2244 148.406 45.8911C148.406 65.5578 148.406 72.1099 161.516 81.9432C169.714 88.1099 175.349 104.495 178.432 115.902Z" fill="#3E2723"/>
</g>
<path d="M135.099 67.8753L118.953 65.667C119.276 68.2295 118.057 70.7399 115.839 72.068C110.302 75.3857 106.641 81.2607 106.641 81.2607C106.641 81.2607 100.948 89.2764 111.609 92.6462C122.271 96.0107 128.354 95.4118 131.141 93.6878C137.38 89.8337 136.813 73.3128 135.099 67.8753Z" fill="#FFA726"/>
<path d="M133.927 55.1514L118.375 61.0316L118.953 65.6566C118.953 65.6566 118.578 72.3128 122.208 72.5264C127.359 72.8337 135.099 67.8701 135.099 67.8701C134.193 64.9847 132.036 59.9691 133.927 55.1514Z" fill="#FB8C00"/>
<path d="M135.297 39.3333C134.469 29.5365 129.276 23.9844 119.922 23.9844C114.042 23.9844 110.636 26.974 109.485 31.2396C108.375 35.3698 109.073 41 109.073 42.6094C109.073 45.8906 108.807 50.0365 111.37 55.9271C111.37 55.9271 114.698 62.5052 119.307 62.5C127.104 62.5 131.125 59.9896 133.255 56.8906C135.745 53.2708 135.844 45.8073 135.297 39.3333Z" fill="#FFA726"/>
<path d="M115.703 54.9535C114.933 54.6253 116.354 54.1722 116.808 54.1983C117.261 54.2295 117.714 54.6201 118.167 54.6201C118.62 54.6201 119.162 53.9587 119.766 54.0472C120.37 54.141 122.24 54.7139 123.75 54.4066C124.474 54.2608 122.391 55.266 120.459 55.1514C118.526 55.042 118.797 55.3753 118.136 55.3128C117.474 55.2556 116.177 55.1514 115.703 54.9535Z" fill="#FB8C00"/>
<path d="M115.703 49.9688C115.703 49.9688 115.859 51.3594 117.516 51.25C119.172 51.1458 118.641 50.0833 120.401 50.6146C122.167 51.1458 122.484 50.1823 122.484 50.1823C122.484 50.1823 121.885 51.9792 118.349 51.9948C115.781 52.0052 115.703 49.9688 115.703 49.9688Z" fill="#FB8C00"/>
<path d="M119.688 41.5677C119.672 40.0312 119.578 36.9844 123.901 37.1458C128.224 37.3073 127.781 38.6094 130.146 38.5469C133.865 38.4479 130.76 41.5677 129.302 40.8333C127.448 39.8958 127.625 38.9062 124.932 39.0312C122.208 39.151 121.047 41.2864 121.01 42.4062C120.964 43.5312 119.698 42.6458 119.688 41.5677Z" fill="#FB8C00"/>
<path d="M113.135 39.1201C115.302 38.9326 116.245 40.2399 116.547 40.9482C116.849 41.6514 117.391 40.917 116.818 40.0316C116.245 39.1462 115.359 36.6618 111.625 38.5732C109.927 39.443 110.297 40.516 110.448 41.2503C110.599 41.9847 110.203 41.3389 110.969 40.1826C111.417 39.5055 112.349 39.1878 113.135 39.1201Z" fill="#FB8C00"/>
<mask id="mask5_203_3446" style="mask-type:luminance" maskUnits="userSpaceOnUse" x="0" y="46" width="90" height="79">
<path d="M0 46.2241H89.3333V124.891H0V46.2241Z" fill="white"/>
</mask>
<g mask="url(#mask5_203_3446)">
<mask id="mask6_203_3446" style="mask-type:luminance" maskUnits="userSpaceOnUse" x="-16" y="28" width="126" height="111">
<path d="M5.94287 28.8438L109.432 56.026L87.8335 138.24L-15.6509 111.057L5.94287 28.8438Z" fill="white"/>
</mask>
<g mask="url(#mask6_203_3446)">
<mask id="mask7_203_3446" style="mask-type:luminance" maskUnits="userSpaceOnUse" x="-16" y="28" width="126" height="111">
<path d="M5.94287 28.8438L109.432 56.026L87.8335 138.24L-15.6509 111.057L5.94287 28.8438Z" fill="white"/>
</mask>
<g mask="url(#mask7_203_3446)">
<mask id="mask8_203_3446" style="mask-type:luminance" maskUnits="userSpaceOnUse" x="-16" y="28" width="126" height="111">
<path d="M5.94287 28.8438L109.432 56.026L87.8335 138.24L-15.6509 111.057L5.94287 28.8438Z" fill="white"/>
</mask>
<g mask="url(#mask8_203_3446)">
<path d="M53.099 117.849C46.7344 118.948 41.6667 111.859 42.7604 108.958C44.2448 105.021 48.2292 102.109 54.0469 105.896C59.8698 109.687 59.4687 116.75 53.099 117.849ZM47.6094 46.6457C23.2708 47.0415 -3.81251 66.2082 1.3177 85.1978C6.4427 104.193 30.2448 92.1457 34.2344 108.635C36.3281 117.286 43.8021 126.677 55.1979 124.588C63.9687 122.979 83.9115 113.802 88.2187 89.802C92.526 65.7968 72.1719 46.2447 47.6094 46.6457Z" fill="#FCD6B6"/>
</g>
</g>
</g>
</g>
<mask id="mask9_203_3446" style="mask-type:luminance" maskUnits="userSpaceOnUse" x="5" y="74" width="14" height="14">
<path d="M5.3335 74.2241H18.6668V87.5575H5.3335V74.2241Z" fill="white"/>
</mask>
<g mask="url(#mask9_203_3446)">
<mask id="mask10_203_3446" style="mask-type:luminance" maskUnits="userSpaceOnUse" x="-16" y="28" width="126" height="111">
<path d="M5.94287 28.8438L109.432 56.026L87.8335 138.24L-15.6509 111.057L5.94287 28.8438Z" fill="white"/>
</mask>
<g mask="url(#mask10_203_3446)">
<mask id="mask11_203_3446" style="mask-type:luminance" maskUnits="userSpaceOnUse" x="-16" y="28" width="126" height="111">
<path d="M5.94287 28.8438L109.432 56.026L87.8335 138.24L-15.6509 111.057L5.94287 28.8438Z" fill="white"/>
</mask>
<g mask="url(#mask11_203_3446)">
<mask id="mask12_203_3446" style="mask-type:luminance" maskUnits="userSpaceOnUse" x="-16" y="28" width="126" height="111">
<path d="M5.94287 28.8438L109.432 56.026L87.8335 138.24L-15.6509 111.057L5.94287 28.8438Z" fill="white"/>
</mask>
<g mask="url(#mask12_203_3446)">
<path d="M17.599 79.7915C18.4271 82.9686 16.526 86.2134 13.3437 87.0415C10.1667 87.8696 6.91667 85.9634 6.08854 82.7863C5.26042 79.6092 7.16667 76.3644 10.3437 75.5363C13.5208 74.7082 16.7708 76.6144 17.599 79.7915Z" fill="#EF373B"/>
</g>
</g>
</g>
</g>
<mask id="mask13_203_3446" style="mask-type:luminance" maskUnits="userSpaceOnUse" x="14" y="59" width="15" height="14">
<path d="M14.667 59.5576H28.0003V72.891H14.667V59.5576Z" fill="white"/>
</mask>
<g mask="url(#mask13_203_3446)">
<mask id="mask14_203_3446" style="mask-type:luminance" maskUnits="userSpaceOnUse" x="-16" y="28" width="126" height="111">
<path d="M5.94287 28.8442L109.432 56.0265L87.8335 138.24L-15.6509 111.058L5.94287 28.8442Z" fill="white"/>
</mask>
<g mask="url(#mask14_203_3446)">
<mask id="mask15_203_3446" style="mask-type:luminance" maskUnits="userSpaceOnUse" x="-16" y="28" width="126" height="111">
<path d="M5.94287 28.8442L109.432 56.0265L87.8335 138.24L-15.6509 111.058L5.94287 28.8442Z" fill="white"/>
</mask>
<g mask="url(#mask15_203_3446)">
<mask id="mask16_203_3446" style="mask-type:luminance" maskUnits="userSpaceOnUse" x="-16" y="28" width="126" height="111">
<path d="M5.94287 28.8442L109.432 56.0265L87.8335 138.24L-15.6509 111.058L5.94287 28.8442Z" fill="white"/>
</mask>
<g mask="url(#mask16_203_3446)">
<path d="M26.8231 64.4536C27.6512 67.6307 25.7502 70.8755 22.5679 71.7036C19.3908 72.5317 16.1408 70.6255 15.3127 67.4484C14.4845 64.2713 16.3908 61.0265 19.5679 60.1984C22.745 59.3703 25.995 61.2765 26.8231 64.4536Z" fill="#E18225"/>
</g>
</g>
</g>
</g>
<mask id="mask17_203_3446" style="mask-type:luminance" maskUnits="userSpaceOnUse" x="32" y="51" width="14" height="14">
<path d="M32 51.5576H45.3333V64.891H32V51.5576Z" fill="white"/>
</mask>
<g mask="url(#mask17_203_3446)">
<mask id="mask18_203_3446" style="mask-type:luminance" maskUnits="userSpaceOnUse" x="-16" y="28" width="126" height="111">
<path d="M5.94287 28.8442L109.432 56.0265L87.8335 138.24L-15.6509 111.058L5.94287 28.8442Z" fill="white"/>
</mask>
<g mask="url(#mask18_203_3446)">
<mask id="mask19_203_3446" style="mask-type:luminance" maskUnits="userSpaceOnUse" x="-16" y="28" width="126" height="111">
<path d="M5.94287 28.8442L109.432 56.0265L87.8335 138.24L-15.6509 111.058L5.94287 28.8442Z" fill="white"/>
</mask>
<g mask="url(#mask19_203_3446)">
<mask id="mask20_203_3446" style="mask-type:luminance" maskUnits="userSpaceOnUse" x="-16" y="28" width="126" height="111">
<path d="M5.94287 28.8442L109.432 56.0265L87.8335 138.24L-15.6509 111.058L5.94287 28.8442Z" fill="white"/>
</mask>
<g mask="url(#mask20_203_3446)">
<path d="M44.4583 56.6357C45.2865 59.8076 43.3802 63.0524 40.2031 63.8805C37.026 64.7087 33.776 62.8076 32.9479 59.6253C32.1198 56.4482 34.026 53.2034 37.2031 52.3805C40.3802 51.5524 43.6302 53.4587 44.4583 56.6357Z" fill="#D6CE43"/>
</g>
</g>
</g>
</g>
<mask id="mask21_203_3446" style="mask-type:luminance" maskUnits="userSpaceOnUse" x="52" y="51" width="14" height="14">
<path d="M52 51.5576H65.3333V64.891H52V51.5576Z" fill="white"/>
</mask>
<g mask="url(#mask21_203_3446)">
<mask id="mask22_203_3446" style="mask-type:luminance" maskUnits="userSpaceOnUse" x="-16" y="28" width="126" height="111">
<path d="M5.94287 28.8442L109.432 56.0265L87.8335 138.24L-15.6509 111.058L5.94287 28.8442Z" fill="white"/>
</mask>
<g mask="url(#mask22_203_3446)">
<mask id="mask23_203_3446" style="mask-type:luminance" maskUnits="userSpaceOnUse" x="-16" y="28" width="126" height="111">
<path d="M5.94287 28.8442L109.432 56.0265L87.8335 138.24L-15.6509 111.058L5.94287 28.8442Z" fill="white"/>
</mask>
<g mask="url(#mask23_203_3446)">
<mask id="mask24_203_3446" style="mask-type:luminance" maskUnits="userSpaceOnUse" x="-16" y="28" width="126" height="111">
<path d="M5.94287 28.8442L109.432 56.0265L87.8335 138.24L-15.6509 111.058L5.94287 28.8442Z" fill="white"/>
</mask>
<g mask="url(#mask24_203_3446)">
<path d="M64.3802 57.0786C65.2083 60.2557 63.3073 63.5005 60.125 64.3286C56.9479 65.1515 53.6979 63.2505 52.8698 60.0734C52.0417 56.8963 53.9479 53.6515 57.125 52.8234C60.3073 51.9953 63.5521 53.9015 64.3802 57.0786Z" fill="#5F9ABB"/>
</g>
</g>
</g>
</g>
<mask id="mask25_203_3446" style="mask-type:luminance" maskUnits="userSpaceOnUse" x="66" y="63" width="13" height="14">
<path d="M66.667 63.5576H78.667V76.891H66.667V63.5576Z" fill="white"/>
</mask>
<g mask="url(#mask25_203_3446)">
<mask id="mask26_203_3446" style="mask-type:luminance" maskUnits="userSpaceOnUse" x="-16" y="28" width="126" height="111">
<path d="M5.94287 28.8442L109.432 56.0265L87.8335 138.24L-15.6509 111.058L5.94287 28.8442Z" fill="white"/>
</mask>
<g mask="url(#mask26_203_3446)">
<mask id="mask27_203_3446" style="mask-type:luminance" maskUnits="userSpaceOnUse" x="-16" y="28" width="126" height="111">
<path d="M5.94287 28.8442L109.432 56.0265L87.8335 138.24L-15.6509 111.058L5.94287 28.8442Z" fill="white"/>
</mask>
<g mask="url(#mask27_203_3446)">
<mask id="mask28_203_3446" style="mask-type:luminance" maskUnits="userSpaceOnUse" x="-16" y="28" width="126" height="111">
<path d="M5.94287 28.8442L109.432 56.0265L87.8335 138.24L-15.6509 111.058L5.94287 28.8442Z" fill="white"/>
</mask>
<g mask="url(#mask28_203_3446)">
<path d="M78.4376 68.3493C79.271 71.5264 77.3647 74.7712 74.1876 75.5993C71.0053 76.4275 67.7605 74.5212 66.9324 71.3441C66.0991 68.167 68.0053 64.9222 71.1876 64.0941C74.3647 63.2712 77.6095 65.1722 78.4376 68.3493Z" fill="#6A4C62"/>
</g>
</g>
</g>
</g>
<mask id="mask29_203_3446" style="mask-type:luminance" maskUnits="userSpaceOnUse" x="72" y="80" width="14" height="15">
<path d="M72 80.8906H85.3333V94.224H72V80.8906Z" fill="white"/>
</mask>
<g mask="url(#mask29_203_3446)">
<mask id="mask30_203_3446" style="mask-type:luminance" maskUnits="userSpaceOnUse" x="-16" y="28" width="126" height="111">
<path d="M5.94287 28.8438L109.432 56.026L87.8335 138.24L-15.6509 111.057L5.94287 28.8438Z" fill="white"/>
</mask>
<g mask="url(#mask30_203_3446)">
<mask id="mask31_203_3446" style="mask-type:luminance" maskUnits="userSpaceOnUse" x="-16" y="28" width="126" height="111">
<path d="M5.94287 28.8438L109.432 56.026L87.8335 138.24L-15.6509 111.057L5.94287 28.8438Z" fill="white"/>
</mask>
<g mask="url(#mask31_203_3446)">
<mask id="mask32_203_3446" style="mask-type:luminance" maskUnits="userSpaceOnUse" x="-16" y="28" width="126" height="111">
<path d="M5.94287 28.8438L109.432 56.026L87.8335 138.24L-15.6509 111.057L5.94287 28.8438Z" fill="white"/>
</mask>
<g mask="url(#mask32_203_3446)">
<path d="M84.4793 85.8437C85.3075 89.0208 83.4012 92.2656 80.2241 93.0937C77.047 93.9219 73.797 92.0156 72.9689 88.8385C72.1408 85.6615 74.047 82.4167 77.2241 81.5885C80.4012 80.7604 83.6512 82.6667 84.4793 85.8437Z" fill="#70BE7A"/>
</g>
</g>
</g>
</g>
<mask id="mask33_203_3446" style="mask-type:luminance" maskUnits="userSpaceOnUse" x="18" y="86" width="9" height="7">
<path d="M18.667 86.2241H26.667V92.8908H18.667V86.2241Z" fill="white"/>
</mask>
<g mask="url(#mask33_203_3446)">
<mask id="mask34_203_3446" style="mask-type:luminance" maskUnits="userSpaceOnUse" x="-16" y="28" width="126" height="111">
<path d="M5.94287 28.8438L109.432 56.026L87.8335 138.24L-15.6509 111.057L5.94287 28.8438Z" fill="white"/>
</mask>
<g mask="url(#mask34_203_3446)">
<mask id="mask35_203_3446" style="mask-type:luminance" maskUnits="userSpaceOnUse" x="-16" y="28" width="126" height="111">
<path d="M5.94287 28.8438L109.432 56.026L87.8335 138.24L-15.6509 111.057L5.94287 28.8438Z" fill="white"/>
</mask>
<g mask="url(#mask35_203_3446)">
<mask id="mask36_203_3446" style="mask-type:luminance" maskUnits="userSpaceOnUse" x="-16" y="28" width="126" height="111">
<path d="M5.94287 28.8438L109.432 56.026L87.8335 138.24L-15.6509 111.057L5.94287 28.8438Z" fill="white"/>
</mask>
<g mask="url(#mask36_203_3446)">
<path d="M25.3025 88.6824C25.7191 90.2813 24.7608 91.9168 23.1619 92.3334C21.5629 92.7501 19.9275 91.7918 19.5056 90.1876C19.0889 88.5938 20.0473 86.9532 21.6514 86.5418C23.2504 86.1251 24.8858 87.0834 25.3025 88.6824Z" fill="#EF373B"/>
</g>
</g>
</g>
</g>
<mask id="mask37_203_3446" style="mask-type:luminance" maskUnits="userSpaceOnUse" x="49" y="47" width="9" height="8">
<path d="M49.3335 47.5576H57.3335V54.2243H49.3335V47.5576Z" fill="white"/>
</mask>
<g mask="url(#mask37_203_3446)">
<mask id="mask38_203_3446" style="mask-type:luminance" maskUnits="userSpaceOnUse" x="-16" y="28" width="126" height="111">
<path d="M5.94287 28.8442L109.432 56.0265L87.8335 138.24L-15.6509 111.058L5.94287 28.8442Z" fill="white"/>
</mask>
<g mask="url(#mask38_203_3446)">
<mask id="mask39_203_3446" style="mask-type:luminance" maskUnits="userSpaceOnUse" x="-16" y="28" width="126" height="111">
<path d="M5.94287 28.8442L109.432 56.0265L87.8335 138.24L-15.6509 111.058L5.94287 28.8442Z" fill="white"/>
</mask>
<g mask="url(#mask39_203_3446)">
<mask id="mask40_203_3446" style="mask-type:luminance" maskUnits="userSpaceOnUse" x="-16" y="28" width="126" height="111">
<path d="M5.94287 28.8442L109.432 56.0265L87.8335 138.24L-15.6509 111.058L5.94287 28.8442Z" fill="white"/>
</mask>
<g mask="url(#mask40_203_3446)">
<path d="M56.073 50.2453C56.4897 51.8443 55.5313 53.4797 53.9324 53.8964C52.3282 54.3131 50.6928 53.3547 50.2761 51.7506C49.8595 50.1516 50.8178 48.5162 52.4168 48.0995C54.0209 47.6828 55.6563 48.6464 56.073 50.2453Z" fill="#5F9ABB"/>
</g>
</g>
</g>
</g>
<mask id="mask41_203_3446" style="mask-type:luminance" maskUnits="userSpaceOnUse" x="14" y="88" width="5" height="5">
<path d="M14.667 88.8906H18.667V92.8906H14.667V88.8906Z" fill="white"/>
</mask>
<g mask="url(#mask41_203_3446)">
<mask id="mask42_203_3446" style="mask-type:luminance" maskUnits="userSpaceOnUse" x="-16" y="28" width="126" height="111">
<path d="M5.94287 28.8438L109.432 56.026L87.8335 138.24L-15.6509 111.057L5.94287 28.8438Z" fill="white"/>
</mask>
<g mask="url(#mask42_203_3446)">
<mask id="mask43_203_3446" style="mask-type:luminance" maskUnits="userSpaceOnUse" x="-16" y="28" width="126" height="111">
<path d="M5.94287 28.8438L109.432 56.026L87.8335 138.24L-15.6509 111.057L5.94287 28.8438Z" fill="white"/>
</mask>
<g mask="url(#mask43_203_3446)">
<mask id="mask44_203_3446" style="mask-type:luminance" maskUnits="userSpaceOnUse" x="-16" y="28" width="126" height="111">
<path d="M5.94287 28.8438L109.432 56.026L87.8335 138.24L-15.6509 111.057L5.94287 28.8438Z" fill="white"/>
</mask>
<g mask="url(#mask44_203_3446)">
<path d="M18.2138 90.1564C18.4274 90.9897 17.9326 91.8335 17.1045 92.0522C16.2711 92.2658 15.4222 91.771 15.2086 90.9376C14.9899 90.1095 15.4899 89.2605 16.318 89.047C17.1513 88.8283 18.0003 89.3283 18.2138 90.1564Z" fill="#EF373B"/>
</g>
</g>
</g>
</g>
<mask id="mask45_203_3446" style="mask-type:luminance" maskUnits="userSpaceOnUse" x="53" y="68" width="5" height="5">
<path d="M53.3335 68.8906H57.3335V72.8906H53.3335V68.8906Z" fill="white"/>
</mask>
<g mask="url(#mask45_203_3446)">
<mask id="mask46_203_3446" style="mask-type:luminance" maskUnits="userSpaceOnUse" x="-16" y="28" width="126" height="111">
<path d="M5.94287 28.8438L109.432 56.026L87.8335 138.24L-15.6509 111.057L5.94287 28.8438Z" fill="white"/>
</mask>
<g mask="url(#mask46_203_3446)">
<mask id="mask47_203_3446" style="mask-type:luminance" maskUnits="userSpaceOnUse" x="-16" y="28" width="126" height="111">
<path d="M5.94287 28.8438L109.432 56.026L87.8335 138.24L-15.6509 111.057L5.94287 28.8438Z" fill="white"/>
</mask>
<g mask="url(#mask47_203_3446)">
<mask id="mask48_203_3446" style="mask-type:luminance" maskUnits="userSpaceOnUse" x="-16" y="28" width="126" height="111">
<path d="M5.94287 28.8438L109.432 56.026L87.8335 138.24L-15.6509 111.057L5.94287 28.8438Z" fill="white"/>
</mask>
<g mask="url(#mask48_203_3446)">
<path d="M57.1562 70.3488C57.375 71.1821 56.875 72.0258 56.0468 72.2446C55.2187 72.4581 54.3646 71.9633 54.151 71.13C53.9323 70.3019 54.4323 69.4529 55.2604 69.2394C56.0937 69.0206 56.9375 69.5206 57.1562 70.3488Z" fill="#5F9ABB"/>
</g>
</g>
</g>
</g>
<mask id="mask49_203_3446" style="mask-type:luminance" maskUnits="userSpaceOnUse" x="29" y="64" width="9" height="9">
<path d="M29.3335 64.8906H37.3335V72.8906H29.3335V64.8906Z" fill="white"/>
</mask>
<g mask="url(#mask49_203_3446)">
<mask id="mask50_203_3446" style="mask-type:luminance" maskUnits="userSpaceOnUse" x="-16" y="28" width="126" height="111">
<path d="M5.94287 28.8438L109.432 56.026L87.8335 138.24L-15.6509 111.057L5.94287 28.8438Z" fill="white"/>
</mask>
<g mask="url(#mask50_203_3446)">
<mask id="mask51_203_3446" style="mask-type:luminance" maskUnits="userSpaceOnUse" x="-16" y="28" width="126" height="111">
<path d="M5.94287 28.8438L109.432 56.026L87.8335 138.24L-15.6509 111.057L5.94287 28.8438Z" fill="white"/>
</mask>
<g mask="url(#mask51_203_3446)">
<mask id="mask52_203_3446" style="mask-type:luminance" maskUnits="userSpaceOnUse" x="-16" y="28" width="126" height="111">
<path d="M5.94287 28.8438L109.432 56.026L87.8335 138.24L-15.6509 111.057L5.94287 28.8438Z" fill="white"/>
</mask>
<g mask="url(#mask52_203_3446)">
<path d="M36.4012 68.0259C36.8127 69.6145 35.8595 71.2342 34.271 71.6509C32.6877 72.0624 31.0627 71.1092 30.646 69.5259C30.2345 67.9374 31.1877 66.3176 32.7762 65.9009C34.3648 65.4895 35.9845 66.4426 36.4012 68.0259Z" fill="#D6CE43"/>
</g>
</g>
</g>
</g>
<mask id="mask53_203_3446" style="mask-type:luminance" maskUnits="userSpaceOnUse" x="42" y="64" width="5" height="7">
<path d="M42.667 64.8906H46.667V70.224H42.667V64.8906Z" fill="white"/>
</mask>
<g mask="url(#mask53_203_3446)">
<mask id="mask54_203_3446" style="mask-type:luminance" maskUnits="userSpaceOnUse" x="-16" y="28" width="126" height="111">
<path d="M5.94287 28.8438L109.432 56.026L87.8335 138.24L-15.6509 111.057L5.94287 28.8438Z" fill="white"/>
</mask>
<g mask="url(#mask54_203_3446)">
<mask id="mask55_203_3446" style="mask-type:luminance" maskUnits="userSpaceOnUse" x="-16" y="28" width="126" height="111">
<path d="M5.94287 28.8438L109.432 56.026L87.8335 138.24L-15.6509 111.057L5.94287 28.8438Z" fill="white"/>
</mask>
<g mask="url(#mask55_203_3446)">
<mask id="mask56_203_3446" style="mask-type:luminance" maskUnits="userSpaceOnUse" x="-16" y="28" width="126" height="111">
<path d="M5.94287 28.8438L109.432 56.026L87.8335 138.24L-15.6509 111.057L5.94287 28.8438Z" fill="white"/>
</mask>
<g mask="url(#mask56_203_3446)">
<path d="M46.422 66.9687C46.6459 67.8176 46.1303 68.6926 45.2761 68.9114C44.4272 69.1354 43.5522 68.6249 43.3282 67.7708C43.1043 66.9166 43.6199 66.0468 44.4741 65.8229C45.3282 65.5989 46.198 66.1145 46.422 66.9687Z" fill="#D6CE43"/>
</g>
</g>
</g>
</g>
<mask id="mask57_203_3446" style="mask-type:luminance" maskUnits="userSpaceOnUse" x="36" y="68" width="7" height="8">
<path d="M36 68.8906H42.6667V75.5573H36V68.8906Z" fill="white"/>
</mask>
<g mask="url(#mask57_203_3446)">
<mask id="mask58_203_3446" style="mask-type:luminance" maskUnits="userSpaceOnUse" x="-16" y="28" width="126" height="111">
<path d="M5.94287 28.8438L109.432 56.026L87.8335 138.24L-15.6509 111.057L5.94287 28.8438Z" fill="white"/>
</mask>
<g mask="url(#mask58_203_3446)">
<mask id="mask59_203_3446" style="mask-type:luminance" maskUnits="userSpaceOnUse" x="-16" y="28" width="126" height="111">
<path d="M5.94287 28.8438L109.432 56.026L87.8335 138.24L-15.6509 111.057L5.94287 28.8438Z" fill="white"/>
</mask>
<g mask="url(#mask59_203_3446)">
<mask id="mask60_203_3446" style="mask-type:luminance" maskUnits="userSpaceOnUse" x="-16" y="28" width="126" height="111">
<path d="M5.94287 28.8438L109.432 56.026L87.8335 138.24L-15.6509 111.057L5.94287 28.8438Z" fill="white"/>
</mask>
<g mask="url(#mask60_203_3446)">
<path d="M42.3907 71.5834C42.7865 73.099 41.8803 74.6459 40.3646 75.0418C38.849 75.4376 37.2969 74.5261 36.9011 73.0105C36.5053 71.4949 37.4167 69.948 38.9323 69.5522C40.448 69.1615 41.9948 70.0678 42.3907 71.5834Z" fill="#D6CE43"/>
</g>
</g>
</g>
</g>
<mask id="mask61_203_3446" style="mask-type:luminance" maskUnits="userSpaceOnUse" x="70" y="92" width="7" height="5">
<path d="M70.667 92.8906H76.0003V96.8906H70.667V92.8906Z" fill="white"/>
</mask>
<g mask="url(#mask61_203_3446)">
<mask id="mask62_203_3446" style="mask-type:luminance" maskUnits="userSpaceOnUse" x="-16" y="28" width="126" height="111">
<path d="M5.94287 28.8438L109.432 56.026L87.8335 138.24L-15.6509 111.057L5.94287 28.8438Z" fill="white"/>
</mask>
<g mask="url(#mask62_203_3446)">
<mask id="mask63_203_3446" style="mask-type:luminance" maskUnits="userSpaceOnUse" x="-16" y="28" width="126" height="111">
<path d="M5.94287 28.8438L109.432 56.026L87.8335 138.24L-15.6509 111.057L5.94287 28.8438Z" fill="white"/>
</mask>
<g mask="url(#mask63_203_3446)">
<mask id="mask64_203_3446" style="mask-type:luminance" maskUnits="userSpaceOnUse" x="-16" y="28" width="126" height="111">
<path d="M5.94287 28.8438L109.432 56.026L87.8335 138.24L-15.6509 111.057L5.94287 28.8438Z" fill="white"/>
</mask>
<g mask="url(#mask64_203_3446)">
<path d="M74.8282 94.4947C75.0835 95.4583 74.5053 96.4427 73.5418 96.6927C72.5782 96.9427 71.5939 96.3645 71.3439 95.401C71.0939 94.4427 71.672 93.4583 72.6355 93.2083C73.5991 92.9531 74.5782 93.5312 74.8282 94.4947Z" fill="#70BE7A"/>
</g>
</g>
</g>
</g>
<mask id="mask65_203_3446" style="mask-type:luminance" maskUnits="userSpaceOnUse" x="76" y="94" width="7" height="7">
<path d="M76 94.2241H82.6667V100.891H76V94.2241Z" fill="white"/>
</mask>
<g mask="url(#mask65_203_3446)">
<mask id="mask66_203_3446" style="mask-type:luminance" maskUnits="userSpaceOnUse" x="-16" y="28" width="126" height="111">
<path d="M5.94287 28.8438L109.432 56.026L87.8335 138.24L-15.6509 111.057L5.94287 28.8438Z" fill="white"/>
</mask>
<g mask="url(#mask66_203_3446)">
<mask id="mask67_203_3446" style="mask-type:luminance" maskUnits="userSpaceOnUse" x="-16" y="28" width="126" height="111">
<path d="M5.94287 28.8438L109.432 56.026L87.8335 138.24L-15.6509 111.057L5.94287 28.8438Z" fill="white"/>
</mask>
<g mask="url(#mask67_203_3446)">
<mask id="mask68_203_3446" style="mask-type:luminance" maskUnits="userSpaceOnUse" x="-16" y="28" width="126" height="111">
<path d="M5.94287 28.8438L109.432 56.026L87.8335 138.24L-15.6509 111.057L5.94287 28.8438Z" fill="white"/>
</mask>
<g mask="url(#mask68_203_3446)">
<path d="M81.8386 96.9218C82.2449 98.4791 81.3126 100.062 79.7605 100.469C78.2032 100.875 76.6147 99.9426 76.2084 98.3853C75.8022 96.8332 76.7345 95.2447 78.2917 94.8385C79.8438 94.4322 81.4376 95.3697 81.8386 96.9218Z" fill="#70BE7A"/>
</g>
</g>
</g>
</g>
<mask id="mask69_203_3446" style="mask-type:luminance" maskUnits="userSpaceOnUse" x="54" y="90" width="36" height="47">
<path d="M54.667 90.2241H89.3337V136.891H54.667V90.2241Z" fill="white"/>
</mask>
<g mask="url(#mask69_203_3446)">
<mask id="mask70_203_3446" style="mask-type:luminance" maskUnits="userSpaceOnUse" x="-16" y="28" width="126" height="111">
<path d="M5.94287 28.8438L109.432 56.026L87.8335 138.24L-15.6509 111.057L5.94287 28.8438Z" fill="white"/>
</mask>
<g mask="url(#mask70_203_3446)">
<mask id="mask71_203_3446" style="mask-type:luminance" maskUnits="userSpaceOnUse" x="-16" y="28" width="126" height="111">
<path d="M5.94287 28.8438L109.432 56.026L87.8335 138.24L-15.6509 111.057L5.94287 28.8438Z" fill="white"/>
</mask>
<g mask="url(#mask71_203_3446)">
<mask id="mask72_203_3446" style="mask-type:luminance" maskUnits="userSpaceOnUse" x="-16" y="28" width="126" height="111">
<path d="M5.94287 28.8438L109.432 56.026L87.8335 138.24L-15.6509 111.057L5.94287 28.8438Z" fill="white"/>
</mask>
<g mask="url(#mask72_203_3446)">
<path d="M54.9531 94.0366L84.7604 135.552C85.3281 136.333 86.3906 136.537 87.1458 136.005L87.875 135.5C88.6302 134.969 88.8021 133.901 88.2604 133.104L59.3333 90.9741C57.8854 91.9897 56.4167 93.0158 54.9531 94.0366Z" fill="#F1486F"/>
</g>
</g>
</g>
</g>
<mask id="mask73_203_3446" style="mask-type:luminance" maskUnits="userSpaceOnUse" x="50" y="86" width="11" height="9">
<path d="M50.667 86.2241H60.0003V94.2241H50.667V86.2241Z" fill="white"/>
</mask>
<g mask="url(#mask73_203_3446)">
<mask id="mask74_203_3446" style="mask-type:luminance" maskUnits="userSpaceOnUse" x="-16" y="28" width="126" height="111">
<path d="M5.94287 28.8438L109.432 56.026L87.8335 138.24L-15.6509 111.057L5.94287 28.8438Z" fill="white"/>
</mask>
<g mask="url(#mask74_203_3446)">
<mask id="mask75_203_3446" style="mask-type:luminance" maskUnits="userSpaceOnUse" x="-16" y="28" width="126" height="111">
<path d="M5.94287 28.8438L109.432 56.026L87.8335 138.24L-15.6509 111.057L5.94287 28.8438Z" fill="white"/>
</mask>
<g mask="url(#mask75_203_3446)">
<mask id="mask76_203_3446" style="mask-type:luminance" maskUnits="userSpaceOnUse" x="-16" y="28" width="126" height="111">
<path d="M5.94287 28.8438L109.432 56.026L87.8335 138.24L-15.6509 111.057L5.94287 28.8438Z" fill="white"/>
</mask>
<g mask="url(#mask76_203_3446)">
<path d="M56.224 86.4375L51.7344 89.5781L54.9531 94.0365C56.4167 93.0156 57.8854 91.9896 59.3333 90.974L56.224 86.4375Z" fill="#D3D2D2"/>
</g>
</g>
</g>
</g>
<mask id="mask77_203_3446" style="mask-type:luminance" maskUnits="userSpaceOnUse" x="42" y="75" width="16" height="16">
<path d="M42.667 75.5576H57.3337V90.2243H42.667V75.5576Z" fill="white"/>
</mask>
<g mask="url(#mask77_203_3446)">
<mask id="mask78_203_3446" style="mask-type:luminance" maskUnits="userSpaceOnUse" x="-16" y="28" width="126" height="111">
<path d="M5.94287 28.8442L109.432 56.0265L87.8335 138.24L-15.6509 111.058L5.94287 28.8442Z" fill="white"/>
</mask>
<g mask="url(#mask78_203_3446)">
<mask id="mask79_203_3446" style="mask-type:luminance" maskUnits="userSpaceOnUse" x="-16" y="28" width="126" height="111">
<path d="M5.94287 28.8442L109.432 56.0265L87.8335 138.24L-15.6509 111.058L5.94287 28.8442Z" fill="white"/>
</mask>
<g mask="url(#mask79_203_3446)">
<mask id="mask80_203_3446" style="mask-type:luminance" maskUnits="userSpaceOnUse" x="-16" y="28" width="126" height="111">
<path d="M5.94287 28.8442L109.432 56.0265L87.8335 138.24L-15.6509 111.058L5.94287 28.8442Z" fill="white"/>
</mask>
<g mask="url(#mask80_203_3446)">
<path d="M56.2243 86.4382C56.2243 86.4382 55.6097 80.6882 53.2191 75.8028C53.2191 75.8028 51.0472 74.8809 47.0941 77.6465L48.6774 80.459L46.5003 78.0632L45.6097 78.683L47.6514 81.1778L45.016 79.0996C45.016 79.0996 43.4222 80.7299 43.292 82.8028C43.443 83.0059 46.7972 86.7976 51.7347 89.5788L56.2243 86.4382Z" fill="#F9AC2E"/>
</g>
</g>
</g>
</g>
</svg>
