<svg width="160" height="147" viewBox="0 0 160 147" fill="none" xmlns="http://www.w3.org/2000/svg">
<path fill-rule="evenodd" clip-rule="evenodd" d="M72.1406 61.7812C72.1406 61.7812 73.0729 73.0417 74.474 77.9896C75.875 82.9323 90.901 91.8229 90.901 91.8229L85.8281 68.1302L72.1406 61.7812Z" fill="#D87F4F"/>
<path fill-rule="evenodd" clip-rule="evenodd" d="M83.7764 73.3021C83.7712 73.224 83.8337 73.1563 83.9118 73.1563C83.99 73.151 84.0525 73.2187 84.0577 73.2917C84.0577 73.2917 84.1462 77.901 84.6358 80.5052C84.6566 80.5781 84.6045 80.6562 84.5264 80.6667C84.4483 80.6771 84.3754 80.6302 84.365 80.5573C83.865 77.9375 83.7764 73.3021 83.7764 73.3021ZM79.0472 67.7604C79.0525 67.6875 79.115 67.625 79.1931 67.625C79.2712 67.6302 79.3337 67.6927 79.3285 67.776C79.3285 67.776 79.0733 74.401 79.3858 78.224C79.391 78.3021 79.3337 78.3698 79.2556 78.375C79.1775 78.3802 79.1097 78.3229 79.1045 78.25C78.7868 74.4062 79.0472 67.7604 79.0472 67.7604Z" fill="#A25225"/>
<mask id="mask0_196_955" style="mask-type:luminance" maskUnits="userSpaceOnUse" x="0" y="31" width="52" height="116">
<path d="M0 31.8384H51.0781V146.505H0V31.8384Z" fill="white"/>
</mask>
<g mask="url(#mask0_196_955)">
<path fill-rule="evenodd" clip-rule="evenodd" d="M6.96875 32.9946C6.96875 32.9946 5.875 39.2186 4.94271 44.354C4.01042 49.4894 3.65625 49.5415 4.18229 53.6092C4.70833 57.6717 5.71875 64.5675 6.08333 68.5363C6.45313 72.5103 7.76563 72.9634 9.84896 78.3488C11.9375 83.729 16.4688 94.4738 16.0313 98.7186C15.599 102.963 13.5104 108.39 9.05208 116.974C4.59375 125.562 0 134.838 0 134.838C0 134.838 3.52604 146.984 26.1094 144.963C26.1094 144.963 32.9271 119.896 37.0208 109.219C41.1094 98.5467 41.5313 97.0415 43.6615 92.7655C45.7917 88.4842 45.0885 83.0988 44.0573 77.9582C43.026 72.8228 41.8594 72.0415 42.9635 69.453C44.0677 66.8696 46.3229 61.9894 47.7188 58.6353C49.1198 55.2863 50.7292 52.005 49.1771 50.5728C47.6198 49.13 46.6875 50.9061 45.2604 53.6665C43.8385 56.4269 6.96875 32.9946 6.96875 32.9946Z" fill="#FEAA70"/>
</g>
<path fill-rule="evenodd" clip-rule="evenodd" d="M39.4118 63.6508C39.4118 63.6508 38.8441 65.2185 38.1462 66.3956C37.5889 67.3435 37.292 68.5466 37.2087 68.88C37.2087 68.88 34.9587 67.156 31.6566 66.5102C28.5003 65.8904 36.4222 62.6404 39.4118 63.6508Z" fill="#D87F4F"/>
<path fill-rule="evenodd" clip-rule="evenodd" d="M31.7243 66.6823C31.6462 66.6666 31.5941 66.5989 31.6097 66.5208C31.6201 66.4427 31.693 66.3958 31.766 66.4062C31.766 66.4062 35.542 67.0156 38.8701 70.0416C38.9274 70.0937 38.9274 70.1823 38.8805 70.2396C38.8285 70.2969 38.7347 70.3021 38.6774 70.25C35.4222 67.2812 31.7243 66.6823 31.7243 66.6823Z" fill="#A25225"/>
<mask id="mask1_196_955" style="mask-type:luminance" maskUnits="userSpaceOnUse" x="4" y="0" width="45" height="68">
<path d="M4.41162 0H48.4116V67.8385H4.41162V0Z" fill="white"/>
</mask>
<g mask="url(#mask1_196_955)">
<path fill-rule="evenodd" clip-rule="evenodd" d="M6.65097 35.6092C6.75513 36.2134 6.86972 36.8436 6.9843 37.5155C9.13534 49.6717 12.2864 62.2811 15.8385 64.9478C19.3958 67.6196 28.2968 67.8384 32.9374 66.8332C42.0416 64.8696 44.8385 63.6092 45.927 55.3436C46.677 49.6509 46.7447 42.9894 47.0051 37.104C47.3072 30.3905 47.3437 24.7238 46.4843 22.6873C45.302 19.8957 43.5624 18.2394 41.8541 16.8228C41.5364 16.5571 41.2239 16.3019 40.9114 16.0571C40.4114 15.6509 39.927 15.255 39.4687 14.8384C39.3749 14.7603 39.2916 14.6821 39.203 14.5988C38.9791 14.3905 38.7603 14.1717 38.552 13.953C36.6145 11.8957 35.5416 9.40608 37.8228 6.21337C40.3489 2.68212 41.9374 1.76025 37.8489 0.937333C33.7551 0.109207 28.0624 0.0206661 23.3749 0.400874C18.6874 0.786292 12.4374 2.01546 9.94784 3.30192C8.24472 4.17692 8.80201 5.09879 10.427 6.86442C12.776 9.42171 14.052 11.4217 13.927 13.0519C13.8645 13.854 13.6301 14.5363 13.2291 15.2186C12.8385 15.8905 12.2916 16.5571 11.5989 17.3384C11.203 17.7811 10.7603 18.2603 10.2708 18.7915C9.96347 19.13 9.63534 19.4946 9.28638 19.8853C9.13534 20.0571 8.97909 20.2342 8.81763 20.4165C6.36972 23.2186 5.51555 24.9478 5.68222 28.4842C5.76555 30.2759 6.11451 32.5259 6.65097 35.6092Z" fill="#FFF0DB"/>
</g>
<mask id="mask2_196_955" style="mask-type:luminance" maskUnits="userSpaceOnUse" x="8" y="0" width="33" height="22">
<path d="M8.41162 0H40.4116V21.1719H8.41162V0Z" fill="white"/>
</mask>
<g mask="url(#mask2_196_955)">
<path fill-rule="evenodd" clip-rule="evenodd" d="M12.2968 16.5314C12.6718 16.0783 12.9791 15.6512 13.2291 15.2241C13.6301 14.5418 13.8645 13.8543 13.927 13.0574C14.052 11.4272 12.776 9.422 10.427 6.86992C8.80202 5.09908 8.24473 4.18242 9.94785 3.30221C12.4374 2.01575 18.6874 0.786585 23.3749 0.406376C28.0572 0.0261676 33.7551 0.1095 37.8489 0.937626C41.9426 1.76054 40.3489 2.67721 37.8229 6.21367C35.5416 9.40638 36.6145 11.896 38.552 13.9533C38.7604 14.172 38.9791 14.3908 39.2031 14.5991C39.2083 14.6095 39.2187 14.6147 39.2239 14.6199C38.2239 16.1564 37.2239 17.2189 36.5885 17.5105C33.6666 18.8439 31.552 14.3647 27.3176 19.0835C26.2499 20.271 25.2864 19.7189 25.052 19.6824C21.5416 19.1512 20.8854 15.8022 15.2916 19.2241C13.2604 20.4585 12.4895 18.271 12.2968 16.5314Z" fill="#99AC40"/>
</g>
<mask id="mask3_196_955" style="mask-type:luminance" maskUnits="userSpaceOnUse" x="9" y="0" width="32" height="7">
<path d="M9.74512 0H40.4118V6.50521H9.74512V0Z" fill="white"/>
</mask>
<g mask="url(#mask3_196_955)">
<path fill-rule="evenodd" clip-rule="evenodd" d="M15.0682 2.15609C12.0995 2.79151 7.34427 4.34359 11.9328 5.37484C16.5161 6.40088 26.4484 6.35922 32.7505 4.87484C38.0578 3.62484 40.6724 2.3488 38.4797 1.71859C37.2609 1.36964 34.0526 0.734218 29.2714 0.708176C25.4693 0.687343 20.7141 0.942551 15.0682 2.15609Z" fill="#663B29"/>
</g>
<path fill-rule="evenodd" clip-rule="evenodd" d="M39.4689 14.8384C39.3439 15.2498 39.2189 15.6509 39.0522 16.0207C38.672 16.8957 38.0991 17.63 37.0418 18.0832C36.3231 18.3957 35.4689 18.3071 34.521 18.0415C33.3595 17.7186 32.0366 17.13 30.6616 17.1561C30.1304 17.1665 29.7033 17.38 29.3179 17.6613C28.8647 17.9998 28.4741 18.4478 28.0627 18.8592C27.3231 19.604 26.5314 20.2498 25.4533 20.3384C24.422 20.4217 23.0783 19.9998 21.1981 18.4686C20.771 18.1248 20.297 18.0467 19.8022 18.1144C19.2085 18.1925 18.5887 18.4634 17.9689 18.7603C17.1304 19.1665 16.2866 19.6353 15.4845 19.9061C14.87 20.1144 14.271 20.2082 13.7137 20.1144C12.3439 19.8905 11.7345 18.7967 11.6147 17.6144C11.6095 17.5207 11.5991 17.4269 11.5991 17.3384C12.2918 16.5571 12.8387 15.8905 13.2293 15.2186C13.245 15.3696 13.1981 15.5259 13.0835 15.6509C12.995 15.7498 12.9272 15.9217 12.8647 16.1248C12.745 16.5155 12.6877 17.0155 12.7345 17.4946C12.8075 18.1821 13.0991 18.8696 13.8908 18.9998C14.3908 19.078 14.9272 18.9269 15.4845 18.6978C16.1304 18.4373 16.8075 18.0623 17.4741 17.7446C19.047 16.979 20.6095 16.5363 21.9064 17.5884C23.4533 18.8436 24.5106 19.2759 25.3595 19.2082C26.1564 19.1405 26.7085 18.6092 27.2606 18.0571C28.2189 17.0884 29.1564 16.0467 30.6408 16.0207C31.896 15.9946 33.12 16.4165 34.2241 16.7655C34.7189 16.9217 35.1877 17.0571 35.62 17.1196C35.9741 17.1665 36.3022 17.1665 36.5939 17.0415C37.5106 16.6405 37.9064 15.9373 38.1877 15.1353C38.3231 14.7498 38.4325 14.3436 38.547 13.9321C38.7554 14.1509 38.9793 14.3696 39.2033 14.5832C39.2918 14.6769 39.3752 14.755 39.4689 14.8384Z" fill="#5E823F"/>
<path fill-rule="evenodd" clip-rule="evenodd" d="M41.8543 16.8228C41.6981 17.3592 41.5418 17.9217 41.3335 18.453C40.9012 19.5155 40.2554 20.4634 39.0002 20.9998C37.7866 21.5207 36.6356 21.4946 35.4272 21.2655C34.3387 21.0571 33.1981 20.6821 31.9064 20.479C31.3439 20.3957 30.8595 20.5519 30.3908 20.8123C29.8335 21.1144 29.3022 21.5623 28.7345 21.9842C27.7762 22.7134 26.7137 23.3853 25.3491 23.4842C24.0054 23.5728 22.3439 23.1144 20.1616 21.4842C19.7345 21.1665 19.2866 21.1144 18.8022 21.1925C18.2137 21.2915 17.5887 21.5623 16.922 21.854C15.4012 22.5207 13.6981 23.2707 11.8179 22.854C10.5679 22.5728 9.80745 21.5519 9.43766 20.4478C9.37516 20.2603 9.32829 20.0728 9.28662 19.8905C9.63558 19.505 9.9637 19.1405 10.271 18.8019C10.2814 19.1769 10.3543 19.6405 10.5054 20.0936C10.7554 20.8332 11.2189 21.5675 12.0627 21.755C13.0106 21.9686 13.9012 21.8019 14.7345 21.5259C15.6564 21.2186 16.521 20.7759 17.3283 20.4634C18.6147 19.9582 19.7762 19.7915 20.8387 20.5884C22.7137 21.9842 24.1147 22.4425 25.2658 22.3592C26.396 22.2811 27.2606 21.6873 28.0575 21.0884C28.6668 20.63 29.2397 20.1561 29.8387 19.828C30.5314 19.4478 31.2502 19.2394 32.0783 19.3696C33.3856 19.5728 34.5366 19.953 35.6408 20.1561C36.6252 20.3436 37.5679 20.3905 38.5522 19.9686C39.495 19.5623 39.9637 18.8332 40.2866 18.0311C40.547 17.3905 40.7137 16.6978 40.9116 16.0571C41.2241 16.3019 41.5366 16.5571 41.8543 16.8228Z" fill="#99AC40"/>
<path fill-rule="evenodd" clip-rule="evenodd" d="M40.2712 26.8074C43.4118 22.5261 45.9326 27.8751 43.0316 30.2084C41.292 31.6095 41.6097 32.7917 39.9899 33.5834C35.8701 35.5938 35.167 30.7709 38.1097 29.7813C38.542 29.6355 37.8493 29.4792 37.5264 29.1563C35.3857 27.0626 37.5993 23.9063 40.2712 26.8074ZM25.9118 32.8386C26.7295 32.8803 28.1201 32.8803 28.6566 33.7188C29.4014 34.8907 28.7243 36.1199 27.766 36.4167C26.6305 36.7761 25.4482 36.349 25.3649 36.3334C25.5003 36.7188 26.7139 39.1928 24.8597 40.2709C22.2555 41.7865 21.818 38.2032 21.7816 37.8959C21.516 38.0782 18.7139 40.047 17.8076 37.5417C17.2243 35.948 19.4118 34.9532 19.6514 34.849C19.568 34.797 17.042 33.8126 17.5107 31.9272C17.7816 30.849 19.8076 30.0834 21.3128 32.0365C21.3389 31.9428 21.6774 29.4324 23.8545 29.547C26.6462 29.7032 25.9847 32.5417 25.9118 32.8386ZM5.68262 28.4897C5.77116 30.2761 6.11491 32.5261 6.65137 35.6095C8.72949 35.6876 11.1045 33.8647 9.39095 32.047C9.13053 31.7709 8.28158 31.349 8.26595 31.323C8.1722 31.1824 8.28158 31.1824 8.81803 30.6147C10.3076 29.0313 9.18783 27.1042 7.34928 27.5261C6.65137 27.6928 6.10449 28.0365 5.68262 28.4897Z" fill="#FE988F"/>
<path fill-rule="evenodd" clip-rule="evenodd" d="M12.9796 34.9271C12.3494 34.1511 14.2712 32.1719 17.2452 34.375C18.1567 35.0469 14.5525 36.8646 12.9796 34.9271ZM30.7087 28.5834C32.7035 30.2396 29.0212 32.323 27.1931 31.7605C26.4952 31.5417 29.1827 27.3125 30.7087 28.5834ZM27.865 40.2344C26.7973 39.1407 26.6619 37.9688 27.9744 37.7917C28.2973 37.75 30.6202 37.4427 31.0681 40.3959C31.2712 41.7552 30.0004 42.4115 27.865 40.2344Z" fill="#99AC40"/>
<path fill-rule="evenodd" clip-rule="evenodd" d="M22.0733 35.9634C24.417 36.7602 25.5837 34.1821 23.7347 33.2915C21.2347 32.0832 20.391 35.3957 22.0733 35.9634Z" fill="#DC402C"/>
<path fill-rule="evenodd" clip-rule="evenodd" d="M16.7606 80.7969C16.7606 80.7969 15.021 74.2084 14.1564 70.6719C13.2918 67.1406 14.5887 63.6875 14.6304 58.8906C14.6825 53.0938 15.396 51.3646 16.0002 48.3542C16.5783 45.4584 18.0835 45.3334 20.271 46.5365C22.2398 47.6146 23.797 51.0781 23.547 55.0938C23.2866 59.3177 23.4429 60.7552 24.6356 63.0834C25.8231 65.4063 28.62 68.5417 31.771 72.2552C34.922 75.9688 37.4689 81.0938 37.9168 86.599C38.3543 92.1042 16.7606 80.7969 16.7606 80.7969Z" fill="#FEAA70"/>
<path fill-rule="evenodd" clip-rule="evenodd" d="M28.0263 68.0569C27.9794 67.9996 27.9846 67.9058 28.0471 67.859C28.1044 67.8121 28.1982 67.8173 28.2451 67.8798C29.3336 69.1975 30.5732 70.6298 31.8753 72.1611C35.0419 75.8954 37.6044 81.0517 38.0471 86.5829C38.0576 86.6611 38.0003 86.7288 37.9221 86.734C37.844 86.7444 37.7763 86.6819 37.7659 86.609C37.3284 81.135 34.7919 76.0361 31.6565 72.3433C30.3596 70.8121 29.1201 69.3798 28.0263 68.0569ZM16.8961 80.76C16.9169 80.8381 16.8701 80.9111 16.7971 80.9319C16.7242 80.9527 16.6461 80.9058 16.6253 80.8329C16.6253 80.8329 14.8805 74.2444 14.0159 70.7079C13.4586 68.4319 13.7919 66.1975 14.1148 63.6142C14.1253 63.5413 14.1982 63.484 14.2711 63.4944C14.3492 63.5048 14.4065 63.5725 14.3961 63.6506C14.0732 66.1975 13.7398 68.4006 14.2867 70.6454C15.1565 74.1715 16.8961 80.76 16.8961 80.76Z" fill="#A25225"/>
<path fill-rule="evenodd" clip-rule="evenodd" d="M15.7449 52.4167C15.672 52.4427 15.5939 52.401 15.5678 52.3229C15.547 52.25 15.5887 52.1667 15.6668 52.1458C15.6668 52.1458 16.9428 51.7604 19.3595 52.151C19.797 52.2187 20.1043 52.1927 20.3074 52.0573C20.5053 51.9219 20.5887 51.6875 20.6199 51.3594C20.672 50.8594 20.5887 50.1666 20.4585 49.2916C20.2866 48.0885 19.5887 46.7812 18.2397 46.151C18.172 46.1198 18.1408 46.0312 18.172 45.9635C18.2085 45.8906 18.2918 45.8646 18.3647 45.8958C19.8022 46.5729 20.5522 47.9583 20.7397 49.25C20.8751 50.1979 20.9585 50.9427 20.8908 51.4635C20.8387 51.8489 20.7033 52.125 20.4637 52.2864C20.2189 52.4583 19.8491 52.5104 19.3126 52.4219C16.9845 52.0521 15.7449 52.4167 15.7449 52.4167Z" fill="#D87F4F"/>
<path fill-rule="evenodd" clip-rule="evenodd" d="M42.1822 29.5729C42.3124 29.8386 42.4791 30.125 42.677 30.4063C43.7968 32.0156 45.276 32.9532 45.1093 35.9063C44.9478 38.8594 43.3906 37.2552 43.3906 37.2552C43.3906 37.2552 41.4687 36.0625 40.9062 34.474C40.7603 34.0625 40.651 33.5625 40.5833 33.0261C40.3906 31.5 40.5103 29.6771 40.9947 28.6615C41.526 27.5365 41.5572 28.3542 42.1822 29.5729Z" fill="#663B29"/>
<path fill-rule="evenodd" clip-rule="evenodd" d="M40.5833 33.0209C40.3906 31.5 40.5103 29.6719 40.9947 28.6615C41.526 27.5365 41.5572 28.3542 42.1822 29.5729C42.0624 29.8542 41.8593 29.8438 41.7551 30.2813C41.7083 30.4688 41.7031 31.2448 41.4374 31.3646C40.9426 31.5782 40.8385 32.1354 40.5833 33.0209Z" fill="#FE988F" fill-opacity="0.498"/>
<path fill-rule="evenodd" clip-rule="evenodd" d="M70.995 65.75C64.5522 58.3229 58.0731 50.8437 53.2033 45.2344C48.3543 39.6458 45.1147 35.9062 45.1147 35.9062C45.1147 35.9062 43.745 36.0365 43.396 37.2552C43.396 37.2552 46.4741 41.0781 51.0679 46.7917C55.8231 52.6979 62.2085 60.6302 68.5054 68.4323C79.0366 81.4896 89.3179 94.2031 91.3179 96.5521C95.6825 101.661 98.2658 105.469 100.589 103.938C102.912 102.406 99.3752 98.5625 95.6252 94.1823C93.8491 92.1146 82.4897 79.0104 70.995 65.75Z" fill="#DC402C"/>
<path fill-rule="evenodd" clip-rule="evenodd" d="M53.2031 45.2344C52.7969 45.1927 52.3125 45.25 51.8646 45.6042C51.5313 45.8646 51.1667 46.3125 51.0625 46.7917C46.4635 41.0782 43.3906 37.2552 43.3906 37.2552C43.5156 36.8021 43.7552 36.4427 44.0469 36.2396C44.5365 35.8959 45.1094 35.9063 45.1094 35.9063C45.1094 35.9063 48.3542 39.6459 53.2031 45.2344Z" fill="#F89F1B"/>
<mask id="mask4_196_955" style="mask-type:luminance" maskUnits="userSpaceOnUse" x="61" y="51" width="100" height="93">
<path d="M61.7451 51.8384H160V143.838H61.7451V51.8384Z" fill="white"/>
</mask>
<g mask="url(#mask4_196_955)">
<path fill-rule="evenodd" clip-rule="evenodd" d="M95.8439 58.6092C97.4116 59.854 101.432 62.5415 101.432 62.5415C101.026 61.2602 100.62 59.255 100.62 59.255C97.9585 58.8436 96.7866 58.0102 96.7866 58.0102C96.2085 58.5675 95.8439 58.6092 95.8439 58.6092ZM72.0939 72.1613L86.547 87.7081L86.8595 85.5675L82.2866 72.8852L73.4325 58.2498L78.2345 56.6144C78.2345 56.6144 81.3908 55.5258 82.3543 55.6404C83.3231 55.755 84.4116 56.3696 84.4116 56.3696C84.4116 56.3696 86.3647 54.7758 87.5418 54.4894C88.7137 54.2029 90.6877 55.3123 90.6877 55.3123C90.6877 55.3123 92.422 54.2133 94.0054 52.9373C95.5887 51.656 95.5158 51.729 98.9637 52.0831C102.406 52.4321 105.667 52.9685 106.74 54.005C108.235 55.4425 109.979 61.3748 111.787 65.2602C113.594 69.1508 117.901 79.2238 121.672 86.3644C125.443 93.5102 125.485 94.4738 128.735 97.1769C131.99 99.8748 132.88 100.26 136.839 103.734C140.797 107.208 160.005 122.026 160.005 122.026C154.156 136.344 140.125 143.51 140.125 143.51C131.88 133.047 117.792 119.552 112.703 116.01C107.61 112.469 102.386 108.416 97.8491 106.422C93.3179 104.416 91.9637 103.765 86.495 98.854C81.0262 93.9425 75.0158 89.3644 72.422 87.0936C69.8231 84.8175 69.9272 84.3123 68.37 80.6873C66.8127 77.0675 63.8179 74.2342 62.7345 72.1769C61.6512 70.1248 64.0418 69.1144 66.6616 69.4529C69.2866 69.781 72.0939 72.1613 72.0939 72.1613Z" fill="#FEAA70"/>
</g>
<path fill-rule="evenodd" clip-rule="evenodd" d="M95.6566 71.7447C95.6566 71.7447 89.5941 66.4374 85.3493 62.1926C81.1045 57.953 80.7139 57.4582 77.6566 56.4113C74.6045 55.3697 72.2295 54.354 70.2764 53.3905C68.3181 52.4322 68.2191 52.6509 65.8076 51.9217C63.391 51.1926 60.7035 49.7551 59.4951 49.7447C58.2868 49.7342 57.0212 52.9842 59.1983 55.4374C61.3754 57.8905 63.5889 58.0832 65.5212 59.2655C67.4535 60.4478 71.3181 63.4582 72.9379 64.2759C74.5524 65.0988 76.266 68.2082 78.5837 70.8436C80.9014 73.479 83.2868 75.9686 83.8233 77.1822C84.3649 78.3905 93.9951 89.2238 93.9951 89.2238L105.469 80.1301L95.6566 71.7447Z" fill="#FEAA70"/>
<path fill-rule="evenodd" clip-rule="evenodd" d="M100.719 57.5362C100.755 57.4528 100.844 57.4112 100.927 57.4424C101.01 57.4789 101.052 57.5726 101.021 57.656C101.021 57.656 100.771 58.2706 100.771 59.0466C100.771 59.1351 100.698 59.2081 100.609 59.2081C100.521 59.2081 100.448 59.1403 100.448 59.0518C100.443 58.2029 100.719 57.5362 100.719 57.5362ZM90.7343 55.5987C90.6614 55.5518 90.6354 55.4528 90.6875 55.3747C90.7343 55.2966 90.8333 55.2758 90.9114 55.3226C90.9114 55.3226 93.8073 57.1664 95.7604 58.3851C95.8385 58.432 95.8593 58.531 95.8125 58.6091C95.7656 58.6872 95.6666 58.7081 95.5885 58.6612C93.6354 57.4424 90.7343 55.5987 90.7343 55.5987ZM101.542 62.7706C101.469 62.7237 101.453 62.6195 101.5 62.5466C101.552 62.4737 101.656 62.4581 101.729 62.5049L104.089 64.1924C104.161 64.2445 104.177 64.3487 104.125 64.4216C104.073 64.4945 103.974 64.5101 103.901 64.4581L101.542 62.7706ZM84.5885 56.682C84.5104 56.6299 84.4948 56.531 84.5468 56.4581C84.5937 56.3851 84.6979 56.3643 84.7708 56.4164C84.7708 56.4164 87.5104 58.2862 90.6354 60.281C93.7448 62.2601 98.4843 65.7497 101.161 67.682C101.234 67.7341 101.266 67.8226 101.229 67.9008C101.187 67.9841 101.078 68.0258 101.005 67.9685C98.375 66.057 93.6145 62.4841 90.5052 60.4997C87.3698 58.4997 84.5885 56.682 84.5885 56.682ZM95.7656 71.6195C95.8333 71.682 95.8385 71.7862 95.7812 71.8539C95.7239 71.9216 95.6145 71.9268 95.552 71.8695C95.552 71.8695 89.4791 66.5518 85.2343 62.3122C81.5416 58.6247 80.7916 57.7862 78.6198 56.9372C78.5364 56.906 78.4948 56.807 78.526 56.7237C78.5573 56.6403 78.6562 56.5987 78.7395 56.6351C80.9427 57.4945 81.7135 58.3383 85.4635 62.0831C89.7031 66.3174 95.7656 71.6195 95.7656 71.6195Z" fill="#A25225"/>
<path fill-rule="evenodd" clip-rule="evenodd" d="M63.3075 70.25C63.2502 70.2657 63.1929 70.2344 63.1773 70.1771C63.1616 70.1198 63.1929 70.0573 63.2502 70.0417C63.5627 69.9532 64.7189 69.4271 66.1408 69.849C67.0835 70.1303 68.1408 70.8282 69.146 72.3646C69.4064 72.7709 69.4741 73.0469 69.4169 73.2709C69.3544 73.4948 69.1512 73.6771 68.8283 73.8907C68.245 74.2761 67.2606 74.7917 66.0939 76.0521C66.0523 76.099 65.9846 76.099 65.9429 76.0573C65.896 76.0157 65.8908 75.948 65.9325 75.9063C67.1148 74.625 68.12 74.099 68.7137 73.7084C68.9794 73.5313 69.1512 73.3959 69.2033 73.2136C69.2554 73.0313 69.1721 72.8125 68.9637 72.4844C68.0002 71.0105 66.9846 70.3282 66.0783 70.0573C64.7189 69.6563 63.6096 70.1667 63.3075 70.25ZM58.7033 50.8386C58.7189 50.7813 58.7762 50.7448 58.8387 50.7605C58.896 50.7761 58.9273 50.8386 58.9116 50.8959C58.7137 51.6719 59.0158 52.3386 59.4689 52.8438C59.9221 53.3646 60.5366 53.724 60.9429 53.8646C61.4429 54.0365 61.7762 54.073 62.0262 53.9896C62.2658 53.9115 62.4221 53.7292 62.5731 53.5C62.9116 52.9792 63.2241 52.2084 64.1877 51.5834C64.2398 51.5521 64.3075 51.5625 64.3387 51.6146C64.37 51.6667 64.3596 51.7344 64.3075 51.7657C63.3752 52.3646 63.0835 53.1094 62.7606 53.6146C62.5783 53.8959 62.3856 54.1042 62.0991 54.198C61.8179 54.2865 61.4377 54.2657 60.87 54.0678C60.4377 53.9167 59.7919 53.5417 59.3075 52.9896C58.8127 52.4323 58.4846 51.6928 58.7033 50.8386Z" fill="#D87F4F"/>
<path fill-rule="evenodd" clip-rule="evenodd" d="M68.5 68.4323L70.9948 65.75C82.4948 79.0104 93.849 92.1146 95.6198 94.1823C99.375 98.5625 102.911 102.406 100.583 103.938C98.2604 105.469 95.6771 101.661 91.3125 96.5521C89.3073 94.1979 79.026 81.4896 68.5 68.4323Z" fill="#DC402C"/>
</svg>
