<svg width="128" height="149" viewBox="0 0 128 149" fill="none" xmlns="http://www.w3.org/2000/svg">
<mask id="mask0_194_516" style="mask-type:luminance" maskUnits="userSpaceOnUse" x="0" y="0" width="89" height="149">
<path d="M0 0H89V149H0V0Z" fill="white"/>
</mask>
<g mask="url(#mask0_194_516)">
<path d="M50.4065 149.219C48.12 149.219 45.9065 149.005 43.8232 148.578C43.6304 148.536 43.4273 148.51 43.2346 148.489C43.1461 148.479 43.0523 148.469 42.9638 148.458C41.7034 148.328 40.5107 147.995 39.6096 147.719C39.4013 147.739 39.1982 147.75 38.995 147.75C38.0107 147.75 37.0419 147.479 36.1409 147.203C32.8284 146.182 29.7815 144.698 27.0888 142.776C25.3804 141.557 24.1565 140.265 23.3336 138.833C21.8492 136.234 21.6044 133.812 22.5836 131.437C23.8179 128.437 25.9846 126.052 29.1877 124.135C29.4898 123.958 29.7971 123.786 30.1044 123.614C30.3232 123.495 30.5419 123.375 30.7607 123.25C33.6513 121.583 36.8909 120.682 39.7086 119.969C39.9117 119.917 40.1148 119.859 40.3127 119.812C41.2086 119.573 42.1357 119.328 43.0784 119.276L43.2138 119.265C43.3179 119.26 43.4273 119.255 43.5315 119.255C43.6825 119.255 43.8075 119.271 43.9221 119.302L45.0159 119.083V119.057C45.0888 118.187 45.0836 117.302 45.0836 116.443V115.89C45.0836 115.536 45.0888 115.182 45.0992 114.833C45.12 114.083 45.1513 113.333 45.1877 112.583L45.2294 111.63C45.2346 111.458 45.2659 111.333 45.3961 111.239L45.4169 111.042L45.4325 110.859L45.4065 110.854C45.094 110.776 44.7659 110.719 44.3596 110.667C44.0679 110.635 43.7763 110.609 43.4846 110.583C43.1877 110.557 42.8961 110.531 42.6044 110.495C40.1877 110.203 37.6773 109.578 34.9273 108.594C31.5575 107.39 28.2763 105.609 25.1825 103.297C23.6617 102.167 22.1929 100.885 20.6773 99.3905C18.6669 97.4061 16.7294 95.2082 14.9117 92.8696C11.7242 88.755 9.0367 84.4946 6.92732 80.2134C5.40649 77.1248 4.29711 74.2603 3.52628 71.4425C3.50545 71.38 3.48982 71.3175 3.4742 71.2498C3.37524 70.9217 3.27107 70.5884 3.38565 70.2342C3.44815 70.0311 3.32836 69.9321 3.21378 69.8332C2.43774 69.1665 2.06274 68.3071 2.08357 67.2655C2.08878 67.078 2.07836 66.9061 1.96899 66.7238C1.31274 65.703 1.29711 64.5884 1.9117 63.4113C2.12003 63.0207 2.1044 62.7498 2.01065 62.38C1.43253 60.1353 0.974196 57.6665 0.599196 54.8228C0.224196 51.9686 0.0575281 49.0728 0.104404 46.2082C0.17732 41.5519 0.677321 37.3019 1.64086 33.2134C2.35961 30.1613 3.20857 27.4738 4.23461 24.9946C6.06274 20.5988 8.25024 16.8696 10.9221 13.5936C12.8127 11.2759 14.7294 9.3488 16.7763 7.70817C19.3492 5.64567 22.1044 4.00505 24.9638 2.82275C26.5836 2.15609 28.4221 1.39567 30.3284 1.104C32.8336 0.718587 35.7919 0.322754 38.7554 0.322754C40.0471 0.322754 41.245 0.390464 42.4221 0.536296C46.745 1.07275 51.0002 2.26546 55.0627 4.08838C58.4273 5.5988 61.6461 7.50505 64.6409 9.74984C66.8492 11.4113 69.0002 13.2759 71.0315 15.3071C73.3127 17.5832 75.4169 20.0519 77.2867 22.6457C78.693 24.5936 80.0263 26.703 81.3544 29.078C83.0159 32.0519 84.4742 35.2967 85.6877 38.7238C86.6825 41.5363 87.4586 44.4113 87.9794 47.2707C88.62 50.755 88.9221 53.9946 88.9117 57.1821C88.9117 57.5728 88.8909 57.9946 88.7138 58.3957C88.7346 58.5155 88.7502 58.6144 88.7502 58.7082C88.7502 58.8071 88.7398 58.9113 88.719 59.005C88.8336 59.2707 88.8961 59.5467 88.9273 59.8905C88.9429 60.104 88.9429 60.3175 88.9429 60.5259C88.9429 60.6144 88.9429 60.703 88.9482 60.7915C89.0002 63.4998 88.6669 66.4165 87.8961 69.9634C86.9377 74.3592 85.3388 78.8436 83.0159 83.6717C80.7398 88.3905 78.2971 92.203 75.5471 95.3332C72.7867 98.4686 69.8961 100.729 66.719 102.255C66.3232 102.448 66.0419 102.656 65.8544 103.099C65.6044 103.693 65.0575 104.094 64.5263 104.484C62.995 105.594 61.4065 106.547 59.6409 107.594C59.0679 107.932 58.4638 108.245 57.8857 108.542C57.5471 108.719 57.2086 108.89 56.8752 109.073C56.5836 109.234 56.2659 109.37 55.8336 109.51C55.6513 109.573 55.469 109.63 55.2867 109.687C55.1096 109.739 54.9273 109.797 54.7554 109.854L54.7294 109.864L54.7607 110.651C55.0367 110.844 55.0367 111.104 55.0315 111.359C55.0315 111.406 55.0315 111.453 55.0315 111.5C55.0732 113.083 55.1096 114.667 55.1409 116.255L55.1825 117.974L55.1929 118.531C55.2034 118.838 55.2086 119.146 55.2138 119.458C55.219 119.76 55.3492 119.911 55.6096 119.911C55.6252 119.911 55.6461 119.911 55.6669 119.906C56.0055 119.911 56.3544 119.917 56.7034 119.927C56.9221 119.854 57.1409 119.823 57.3804 119.823C57.7086 119.823 58.0367 119.885 58.3544 119.943C58.5523 119.979 58.745 120.01 58.9377 120.036C60.4586 120.213 61.9325 120.698 63.3544 121.172L63.9221 121.354C66.6617 122.25 68.9586 123.25 70.9482 124.401C72.245 125.156 73.62 125.989 74.8232 127.036C75.9586 128.021 76.8336 129.229 77.5107 130.739C77.6044 130.943 77.6669 131.114 77.62 131.318L77.8232 131.656C77.9482 131.713 78.0367 131.776 78.1252 131.854C78.2034 131.943 78.2607 132.026 78.3075 132.114C78.3492 132.198 78.3857 132.297 78.4221 132.411C78.4482 132.495 78.469 132.578 78.4898 132.661L78.5054 132.719C78.6877 133.417 78.6929 134.135 78.5211 134.864C78.4846 135.036 78.3648 135.151 78.2086 135.271C78.1409 135.812 77.9065 136.286 77.6773 136.739L77.6044 136.896L77.6148 136.911C77.7763 137.125 77.6721 137.302 77.5575 137.479C77.5367 137.521 77.5107 137.557 77.4898 137.588C76.6929 139.026 75.6982 140.239 74.5211 141.198C72.3179 143 69.6461 144.526 66.1096 146.01C61.9377 147.755 57.594 148.802 53.2034 149.114C52.245 149.187 51.3075 149.219 50.4065 149.219ZM12.9221 83.8332C14.2138 86.3228 15.7034 88.755 17.3492 91.0571C20.3179 95.2238 23.2867 98.5571 26.4117 101.239C27.1304 101.854 28.0888 102.646 29.1617 103.333C30.6513 104.281 32.2971 104.937 33.8492 105.531C35.0471 105.984 36.4117 106.234 38.0054 106.286C38.1148 106.286 38.2242 106.292 38.3336 106.292C39.3909 106.292 40.4482 106.13 41.4742 105.974C41.9482 105.906 42.4377 105.833 42.9169 105.776C43.4482 105.708 43.8596 105.547 44.1825 105.281L44.2346 105.239L44.1721 105.229C31.2034 102.338 21.0002 95.328 12.9742 83.8019L12.9221 83.8332Z" fill="white"/>
</g>
<mask id="mask1_194_516" style="mask-type:luminance" maskUnits="userSpaceOnUse" x="0" y="15" width="48" height="131">
<path d="M0 15.2759H47.7396V145.943H0V15.2759Z" fill="white"/>
</mask>
<g mask="url(#mask1_194_516)">
<path d="M24.7763 129.125C24.7398 129.229 24.7034 129.338 24.6669 129.448C24.6409 129.531 24.6148 129.609 24.5888 129.693C24.4117 130.245 24.2659 130.807 24.1877 131.38C24.12 131.838 24.0992 132.307 24.1304 132.786C24.1825 133.469 24.2971 134.13 24.5732 134.76C24.6669 134.969 24.7294 135.208 24.995 135.281H24.9846C24.9846 135.323 24.9846 135.359 24.9898 135.39C25.0054 135.489 25.0732 135.552 25.1877 135.583L25.1461 135.599C25.1461 135.599 25.1825 135.588 25.1929 135.583C25.1721 135.651 25.1617 135.719 25.1617 135.765C25.1617 135.823 25.1721 135.87 25.1982 135.911C25.2502 135.984 25.3492 136.026 25.5107 136.026H25.5159C25.5159 136.026 25.5159 136.026 25.5159 136.021C25.4429 136.172 25.4325 136.323 25.4586 136.479C25.469 136.531 25.4846 136.583 25.5002 136.63C25.9013 137.911 26.5575 139.015 27.7086 139.771C28.5627 140.333 29.4846 140.786 30.4013 141.224C31.4742 141.734 32.4065 142.448 33.37 143.13C33.5159 143.229 33.6513 143.364 33.7659 143.505C34.3284 144.219 34.1096 144.943 33.2294 145.265C31.5002 144.521 29.8388 143.661 28.2763 142.604C27.1721 141.854 26.1721 140.989 25.2242 140.057C25.1304 139.963 25.0575 139.849 24.9534 139.771C23.6252 138.765 23.2346 137.271 22.8909 135.76C22.4169 133.687 23.1252 131.854 24.1252 130.094C24.3232 129.76 24.5627 129.448 24.7763 129.125ZM41.7659 120.276C39.844 120.739 37.9221 121.219 36.0523 121.859C34.5211 122.385 32.995 122.89 31.594 123.713C31.12 123.989 30.6461 124.265 30.1669 124.521C28.9638 125.161 27.8596 125.922 26.8752 126.859C27.2867 126.901 27.6409 126.76 27.969 126.515C28.1982 126.349 28.4429 126.198 28.6825 126.031C30.0992 125.062 31.6096 124.354 33.3232 124.026C35.12 123.677 36.8648 123.109 38.5523 122.38C38.8544 122.25 39.1617 122.114 39.4638 121.969C40.3648 121.536 41.2138 121.026 41.9325 120.292C41.87 120.281 41.8127 120.265 41.7659 120.276ZM45.6982 111.359C45.9794 114.588 45.8284 117.828 45.8388 121.062C45.8492 123.25 45.87 125.443 45.8596 127.635C45.8544 129.068 45.9221 130.505 45.8388 131.943C45.8232 132.271 45.7659 132.562 45.5211 132.786C45.6357 132.943 45.7554 133.099 45.8804 133.26C45.9482 133.271 46.0159 133.281 46.0888 133.292C46.3179 132.594 46.4013 131.87 46.4429 131.146C46.4586 130.906 46.469 130.661 46.4742 130.422C46.5419 128.776 46.4429 127.13 46.3648 125.484C46.2607 123.318 46.3388 121.14 46.3336 118.969C46.3336 116.745 46.3232 114.521 46.3127 112.297C46.3127 111.953 46.3336 111.599 46.1669 111.297C46.1252 111.213 46.0836 111.161 46.0419 111.12C45.9065 111.021 45.7815 111.104 45.6982 111.359ZM3.46898 61.7759C1.73461 55.6196 1.13565 49.354 1.62523 42.9738C1.83878 40.1769 2.18252 37.4061 2.77107 34.6665C4.11482 28.3957 6.23461 22.4373 9.70857 17.005C9.8544 16.7863 10.0054 16.578 9.98461 16.2967C9.9794 16.2967 9.9794 16.3019 9.9794 16.3019V16.2967C9.89086 16.3853 9.7919 16.4686 9.71898 16.5675C8.08878 18.8436 6.73982 21.2967 5.59919 23.8436C4.17211 27.0467 3.07315 30.3696 2.32836 33.8019C1.58357 37.229 1.12003 40.6925 0.948151 44.203C0.807526 46.9478 0.948151 49.6925 1.16169 52.4269C1.4169 55.6665 1.90648 58.8696 2.70857 62.0207C2.86482 62.6353 2.85961 62.6405 3.48982 62.7394C3.78148 62.4113 3.55753 62.0832 3.46898 61.7759ZM16.0732 86.5884C16.1721 86.6926 16.2763 86.7863 16.3596 86.9061C17.969 89.0363 19.8232 90.9373 21.7867 92.7342C24.4482 95.1717 27.3388 97.2967 30.4638 99.1196C33.0888 100.646 35.8284 101.901 38.7034 102.859C38.8232 102.588 38.7138 102.401 38.469 102.276C38.3075 102.193 38.1357 102.13 37.9638 102.062C33.0992 100.042 28.5627 97.4634 24.5263 94.0415C21.8284 91.7551 19.219 89.3696 16.7607 86.8228C16.5107 86.5623 16.3284 86.2238 15.9898 86.0467C15.9325 86.1092 15.87 86.1717 15.8127 86.2394C15.8804 86.3748 15.9742 86.4842 16.0732 86.5884ZM12.9638 88.3123C11.7086 86.3176 10.5419 84.2707 9.40648 82.203C7.54711 78.8436 6.17732 75.2811 5.03148 71.6248C4.98461 71.4842 4.94294 71.3384 4.89607 71.1978C4.76065 70.7655 4.61482 70.3436 4.40128 69.9373C4.1044 70.0571 3.97419 70.1926 4.07836 70.5832C4.54711 72.3228 5.09919 74.0311 5.76586 75.7082C6.51586 77.604 7.37523 79.4478 8.33357 81.2498C9.75023 83.9269 11.3023 86.5259 13.0471 89.0051C13.719 89.9582 14.3596 90.9478 15.1721 91.8019C15.0784 91.2082 14.6877 90.7655 14.3648 90.2967C13.9065 89.6301 13.3961 88.9946 12.9638 88.3123ZM46.4534 104.698C46.6252 104.651 46.844 104.651 46.8804 104.422C46.9117 104.203 46.7398 104.104 46.5575 104.047C46.3857 103.984 46.2138 103.927 46.0367 103.88C44.8544 103.552 43.6565 103.307 42.4534 103.094C42.12 103.031 41.7867 102.969 41.4482 102.953C41.4065 102.948 41.3596 102.948 41.3179 102.953C41.0263 102.969 40.844 103.125 40.9013 103.5C42.7034 104.14 44.5784 104.422 46.4534 104.698ZM3.33357 63.6196C2.99503 63.3384 2.75544 63.5155 2.58357 63.8123C2.29711 64.3176 2.18253 64.8592 2.30753 65.5311C2.51586 65.3644 2.66169 65.2238 2.8544 65.1717C2.87523 65.0363 2.88565 64.8957 2.90128 64.7603C2.94815 64.3488 3.01065 63.9478 3.33357 63.6196ZM9.98461 16.2967C10.2242 16.2342 10.2971 16.0519 10.3023 15.828C10.2971 15.828 10.2971 15.828 10.2971 15.828C10.2971 15.828 10.2971 15.828 10.2971 15.8228C10.1304 15.9373 10.0159 16.0884 9.9794 16.2915V16.2967C9.9794 16.2967 9.9794 16.2967 9.98461 16.2967ZM15.3336 91.9478C15.3388 91.9478 15.3388 91.9478 15.344 91.953C15.3336 91.953 15.3336 91.9478 15.3232 91.9478C15.3232 92.1821 15.495 92.3019 15.6513 92.4217C15.6252 92.3228 15.594 92.2238 15.5419 92.1405C15.4846 92.0676 15.4221 91.9998 15.3336 91.9478ZM10.3023 15.828C10.3804 15.8019 10.4377 15.7603 10.495 15.7134C10.5471 15.6613 10.594 15.5936 10.6304 15.5259C10.5836 15.5259 10.5315 15.5207 10.4846 15.5103C10.3909 15.5936 10.3127 15.6925 10.2971 15.828C10.2971 15.828 10.2971 15.828 10.2971 15.8332C10.2971 15.828 10.2971 15.828 10.3023 15.828ZM15.6461 92.4009C15.6669 92.5103 15.7242 92.5936 15.8179 92.6561C15.7607 92.5728 15.7034 92.4842 15.6461 92.4009ZM15.3336 91.9478C15.2815 91.8905 15.2242 91.8332 15.1669 91.7759C15.1773 91.8748 15.2138 91.9478 15.3232 91.9478C15.3284 91.9478 15.3336 91.953 15.3388 91.953L15.3336 91.9478ZM9.33878 21.63C9.59398 20.8853 10.0054 20.203 10.219 19.4478C10.245 19.3436 10.2711 19.2394 10.2971 19.13H10.2919C10.2919 19.13 10.2919 19.13 10.2919 19.1248C9.60961 20.0623 9.02107 21.0519 8.6044 22.1405C8.89086 22.0259 9.23461 21.9373 9.33878 21.63ZM10.8179 18.6457C10.8857 18.5623 10.9377 18.4686 10.9794 18.3696C11.0002 18.3175 11.0211 18.2655 11.0367 18.2134C11.0627 18.104 11.0836 17.9894 11.094 17.8696H11.0888C10.7763 18.1717 10.4794 18.4842 10.4013 18.9425C10.4117 18.9373 10.4169 18.9373 10.4273 18.9373C10.5888 18.8592 10.719 18.7655 10.8179 18.6457ZM11.2138 17.7082C11.2554 17.6769 11.2867 17.6405 11.3232 17.5988C11.4221 17.4842 11.495 17.3384 11.5419 17.1821C11.344 17.2967 11.2398 17.4686 11.2138 17.6873C11.2242 17.6873 11.2294 17.6769 11.2398 17.6769C11.2294 17.6873 11.2242 17.703 11.2138 17.7082ZM10.2971 19.13C10.3492 19.0623 10.3961 18.9998 10.4482 18.9373C10.4429 18.9373 10.4377 18.9373 10.4325 18.9373C10.4221 18.9373 10.4169 18.9425 10.4065 18.9425C10.3232 18.9686 10.2919 19.0363 10.2971 19.13C10.2919 19.13 10.2919 19.13 10.2919 19.13H10.2971ZM11.094 17.8696C11.1357 17.8175 11.1721 17.7655 11.2138 17.7082C11.2242 17.6978 11.2294 17.6873 11.2398 17.6769C11.2294 17.6769 11.2242 17.6873 11.2138 17.6873C11.1357 17.7238 11.1044 17.7863 11.094 17.8696C11.0888 17.8748 11.0888 17.8748 11.0888 17.8748C11.094 17.8748 11.094 17.8696 11.094 17.8696Z" fill="white"/>
</g>
<path d="M24.3335 5.19784C24.2397 5.27076 24.146 5.33847 24.047 5.39576C23.8439 5.52076 23.6356 5.62493 23.4429 5.74993C21.4272 7.05201 19.5054 8.46347 17.7033 10.0624C15.5418 11.9739 13.7241 14.177 11.9585 16.4374C11.7866 16.6614 11.6825 16.9322 11.5418 17.1822C11.495 17.3385 11.4272 17.4791 11.3231 17.5989C11.2918 17.6406 11.2554 17.677 11.2189 17.7083C11.1772 17.7656 11.1356 17.8176 11.0939 17.8697C11.0835 17.9947 11.0679 18.1041 11.0366 18.2135C11.021 18.2708 11.0054 18.3228 10.9845 18.3749C10.9429 18.4739 10.8856 18.5676 10.8179 18.651C10.7241 18.7656 10.5939 18.8645 10.4325 18.9426C10.4377 18.9426 10.4429 18.9374 10.4481 18.9374C10.396 19.0051 10.3491 19.0676 10.297 19.1301C10.2762 19.2395 10.2502 19.3489 10.2189 19.4531C10.0054 20.2083 9.59391 20.8906 9.3387 21.6301C9.23453 21.9426 8.88557 22.026 8.60433 22.1458C8.05745 22.8333 7.81266 23.6718 7.4637 24.4583C5.80745 28.177 4.73974 32.0781 4.06266 36.0833C3.79703 37.677 3.62516 39.2864 3.50016 40.9062C3.26058 43.9635 3.30745 47.0208 3.59912 50.0676C4.03141 54.6301 4.92724 59.1145 6.41162 63.4635C7.41162 66.3801 8.55745 69.2395 9.96891 71.9947C11.2502 74.4895 12.672 76.8853 14.2554 79.1978C15.9116 81.6197 17.7345 83.9114 19.7397 86.0468C21.6564 88.0833 23.7033 89.9947 25.9168 91.7239C28.0627 93.401 30.297 94.9426 32.6512 96.3072C32.8335 96.4114 33.0262 96.4895 33.2137 96.5833C33.4324 96.3124 33.5106 95.9999 33.5627 95.6718C33.5783 95.5624 33.5887 95.4531 33.6095 95.3385C33.8127 93.6874 34.0575 92.0364 34.2866 90.3853C34.3075 90.2187 34.3231 90.052 34.3387 89.8853C34.3491 89.7656 34.3647 89.651 34.3752 89.5312C34.2137 89.6666 34.1147 90.0103 33.9064 89.9895C33.8752 89.9843 33.8439 89.9791 33.8075 89.9583C33.4897 89.7812 33.8074 89.4947 33.9064 89.2864C35.4689 85.8801 36.9481 82.4374 38.6356 79.0989C40.2189 75.9739 41.7762 72.8333 43.521 69.7864C44.9064 67.3801 46.3283 64.9999 47.7085 62.5937C49.3908 59.6614 51.3387 56.9114 53.2293 54.1197C54.6252 52.0572 55.9012 49.9218 57.2293 47.8228C58.3387 46.0728 59.3075 44.2447 60.3231 42.4478C60.5522 42.0364 60.7502 41.6093 60.922 41.1666C61.3179 40.1666 61.771 39.1978 62.3022 38.2603C63.1616 36.7499 63.7397 35.1197 64.2085 33.4531C64.5835 32.1197 64.5731 30.7291 64.3439 29.3958C63.8908 26.7447 64.3283 24.2343 65.3179 21.7916C66.0835 19.901 66.9064 18.0312 67.7033 16.151C67.771 15.9843 67.8335 15.8072 67.896 15.6353C67.3543 15.0676 66.7762 14.5416 66.1772 14.0416C65.5835 13.5364 64.9637 13.0572 64.3491 12.5781C62.6877 11.276 60.9168 10.1406 59.0783 9.10409C58.5835 8.82284 58.5887 8.81763 58.7918 8.26555C58.5783 8.03117 58.3127 7.86451 58.0366 7.71347C57.9481 7.66138 57.8543 7.6093 57.7658 7.55722C53.4793 5.08847 48.9012 3.44263 44.0002 2.70305C41.9064 2.39055 39.8127 2.05722 37.6772 2.19263C36.0366 2.2968 34.396 2.40618 32.7554 2.6093C30.3283 2.91659 27.9637 3.44784 25.7345 4.48951C25.547 4.57805 25.3595 4.6718 25.172 4.76034C24.9793 4.84368 24.7814 4.91138 24.5731 4.95305C24.5054 5.04159 24.422 5.12493 24.3335 5.19784ZM25.6981 14.6458C26.4637 15.1562 26.6304 16.2135 26.0106 16.9999C25.5731 17.552 25.0783 18.0676 24.5731 18.5624C22.896 20.2239 21.3491 21.9999 20.0262 23.9635C19.521 24.7031 19.1147 25.4895 18.7502 26.3072C18.2918 27.3228 18.396 28.2395 19.1929 29.0572C19.4689 29.3385 19.7085 29.6562 19.9481 29.9583C20.62 30.7916 20.6877 31.7187 20.37 32.7031C20.1252 33.4374 19.6772 34.052 19.2189 34.6562C18.4741 35.6406 17.6981 36.5989 16.9481 37.5728C16.12 38.6614 15.422 39.8228 14.8804 41.0833C14.4637 42.052 14.5522 42.8958 15.172 43.7343C15.62 44.3437 16.0835 44.9478 16.4116 45.6458C16.7189 46.2916 16.9012 46.9635 16.9272 47.6874C16.9793 49.2916 16.8595 50.8749 16.6668 52.4687C16.2658 55.7551 16.1252 59.052 16.3179 62.3489C16.5002 65.526 17.4845 68.5156 18.6929 71.4322C19.5314 73.4739 20.5835 75.4062 21.7814 77.2603C22.1616 77.8541 22.495 78.4843 22.6772 79.1718C22.7293 79.3489 22.7762 79.552 22.6304 79.6978C22.4377 79.8906 22.2345 79.7499 22.0522 79.6562C21.3127 79.2812 20.7345 78.7187 20.2345 78.0676C17.995 75.1249 16.2814 71.8906 14.9897 68.4374C14.1408 66.177 13.4272 63.8749 13.0731 61.4791C12.8387 59.8906 12.771 58.2968 12.8127 56.5572C12.6877 54.302 13.0783 51.9426 13.3595 49.5728C13.4272 48.9791 13.5054 48.3801 13.5731 47.7812C13.6408 47.1562 13.4689 46.5885 13.1512 46.0572C12.9325 45.6978 12.6981 45.3541 12.4585 45.0051C11.4481 43.526 11.3179 41.9531 11.9064 40.2812C12.547 38.4635 13.6981 36.9739 15.0054 35.5989C15.8543 34.7083 16.745 33.8541 17.6095 32.9791C17.9064 32.677 18.1772 32.3593 18.396 31.9999C18.6825 31.5364 18.672 31.3437 18.3075 30.9531C17.9793 30.6145 17.6252 30.2968 17.2814 29.9739C16.0158 28.8072 15.6252 27.3385 15.8804 25.6874C16.146 23.9114 16.896 22.3281 17.9481 20.8958C19.5679 18.6926 21.4481 16.7239 23.5314 14.9478C24.2554 14.3333 25.0731 14.2343 25.6981 14.6458ZM79.4845 31.3437C80.3075 32.9635 81.0522 34.6145 81.7397 36.2916C81.9741 36.8489 82.1981 37.4114 82.4168 37.9739C83.3335 40.3385 84.0002 42.7708 84.6512 45.2083C85.0575 46.7395 85.271 48.3228 85.5366 49.8853C85.547 49.9583 85.5627 50.026 85.5731 50.0937C85.6304 50.3749 85.7033 50.6562 85.745 50.9374C85.745 50.9478 85.745 50.9583 85.745 50.9687C85.7554 51.0312 85.7606 51.0885 85.7658 51.151C85.7762 51.2916 85.7762 51.4374 85.7606 51.5833C85.4637 52.5572 85.1043 53.5156 84.8752 54.4999C83.9481 58.4843 82.3543 62.2083 80.4481 65.7916C78.6877 69.0989 76.6825 72.2603 74.6825 75.4218C72.8908 78.2551 70.9585 80.9843 69.0366 83.7291C67.5939 85.7864 66.1616 87.8489 64.6147 89.8333C63.8283 90.8437 63.0106 91.8333 62.2137 92.8333C62.1564 92.9062 62.0991 92.9739 62.0418 93.0468C61.87 93.2603 61.7189 93.4843 61.7189 93.7864C61.6408 93.8593 61.5522 93.9166 61.4845 93.9999C60.1408 95.7603 58.5731 97.3281 57.2554 99.1145C56.9272 99.552 56.5731 99.9739 56.2866 100.437C56.0054 100.885 55.9064 101.359 56.3752 101.781C53.2866 102.318 50.1929 102.292 47.1252 101.708C46.771 101.641 46.4168 101.568 46.0679 101.495C44.8022 101.224 43.547 100.896 42.3127 100.505C41.1616 100.141 40.021 99.7343 38.9064 99.2603C39.3387 98.4218 39.5158 97.4791 39.8856 96.6145C40.6095 94.9062 41.3335 93.1926 42.0783 91.4895C43.3127 88.6562 44.6668 85.8801 46.2918 83.2447C47.4481 81.3749 48.5991 79.4999 49.7762 77.6458C51.3179 75.2187 52.9481 72.8437 54.7762 70.6145C56.8179 68.1249 58.9168 65.677 60.9064 63.1458C64.7606 58.2447 68.5887 53.328 72.2345 48.276C73.4637 46.5676 74.5106 44.7603 75.5887 42.9687C75.9064 42.4322 76.1825 41.8593 76.4533 41.2916C77.3387 39.4218 78.0991 37.4999 78.8804 35.5885C78.9689 35.3697 79.047 35.1458 79.12 34.9218C79.1564 34.8176 79.12 34.7135 79.0158 34.6562C78.9064 34.5937 78.8127 34.6614 78.7293 34.7187C78.5418 34.8541 78.5158 35.0781 78.4429 35.2656C78.2241 35.8281 77.9689 36.3697 77.62 36.8645C77.8335 36.1458 78.0106 35.4062 78.2762 34.7031C78.5991 33.8489 78.8647 32.9791 79.0939 32.0989C79.1825 31.8228 79.2658 31.552 79.4845 31.3437Z" fill="#F9F2B8"/>
<path d="M77.6356 131.328C77.7033 131.432 77.771 131.536 77.8335 131.64C77.5835 131.781 77.5783 131.979 77.646 132.234C77.8752 133.083 77.9898 133.953 78.0106 134.833C78.0158 135.031 78.0471 135.187 78.2137 135.297C78.146 135.875 77.8804 136.38 77.6252 136.896C77.495 136.896 77.3908 136.922 77.3023 137.057C76.2189 138.682 74.8752 140.068 73.3231 141.239C70.3387 143.484 66.9481 144.917 63.4846 146.198C61.6877 146.859 59.8387 147.328 57.9689 147.682C56.3804 147.989 54.7867 148.307 53.1564 148.271C53.1044 148.265 53.0523 148.26 53.0002 148.25C52.0731 148.167 52.0054 148.005 52.5471 147.224C53.1617 146.338 54.0367 145.771 54.9533 145.255C56.6096 144.318 58.4117 143.76 60.2189 143.224C63.1148 142.375 65.9325 141.318 68.5731 139.844C69.5523 139.297 70.4794 138.646 71.4325 138.042C71.6929 137.875 71.9481 137.687 72.2658 137.62C72.7867 137.75 73.0835 137.349 73.4273 137.104C75.3127 135.75 76.2398 133.927 76.0783 131.588C76.0679 131.375 76.0367 131.172 76.0002 130.963C75.9794 130.859 75.9012 130.776 75.7814 130.792C75.6564 130.802 75.6096 130.906 75.6044 131.015C75.5783 131.458 75.6304 131.906 75.5314 132.344C74.7762 129.729 72.7814 128.104 70.8179 126.458C70.1408 125.896 69.3908 125.417 68.7242 124.823C68.5158 124.635 68.2398 124.526 67.9846 124.39C67.8387 124.312 67.6981 124.234 67.5627 124.146C67.4169 124.057 67.2762 123.963 67.1408 123.864C66.8908 123.672 66.6512 123.463 66.4377 123.219C66.6773 123.213 66.8908 123.292 67.1096 123.39C69.0679 124.302 70.995 125.26 72.7658 126.505C73.4481 126.979 74.146 127.432 74.7346 128.021C75.6356 128.932 76.4637 129.896 77.0835 131.026C77.1981 131.245 77.3492 131.422 77.6356 131.328ZM51.0939 135.031C51.2033 135.026 51.3127 135.01 51.4221 135C51.7814 134.948 52.1252 134.833 52.4637 134.698C52.5887 134.646 52.7085 134.594 52.8335 134.542C53.0158 134.458 53.1981 134.375 53.3856 134.292C53.9794 134.021 54.5523 133.708 55.0731 133.302C55.3231 133.099 55.5367 133.099 55.7398 133.359C55.7762 133.271 55.8283 133.182 55.8596 133.088C55.87 133.062 55.8752 133.031 55.8804 133C56.0575 131.406 56.0887 129.818 55.8231 128.229C55.8075 128.13 55.7919 128.026 55.771 127.922C55.7189 127.614 55.6512 127.307 55.4742 127.031C55.4689 127.917 55.4637 128.802 55.4585 129.687C55.4481 130.443 55.4481 131.198 55.4377 131.948C55.4325 132.182 55.3648 132.375 55.0939 132.375C54.8544 132.375 54.6929 132.245 54.6617 132.005C54.6356 131.771 54.6356 131.536 54.6356 131.302C54.62 129.818 54.6096 128.328 54.5992 126.844C54.1617 127.109 54.12 127.573 54.0419 128.005C53.8544 129.062 53.7294 130.125 53.5054 131.177C53.2658 132.318 52.7658 133.292 51.9169 134.099C51.8439 134.167 51.7658 134.239 51.6877 134.307C51.4533 134.515 51.2242 134.729 51.0939 135.031ZM50.9898 135.989C51.396 136.583 51.9794 136.51 52.5367 136.354C53.3231 136.135 54.0471 135.755 54.6669 135.234C54.8856 135.052 55.1044 134.87 55.2919 134.661C55.5367 134.385 55.7189 134.073 55.7606 133.677C55.771 133.578 55.771 133.474 55.7606 133.359C54.4689 134.781 52.8752 135.651 50.9898 135.989ZM47.4169 106.031C47.4221 105.807 47.2554 105.713 47.0627 105.682C46.7606 105.63 46.4481 105.552 46.1356 105.651C44.9169 106.036 43.6408 106.146 42.4221 106.531C41.8075 106.724 41.1564 106.818 40.5158 106.932C39.7658 107.068 39.0002 106.927 38.2658 107.156C38.0471 107.167 37.8804 107.245 37.8127 107.474C38.3231 107.531 38.8231 107.64 39.3179 107.75C39.4846 107.792 39.6512 107.823 39.8179 107.864C41.4794 108.229 43.146 108.568 44.8492 108.62C45.1981 108.604 45.5419 108.599 45.8908 108.599C46.2346 108.599 46.5783 108.604 46.9221 108.604H46.9273C47.62 108.604 48.3127 108.578 49.0002 108.463C48.1877 107.838 47.4012 107.203 47.4169 106.031ZM59.6825 104.984C57.6929 105.448 55.6773 105.739 53.6356 105.864C53.1096 105.896 53.0679 105.927 53.1669 106.411C53.2242 106.672 53.1096 106.792 53.0158 106.974C52.745 107.536 52.1825 107.838 51.8127 108.307C53.6617 108.182 55.4481 107.823 57.0523 106.838C58.2398 106.114 59.495 105.526 60.7867 105.021C60.8648 104.989 60.9481 104.958 61.0262 104.927C61.0992 104.896 61.1773 104.859 61.2502 104.818C61.4012 104.745 61.5367 104.646 61.6564 104.515C60.9637 104.515 60.3439 104.828 59.6825 104.984ZM12.1721 80.953C12.1721 80.953 12.1721 80.953 12.1721 80.9582C12.1669 80.953 12.1617 80.953 12.1617 80.9478H12.1564C12.2242 81.328 12.5367 81.5623 12.7137 81.8748C13.0314 82.4217 13.3752 82.953 13.7294 83.4686C14.3856 84.4217 15.0887 85.3384 15.8179 86.2394C15.8752 86.1769 15.9377 86.1144 15.995 86.0467C15.9273 85.9321 15.8804 85.8123 15.8023 85.7082C14.7554 84.328 13.7085 82.9582 12.7971 81.4842C12.7398 81.3957 12.6877 81.3071 12.62 81.2238C12.5627 81.1509 12.495 81.0884 12.4169 81.0363C12.4064 81.0311 12.3908 81.0207 12.3804 81.0103C12.3179 80.9842 12.2502 80.9634 12.1721 80.953ZM10.771 15.1978L10.7658 15.203C10.7658 15.1978 10.7658 15.1978 10.7658 15.1925C10.6408 15.2655 10.5262 15.354 10.4846 15.5103C10.5314 15.5207 10.5835 15.5259 10.6304 15.5259C10.7189 15.4321 10.7658 15.3228 10.771 15.1978ZM12.1721 80.953C12.1669 80.8175 12.1096 80.7082 12.0054 80.6248C12.0002 80.6248 12.0002 80.6196 11.995 80.6196C11.9742 80.7707 12.021 80.88 12.1617 80.9478C12.1669 80.953 12.1669 80.953 12.1721 80.9582V80.953ZM10.771 15.1978C10.8283 15.1248 10.8752 15.0519 10.9325 14.979C10.8439 15.0259 10.7762 15.0936 10.7658 15.1925C10.7658 15.1978 10.7658 15.1978 10.7658 15.203C10.771 15.203 10.771 15.1978 10.771 15.1978ZM11.9012 80.453C11.9012 80.4738 11.9012 80.4998 11.9064 80.5155C11.9117 80.5675 11.9377 80.6092 12.0002 80.6196C12.0002 80.6196 12.0054 80.6248 12.0106 80.6248C12.0158 80.6248 12.021 80.63 12.0314 80.63C11.9846 80.5728 11.9429 80.5103 11.9012 80.453ZM4.13561 69.453C4.16165 68.2603 3.97415 67.1613 3.47936 66.1196C3.43769 66.0259 3.36478 65.9478 3.24498 65.9582C3.12519 65.9686 3.07832 66.078 3.04707 66.1717C2.82311 66.9321 2.72415 67.6978 3.08873 68.4373C3.29707 68.8696 3.53144 69.3071 4.13561 69.453ZM48.8439 105.823C48.6981 105.802 48.5367 105.838 48.4481 106.01C48.2294 106.437 48.4064 107.182 48.8075 107.469C49.1096 107.682 49.4273 107.812 49.8127 107.854C50.5627 107.932 51.1669 107.63 51.7919 107.276C52.3127 106.974 52.5471 106.599 52.4221 105.958C51.2294 105.885 50.0314 105.974 48.8439 105.823ZM66.1825 22.1665C65.3179 24.3488 64.9689 26.5832 65.3023 28.9321C65.5002 30.3019 65.6304 31.6925 65.3335 33.0728C65.0471 34.4113 64.5679 35.6821 64.0627 36.9478C62.8283 40.0467 61.2189 42.9582 59.5783 45.8488C57.9794 48.6665 56.271 51.4269 54.4325 54.104C52.9064 56.3228 51.5106 58.6353 50.0262 60.8905C48.646 62.9894 47.3387 65.1405 46.0887 67.3123C44.521 70.0311 43.0835 72.828 41.5262 75.5467C40.1721 77.9165 38.9533 80.3488 37.6877 82.755C36.8127 84.4269 35.9585 86.1092 35.1512 87.8123C34.8856 88.38 34.6252 88.953 34.37 89.5259C34.3544 89.6405 34.3492 89.7603 34.3335 89.8748C34.3179 90.0415 34.3023 90.2134 34.2814 90.38C34.0523 92.0311 33.8075 93.6769 33.5992 95.3332C33.5887 95.4478 33.5731 95.5571 33.5575 95.6665C33.5054 95.9946 33.4273 96.3071 33.2085 96.578C33.5835 96.9113 34.0627 97.0623 34.5002 97.2863C34.8075 97.4373 35.1096 97.5988 35.4221 97.755C35.646 97.8696 35.8804 97.9842 36.1096 98.0936C36.2762 98.1769 36.4481 98.2603 36.62 98.3384C36.7294 98.3853 36.8335 98.4373 36.9429 98.4842C37.3752 98.6717 37.8127 98.8488 38.2658 98.9998C38.3439 98.1196 38.646 97.3071 38.9689 96.505C39.0783 96.2394 39.1877 95.9738 39.2919 95.7082C40.6148 92.3696 42.021 89.0728 43.6408 85.8696C44.6825 83.8071 45.9846 81.9009 47.1721 79.9269C48.7033 77.3644 50.3023 74.8436 52.0679 72.4321C53.4325 70.578 54.87 68.7707 56.2814 66.953C56.8283 66.2498 57.3544 65.5311 57.9012 64.828C58.7033 63.7967 59.5783 62.8228 60.396 61.7967C61.5419 60.3644 62.6825 58.9321 63.8283 57.4998C65.271 55.703 66.7242 53.9165 68.1512 52.104C68.9377 51.0936 69.6721 50.0415 70.4429 49.0155C71.5939 47.4842 72.6929 45.9217 73.6669 44.2759C74.6148 42.6769 75.5471 41.0675 76.3856 39.4009C76.8075 38.5623 77.2137 37.7134 77.6252 36.8644C77.8439 36.1457 78.021 35.4061 78.2867 34.703C78.6096 33.8488 78.8752 32.979 79.1044 32.0988C79.1773 31.8228 79.2658 31.5467 79.4794 31.3436C79.4012 31.005 79.2033 30.7394 79.0367 30.453C78.9794 30.3592 78.9221 30.2655 78.8752 30.1665C78.0314 28.4009 76.9742 26.755 75.9064 25.1248C74.7919 23.4269 73.5627 21.8071 72.2658 20.2446C71.0992 18.8384 69.9117 17.4582 68.5262 16.2603C68.3231 16.5155 68.2658 16.8332 68.1721 17.13C67.6304 18.854 66.8492 20.4894 66.1825 22.1665ZM82.8231 63.3019C81.7762 65.5832 80.5731 67.7915 79.2971 69.9582C78.1148 71.9634 76.9064 73.9582 75.646 75.9165C73.7762 78.8175 71.8648 81.6925 69.771 84.4478C68.3335 86.3488 66.8023 88.1717 65.3492 90.0623C64.4742 91.1978 63.4533 92.2238 62.4898 93.2915C62.2814 93.5259 62.0679 93.7707 61.7189 93.7915C61.6408 93.8644 61.5523 93.9217 61.4846 93.9998C60.1408 95.7603 58.5731 97.3332 57.2554 99.1196C56.9273 99.5571 56.5731 99.979 56.2867 100.443C56.0054 100.89 55.9064 101.364 56.3752 101.781C57.8804 101.609 59.3544 101.286 60.7971 100.828C62.1408 100.406 63.4273 99.8436 64.6981 99.229C66.3335 98.4425 67.8752 97.505 69.3231 96.4425C70.9273 95.2707 72.3908 93.9165 73.7398 92.453C75.6096 90.4321 77.2606 88.2498 78.6669 85.88C79.9429 83.7342 81.0262 81.4998 81.9637 79.203C82.9429 76.8071 83.6929 74.3384 84.3492 71.828C84.9689 69.453 85.3387 67.0259 85.8752 64.6353C86.1564 63.3748 86.1669 62.0415 86.2346 60.7394C86.3075 59.354 86.3179 57.9634 86.2137 56.5832C86.1408 55.5675 86.2033 54.5467 85.9742 53.5467C85.7867 54.3332 85.5939 55.1144 85.4117 55.9061C84.8283 58.4634 83.9169 60.9217 82.8231 63.3019Z" fill="#F2C8B0"/>
<mask id="mask2_194_516" style="mask-type:luminance" maskUnits="userSpaceOnUse" x="1" y="0" width="89" height="149">
<path d="M1.07324 0.609375H89.0003V148.609H1.07324V0.609375Z" fill="white"/>
</mask>
<g mask="url(#mask2_194_516)">
<path d="M55.5214 119.864C55.2974 119.875 55.261 120.047 55.2558 120.239C55.2558 120.271 55.2558 120.302 55.2558 120.333C55.2662 121.114 55.2818 121.89 55.3078 122.672C55.3599 124.125 55.4224 125.578 55.4745 127.031C55.6516 127.307 55.7193 127.614 55.7714 127.922C55.787 128.026 55.8026 128.13 55.8235 128.229C56.0891 129.818 56.0578 131.406 55.8808 133C55.8808 133.031 55.8703 133.057 55.8599 133.088C55.8287 133.182 55.7766 133.271 55.7401 133.359C55.7401 133.359 55.7453 133.359 55.7506 133.359H55.761C55.7714 133.469 55.7714 133.578 55.761 133.677C55.7245 134.073 55.537 134.385 55.2922 134.661C55.1047 134.87 54.886 135.052 54.6672 135.234C54.0474 135.76 53.3235 136.135 52.537 136.354C51.9797 136.515 51.3964 136.583 50.9901 135.989C50.2662 135.958 49.5422 136.026 48.8235 135.818C47.6672 135.474 46.7037 134.844 45.9485 133.911C45.7974 133.724 45.5474 133.51 45.8808 133.26C45.761 133.104 45.6412 132.948 45.5214 132.786C45.1881 132.677 45.2453 132.38 45.2037 132.13C44.9849 130.625 45.0474 129.109 45.0422 127.594C45.0266 124.979 45.0422 122.359 45.0422 119.75C45.0422 119.515 45.0058 119.281 44.9849 119.047C44.636 119.12 44.287 119.187 43.9328 119.26C44.0422 119.568 43.9849 119.739 43.6151 119.786C43.4693 119.802 43.3235 119.828 43.1776 119.859C42.7506 119.958 42.3287 120.114 41.9172 120.281C41.2037 121.015 40.3495 121.526 39.4485 121.958C39.1464 122.104 38.8443 122.239 38.537 122.37C36.8495 123.099 35.1047 123.672 33.3078 124.015C31.5943 124.344 30.0839 125.052 28.662 126.021C28.4276 126.182 28.1828 126.333 27.9485 126.51C27.6256 126.75 27.2714 126.896 26.8599 126.849C26.6516 127.005 26.4485 127.172 26.261 127.349C25.6985 127.875 25.2141 128.474 24.7714 129.114C24.7297 129.219 24.6933 129.328 24.6568 129.437C24.6308 129.521 24.6047 129.599 24.5787 129.682C24.4016 130.234 24.2558 130.797 24.1776 131.37C24.1151 131.828 24.0891 132.302 24.1203 132.781C24.1724 133.458 24.2922 134.12 24.5631 134.75C24.6568 134.963 24.7193 135.198 24.9849 135.271C24.9849 134.937 24.4433 134.526 24.9068 134.323C25.2818 134.167 25.2818 134.781 25.4693 135.031C26.1516 135.937 26.9328 136.739 27.8391 137.411C29.8703 138.906 32.0474 140.14 34.3756 141.104C35.537 141.588 36.6881 142.078 37.9224 142.349C38.0266 142.375 38.1256 142.401 38.2245 142.443C38.3235 142.484 38.4016 142.562 38.3756 142.677C38.3443 142.792 38.2297 142.823 38.1256 142.818C37.3391 142.776 36.5578 142.682 35.8026 142.458C31.886 141.281 28.4745 139.297 25.7297 136.224C25.662 136.146 25.5735 136.088 25.5006 136.021C25.4224 136.172 25.4172 136.323 25.4433 136.474C25.4537 136.526 25.4641 136.578 25.4849 136.63C25.886 137.906 26.5422 139.015 27.6933 139.771C28.5474 140.333 29.4693 140.781 30.386 141.219C31.4589 141.729 32.3912 142.448 33.3547 143.125C33.5006 143.229 33.636 143.359 33.7506 143.505C34.3131 144.219 34.0943 144.943 33.2141 145.26C34.3912 145.818 35.6151 146.26 36.8547 146.651C37.5735 146.88 38.2818 147.151 39.0318 147.292C39.287 147.338 39.5578 147.396 39.5787 147.739C40.6776 148.078 41.7922 148.364 42.9433 148.479C42.662 148.271 42.6568 148.114 42.9276 148.083C42.9641 148.083 43.011 148.083 43.0578 148.083C43.5787 148.099 44.0943 148.193 44.6151 148.25C46.6464 148.479 48.6776 148.463 50.7141 148.401C51.5214 148.375 52.3339 148.411 53.136 148.26C53.0839 148.255 53.0318 148.25 52.9745 148.239C52.0526 148.156 51.9849 148 52.5266 147.219C53.1412 146.328 54.0162 145.76 54.9328 145.245C56.5891 144.307 58.386 143.75 60.1985 143.213C63.0943 142.364 65.912 141.307 68.5526 139.833C69.5318 139.286 70.4589 138.64 71.4068 138.036C71.6724 137.864 71.9276 137.677 72.2453 137.609C72.2714 137.338 72.4641 137.203 72.6516 137.062C72.7141 137.015 72.7766 136.974 72.8339 136.922C74.1203 135.771 75.0735 134.417 75.4797 132.713C75.5058 132.588 75.5006 132.458 75.511 132.328C74.7558 129.713 72.761 128.088 70.7974 126.448C70.1203 125.88 69.3703 125.401 68.7037 124.812C68.4953 124.625 68.2193 124.51 67.9641 124.375C67.8183 124.302 67.6776 124.219 67.537 124.135C67.3964 124.042 67.2558 123.948 67.1203 123.849C66.8651 123.661 66.6308 123.448 66.412 123.208C65.5058 122.708 64.5318 122.385 63.5526 122.078C63.4068 122.031 63.2714 121.989 63.1308 121.943C61.2141 121.338 59.3287 120.609 57.3131 120.349C57.162 120.328 57.0162 120.265 56.8756 120.198C56.7506 120.135 56.6933 120.01 56.6828 119.875C56.3339 119.87 55.9797 119.859 55.636 119.859C55.5995 119.87 55.5578 119.864 55.5214 119.864ZM24.9797 132.823C24.9016 132.953 24.7349 132.88 24.6464 132.781C24.4224 132.515 24.4016 132.219 24.5526 131.911C24.6933 131.614 24.9641 131.458 25.2506 131.328C25.4068 131.26 25.4901 131.349 25.5474 131.536C25.287 131.917 25.2349 132.411 24.9797 132.823ZM26.0162 129.531C25.5422 129.828 25.1881 130.219 24.9953 130.755C24.9797 130.802 24.8703 130.818 24.8235 130.838C24.6672 130.812 24.6464 130.708 24.6412 130.604C24.6099 130.109 25.3287 129.265 25.8183 129.219C25.9276 129.213 26.0214 129.234 26.0787 129.338C26.1308 129.422 26.0787 129.495 26.0162 129.531ZM88.0943 57.7186C88.0579 57.0884 88.0631 56.4634 88.0474 55.8384C87.9954 53.6613 87.7662 51.5103 87.4433 49.3592C87.0891 47.0572 86.5995 44.7811 85.9797 42.5415C85.4537 40.6509 84.8078 38.8072 84.1099 36.9686C83.2506 34.7186 82.2453 32.5415 81.1151 30.4217C80.1308 28.5728 79.0474 26.7915 77.9068 25.0363C76.261 22.5051 74.3391 20.1978 72.3703 17.9322C70.3235 15.578 68.0318 13.4738 65.5891 11.5311C63.5735 9.93737 61.4797 8.47383 59.2558 7.18737C57.1933 5.99466 55.0631 4.953 52.8443 4.06758C51.3599 3.47383 49.8547 2.94258 48.3235 2.53633C46.6881 2.09883 45.0162 1.73945 43.3287 1.52591C40.9068 1.22383 38.4797 1.12487 36.0422 1.2655C34.5006 1.34883 32.9797 1.578 31.4641 1.88529C30.3912 2.10404 29.3026 2.13008 28.2453 2.47383C25.2453 3.4582 22.4433 4.82279 19.7974 6.54675C16.9485 8.40091 14.5214 10.7238 12.2662 13.2447C11.9641 13.5832 11.636 13.9061 11.3599 14.2707C11.1933 14.4895 11.0422 14.7238 10.9328 14.979C10.8756 15.052 10.8287 15.1249 10.7714 15.1978C10.761 15.3228 10.7193 15.4322 10.6308 15.5259C10.5891 15.5936 10.5474 15.6613 10.4901 15.7134C10.4381 15.7603 10.3756 15.802 10.2974 15.828C10.2974 16.052 10.2193 16.2342 9.97972 16.2967C10.0058 16.578 9.84951 16.7863 9.70889 17.0051C6.23493 22.4374 4.11514 28.3957 2.77139 34.6665C2.18285 37.4061 1.8391 40.177 1.62555 42.9738C1.13597 49.354 1.73493 55.6197 3.4693 61.7759C3.55785 62.0832 3.7818 62.4113 3.48493 62.7342C3.73493 62.9113 4.05785 63.0051 4.14118 63.354C4.17764 63.5051 4.22451 63.6665 4.09951 63.7967C3.9693 63.9322 3.81826 63.8801 3.67243 63.802C3.56305 63.7447 3.44847 63.6822 3.33389 63.6197C3.01097 63.9426 2.94847 64.3488 2.9068 64.7603C2.89118 64.8957 2.88076 65.0311 2.85993 65.1665C3.59951 65.3072 4.01618 65.7915 4.30785 66.4478C4.57868 67.0415 4.77139 67.6561 4.86514 68.3072C4.88597 68.4634 4.89639 68.6145 4.89639 68.7603C4.89118 69.203 4.75576 69.5936 4.4068 69.9374C4.61514 70.3384 4.76097 70.7603 4.9016 71.1926C4.94326 71.3384 4.99014 71.479 5.0318 71.6249C6.18285 75.2759 7.55264 78.8384 9.4068 82.203C10.5474 84.2655 11.7141 86.3124 12.9693 88.3072C13.3964 88.9947 13.9068 89.6301 14.3703 90.2967C14.6881 90.7707 15.0839 91.2082 15.1724 91.8072V91.7915C15.1724 91.7811 15.1672 91.7707 15.1672 91.7707C15.2245 91.8332 15.2818 91.8905 15.3339 91.9426C15.4224 91.9947 15.4901 92.0624 15.537 92.1405C15.5891 92.2238 15.6256 92.3228 15.6516 92.4217L15.6464 92.3957C15.7037 92.479 15.761 92.5676 15.8183 92.6509C15.7766 92.7967 15.8547 92.9009 15.9381 92.9999C18.1203 95.5415 20.3078 98.0936 22.8287 100.312C25.3808 102.562 27.9693 104.765 31.1047 106.224C34.3808 107.745 37.7453 108.974 41.3235 109.484C43.8808 109.849 46.4537 110.167 49.0526 110.099C50.2714 110.062 51.4485 109.937 52.6047 109.594C52.9016 109.505 53.2922 109.375 53.412 109.781C53.5058 110.12 53.1985 110.364 52.8808 110.458C52.1047 110.687 51.3026 110.859 50.4953 110.896C48.7922 110.969 47.0943 111.021 45.3964 110.875C45.3912 110.984 45.386 111.094 45.3756 111.203C45.4797 111.25 45.5891 111.297 45.6985 111.349C45.7818 111.094 45.9068 111.005 46.0318 111.114C46.0735 111.151 46.1203 111.208 46.162 111.292C46.3287 111.594 46.3078 111.953 46.3078 112.286C46.3183 114.515 46.3235 116.739 46.3287 118.963C46.3339 121.135 46.261 123.312 46.3599 125.474C46.4328 127.125 46.537 128.765 46.4693 130.417C46.4589 130.656 46.4537 130.901 46.4381 131.14C46.3964 131.864 46.3131 132.583 46.0839 133.281C46.6985 133.984 47.3964 134.479 48.1724 134.786C48.2453 134.812 48.3235 134.838 48.3964 134.864C48.4172 134.875 48.4433 134.885 48.4641 134.89C48.4849 134.896 48.5058 134.901 48.5266 134.906C49.0058 135.052 49.511 135.135 50.0422 135.146C50.1568 135.151 50.2662 135.151 50.3808 135.146C50.4953 135.146 50.6099 135.135 50.7245 135.13C50.8495 135.12 50.9693 135.057 51.0891 135.021C51.2193 134.719 51.4537 134.505 51.6828 134.292C51.761 134.224 51.8391 134.156 51.9172 134.083C52.761 133.281 53.261 132.307 53.5006 131.167C53.7245 130.114 53.8495 129.047 54.0422 127.995C54.1151 127.562 54.1568 127.094 54.5943 126.828C54.5578 125.208 54.5578 123.588 54.4797 121.969C54.3078 118.406 54.3964 114.849 54.5058 111.292C54.511 111.031 54.4433 110.75 54.787 110.635C54.7766 110.385 54.7714 110.13 54.761 109.875C54.6256 109.88 54.5006 109.896 54.3651 109.885C54.2089 109.88 54.0318 109.859 54.0162 109.656C53.9953 109.458 54.1724 109.422 54.3183 109.359C56.3443 108.51 58.2922 107.495 60.1776 106.364C61.412 105.625 62.6203 104.849 63.8026 104.026C63.9849 103.896 64.1464 103.739 64.2974 103.552C63.7922 103.719 63.2922 103.864 62.8026 104.036C62.412 104.172 62.0318 104.312 61.662 104.5C61.5422 104.635 61.4016 104.729 61.2558 104.807C61.1828 104.844 61.1047 104.88 61.0266 104.911C60.9485 104.943 60.8703 104.979 60.787 105.01C59.4953 105.515 58.2453 106.104 57.0526 106.828C55.4485 107.807 53.662 108.167 51.8131 108.297C51.6985 108.354 51.5891 108.406 51.4693 108.453C50.7662 108.734 50.0526 108.797 49.3183 108.568C49.2141 108.536 49.1099 108.495 49.0058 108.453C48.3131 108.568 47.6203 108.594 46.9276 108.594C46.5839 108.594 46.2349 108.594 45.8912 108.588C45.5474 108.588 45.1985 108.594 44.8547 108.609C45.6985 108.807 46.5683 108.771 47.4172 108.911C47.7193 108.963 48.2662 108.807 48.2401 109.239C48.2245 109.604 47.6881 109.5 47.3651 109.521C46.1568 109.583 44.9537 109.453 43.7714 109.219C41.7974 108.818 39.7766 108.677 37.8235 108.156C33.4849 107.01 29.5578 105.078 26.162 102.088C24.3287 100.474 22.6047 98.7707 20.9745 96.9582C19.2037 94.9895 17.6099 92.8853 16.1151 90.6978C14.8287 88.8176 13.6308 86.8853 12.5162 84.9009C11.0839 82.3436 9.80264 79.7082 8.64118 77.0155C7.37035 74.0572 6.2766 71.0311 5.3443 67.9426C5.0318 66.8905 4.76618 65.8228 4.47972 64.7603C4.43805 64.6093 4.4068 64.4582 4.38076 64.302C4.3391 64.0988 4.4068 63.9218 4.5943 63.8436C4.79222 63.7655 4.94326 63.8957 5.06826 64.0363C5.20889 64.203 5.24535 64.4113 5.29743 64.6197C5.64639 65.9582 5.95368 67.3124 6.37035 68.6301C6.8391 70.1249 7.43285 71.5832 7.93285 73.0728C8.55264 74.927 9.55785 76.5728 10.5891 78.2082C10.7089 78.3905 10.8078 78.578 10.912 78.7707C10.9849 78.9113 11.0631 79.052 11.136 79.1926C11.3599 79.6249 11.5891 80.0572 11.9016 80.4374C11.9433 80.4947 11.9849 80.5572 12.0266 80.6145C12.0162 80.6145 12.0162 80.6093 12.0058 80.6093C12.1099 80.6926 12.1672 80.802 12.1672 80.9374C12.2453 80.9426 12.3131 80.9634 12.3756 80.9947C12.386 81.0051 12.4016 81.0103 12.412 81.0207C12.4901 81.0728 12.5578 81.1353 12.6151 81.203C12.6828 81.2863 12.7401 81.3801 12.7922 81.4686C13.7037 82.9426 14.7558 84.3124 15.7974 85.6926C15.8756 85.7968 15.9276 85.9218 15.9901 86.0311C16.3235 86.2134 16.511 86.5467 16.761 86.8124C19.2193 89.354 21.8287 91.7395 24.5266 94.0311C28.5631 97.4478 33.0995 100.026 37.9641 102.047C38.136 102.12 38.3078 102.182 38.4693 102.265C38.7141 102.385 38.8183 102.573 38.7037 102.844C39.4068 103.172 40.1568 103.323 40.9016 103.489C40.8443 103.114 41.0266 102.953 41.3183 102.937C41.3599 102.937 41.4068 102.937 41.4485 102.937C41.787 102.963 42.1203 103.021 42.4537 103.078C43.6568 103.297 44.8547 103.536 46.037 103.864C46.2141 103.911 46.386 103.974 46.5578 104.031C46.7401 104.094 46.912 104.187 46.8808 104.411C46.8443 104.64 46.6256 104.635 46.4537 104.682C47.3183 104.927 48.2141 104.911 49.0943 104.969C51.6568 105.125 54.2141 105.073 56.761 104.672C61.537 103.922 65.9485 102.234 69.886 99.3957C72.1933 97.7342 74.1672 95.729 75.9172 93.479C77.0318 92.052 78.0631 90.578 79.0266 89.0572C79.7818 87.8697 80.4485 86.6249 81.1464 85.3957C82.261 83.4426 83.0943 81.354 84.0266 79.3124C84.6516 77.9322 85.0631 76.4686 85.5683 75.0415C86.1203 73.4895 86.6099 71.9113 86.9381 70.3072C87.4433 67.828 87.9954 65.3488 88.0474 62.7915C88.0631 61.7759 88.1516 60.7655 88.0735 59.7447C88.0318 59.1613 88.1933 59.0103 88.7401 58.9999C88.7662 58.8957 88.7766 58.7967 88.7714 58.6978C88.7662 58.5988 88.7558 58.4947 88.7349 58.3957C88.2245 58.4582 88.1099 58.1092 88.0943 57.7186ZM52.8078 129.667C52.7662 129.667 52.7245 129.656 52.6776 129.64C52.3078 129.51 51.7818 128.703 51.8183 128.323C51.8391 128.078 52.0526 127.927 52.2453 128.026C52.2922 128.047 52.412 128.229 52.5474 128.458C52.5787 128.515 52.6151 128.583 52.6464 128.64C52.6881 128.719 52.7297 128.802 52.7714 128.875C52.7922 128.917 52.8131 128.958 52.8287 128.995C52.9328 129.208 53.011 129.385 53.0058 129.437C52.9797 129.573 52.9172 129.656 52.8078 129.667ZM52.7714 126.828C52.4485 126.75 52.2245 126.495 51.9953 126.255C51.9224 126.187 51.9485 126.057 52.0162 125.974C52.0839 125.885 52.1776 125.833 52.287 125.864C52.6203 125.953 52.8912 126.167 53.0474 126.463C53.1516 126.656 53.0266 126.802 52.7714 126.828ZM53.2349 124.203C53.1151 124.276 53.0006 124.307 52.886 124.198C52.6776 124.005 52.4745 123.807 52.2662 123.614C52.1776 123.536 52.1412 123.443 52.1881 123.338C52.2453 123.203 52.3703 123.156 52.5058 123.167C52.5318 123.167 52.5683 123.177 52.6047 123.198C52.8756 123.328 53.3287 123.807 53.3443 124.01C53.3443 124.099 53.3078 124.161 53.2349 124.203ZM86.8756 64.1561C86.8235 64.7186 86.7297 65.2655 86.511 65.8176C86.2766 66.3853 86.2558 67.0415 86.1568 67.6613C85.2714 72.9061 83.7193 77.9478 81.4068 82.7395C79.8183 86.0259 77.8964 89.1092 75.511 91.8905C72.5474 95.3592 69.0787 98.1874 64.9641 100.182C60.6724 102.26 56.1308 103.213 51.3547 103.088C49.5422 103.036 47.7453 102.875 45.9797 102.474C44.5787 102.156 43.2193 101.693 41.8495 101.265C36.5058 99.5884 31.6047 97.0259 27.0943 93.7186C23.5266 91.1145 20.3183 88.1145 17.4433 84.7655C15.0266 81.9634 12.8756 78.9738 11.011 75.7759C8.43285 71.3488 6.37555 66.6874 4.95889 61.7551C3.64118 57.1874 2.80264 52.5468 2.54743 47.7863C2.24535 41.979 2.83389 36.2759 4.3443 30.677C5.8391 25.1613 8.23493 20.0624 11.636 15.4686C14.6568 11.3905 18.287 7.94779 22.636 5.29675C23.0422 5.05195 23.4224 4.77591 23.8547 4.58841C24.136 4.46862 24.2401 4.42695 24.3495 4.54154C24.412 4.61445 24.4745 4.73945 24.5735 4.94258C24.787 4.90612 24.9797 4.8332 25.1724 4.74987C25.3651 4.66654 25.5526 4.56758 25.7401 4.47904C27.9693 3.43737 30.3287 2.90612 32.761 2.59883C34.3964 2.3957 36.037 2.28633 37.6828 2.18216C39.8131 2.04675 41.912 2.38008 44.0058 2.69258C48.9016 3.43216 53.4797 5.078 57.7662 7.54675C57.8599 7.59883 57.9537 7.65091 58.0422 7.703C58.3131 7.85404 58.5787 8.02071 58.7974 8.26029C59.0058 8.203 59.1881 8.25508 59.3599 8.3332C59.4224 8.36445 59.4797 8.3905 59.537 8.42695C61.7766 9.59883 63.8339 11.0363 65.7974 12.6145C68.2558 14.5884 70.4849 16.802 72.5162 19.2082C74.6464 21.729 76.5631 24.4113 78.261 27.2551C80.5995 31.1822 82.4745 35.3176 83.9433 39.6457C84.886 42.4217 85.6464 45.2499 86.1828 48.1353C86.6881 50.8592 87.011 53.6145 87.1204 56.3905C87.2245 58.9895 87.1151 61.5728 86.8756 64.1561ZM37.8131 107.479C37.2818 107.318 36.7453 107.167 36.2089 107.01C36.2193 106.989 36.2245 106.969 36.2297 106.948C36.9068 107.015 37.5891 107.088 38.2714 107.161C38.0474 107.167 37.8808 107.25 37.8131 107.479ZM25.1985 135.911C25.1724 135.87 25.162 135.823 25.162 135.765C25.162 135.713 25.1724 135.651 25.1933 135.583H25.1985C25.1985 135.578 25.1985 135.578 25.1985 135.573C25.3651 135.677 25.4589 135.833 25.511 136.026C25.3495 136.026 25.2506 135.984 25.1985 135.911ZM24.9901 135.39C24.9849 135.359 24.9849 135.323 24.9849 135.281C25.1047 135.349 25.1724 135.443 25.1933 135.578C25.1933 135.583 25.1933 135.583 25.1933 135.583H25.1881C25.1881 135.583 25.1881 135.583 25.1828 135.583C25.0735 135.552 25.0058 135.489 24.9901 135.39ZM25.6985 14.6457C26.4641 15.1561 26.6308 16.2134 26.011 16.9999C25.5735 17.552 25.0787 18.0676 24.5735 18.5624C22.8964 20.2238 21.3495 21.9999 20.0266 23.9634C19.5214 24.703 19.1151 25.4895 18.7506 26.3072C18.2922 27.3228 18.3964 28.2395 19.1933 29.0572C19.4693 29.3384 19.7089 29.6561 19.9485 29.9582C20.6203 30.7915 20.6881 31.7186 20.3703 32.703C20.1256 33.4374 19.6776 34.052 19.2193 34.6561C18.4745 35.6405 17.6985 36.5988 16.9485 37.5728C16.1203 38.6613 15.4224 39.8228 14.8808 41.0832C14.4641 42.052 14.5526 42.8957 15.1724 43.7342C15.6203 44.3436 16.0839 44.9478 16.412 45.6457C16.7193 46.2915 16.9016 46.9634 16.9276 47.6874C16.9797 49.2915 16.8599 50.8749 16.6672 52.4686C16.2662 55.7551 16.1256 59.052 16.3183 62.3488C16.5006 65.5259 17.4849 68.5155 18.6933 71.4322C19.5318 73.4738 20.5839 75.4061 21.7818 77.2603C22.162 77.854 22.4953 78.4843 22.6776 79.1718C22.7297 79.3488 22.7766 79.552 22.6308 79.6978C22.4381 79.8905 22.2349 79.7499 22.0526 79.6561C21.3131 79.2811 20.7349 78.7186 20.2349 78.0676C17.9953 75.1249 16.2818 71.8905 14.9901 68.4374C14.1412 66.177 13.4276 63.8749 13.0735 61.479C12.8391 59.8905 12.7714 58.2967 12.8131 56.5572C12.6881 54.302 13.0787 51.9426 13.3599 49.5728C13.4276 48.979 13.5058 48.3801 13.5735 47.7811C13.6412 47.1561 13.4693 46.5884 13.1516 46.0572C12.9328 45.6978 12.6985 45.354 12.4589 45.0051C11.4485 43.5259 11.3183 41.953 11.9068 40.2811C12.5474 38.4634 13.6985 36.9738 15.0058 35.5988C15.8547 34.7082 16.7453 33.854 17.6099 32.979C17.9068 32.677 18.1776 32.3592 18.3964 31.9999C18.6828 31.5363 18.6724 31.3436 18.3078 30.953C17.9797 30.6145 17.6256 30.2967 17.2818 29.9738C16.0162 28.8072 15.6256 27.3384 15.8808 25.6874C16.1464 23.9113 16.8964 22.328 17.9485 20.8957C19.5683 18.6926 21.4485 16.7238 23.5318 14.9478C24.2558 14.3332 25.0735 14.2342 25.6985 14.6457ZM67.8964 15.6301C67.9641 15.6613 68.0318 15.703 68.0891 15.7551C68.261 15.8957 68.386 16.0884 68.5266 16.2603C68.3235 16.5155 68.2662 16.8332 68.1724 17.1301C67.6308 18.8592 66.8443 20.4895 66.1828 22.1665C65.3183 24.354 64.9693 26.5884 65.3026 28.9374C65.5006 30.3072 65.6308 31.6978 65.3339 33.078C65.0474 34.4165 64.5683 35.6874 64.0631 36.9478C62.8287 40.0467 61.2193 42.9634 59.5787 45.854C57.9797 48.6717 56.2714 51.4322 54.4328 54.1092C52.9068 56.328 51.511 58.6405 50.0266 60.8905C48.6464 62.9947 47.3391 65.1405 46.0891 67.3176C44.5214 70.0311 43.0839 72.828 41.5266 75.552C40.1724 77.9165 38.9537 80.3488 37.6881 82.7603C36.8131 84.427 35.9589 86.1092 35.1516 87.8124C34.886 88.3801 34.6256 88.953 34.3703 89.5259C34.2037 89.6665 34.1099 90.0051 33.9016 89.9842C33.8703 89.9842 33.8391 89.9738 33.8026 89.953C33.4849 89.7759 33.8026 89.4895 33.9016 89.2811C35.4641 85.8801 36.9433 82.4374 38.6308 79.0988C40.2141 75.9686 41.7714 72.828 43.5162 69.7863C44.8964 67.3801 46.3235 64.9947 47.7037 62.5884C49.3808 59.6561 51.3339 56.9113 53.2245 54.1145C54.6203 52.0572 55.8964 49.9217 57.2245 47.8228C58.3339 46.0728 59.3026 44.2447 60.3183 42.4426C60.5474 42.0311 60.7453 41.604 60.9172 41.1613C61.3078 40.1665 61.761 39.1926 62.2974 38.2603C63.1568 36.7499 63.7349 35.1197 64.2037 33.4478C64.5787 32.1145 64.5683 30.729 64.3391 29.3957C63.886 26.7395 64.3235 24.2342 65.3131 21.7915C66.0787 19.9009 66.9016 18.0311 67.6985 16.1509C67.7766 15.979 67.8339 15.8072 67.8964 15.6301ZM38.912 99.2655C38.7349 99.2447 38.5578 99.2082 38.412 99.1145C38.3599 99.0832 38.3131 99.0415 38.2714 98.9947C38.3495 98.1197 38.6516 97.3072 38.9745 96.5051C39.0839 96.2395 39.1933 95.9686 39.2974 95.703C40.6203 92.3697 42.0266 89.0676 43.6464 85.8645C44.6881 83.8072 45.9901 81.9009 47.1776 79.9218C48.7089 77.3593 50.3131 74.8384 52.0735 72.4322C53.4381 70.5728 54.8756 68.7707 56.2922 66.953C56.8339 66.2447 57.3599 65.5311 57.9068 64.828C58.7089 63.7915 59.5891 62.8228 60.4016 61.7967C61.5474 60.3592 62.6881 58.9322 63.8339 57.4999C65.2766 55.6978 66.7297 53.9165 68.1568 52.104C68.9485 51.0936 69.6776 50.0363 70.4485 49.0103C71.5995 47.4842 72.6985 45.9217 73.6724 44.2707C74.6203 42.6717 75.5526 41.0624 76.3912 39.4009C76.8131 38.5572 77.2193 37.7082 77.636 36.8645C77.9849 36.3697 78.2349 35.8228 78.4589 35.2603C78.5318 35.0728 78.5578 34.8488 78.7453 34.7186C78.8287 34.6561 78.9224 34.5936 79.0318 34.6509C79.136 34.7082 79.1672 34.8124 79.136 34.9165C79.0631 35.1457 78.9849 35.3645 78.8964 35.5832C78.1151 37.4947 77.3547 39.4217 76.4693 41.2915C76.1985 41.8592 75.9224 42.4217 75.6047 42.9634C74.5266 44.7551 73.4797 46.5676 72.2506 48.2707C68.6047 53.328 64.7766 58.2447 60.9224 63.1405C58.9328 65.6717 56.8391 68.1197 54.7974 70.6092C52.9641 72.8436 51.3391 75.2134 49.7922 77.6457C48.6151 79.4999 47.4641 81.3697 46.3078 83.2395C44.6828 85.8749 43.3287 88.6509 42.0943 91.4895C41.3495 93.1926 40.6256 94.9009 39.9016 96.6145C39.5266 97.4842 39.3443 98.4217 38.912 99.2655ZM85.7662 51.5832C85.8339 51.8645 85.886 52.1509 85.9276 52.4374C85.9537 52.6405 85.9745 52.8436 85.9849 53.0467C85.9901 53.2082 85.9901 53.3801 85.9797 53.5415C85.787 54.328 85.5943 55.1145 85.4172 55.9009C84.8287 58.4634 83.9172 60.9217 82.8235 63.302C81.7766 65.5832 80.5735 67.7915 79.2974 69.9582C78.1151 71.9634 76.9068 73.9582 75.6464 75.9165C73.7766 78.8176 71.8651 81.6926 69.7714 84.4478C68.3339 86.3488 66.8026 88.1717 65.3495 90.0624C64.4745 91.1978 63.4537 92.2238 62.4901 93.2915C62.2818 93.5259 62.0683 93.7707 61.7193 93.7915C61.7193 93.4895 61.8703 93.2655 62.0422 93.0467C62.0995 92.979 62.1568 92.9061 62.2141 92.8384C63.011 91.8332 63.8287 90.8436 64.6151 89.8332C66.162 87.854 67.5943 85.7863 69.037 83.729C70.9589 80.9895 72.8912 78.2603 74.6828 75.427C76.6828 72.2655 78.6881 69.0988 80.4485 65.7967C82.3599 62.2082 83.9485 58.4895 84.8756 54.5051C85.1099 53.5155 85.4693 52.5572 85.7662 51.5832Z" fill="#D8AC94"/>
</g>
<mask id="mask3_194_516" style="mask-type:luminance" maskUnits="userSpaceOnUse" x="0" y="0" width="89" height="149">
<path d="M0 0H89V149H0V0Z" fill="white"/>
</mask>
<g mask="url(#mask3_194_516)">
<path d="M1.97386 62.3853C2.07282 62.7707 2.07282 63.0311 1.88011 63.3957C1.30199 64.4998 1.23428 65.6405 1.9374 66.7394C2.04678 66.9165 2.05199 67.0832 2.04678 67.2603C2.02594 68.2915 2.38011 69.1613 3.17178 69.8384C3.28636 69.9373 3.41136 70.0311 3.34886 70.2238C3.21344 70.6509 3.38011 71.0571 3.48949 71.453C4.31761 74.4946 5.50511 77.4009 6.89053 80.2238C9.10928 84.7238 11.8124 88.9269 14.8853 92.8905C16.6666 95.1821 18.5832 97.3696 20.6509 99.4113C22.0676 100.812 23.5624 102.13 25.1614 103.323C28.1562 105.557 31.3905 107.364 34.9166 108.625C37.4114 109.521 39.9582 110.203 42.5989 110.526C43.1874 110.594 43.7707 110.625 44.3593 110.698C44.7082 110.739 45.0572 110.797 45.4009 110.88C47.1041 111.021 48.802 110.979 50.4999 110.906C51.3124 110.87 52.1093 110.693 52.8905 110.469C53.203 110.375 53.5103 110.125 53.4166 109.786C53.302 109.38 52.9062 109.51 52.6145 109.599C51.453 109.948 50.2707 110.073 49.0624 110.104C46.4582 110.172 43.8801 109.854 41.328 109.489C37.7551 108.979 34.3853 107.75 31.1145 106.229C27.9739 104.776 25.3853 102.568 22.8332 100.318C20.3124 98.0988 18.1301 95.5519 15.9478 93.0051C15.8593 92.9061 15.7812 92.8019 15.8228 92.6561C15.7291 92.5936 15.6718 92.5103 15.6509 92.4009L15.6562 92.4269C15.4999 92.3019 15.328 92.1874 15.328 91.9582C15.2187 91.953 15.1822 91.8801 15.1718 91.7811C15.1718 91.7811 15.1718 91.7915 15.177 91.7967L15.1822 91.8176C14.3697 90.9582 13.7291 89.9738 13.0572 89.0155C11.3124 86.5363 9.76032 83.9426 8.33844 81.2655C7.38532 79.4634 6.52594 77.6196 5.77074 75.7238C5.10928 74.0467 4.55719 72.3332 4.08324 70.5936C3.97907 70.2082 4.10928 70.0728 4.41136 69.953C4.76553 69.6144 4.89574 69.2186 4.90094 68.7759C4.90615 68.6301 4.89053 68.479 4.86969 68.3228C4.78115 67.6717 4.58323 67.0623 4.3124 66.4634C4.02074 65.8071 3.59886 65.3228 2.86449 65.1821C2.67178 65.2342 2.52594 65.3801 2.31761 65.5467C2.19261 64.8696 2.30719 64.328 2.59365 63.828C2.76553 63.5259 2.9999 63.3488 3.34365 63.6353C3.45303 63.6926 3.56761 63.7603 3.68219 63.8176C3.82803 63.8957 3.97386 63.953 4.10928 63.8123C4.23428 63.6769 4.1874 63.5155 4.15094 63.3696C4.06761 63.0207 3.73949 62.9269 3.49469 62.7498C2.86449 62.6509 2.86969 62.6509 2.70824 62.0311C1.91136 58.8853 1.41657 55.6821 1.16136 52.4426C0.947819 49.703 0.812403 46.9634 0.947819 44.2134C1.1249 40.7082 1.58324 37.2446 2.32803 33.8123C3.07803 30.3801 4.17698 27.0571 5.60407 23.854C6.73948 21.3071 8.09365 18.8592 9.72386 16.578C9.79157 16.479 9.89574 16.3957 9.97907 16.3071C10.0207 16.1092 10.1353 15.9582 10.2968 15.8384C10.3124 15.7082 10.3905 15.6092 10.4895 15.5259C10.5259 15.3696 10.6405 15.2863 10.7707 15.2082C10.7812 15.0988 10.8437 15.0363 10.9322 14.9894C11.0468 14.7342 11.1978 14.5051 11.3645 14.2863C11.6405 13.9217 11.9687 13.5988 12.2707 13.2603C14.5207 10.7342 16.953 8.41651 19.802 6.55714C22.4426 4.82276 25.2395 3.45818 28.2447 2.47381C29.302 2.13006 30.3957 2.10402 31.4634 1.88526C32.9739 1.57797 34.4999 1.34881 36.0416 1.26547C38.4791 1.13006 40.9062 1.22381 43.328 1.52589C45.0155 1.73943 46.6874 2.09881 48.3228 2.53631C49.8489 2.94256 51.3593 3.47381 52.8437 4.06756C55.0624 4.95818 57.1926 5.99985 59.2551 7.18735C61.4791 8.4686 63.5728 9.93735 65.5884 11.5311C68.0312 13.4738 70.3228 15.578 72.3697 17.9321C74.3384 20.1978 76.2603 22.5051 77.9062 25.0363C79.0468 26.7915 80.1301 28.5728 81.1145 30.4217C82.2447 32.5415 83.2499 34.7186 84.1093 36.9686C84.8124 38.8019 85.453 40.6509 85.9791 42.5415C86.5989 44.7863 87.0884 47.0571 87.4426 49.3592C87.7655 51.5103 87.9947 53.6613 88.0468 55.8384C88.0624 56.4634 88.0572 57.0936 88.0937 57.7186C88.1145 58.104 88.2291 58.4582 88.7395 58.4061C88.9166 58.0155 88.9374 57.6092 88.9426 57.1821C88.953 53.8436 88.6093 50.5415 88.0103 47.2655C87.4739 44.3488 86.703 41.4998 85.7134 38.7134C84.5312 35.3801 83.1093 32.1561 81.3749 29.0571C80.1353 26.8384 78.7916 24.6873 77.3072 22.6301C75.4218 20.0103 73.3384 17.5676 71.052 15.2863C69.0468 13.2811 66.9218 11.4217 64.6562 9.72381C61.6718 7.48422 58.4791 5.58839 55.0728 4.06235C51.0364 2.24464 46.8332 1.04672 42.4218 0.505056C38.3437 0.005056 34.328 0.452972 30.3176 1.07276C28.453 1.35922 26.6926 2.07276 24.9478 2.79151C21.9739 4.02068 19.2551 5.68214 16.7499 7.68735C14.578 9.42693 12.6509 11.4165 10.8905 13.578C8.06761 17.0363 5.90615 20.8748 4.20303 24.9894C3.09365 27.6509 2.26553 30.4009 1.60407 33.2134C0.593652 37.4894 0.13011 41.828 0.0624023 46.2134C0.0207357 49.0988 0.187402 51.9686 0.562402 54.828C0.895736 57.3749 1.33324 59.9009 1.97386 62.3853ZM3.04678 66.1717C3.07803 66.078 3.1249 65.9686 3.24469 65.9582C3.36449 65.9426 3.43219 66.0259 3.47907 66.1196C3.97386 67.1665 4.16136 68.2603 4.13532 69.453C3.53115 69.3124 3.30199 68.8748 3.08844 68.4373C2.71865 67.6926 2.82282 66.9321 3.04678 66.1717ZM88.078 59.7603C88.1562 60.7811 88.0676 61.7915 88.052 62.8071C87.9999 65.3644 87.4478 67.8488 86.9426 70.328C86.6145 71.9269 86.1197 73.5051 85.578 75.0571C85.0728 76.4842 84.6562 77.9478 84.0312 79.328C83.0989 81.3696 82.2707 83.4582 81.1509 85.4113C80.4582 86.6353 79.7864 87.8801 79.0312 89.0728C78.0676 90.5988 77.0364 92.0728 75.9218 93.4946C74.1718 95.7446 72.1978 97.7446 69.8905 99.4113C65.953 102.245 61.5416 103.937 56.7655 104.687C54.2239 105.088 51.6614 105.14 49.0989 104.984C48.2187 104.927 47.3228 104.943 46.4582 104.698C44.5832 104.422 42.7082 104.14 40.9114 103.505C40.1614 103.338 39.4166 103.187 38.7134 102.864C35.8332 101.906 33.0937 100.646 30.4739 99.1196C27.3489 97.3019 24.4582 95.1769 21.7968 92.7394C19.8332 90.9426 17.9791 89.0363 16.3697 86.9061C16.2812 86.7967 16.1822 86.6926 16.078 86.5936C15.9791 86.4894 15.8853 86.3801 15.828 86.2446C15.0989 85.3436 14.3957 84.4269 13.7395 83.4686C13.3853 82.953 13.0416 82.4269 12.7239 81.8801C12.5468 81.5676 12.2343 81.328 12.1666 80.953C12.0364 80.8853 11.9843 80.7707 12.0051 80.6248C11.9478 80.6092 11.9218 80.5728 11.9114 80.5207C11.9062 80.4998 11.9062 80.479 11.9062 80.4582C11.5989 80.0728 11.3697 79.6457 11.1457 79.2134C11.0676 79.0728 10.9947 78.9321 10.9218 78.7863C10.8176 78.5988 10.7187 78.4113 10.5989 78.229C9.56761 76.5936 8.55719 74.9426 7.9374 73.0884C7.44261 71.604 6.84886 70.1457 6.3749 68.6509C5.96344 67.328 5.65615 65.979 5.30719 64.6353C5.2499 64.4321 5.21344 64.2238 5.07803 64.0571C4.95303 63.9113 4.79678 63.7863 4.60407 63.8644C4.41136 63.9426 4.34886 64.1196 4.38532 64.3228C4.41657 64.4738 4.44782 64.6301 4.48949 64.7811C4.77594 65.8436 5.03636 66.9113 5.35407 67.9634C6.28115 71.0467 7.3749 74.0728 8.65094 77.0363C9.8124 79.729 11.0937 82.3644 12.5259 84.9217C13.6353 86.9061 14.8384 88.8384 16.1249 90.7186C17.6197 92.9009 19.2187 95.0051 20.9843 96.979C22.6093 98.7863 24.3384 100.495 26.1718 102.104C29.5676 105.099 33.4895 107.026 37.8332 108.177C39.7864 108.698 41.8072 108.838 43.7812 109.234C44.9634 109.474 46.1666 109.604 47.3749 109.536C47.6978 109.521 48.2291 109.62 48.2499 109.26C48.2707 108.823 47.7291 108.979 47.427 108.932C46.578 108.792 45.703 108.823 44.8645 108.63C43.1509 108.578 41.4895 108.239 39.828 107.875C39.6614 107.838 39.4999 107.797 39.3332 107.76C38.8332 107.646 38.3332 107.542 37.828 107.484C37.2916 107.328 36.7551 107.172 36.2239 107.015C36.2291 106.995 36.2343 106.974 36.2447 106.953C36.9218 107.026 37.6041 107.094 38.2812 107.167C39.0155 106.937 39.7812 107.078 40.5312 106.943C41.1718 106.823 41.828 106.734 42.4374 106.542C43.6562 106.156 44.9374 106.042 46.1509 105.661C46.4634 105.562 46.7707 105.64 47.078 105.693C47.2707 105.724 47.4374 105.818 47.4322 106.042C47.4166 107.208 48.203 107.849 49.0207 108.469C49.1249 108.515 49.2291 108.552 49.3332 108.588C50.0676 108.818 50.7812 108.755 51.4895 108.469C51.6041 108.427 51.7134 108.375 51.8332 108.318C52.203 107.844 52.7603 107.547 53.0364 106.984C53.1249 106.797 53.2395 106.677 53.1874 106.422C53.0832 105.932 53.1301 105.901 53.6509 105.87C55.6926 105.745 57.7082 105.458 59.703 104.989C60.3593 104.833 60.9843 104.526 61.677 104.515C62.0468 104.333 62.4322 104.187 62.8228 104.052C63.3124 103.88 63.8176 103.734 64.3176 103.568C64.1718 103.755 64.0051 103.911 63.8228 104.042C62.6457 104.864 61.4322 105.64 60.203 106.38C58.3124 107.51 56.3645 108.526 54.3384 109.375C54.1926 109.437 54.0155 109.469 54.0364 109.672C54.0572 109.875 54.2291 109.896 54.3905 109.906C54.5155 109.911 54.6509 109.896 54.7812 109.89C55.1405 109.771 55.4999 109.667 55.8593 109.547C56.2134 109.427 56.5676 109.292 56.9009 109.109C57.8228 108.614 58.7655 108.161 59.6718 107.63C61.3332 106.646 62.9947 105.656 64.5572 104.515C65.0937 104.13 65.6509 103.719 65.9009 103.12C66.0884 102.672 66.3801 102.474 66.7499 102.297C70.2082 100.635 73.0884 98.203 75.5884 95.3644C78.6666 91.8749 81.052 87.8853 83.0676 83.6978C85.1822 79.3071 86.9009 74.7655 87.9478 69.979C88.6093 66.953 89.0676 63.9061 89.0051 60.8019C88.9999 60.5051 89.0051 60.203 88.9843 59.9009C88.9582 59.604 88.9062 59.3071 88.7759 59.0259C88.203 59.0259 88.0364 59.1769 88.078 59.7603ZM42.9166 105.739C41.2864 105.932 39.6614 106.302 38.0103 106.25C36.5989 106.203 35.1926 106 33.8593 105.5C32.2499 104.885 30.6457 104.239 29.1822 103.302C28.2082 102.677 27.3072 101.963 26.4374 101.213C22.9582 98.229 20.0259 94.7551 17.3749 91.0363C15.7343 88.7394 14.2603 86.3332 12.953 83.8176C20.6457 94.8696 30.8384 102.281 44.1666 105.255C43.7916 105.562 43.3437 105.687 42.9166 105.739ZM51.7864 107.276C51.1666 107.63 50.5624 107.932 49.8072 107.854C49.427 107.812 49.1041 107.682 48.8072 107.469C48.4062 107.177 48.2291 106.437 48.4478 106.01C48.5312 105.838 48.6926 105.802 48.8437 105.823C50.0259 105.974 51.2291 105.89 52.4166 105.963C52.5416 106.599 52.3124 106.974 51.7864 107.276ZM39.5989 147.745C38.4009 147.89 37.2499 147.573 36.1353 147.234C32.8853 146.234 29.8437 144.776 27.078 142.802C25.5728 141.729 24.2343 140.458 23.3124 138.849C21.9739 136.505 21.4687 134.057 22.5624 131.427C23.9009 128.182 26.2291 125.87 29.177 124.109C29.6978 123.797 30.2239 123.521 30.7499 123.219C33.5468 121.604 36.6093 120.719 39.703 119.932C40.8176 119.651 41.9218 119.302 43.0832 119.239C43.3697 119.224 43.6562 119.182 43.9426 119.265C44.052 119.573 43.9895 119.745 43.6197 119.792C43.4739 119.812 43.328 119.833 43.1874 119.87C42.7551 119.963 42.3332 120.12 41.9218 120.286C41.8697 120.281 41.8176 120.265 41.7655 120.276C39.8437 120.739 37.927 121.219 36.052 121.859C34.5259 122.385 32.9947 122.89 31.5937 123.713C31.1249 123.989 30.6509 124.265 30.1666 124.521C28.9687 125.161 27.8593 125.922 26.8749 126.859C26.6666 127.015 26.4687 127.182 26.2812 127.354C25.7187 127.885 25.2291 128.484 24.7864 129.125C24.5676 129.448 24.3332 129.76 24.1405 130.099C23.1353 131.854 22.4374 133.687 22.9062 135.765C23.2499 137.271 23.6353 138.765 24.9687 139.771C25.0728 139.849 25.1405 139.969 25.2343 140.057C26.1822 140.989 27.1822 141.859 28.2864 142.609C29.8489 143.667 31.5155 144.521 33.2395 145.271C34.4218 145.823 35.6405 146.265 36.8801 146.656C37.6041 146.885 38.3124 147.156 39.0572 147.297C39.3072 147.344 39.578 147.401 39.5989 147.745ZM77.6301 136.896C77.8437 137.177 77.6249 137.396 77.5103 137.614C76.7395 139 75.7655 140.224 74.5312 141.234C71.9947 143.307 69.1249 144.781 66.1145 146.047C61.9739 147.786 57.6718 148.838 53.1978 149.156C50.052 149.375 46.9166 149.25 43.8176 148.609C43.5364 148.552 43.2499 148.531 42.9687 148.495C42.6874 148.281 42.6822 148.125 42.953 148.099C42.9895 148.094 43.0364 148.094 43.0832 148.094C43.6041 148.114 44.1197 148.203 44.6405 148.26C46.6666 148.495 48.703 148.474 50.7395 148.411C51.5468 148.385 52.3593 148.422 53.1562 148.276C54.7916 148.318 56.3801 147.989 57.9687 147.687C59.8437 147.328 61.6926 146.859 63.4843 146.203C66.953 144.922 70.3489 143.489 73.3228 141.245C74.8801 140.073 76.2187 138.682 77.3072 137.062C77.3957 136.922 77.4947 136.896 77.6301 136.896ZM56.6978 119.896C57.4582 119.64 58.1926 119.917 58.9322 120.005C60.6562 120.203 62.2864 120.792 63.9218 121.328C66.3593 122.125 68.7291 123.083 70.953 124.375C72.3072 125.167 73.6457 125.979 74.8332 127.015C76.0207 128.052 76.8905 129.302 77.5259 130.729C77.6093 130.922 77.6874 131.114 77.6353 131.328C77.3437 131.422 77.1978 131.245 77.078 131.031C76.4582 129.901 75.6301 128.932 74.7291 128.026C74.1405 127.437 73.4374 126.989 72.7603 126.51C70.9895 125.265 69.0624 124.307 67.1041 123.396C66.8905 123.297 66.6718 123.219 66.427 123.224C65.5207 122.729 64.5468 122.406 63.5676 122.094C63.4218 122.052 63.2864 122.01 63.1457 121.963C61.2291 121.354 59.3437 120.625 57.328 120.37C57.177 120.349 57.0312 120.281 56.8905 120.213C56.7655 120.156 56.7082 120.031 56.6978 119.896ZM54.7916 110.646C55.1145 110.854 55.0572 111.198 55.0624 111.5C55.1197 113.656 55.1614 115.812 55.2082 117.974C55.2187 118.469 55.2395 118.963 55.2447 119.458C55.2499 119.739 55.3593 119.901 55.6562 119.875C55.6041 119.87 55.5624 119.864 55.5259 119.87C55.2968 119.875 55.2655 120.047 55.2603 120.239C55.2603 120.271 55.2603 120.307 55.2603 120.338C55.2707 121.12 55.2812 121.896 55.3124 122.677C55.3645 124.13 55.4218 125.583 55.4791 127.036C55.4739 127.917 55.4687 128.807 55.4582 129.687C55.453 130.448 55.4478 131.203 55.4426 131.953C55.4374 132.182 55.3697 132.375 55.0989 132.375C54.8593 132.375 54.6926 132.25 54.6666 132.005C54.6405 131.776 54.6405 131.536 54.6353 131.302C54.6249 129.818 54.6145 128.328 54.6041 126.844C54.5676 125.224 54.5624 123.604 54.4843 121.984C54.3176 118.422 54.4009 114.864 54.5103 111.307C54.5155 111.042 54.4478 110.76 54.7916 110.646ZM44.9895 119.052C45.0728 117.995 45.052 116.943 45.0572 115.885C45.0572 115.536 45.0572 115.182 45.0676 114.833C45.0989 113.76 45.1562 112.693 45.1978 111.625C45.203 111.463 45.2291 111.312 45.3749 111.213C45.4791 111.26 45.5884 111.307 45.6978 111.359C45.9739 114.588 45.828 117.828 45.8384 121.062C45.8437 123.25 45.8645 125.443 45.8541 127.635C45.8489 129.068 45.9218 130.505 45.8384 131.943C45.8176 132.271 45.7603 132.562 45.5155 132.786C45.1822 132.677 45.2395 132.38 45.1978 132.135C44.9843 130.625 45.0468 129.109 45.0364 127.594C45.0207 124.979 45.0416 122.359 45.0364 119.75C45.0416 119.521 45.0051 119.286 44.9895 119.052ZM77.8384 131.64C77.953 131.687 78.0572 131.755 78.1301 131.833C78.1405 131.838 78.1405 131.849 78.1457 131.854C78.2187 131.927 78.2759 132.01 78.3228 132.099C78.3697 132.193 78.4062 132.297 78.4426 132.401C78.4739 132.505 78.4999 132.609 78.5259 132.713C78.7082 133.417 78.7082 134.156 78.5416 134.875C78.4947 135.062 78.3645 135.187 78.2134 135.297C78.0468 135.187 78.0155 135.031 78.0103 134.833C77.9895 133.953 77.8749 133.083 77.6457 132.234C77.578 131.979 77.5884 131.781 77.8384 131.64ZM24.9843 135.281L24.9999 135.276C24.9999 134.943 24.4582 134.531 24.9218 134.333C25.2916 134.172 25.2916 134.786 25.4843 135.036C26.1614 135.943 26.9478 136.75 27.8541 137.422C29.8801 138.917 32.0624 140.146 34.3905 141.114C35.5468 141.594 36.703 142.088 37.9374 142.359C38.0416 142.38 38.1405 142.406 38.2343 142.448C38.3384 142.489 38.4166 142.568 38.3853 142.682C38.3593 142.802 38.2395 142.828 38.1353 142.823C37.3541 142.781 36.5728 142.693 35.8176 142.469C31.9009 141.292 28.4895 139.302 25.7447 136.229C25.677 136.156 25.5884 136.094 25.5103 136.026C25.5103 136.031 25.5051 136.031 25.5051 136.031C25.4582 135.844 25.3645 135.682 25.1926 135.583C25.177 135.443 25.1041 135.344 24.9843 135.281ZM25.1926 135.583C25.1822 135.588 25.1457 135.599 25.1457 135.599L25.1874 135.583C25.1874 135.578 25.1874 135.583 25.1926 135.583ZM46.0832 133.292C46.703 133.995 47.4009 134.489 48.177 134.792C48.2499 134.823 48.3228 134.849 48.4009 134.875C48.4218 134.885 48.4478 134.896 48.4687 134.901C48.4895 134.906 48.5051 134.911 48.5259 134.917C49.0051 135.062 49.5155 135.146 50.0468 135.156C50.1614 135.161 50.2707 135.161 50.3853 135.156C50.4999 135.156 50.6145 135.146 50.7291 135.135C50.8489 135.13 50.9739 135.068 51.0937 135.031C51.203 135.026 51.3124 135.01 51.4218 135C51.7812 134.948 52.1249 134.833 52.4634 134.698C52.5884 134.646 52.7082 134.594 52.8332 134.542C53.0155 134.458 53.1978 134.375 53.3853 134.292C53.9791 134.021 54.552 133.708 55.0728 133.302C55.3228 133.099 55.5364 133.099 55.7395 133.359C55.7395 133.359 55.7447 133.359 55.7499 133.359C55.7551 133.359 55.7603 133.359 55.7603 133.359C54.4687 134.786 52.8801 135.651 50.9947 135.995C50.2707 135.963 49.5416 136.031 48.828 135.818C47.6666 135.474 46.7082 134.849 45.953 133.911C45.802 133.729 45.552 133.515 45.8801 133.265C45.9478 133.276 46.0155 133.281 46.0832 133.292ZM72.6718 137.078C72.7343 137.031 72.7968 136.984 72.8489 136.932C74.1353 135.786 75.0937 134.427 75.4947 132.724C75.5259 132.604 75.5207 132.469 75.5312 132.344C75.6301 131.906 75.5728 131.458 75.5989 131.015C75.6041 130.906 75.6562 130.802 75.7812 130.792C75.9009 130.776 75.9739 130.859 75.9947 130.963C76.0312 131.172 76.0572 131.375 76.0728 131.588C76.2343 133.927 75.3124 135.75 73.4218 137.104C73.078 137.349 72.7812 137.75 72.2655 137.62C72.2916 137.349 72.4843 137.213 72.6718 137.078ZM25.5468 131.547C25.2864 131.917 25.2343 132.417 24.9791 132.828C24.9009 132.953 24.7343 132.885 24.6457 132.781C24.4218 132.521 24.4009 132.219 24.552 131.917C24.6926 131.62 24.9634 131.463 25.2499 131.333C25.4062 131.265 25.4895 131.354 25.5468 131.547ZM26.078 129.333C26.1301 129.422 26.078 129.495 26.0155 129.531C25.5416 129.828 25.1874 130.219 24.9947 130.755C24.9791 130.802 24.8697 130.818 24.8228 130.838C24.6666 130.812 24.6457 130.708 24.6405 130.604C24.6093 130.109 25.328 129.265 25.8176 129.219C25.927 129.208 26.0207 129.229 26.078 129.333ZM87.1197 56.3957C87.2239 58.9894 87.1145 61.5728 86.8749 64.1561C86.8228 64.7186 86.7291 65.2655 86.5103 65.8176C86.2759 66.3853 86.2551 67.0415 86.1562 67.6613C85.2707 72.9061 83.7187 77.9478 81.4062 82.7394C79.8176 86.0259 77.8957 89.1092 75.5103 91.8905C72.5468 95.3592 69.078 98.1874 64.9634 100.182C60.6718 102.26 56.1301 103.213 51.3541 103.088C49.5416 103.036 47.7447 102.875 45.9791 102.474C44.578 102.156 43.2187 101.693 41.8489 101.265C36.5051 99.5884 31.6041 97.0259 27.0937 93.7186C23.5259 91.1144 20.3176 88.1144 17.4426 84.7655C15.0259 81.9634 12.8749 78.9738 11.0103 75.7759C8.43219 71.3488 6.3749 66.6873 4.95824 61.7551C3.64053 57.1873 2.80199 52.5467 2.54678 47.7863C2.24469 41.979 2.83324 36.2759 4.34365 30.6769C5.83844 25.1613 8.23428 20.0623 11.6353 15.4686C14.6562 11.3905 18.2864 7.94776 22.6353 5.29672C23.0416 5.05193 23.4218 4.77589 23.8541 4.58839C24.1353 4.4686 24.2395 4.42693 24.3489 4.54151C24.4114 4.61443 24.4739 4.73943 24.5728 4.94256C24.4999 5.04151 24.4166 5.12485 24.328 5.19776C24.2395 5.27068 24.1405 5.33839 24.0416 5.39568C23.8437 5.52068 23.6353 5.62485 23.4374 5.74985C21.4218 7.05193 19.4999 8.46339 17.6978 10.0623C15.5364 11.9738 13.7187 14.1769 11.9582 16.4373C11.7812 16.6613 11.677 16.9321 11.5416 17.1821C11.3437 17.2967 11.2395 17.4686 11.2134 17.6873C11.1353 17.7186 11.1041 17.7863 11.0884 17.8696C10.7759 18.1769 10.4791 18.4894 10.4009 18.9426C10.3176 18.9686 10.2916 19.0363 10.2864 19.1248C9.60928 20.0623 9.01553 21.0519 8.59886 22.1405C8.05199 22.828 7.80719 23.6665 7.45824 24.453C5.80199 28.1717 4.73428 32.0728 4.05719 36.078C3.79157 37.6717 3.6249 39.2811 3.4999 40.8957C3.26032 43.9582 3.30199 47.0155 3.59365 50.0623C4.02594 54.6248 4.92699 59.1092 6.41136 63.4582C7.40615 66.3748 8.55719 69.2342 9.96865 71.9894C11.2447 74.479 12.6718 76.8801 14.2499 79.1926C15.9062 81.6144 17.7291 83.9061 19.7343 86.0415C21.6562 88.078 23.6978 89.9894 25.9114 91.7186C28.0572 93.3957 30.2916 94.9374 32.6509 96.2967C32.828 96.4061 33.0207 96.4842 33.2134 96.578C33.5884 96.9113 34.0624 97.0624 34.4999 97.2863C34.8072 97.4374 35.1145 97.5988 35.4218 97.7551C35.6509 97.8696 35.8801 97.9842 36.1093 98.0936C36.2812 98.1769 36.453 98.2603 36.6249 98.3384C36.7291 98.3853 36.8384 98.4374 36.9478 98.4842C37.3801 98.6717 37.8176 98.8488 38.2655 98.9999C38.3072 99.0467 38.3593 99.0832 38.4062 99.1196C38.552 99.2134 38.7291 99.2446 38.9062 99.2707C40.0259 99.7394 41.1614 100.151 42.3176 100.51C43.552 100.901 44.8072 101.229 46.0728 101.5C46.4218 101.578 46.7707 101.646 47.1249 101.713C50.1978 102.297 53.2916 102.323 56.3801 101.786C57.8853 101.614 59.3593 101.286 60.7968 100.833C62.1405 100.411 63.4322 99.8488 64.703 99.2342C66.3384 98.4478 67.8749 97.5103 69.3228 96.4478C70.927 95.2759 72.3905 93.9217 73.7447 92.4582C75.6145 90.4374 77.2603 88.2551 78.6718 85.8801C79.9426 83.7394 81.0259 81.5051 81.9687 79.2082C82.9478 76.8123 83.6978 74.3384 84.3489 71.8332C84.9739 69.4582 85.3437 67.0311 85.8801 64.6405C86.1614 63.3748 86.1718 62.0467 86.2395 60.7394C86.3124 59.354 86.3228 57.9686 86.2187 56.5832C86.1457 55.5728 86.2082 54.5467 85.9791 53.5467C85.9895 53.3801 85.9895 53.2186 85.9843 53.0519C85.9791 52.8488 85.953 52.6457 85.927 52.4426C85.8853 52.1561 85.8332 51.8748 85.7655 51.5884C85.7812 51.4478 85.7812 51.3019 85.7707 51.1561C85.7655 51.0936 85.7551 51.0363 85.7499 50.979C85.7499 50.9686 85.7447 50.953 85.7447 50.9426C85.703 50.6613 85.6353 50.3801 85.578 50.104C85.5624 50.0311 85.5468 49.9634 85.5364 49.8957C85.2759 48.328 85.0624 46.7446 84.6509 45.2134C84.0051 42.7759 83.3384 40.3436 82.4218 37.9842C82.203 37.4165 81.9739 36.8592 81.7447 36.2967C81.052 34.6196 80.3072 32.9686 79.4843 31.3488C79.4062 31.0207 79.2134 30.7446 79.0416 30.4634C78.9843 30.3696 78.927 30.2759 78.8801 30.1769C78.0364 28.4113 76.9791 26.7655 75.9114 25.1353C74.7968 23.4373 73.5728 21.8176 72.2707 20.2551C71.1041 18.8488 69.9166 17.4686 68.5364 16.2707C68.3905 16.0988 68.2655 15.9061 68.0937 15.7655C68.0364 15.7134 67.9739 15.6717 67.9009 15.6405C67.3593 15.0728 66.7812 14.5467 66.1874 14.0415C65.5884 13.5415 64.9687 13.0623 64.3541 12.5832C62.6926 11.2811 60.9218 10.1457 59.0832 9.10401C58.5884 8.82797 58.5937 8.82276 58.7968 8.27068C59.0103 8.21339 59.1874 8.26547 59.3645 8.34881C59.4218 8.37485 59.4843 8.4061 59.5416 8.43735C61.7812 9.60922 63.8332 11.0519 65.802 12.6248C68.2603 14.5988 70.4843 16.8123 72.5155 19.2238C74.6457 21.7446 76.5676 24.4217 78.2655 27.2655C80.6041 31.1978 82.4791 35.328 83.9478 39.6561C84.8905 42.4373 85.6457 45.2655 86.1822 48.1457C86.6822 50.8644 87.0051 53.6144 87.1197 56.3957ZM52.828 128.995C52.9322 129.203 53.0103 129.38 53.0051 129.432C52.9791 129.573 52.9166 129.656 52.8072 129.667C52.7655 129.667 52.7239 129.656 52.677 129.64C52.3072 129.51 51.7812 128.703 51.8176 128.323C51.8384 128.078 52.052 127.927 52.2447 128.026C52.2916 128.047 52.4114 128.229 52.5468 128.458C52.578 128.515 52.6145 128.583 52.6457 128.64C52.6874 128.719 52.7291 128.802 52.7707 128.875C52.7916 128.911 52.8124 128.953 52.828 128.995ZM53.2343 124.203C53.1145 124.276 52.9999 124.307 52.8853 124.198C52.677 124.005 52.4739 123.807 52.2655 123.614C52.177 123.536 52.1405 123.443 52.1874 123.338C52.2447 123.203 52.3697 123.156 52.5051 123.167C52.5312 123.167 52.5676 123.177 52.6041 123.198C52.8749 123.328 53.328 123.807 53.3437 124.01C53.3437 124.099 53.3072 124.161 53.2343 124.203ZM53.0468 126.463C53.1509 126.656 53.0259 126.802 52.7707 126.828C52.4426 126.75 52.2239 126.495 51.9895 126.255C51.9218 126.187 51.9426 126.057 52.0103 125.974C52.078 125.885 52.177 125.833 52.2812 125.864C52.6197 125.953 52.8905 126.167 53.0468 126.463Z" fill="#231F20"/>
</g>
<mask id="mask4_194_516" style="mask-type:luminance" maskUnits="userSpaceOnUse" x="69" y="64" width="47" height="82">
<path d="M69.0732 64.6094H115.74V145.943H69.0732V64.6094Z" fill="white"/>
</mask>
<g mask="url(#mask4_194_516)">
<mask id="mask5_194_516" style="mask-type:luminance" maskUnits="userSpaceOnUse" x="68" y="42" width="65" height="103">
<path d="M91.5682 42.5L132.36 52.4948L109.761 144.766L68.9692 134.776L91.5682 42.5Z" fill="white"/>
</mask>
<g mask="url(#mask5_194_516)">
<mask id="mask6_194_516" style="mask-type:luminance" maskUnits="userSpaceOnUse" x="68" y="42" width="65" height="103">
<path d="M91.5682 42.5L132.36 52.4948L109.761 144.766L68.9692 134.776L91.5682 42.5Z" fill="white"/>
</mask>
<g mask="url(#mask6_194_516)">
<mask id="mask7_194_516" style="mask-type:luminance" maskUnits="userSpaceOnUse" x="68" y="61" width="60" height="85">
<path d="M86.8755 61.6821L127.584 71.6561L109.615 145.021L68.9067 135.047L86.8755 61.6821Z" fill="white"/>
</mask>
<g mask="url(#mask7_194_516)">
<path d="M109.75 79.3177C103.323 78.2396 98.6773 77.026 92.594 78.2343C88.7763 88.3489 85.1773 95.1302 80.8961 105.057C78.8544 109.797 76.1044 117.948 74.0107 122.656C72.3753 126.328 70.594 129.109 69.3128 133.385C69.0471 134.276 69.5888 135.214 70.5003 135.437L108.021 144.63C108.948 144.854 109.875 144.25 110.026 143.312C111.115 136.672 110.516 130.224 111.709 121.443C111.974 119.474 112.026 116.641 112.287 113.432C113.25 101.354 114.912 83.7031 114.912 83.7031C114.068 83.0312 110.813 79.5 109.75 79.3177ZM110.797 76.8646L99.4013 74.0729L101.339 66.1562C101.453 65.6979 101.912 65.4218 102.37 65.5312L112.115 67.9166C112.568 68.0312 112.849 68.4896 112.735 68.9479L110.797 76.8646Z" fill="#E5D1BD"/>
</g>
</g>
</g>
</g>
<mask id="mask8_194_516" style="mask-type:luminance" maskUnits="userSpaceOnUse" x="91" y="65" width="25" height="20">
<path d="M91.7397 65.9429H115.74V84.6095H91.7397V65.9429Z" fill="white"/>
</mask>
<g mask="url(#mask8_194_516)">
<mask id="mask9_194_516" style="mask-type:luminance" maskUnits="userSpaceOnUse" x="68" y="42" width="65" height="103">
<path d="M91.5677 42.5L132.359 52.4948L109.76 144.766L68.9688 134.776L91.5677 42.5Z" fill="white"/>
</mask>
<g mask="url(#mask9_194_516)">
<mask id="mask10_194_516" style="mask-type:luminance" maskUnits="userSpaceOnUse" x="68" y="42" width="65" height="103">
<path d="M91.5677 42.5L132.359 52.4948L109.76 144.766L68.9688 134.776L91.5677 42.5Z" fill="white"/>
</mask>
<g mask="url(#mask10_194_516)">
<path d="M102.094 66.9009C101.365 67.1249 100.661 67.3853 100.057 67.8645C99.7396 68.1145 99.2344 68.5363 99.7188 68.854C100.349 69.2759 101.63 68.7759 102.255 68.5728C103.125 68.2915 104 68.0103 104.87 67.7238C105.141 67.6405 105.417 67.5468 105.625 67.354C105.833 67.1665 105.953 66.8436 105.828 66.5936C105.688 66.3072 105.318 66.2238 104.995 66.2238C104 66.2134 103.031 66.604 102.094 66.9009ZM108.417 72.6353C108.047 72.7134 104.099 73.5207 105.141 74.6509C105.604 75.1509 107.198 74.4113 107.75 74.3124C108.755 74.1301 109.776 74.0624 110.786 73.9322C111.656 73.8176 112.563 73.6353 113.219 73.0624C113.375 72.927 113.521 72.7551 113.542 72.5468C113.578 72.229 113.297 71.9426 112.99 71.854C112.677 71.7707 112.344 71.828 112.031 71.8957C110.823 72.1301 109.615 72.3697 108.417 72.6353ZM107.547 69.0259C105.234 69.4113 102.719 69.9165 100.531 70.7863C100.167 70.9322 99.25 71.7238 99.8021 72.1561C100.073 72.3645 100.875 72.1093 101.177 72.0676C101.781 71.9843 102.385 71.8801 102.99 71.7707C104.203 71.5624 105.422 71.354 106.635 71.1197C108.479 70.7655 110.313 70.3645 112.135 69.9061C112.375 69.8488 112.646 69.7655 112.755 69.5415C112.885 69.2811 112.714 68.953 112.464 68.8072C112.214 68.6665 111.906 68.6561 111.615 68.6613C110.25 68.6665 108.891 68.8072 107.547 69.0259ZM111.714 82.3905C105.292 81.3124 99.026 79.2603 92.5938 78.2343L97.6146 74.0259C97.8438 73.8332 98.1458 73.7655 98.4375 73.8384L111.766 77.0988C112.052 77.1718 112.292 77.3749 112.406 77.6509L114.911 83.703C114.068 83.0311 112.776 82.5728 111.714 82.3905Z" fill="#664840"/>
</g>
</g>
</g>
<mask id="mask11_194_516" style="mask-type:luminance" maskUnits="userSpaceOnUse" x="82" y="49" width="46" height="85">
<path d="M82.4062 49.9429H127.74V133.943H82.4062V49.9429Z" fill="white"/>
</mask>
<g mask="url(#mask11_194_516)">
<mask id="mask12_194_516" style="mask-type:luminance" maskUnits="userSpaceOnUse" x="68" y="42" width="65" height="103">
<path d="M91.5677 42.5L132.359 52.4948L109.76 144.766L68.9688 134.776L91.5677 42.5Z" fill="white"/>
</mask>
<g mask="url(#mask12_194_516)">
<mask id="mask13_194_516" style="mask-type:luminance" maskUnits="userSpaceOnUse" x="68" y="42" width="65" height="103">
<path d="M91.5677 42.5L132.359 52.4948L109.76 144.766L68.9688 134.776L91.5677 42.5Z" fill="white"/>
</mask>
<g mask="url(#mask13_194_516)">
<path d="M83.0469 128.781C83.0781 128.896 83.1719 128.985 83.2656 129.063C84.0781 129.719 85.099 130.057 86.1094 130.349C90.3385 131.573 94.7188 132.193 99.0833 132.807C99.8802 132.917 100.885 132.938 101.286 132.24C101.604 131.688 101.318 130.943 100.818 130.542C100.318 130.141 99.6667 130 99.0365 129.865C95.8438 129.193 92.6562 128.526 89.4635 127.854C88.3177 127.615 87.1302 127.214 85.9531 127.375C85.0156 127.505 83.3021 127.745 83.0469 128.781ZM84.9167 121.75C84.6042 121.807 84.2708 121.891 84.0625 122.13C83.7187 122.511 83.8594 123.151 84.224 123.511C84.5833 123.875 85.099 124.031 85.5938 124.172C90.4792 125.557 95.4427 126.641 100.396 127.719C101.307 127.922 102.401 128.068 103.042 127.396C103.714 126.688 103.401 125.443 102.656 124.807C101.917 124.172 100.901 123.985 99.9323 123.823C97.2396 123.36 94.4479 123.063 91.8073 122.349C89.4635 121.719 87.3594 121.354 84.9167 121.75ZM91.9896 95.3543C90.4063 99.0262 89.474 102.974 89.2396 106.964C89.0417 110.302 89.3906 113.839 91.2604 116.62C92.7448 118.828 95.5469 120.458 98.0781 119.615C99.7083 119.068 100.865 117.641 101.813 116.208C106.177 109.62 108.859 99.823 106.615 91.9949C105.708 88.8439 103.401 86.7137 99.9896 87.3595C95.9531 88.1147 93.4844 91.8699 91.9896 95.3543ZM122.943 62.797C122.125 63.0783 120.167 63.0783 119.339 63.9845C118.87 64.4949 118.536 65.1095 118.089 65.646C117.401 66.4637 116.344 66.9689 115.271 66.9949C114.052 67.021 112.781 66.4845 111.641 66.7553C111.193 67.0314 110.938 67.198 110.839 67.6095L104.047 65.9428C104.083 65.6512 104.13 65.3439 104.177 65.021C104.505 62.6824 102.979 60.4324 102.839 58.1199C102.682 55.5574 104.24 52.9793 106.589 51.9168C107.344 51.5783 108.177 51.3855 109 51.4689C110.359 51.5991 111.573 52.4533 112.932 52.5783C114.953 52.7658 116.719 51.3439 118.625 50.6668C120.24 50.0939 122.068 49.9637 123.677 50.5626C125.969 51.4168 127.083 53.2553 127.297 54.4845C127.88 57.8491 126.182 61.6772 122.943 62.797Z" fill="#B27560"/>
</g>
</g>
</g>
<mask id="mask14_194_516" style="mask-type:luminance" maskUnits="userSpaceOnUse" x="102" y="51" width="25" height="50">
<path d="M102.406 51.2759H126.406V100.609H102.406V51.2759Z" fill="white"/>
</mask>
<g mask="url(#mask14_194_516)">
<mask id="mask15_194_516" style="mask-type:luminance" maskUnits="userSpaceOnUse" x="68" y="42" width="65" height="103">
<path d="M91.5677 42.5L132.359 52.4948L109.76 144.766L68.9688 134.776L91.5677 42.5Z" fill="white"/>
</mask>
<g mask="url(#mask15_194_516)">
<mask id="mask16_194_516" style="mask-type:luminance" maskUnits="userSpaceOnUse" x="68" y="42" width="65" height="103">
<path d="M91.5677 42.5L132.359 52.4948L109.76 144.766L68.9688 134.776L91.5677 42.5Z" fill="white"/>
</mask>
<g mask="url(#mask16_194_516)">
<path d="M104.609 99.9374C104.651 99.9478 104.693 99.9582 104.734 99.9686C104.948 100.021 105.193 99.979 105.38 99.8644C105.562 99.7551 105.729 99.5467 105.766 99.3384C105.812 99.1196 105.797 98.8801 105.667 98.6926C105.542 98.4999 105.365 98.3592 105.141 98.3019C105.099 98.2915 105.057 98.2811 105.016 98.2759C104.807 98.2186 104.557 98.2603 104.37 98.3749C104.193 98.479 104.026 98.6926 103.984 98.9009C103.943 99.1196 103.958 99.3592 104.083 99.5467C104.208 99.7394 104.385 99.8801 104.609 99.9374ZM103.214 93.5051C103.693 94.3592 103.969 95.2915 104.036 96.2707C104.109 97.3696 105.823 97.328 105.75 96.2238C105.661 94.9426 105.302 93.7342 104.677 92.6144C104.135 91.6509 102.672 92.5415 103.214 93.5051ZM110.635 92.4321C110.562 93.0728 110.578 93.6561 110.682 94.2915C110.755 94.7342 111.349 95.0051 111.745 94.8696C112.229 94.703 112.401 94.2811 112.323 93.8019C112.333 93.8488 112.307 93.6249 112.307 93.6249C112.297 93.5207 112.292 93.4217 112.286 93.3176C112.286 93.2186 112.286 93.1144 112.292 93.0155C112.292 92.9946 112.307 92.7499 112.297 92.8384C112.349 92.3957 112.167 91.9009 111.672 91.8071C111.26 91.7238 110.687 91.9582 110.635 92.4321ZM109.818 79.854C110.958 82.4374 111.458 85.2499 111.146 88.0676C111.026 89.1457 112.687 89.5676 112.807 88.4738C113.156 85.3488 112.734 82.2499 111.458 79.3644C111.016 78.3696 109.37 78.8436 109.818 79.854ZM110.927 55.7186C111.026 55.7499 110.974 55.7446 110.911 55.7082C110.953 55.7342 110.995 55.7551 111.036 55.7759C111.115 55.8176 111.099 55.8124 111.036 55.7603C111.083 55.7967 111.125 55.8384 111.167 55.8801C111.182 55.8905 111.281 56.0051 111.219 55.9269C111.151 55.8488 111.24 55.9686 111.25 55.9842C111.276 56.0207 111.297 56.0624 111.323 56.104C111.38 56.2082 111.26 55.9321 111.328 56.1353C111.469 56.5571 111.943 56.8644 112.391 56.7082C112.818 56.5624 113.12 56.0988 112.969 55.6457C112.708 54.8644 112.115 54.3071 111.333 54.0571C110.906 53.9217 110.385 54.2498 110.297 54.6821C110.203 55.1665 110.469 55.5728 110.927 55.7186ZM123.792 58.2603C123.62 58.4999 123.505 58.7863 123.437 59.0676C123.328 59.5051 123.609 60.0155 124.062 60.104C124.521 60.1978 124.984 59.9426 125.099 59.479C125.12 59.4009 125.141 59.328 125.167 59.2499C125.141 59.3228 125.115 59.3957 125.083 59.4634C125.141 59.3332 125.208 59.2082 125.286 59.0936C125.411 58.9217 125.417 58.6248 125.359 58.4321C125.302 58.2342 125.146 58.0207 124.958 57.9269C124.755 57.828 124.516 57.7811 124.297 57.854C124.073 57.9321 123.927 58.0676 123.792 58.2603ZM121.693 53.1769C120.604 53.0051 121.021 51.3436 122.099 51.5103C123.901 51.7915 125.417 53.2342 125.76 55.0259C125.964 56.104 124.323 56.5936 124.115 55.5155C123.875 54.2551 122.964 53.3696 121.693 53.1769Z" fill="white"/>
</g>
</g>
</g>
</svg>
