<svg width="160" height="125" viewBox="0 0 160 125" fill="none" xmlns="http://www.w3.org/2000/svg">
<mask id="mask0_202_2376" style="mask-type:luminance" maskUnits="userSpaceOnUse" x="0" y="30" width="83" height="80">
<path d="M0 30.5625H83V109.229H0V30.5625Z" fill="white"/>
</mask>
<g mask="url(#mask0_202_2376)">
<path d="M0.614662 109.089C0.296952 109.089 0.0365363 108.834 0.0313283 108.516C0.026119 108.193 0.281329 107.927 0.604245 107.917C2.30216 107.886 3.72404 106.521 5.68758 104.636C8.40112 102.037 12.1147 98.4742 19.1147 95.745C26.3595 92.9169 30.2657 95.0262 35.2032 97.6929C38.8022 99.6356 42.8803 101.839 49.2865 102.641C57.1667 103.625 65.9897 100.948 72.8855 95.4846C77.7188 91.6512 80.7553 87.0315 81.2084 82.7971C82.073 74.6617 77.6667 61.8544 74.448 52.5002C72.2813 46.2085 70.7136 41.6617 71.0105 39.7398C71.7605 34.8283 78.2292 31.7085 78.5053 31.5783C78.797 31.4377 79.1459 31.5627 79.2813 31.8544C79.422 32.146 79.297 32.495 79.0053 32.6356C78.9272 32.6721 72.823 35.6252 72.1667 39.9169C71.9115 41.5523 73.599 46.4481 75.5522 52.12C78.8074 61.5783 83.2657 74.5315 82.3699 82.9221C81.8855 87.4637 78.6928 92.3752 73.6095 96.4012C67.4532 101.281 59.8022 104.011 52.5574 104.011C51.4063 104.011 50.2657 103.938 49.1407 103.797C42.5157 102.969 38.3386 100.714 34.6511 98.7242C29.7917 96.0992 26.2813 94.2033 19.5417 96.8335C12.7605 99.4794 9.1407 102.948 6.50008 105.479C4.33862 107.552 2.78133 109.047 0.625078 109.089C0.61987 109.089 0.61987 109.089 0.614662 109.089Z" fill="#344973"/>
</g>
<path d="M69.271 43.521C69.271 43.521 70.3231 41.2293 71.8804 38.6668C72.3179 37.9533 72.7918 37.3908 73.2502 36.9533C73.7189 36.8491 75.0002 36.7345 75.5054 38.5158C76.0522 40.4429 73.1408 42.6408 72.1564 45.5835C72.021 45.9897 71.922 46.4116 71.87 46.8491C71.8647 46.9272 71.9741 49.1043 71.9689 49.1929L67.8179 46.6772L69.271 43.521Z" fill="#FFA27D"/>
<path d="M71.5887 44.4846C71.5574 44.1565 74.1251 40.219 74.6407 39.5523C74.9845 39.1096 75.3074 39.193 75.5314 39.443C75.2032 41.0888 73.1407 42.9586 72.2501 45.3232C72.0001 45.0992 71.6095 44.7138 71.5887 44.4846Z" fill="#FFC3AE"/>
<mask id="mask1_202_2376" style="mask-type:luminance" maskUnits="userSpaceOnUse" x="37" y="30" width="39" height="95">
<path d="M37.667 30.5625H75.0003V124.677H37.667V30.5625Z" fill="white"/>
</mask>
<g mask="url(#mask1_202_2376)">
<path d="M46.938 121.427C44.2193 120.802 42.9536 119.349 43.0109 118.026C43.0682 116.703 48.3182 91.2291 48.4068 86.2395C48.4953 81.2499 45.2922 77.177 43.8755 75.2083C42.4588 73.2447 38.4588 63.7499 38.589 62.1353C38.714 60.5208 41.4588 56.7447 43.2818 55.4791C45.0995 54.2083 47.7193 52.1978 47.7193 52.1978C47.7193 52.1978 49.089 50.1978 50.1776 49.3072C50.1776 49.3072 52.5422 44.1405 54.214 43.1666C55.8911 42.1926 58.3963 43.1197 58.3963 43.1197C58.3963 43.1197 62.9484 36.6822 63.9693 36.0103C64.9849 35.3333 67.2505 34.427 68.7765 32.9426C70.2974 31.4583 72.9328 30.9843 73.688 32.8853C74.4484 34.7864 73.0786 36.9999 73.0786 36.9999C73.0786 36.9999 73.1411 36.9791 73.2505 36.953C72.7922 37.3905 72.3182 37.953 71.8807 38.6666C70.3234 41.2291 69.2713 43.5208 69.2713 43.5208L67.8182 46.677L71.9693 49.1926C71.6724 53.0051 73.3651 61.1093 73.6724 62.9739C73.9901 64.8801 72.5161 76.9322 72.1776 79.4322C71.839 81.927 69.5265 84.7447 69.3443 88.2708C69.1672 91.7916 68.438 123.203 68.2297 123.943C68.0161 124.677 49.662 122.057 46.938 121.427Z" fill="#FFA27D"/>
</g>
<path d="M58.7503 43.37C58.8076 43.2971 58.8337 43.2085 58.8337 43.1148C58.8337 42.9741 58.7607 42.8439 58.6514 42.7658C58.542 42.6877 58.4066 42.6616 58.2764 42.7033C58.1826 42.7293 58.0993 42.7866 58.0472 42.8648C57.7607 43.2658 57.1253 45.3491 55.891 49.5835C55.7712 49.9793 55.6618 50.3596 55.5576 50.7137C54.7764 53.3752 51.9743 61.3283 51.9482 61.4116C51.9118 61.521 51.917 61.6356 51.9639 61.7398C52.016 61.8439 52.1045 61.9273 52.2139 61.9637C52.2972 61.995 52.391 61.995 52.4795 61.9689C52.6149 61.9325 52.7191 61.8283 52.766 61.6981C52.7972 61.62 55.6045 53.6408 56.391 50.9585C56.4951 50.6096 56.6045 50.2293 56.7191 49.8387L56.7243 49.8231C57.3441 47.6929 58.5055 43.7189 58.7503 43.37Z" fill="#E06655"/>
<path d="M50.5833 49.453C50.6041 49.4062 50.6145 49.3541 50.6145 49.302C50.6093 49.1197 50.4948 48.9582 50.3281 48.8957C50.2395 48.8645 50.1458 48.8593 50.0573 48.8853C49.927 48.927 49.8177 49.026 49.7708 49.1562C49.7395 49.2343 46.8854 57.0103 46.3541 58.4426C46.1406 59.0207 45.5625 59.8905 44.9531 60.8072C44.1093 62.0832 43.2343 63.401 42.9479 64.4635C42.4218 66.4114 43.3437 67.6457 43.3854 67.6978C43.4948 67.8385 43.677 67.901 43.8489 67.8489C43.901 67.8332 43.9531 67.8124 43.9948 67.776C44.1823 67.6301 44.2187 67.3593 44.0781 67.1718C44.0468 67.1301 43.375 66.2187 43.7864 64.6874C44.0364 63.7603 44.9062 62.4478 45.677 61.2916C46.3177 60.328 46.9218 59.4166 47.1718 58.7447C47.6718 57.3905 50.2864 50.276 50.5781 49.4687L50.5833 49.453Z" fill="#E06655"/>
<path d="M41.7813 61.3649C43.3594 59.5785 45.3959 56.9274 46.0574 55.7972C46.6928 54.7139 48.073 52.443 48.0886 52.4222C48.1303 52.3545 48.1511 52.2712 48.1511 52.193C48.1511 52.042 48.073 51.9014 47.9428 51.8232C47.8386 51.7607 47.7136 51.7451 47.5938 51.7764C47.4897 51.8076 47.4011 51.8753 47.3438 51.9691C47.3334 51.9899 45.9428 54.266 45.3074 55.3597C44.6719 56.4482 42.6772 59.0368 41.1303 60.7868C39.4063 62.7295 40.0105 64.6618 40.0365 64.7451C40.1094 64.9691 40.3438 65.0941 40.573 65.0264L40.5834 65.0212C40.8126 64.9482 40.9376 64.7035 40.8647 64.4743C40.8438 64.417 40.3907 62.9274 41.7813 61.3649Z" fill="#E06655"/>
<path d="M73.3336 36.6513C73.2243 36.5732 73.0836 36.5471 72.9586 36.5836C72.8649 36.6149 72.7816 36.6721 72.7243 36.7503L70.4534 39.9117L70.443 39.9274L70.4378 39.943L70.4274 39.969L65.5264 50.6305L65.5107 50.6565V50.6878L65.5055 50.7294C65.5003 50.7555 65.2555 53.2555 64.7972 54.9638C64.318 56.7451 63.5055 64.8284 63.4743 65.1721C63.4586 65.2867 63.4951 65.4013 63.568 65.4899C63.6409 65.5836 63.7451 65.6357 63.8597 65.6513C63.917 65.6565 63.9743 65.6513 64.0264 65.6357C64.1982 65.5836 64.318 65.4378 64.3389 65.2607C64.3441 65.1774 65.1722 56.9065 65.6357 55.1878C66.0732 53.5628 66.3128 51.3857 66.3597 50.8909L71.1982 40.3701L73.4326 37.2555C73.4847 37.1826 73.5159 37.094 73.5107 37.0003C73.5107 36.8596 73.443 36.7294 73.3336 36.6513Z" fill="#E06655"/>
<path d="M68.3023 34.8177C68.693 35.4375 69.8753 36.0104 70.4221 35.7864C70.969 35.5572 73.2971 33.9166 73.0315 33.2604C72.7711 32.6041 71.4638 32.0312 70.6201 32.1145C69.7763 32.1979 67.9065 34.2031 68.3023 34.8177Z" fill="#FFC3AE"/>
<path d="M80.8439 58.2448C80.896 58.6823 80.8648 59.1146 80.745 59.5417C80.6252 59.9688 80.4325 60.3542 80.1564 60.7031C79.8856 61.0521 79.5575 61.3385 79.172 61.5573C78.7866 61.7708 78.3752 61.9115 77.9325 61.9635C77.495 62.0156 77.0627 61.9844 76.6356 61.8646C76.2085 61.75 75.8231 61.5521 75.4741 61.2813C75.1252 61.0052 74.8387 60.6771 74.6252 60.2917C74.4064 59.9063 74.271 59.4948 74.2137 59.0573C74.1616 58.6146 74.1929 58.1823 74.3127 57.7552C74.4325 57.3281 74.6252 56.9427 74.896 56.5938C75.172 56.2448 75.5002 55.9635 75.8856 55.7448C76.271 55.526 76.6825 55.3906 77.12 55.3333C77.5627 55.2813 77.995 55.3125 78.422 55.4323C78.8491 55.5521 79.2345 55.7448 79.5835 56.0208C79.9325 56.2917 80.2189 56.6198 80.4325 57.0052C80.6512 57.3906 80.7866 57.8021 80.8439 58.2448Z" fill="#A05858"/>
<path d="M76.5471 87.4116L79.1513 86.9845C79.8908 86.8647 80.6304 87.2293 80.9846 87.8908L82.2033 90.1668C82.7606 91.2033 82.1565 92.4897 81.0002 92.7241L78.3804 93.2553C77.6044 93.4116 76.8179 93.0314 76.4585 92.323L75.2554 89.9428C74.7242 88.8803 75.37 87.6043 76.5471 87.4116Z" fill="#FFE7D2"/>
<path d="M75.5364 63.4482L77.2916 61.4742C77.7969 60.9169 78.5989 60.7347 79.2916 61.0263L81.6666 62.0263C82.7552 62.4847 83.0937 63.8597 82.3437 64.7711L80.6354 66.8336C80.1302 67.443 79.2812 67.6409 78.5573 67.318L76.125 66.2242C75.0416 65.7347 74.7448 64.3336 75.5364 63.4482Z" fill="#FFE7D2"/>
<path d="M82.599 79.3282C83.1719 79.4219 83.7032 79.6198 84.198 79.9271C84.6928 80.2292 85.1094 80.6146 85.448 81.0886C85.7865 81.5573 86.0261 82.073 86.1615 82.6407C86.2917 83.2032 86.3126 83.7709 86.2188 84.3438C86.1303 84.9167 85.9324 85.4532 85.6251 85.9428C85.323 86.4375 84.9324 86.8542 84.4636 87.198C83.9949 87.5365 83.474 87.7709 82.9115 87.9063C82.349 88.0417 81.7813 88.0625 81.2084 87.9688C80.6355 87.875 80.099 87.6771 79.6042 87.375C79.1147 87.0678 78.698 86.6823 78.3542 86.2136C78.0157 85.7396 77.7813 85.224 77.6459 84.6615C77.5105 84.0938 77.4897 83.5261 77.5834 82.9532C77.6772 82.3803 77.8751 81.849 78.1772 81.3542C78.4844 80.8594 78.8699 80.4428 79.3386 80.1042C79.8126 79.7657 80.3282 79.5261 80.8907 79.3907C81.4584 79.2605 82.0261 79.2396 82.599 79.3282Z" fill="#A05858"/>
<path d="M83.4064 70.2816C83.8231 72.7035 82.9012 74.8806 81.3439 75.1514C79.7814 75.4222 78.1772 73.6827 77.7606 71.2608C77.3387 68.8441 78.2658 66.6618 79.8231 66.391C81.3804 66.1202 82.9845 67.865 83.4064 70.2816Z" fill="#D48B74"/>
<path d="M81.7659 74.641C82.1096 74.7035 82.4273 74.8233 82.719 75.0108C83.0159 75.1983 83.2607 75.4326 83.4586 75.7139C83.6617 76.0004 83.7971 76.3129 83.8752 76.6514C83.9482 76.9899 83.9586 77.3285 83.9013 77.6722C83.8388 78.0108 83.719 78.3285 83.5315 78.6254C83.344 78.917 83.1096 79.1618 82.8232 79.3649C82.5419 79.5629 82.2294 79.7035 81.8909 79.7764C81.5523 79.8545 81.2138 79.8597 80.87 79.8024C80.5263 79.7399 80.2086 79.6201 79.9169 79.4326C79.6252 79.2451 79.3752 79.0108 79.1773 78.7295C78.9794 78.4431 78.8388 78.1306 78.7659 77.792C78.6877 77.4535 78.6773 77.1149 78.7398 76.7712C78.7971 76.4326 78.9221 76.1149 79.1096 75.8181C79.2919 75.5264 79.5263 75.2816 79.8127 75.0785C80.094 74.8806 80.4065 74.7399 80.745 74.667C81.0836 74.5889 81.4273 74.5837 81.7659 74.641Z" fill="#EAC1A2"/>
<path d="M88.1617 30.4063L87.4951 29.2761C86.9742 28.3907 85.8284 28.0938 84.943 28.6147C84.0628 29.1355 83.7659 30.2865 84.2867 31.1667L84.9534 32.297C85.4742 33.1824 86.6253 33.474 87.5055 32.9584C88.3909 32.4376 88.6826 31.2865 88.1617 30.4063Z" fill="#BF755A"/>
<mask id="mask2_202_2376" style="mask-type:luminance" maskUnits="userSpaceOnUse" x="83" y="17" width="77" height="74">
<path d="M83 17.2295H160V90.5628H83V17.2295Z" fill="white"/>
</mask>
<g mask="url(#mask2_202_2376)">
<path d="M133.682 59.365C133.682 59.365 130.922 56.0421 130.625 55.2088C130.333 54.3807 127.245 41.6932 126.615 38.7557C125.99 35.8182 126.479 31.6775 123.766 29.4015C121.057 27.1202 111.266 20.8807 109.261 19.99C107.25 19.1046 106.422 18.214 104.75 18.6463C103.078 19.0734 96.6303 20.9692 94.323 21.615C92.0105 22.2609 91.7605 23.6567 89.3647 24.9015C86.9689 26.1411 83.9376 26.813 85.8439 28.9275C87.7553 31.0369 91.1251 30.5057 93.3959 29.7661C95.6668 29.0265 96.922 27.4796 96.922 27.4796C96.922 27.4796 103.052 27.7452 104.266 26.8911C104.266 26.8911 109.875 30.5786 111.281 32.5682C112.688 34.5525 113.537 37.3442 113.344 38.214C113.151 39.0786 107.151 43.1984 106.521 43.5786C105.896 43.964 97.5886 39.9015 97.297 39.0734C97.0001 38.24 92.8959 32.9588 89.7345 31.5994C86.573 30.2452 82.5939 32.0994 83.5209 34.2921C84.448 36.49 87.2397 38.9588 88.6303 41.5682C90.0209 44.1827 89.7032 45.9484 93.4064 47.9171C97.1095 49.8859 102.818 54.1619 104.292 56.2557C105.766 58.3494 106.188 62.3859 112.031 66.4848C117.875 70.5786 122.583 72.7921 124.708 74.7557C126.833 76.7192 135.854 89.8859 137.797 89.5682C139.74 89.2452 156.781 82.6827 158.38 80.089C159.979 77.5005 159.094 77.1463 157.875 75.865C156.656 74.5838 133.682 59.365 133.682 59.365Z" fill="#FFA27D"/>
</g>
<path d="M125.151 32.615C125.151 32.615 124.87 29.4014 124 27.7816C123.125 26.167 118 16.3129 117.266 14.7556C116.526 13.1931 115.219 11.0889 111.401 9.33892C107.584 7.58371 106.167 6.27642 103.917 4.94829C101.667 3.61496 98.568 2.94829 96.3389 1.30767C94.1045 -0.327751 92.4118 2.94829 93.792 5.66183C95.167 8.37537 102.631 11.0004 102.631 11.0004C102.631 11.0004 104.047 13.0993 106.261 14.5212C108.474 15.9379 109.615 15.8493 110.042 16.615C110.469 17.3754 111.094 23.5212 112.469 25.0733C113.839 26.6306 125.151 32.615 125.151 32.615Z" fill="#FFA27D"/>
<path d="M123.037 27.5522C123.037 27.5522 121.755 20.8283 121.255 19.2033C120.75 17.5835 120.578 14.8804 119.813 13.7866C119.047 12.6877 113.11 7.97411 111.755 6.37515C110.401 4.77619 106.24 0.359528 104.792 0.0418197C103.344 -0.281096 102.667 1.39078 102.401 3.02619C102.193 4.30745 102.266 5.12515 104.032 6.62515C105.792 8.12515 110.391 11.7137 110.391 11.7137C110.391 11.7137 116.49 21.4897 117.792 22.9637C119.089 24.4324 123.037 27.5522 123.037 27.5522Z" fill="#FFA27D"/>
<path d="M117.031 11.8178C117.031 11.8178 115.255 8.26055 114.719 6.99492C114.177 5.72409 112.615 6.24492 112.38 6.52097C112.151 6.80222 111.401 7.65117 111.776 8.41159C112.156 9.17201 114.078 11.047 117.031 11.8178Z" fill="#FFA27D"/>
<path d="M87.2607 34.1148C86.12 33.1357 85.8492 31.9638 84.6877 32.4794C84.1409 32.7242 83.7034 33.1617 83.3909 33.5836C83.3805 33.8128 83.4169 34.0523 83.5211 34.2919C84.1669 35.8232 85.719 37.4846 87.0732 39.2398C87.6513 38.8544 88.6305 38.1721 89.1252 37.6044C89.8544 36.7763 88.4065 35.0888 87.2607 34.1148Z" fill="#FFCAB3"/>
<path d="M85.3491 27.2813C85.5939 28.0729 86.4012 28.2656 86.9585 27.7969C87.5522 27.3021 89.4793 26.7604 90.271 25.7135C90.7658 25.0573 90.6877 24.4844 90.5627 24.1562C90.2241 24.4063 89.8387 24.6562 89.3647 24.901C87.7345 25.7448 85.8075 26.3281 85.3491 27.2813Z" fill="#FFCAB3"/>
<path d="M98.6354 3.89087C99.3333 3.969 100.057 3.62524 100.474 3.38566C99.0208 2.80233 97.5521 2.19816 96.3385 1.30754C95.5417 0.724204 94.8125 0.765871 94.2656 1.18775C94.349 1.52629 94.5937 1.9117 94.8594 2.37004C95.3385 3.19295 97.5729 3.78149 98.6354 3.89087Z" fill="#FFCAB3"/>
<path d="M103.797 1.13542C103.813 1.48437 104.651 2.34896 106.813 3.11979C108.016 3.54687 108.761 3.61458 109.183 3.59375C107.542 1.93229 105.672 0.234375 104.792 0.0416667C104.688 0.0156253 104.584 0.005208 104.485 0C104.573 0.515625 103.781 0.838541 103.797 1.13542Z" fill="#FFCAB3"/>
<path d="M124.99 30.969C124.87 31.0159 124.729 30.9794 124.646 30.87C124.641 30.8648 124.021 30.0523 123.563 29.6148C123.12 29.193 117.995 25.6669 117.432 25.2971C116.959 24.9846 110.896 21.2502 110.834 21.2086C110.693 21.1252 110.651 20.9429 110.735 20.8023C110.823 20.6617 111.005 20.62 111.146 20.7086C111.396 20.8596 117.276 24.4846 117.761 24.8023C118.167 25.068 123.459 28.6982 123.969 29.1825C124.464 29.6565 125.089 30.4742 125.12 30.5107C125.219 30.6409 125.193 30.8284 125.063 30.9273C125.037 30.9429 125.016 30.9586 124.99 30.969Z" fill="#E06655"/>
<path d="M122.651 25.2971C122.51 25.3492 122.349 25.2919 122.281 25.1564C121.927 24.4846 120.792 22.0835 119.786 19.9585C119.13 18.5783 118.516 17.2762 118.193 16.6148C117.578 15.3544 116.604 13.9273 115.214 12.2554C114.396 11.2762 110.922 9.34395 109.865 8.92207C108.797 8.49499 107.307 7.52624 106.302 6.75019C105.302 5.97415 102.229 4.43249 102.198 4.41686C102.052 4.34395 101.995 4.16165 102.068 4.01582C102.141 3.86999 102.318 3.81269 102.469 3.88561C102.594 3.94811 105.62 5.47415 106.661 6.28144C107.604 7.0054 109.073 7.96895 110.083 8.36999C111.047 8.7554 114.74 10.7606 115.667 11.8804C117.089 13.5835 118.089 15.0471 118.724 16.3544C119.047 17.0158 119.667 18.3231 120.323 19.7085C121.323 21.8231 122.458 24.2189 122.807 24.8856C122.88 25.0262 122.823 25.2085 122.682 25.2814C122.672 25.2867 122.661 25.2919 122.651 25.2971Z" fill="#E06655"/>
<path d="M116.563 10.9327C116.464 10.9743 116.344 10.9587 116.255 10.8806L111.807 6.87016C111.682 6.76079 111.672 6.57328 111.781 6.45349C111.896 6.32849 112.084 6.31808 112.203 6.42745L116.656 10.4379C116.776 10.5472 116.787 10.7347 116.677 10.8545C116.646 10.891 116.604 10.917 116.563 10.9327Z" fill="#E06655"/>
<path d="M112.974 39.1095C112.844 39.1615 112.688 39.1147 112.615 38.9897C112.526 38.849 112.573 38.6667 112.714 38.5834L116.302 36.4063C116.443 36.3178 116.625 36.3647 116.714 36.5053C116.797 36.6459 116.75 36.8282 116.61 36.9115L113.021 39.0886C113.005 39.099 112.99 39.1042 112.974 39.1095Z" fill="#E06655"/>
<path d="M112.235 43.1722C112.214 43.1826 112.188 43.1878 112.162 43.193L106.558 43.8753C106.396 43.8962 106.245 43.7764 106.229 43.6149C106.209 43.4535 106.323 43.3076 106.485 43.2868L112.089 42.6045C112.25 42.5837 112.401 42.6982 112.422 42.8649C112.438 43.0003 112.354 43.1253 112.235 43.1722Z" fill="#E06655"/>
<path d="M37.5106 75.391C37.5106 76.3597 37.4168 77.318 37.2293 78.266C37.0366 79.2139 36.7606 80.1357 36.3908 81.0316C36.0158 81.9222 35.5627 82.7712 35.0262 83.5785C34.4897 84.3805 33.8804 85.1253 33.1929 85.8076C32.5106 86.4951 31.7658 87.1045 30.9585 87.641C30.1564 88.1826 29.3075 88.6357 28.4116 89.0055C27.521 89.3753 26.5991 89.6566 25.646 89.8441C24.6981 90.0316 23.7397 90.1253 22.771 90.1253C21.8075 90.1253 20.8491 90.0316 19.896 89.8441C18.9481 89.6566 18.0262 89.3753 17.1356 89.0055C16.2397 88.6357 15.3908 88.1826 14.5887 87.641C13.7814 87.1045 13.0366 86.4951 12.3543 85.8076C11.6668 85.1253 11.0575 84.3805 10.521 83.5785C9.98454 82.7712 9.5262 81.9222 9.15641 81.0316C8.78662 80.1357 8.51058 79.2139 8.31787 78.266C8.13037 77.318 8.03662 76.3597 8.03662 75.391C8.03662 74.4222 8.13037 73.4639 8.31787 72.516C8.51058 71.568 8.78662 70.6462 9.15641 69.7503C9.5262 68.8545 9.98454 68.0055 10.521 67.2035C11.0575 66.3962 11.6668 65.6514 12.3543 64.9691C13.0366 64.2868 13.7814 63.6722 14.5887 63.1357C15.3908 62.5993 16.2397 62.1462 17.1356 61.7764C18.0262 61.4066 18.9481 61.1253 19.896 60.9378C20.8491 60.7451 21.8075 60.6514 22.771 60.6514C23.7397 60.6514 24.6981 60.7451 25.646 60.9378C26.5991 61.1253 27.521 61.4066 28.4116 61.7764C29.3075 62.1462 30.1564 62.5993 30.9585 63.1357C31.7658 63.6722 32.5106 64.2868 33.1929 64.9691C33.8804 65.6514 34.4897 66.3962 35.0262 67.2035C35.5627 68.0055 36.0158 68.8545 36.3908 69.7503C36.7606 70.6462 37.0366 71.568 37.2293 72.516C37.4168 73.4639 37.5106 74.4222 37.5106 75.391Z" fill="#436BAA"/>
<path d="M35.5577 70.5053C35.8754 71.3438 36.1097 72.2084 36.2608 73.0938C36.4118 73.9792 36.4743 74.8698 36.4535 75.7709C36.4275 76.6667 36.3129 77.5521 36.115 78.4323C35.9118 79.3073 35.6306 80.1563 35.266 80.974C34.8962 81.7969 34.4535 82.573 33.9327 83.3021C33.4118 84.0365 32.8285 84.7136 32.1775 85.3282C31.5212 85.948 30.8129 86.4948 30.0525 86.974C29.292 87.448 28.4952 87.849 27.6566 88.1719C26.8129 88.4896 25.9535 88.724 25.0681 88.875C24.1827 89.0261 23.2868 89.0886 22.391 89.0678C21.4952 89.0417 20.6045 88.9271 19.7295 88.7292C18.8545 88.5261 18.0056 88.2448 17.1879 87.8803C16.365 87.5105 15.5889 87.0678 14.8545 86.5469C14.1254 86.0261 13.4483 85.4428 12.8337 84.7917C12.2139 84.1355 11.667 83.4271 11.1879 82.6667C10.7087 81.9063 10.3129 81.1094 9.98996 80.2709C9.66704 79.4271 9.43266 78.5678 9.28162 77.6823C9.13058 76.7969 9.06808 75.9011 9.09412 75.0053C9.12017 74.1094 9.23475 73.2188 9.43267 72.3438C9.63058 71.4688 9.91704 70.6198 10.2816 69.8021C10.6514 68.9792 11.0941 68.2032 11.6097 67.4688C12.1306 66.7396 12.7191 66.0625 13.3702 65.4428C14.0264 64.8282 14.7295 64.2813 15.49 63.8021C16.2504 63.323 17.0525 62.9271 17.891 62.6042C18.7295 62.2813 19.5941 62.0469 20.4795 61.8959C21.365 61.7448 22.2556 61.6823 23.1566 61.7084C24.0525 61.7344 24.9379 61.849 25.8181 62.0469C26.6931 62.2448 27.542 62.5313 28.3597 62.8959C29.1827 63.2657 29.9587 63.7084 30.6879 64.224C31.4222 64.7448 32.0993 65.3334 32.7139 65.9844C33.3337 66.6407 33.8806 67.3438 34.3597 68.1042C34.8337 68.8646 35.2347 69.6667 35.5577 70.5053Z" fill="#344973"/>
<path d="M10.318 76.4585C10.318 68.9012 16.443 62.7762 24.0003 62.7762C27.1462 62.7762 30.0368 63.8335 32.3493 65.6147C29.8805 63.1981 26.5003 61.7085 22.7712 61.7085C15.2139 61.7085 9.08887 67.8335 9.08887 75.3908C9.08887 79.8022 11.1826 83.7293 14.4274 86.2345C11.891 83.7502 10.318 80.2866 10.318 76.4585Z" fill="#283A56"/>
<path d="M23.1719 84.0316C23.1719 85.7035 21.8177 87.0576 20.151 87.0576C18.4792 87.0576 17.125 85.7035 17.125 84.0316C17.125 82.3649 18.4792 81.0107 20.151 81.0107C21.8177 81.0107 23.1719 82.3649 23.1719 84.0316Z" fill="#D48B74"/>
<path d="M28.1617 66.4219C28.3127 66.7969 28.3909 67.1823 28.3857 67.5833C28.3857 67.9844 28.3075 68.3698 28.1513 68.7396C28.0002 69.1094 27.7763 69.4323 27.495 69.7135C27.2086 70 26.8805 70.2135 26.5107 70.3698C26.1409 70.5208 25.7555 70.5938 25.3544 70.5938C24.9534 70.5938 24.568 70.5156 24.1982 70.3594C23.8284 70.2031 23.5002 69.9844 23.219 69.6979C22.9377 69.4167 22.719 69.0885 22.568 68.7188C22.4169 68.3438 22.3388 67.9583 22.344 67.5573C22.344 67.1562 22.4221 66.7708 22.5784 66.401C22.7294 66.0365 22.9482 65.7083 23.2346 65.4271C23.5211 65.1406 23.8492 64.9271 24.219 64.776C24.5888 64.6198 24.9742 64.5469 25.3752 64.5469C25.7763 64.5521 26.1617 64.6302 26.5315 64.7813C26.9013 64.9375 27.2294 65.1562 27.5107 65.4427C27.7919 65.724 28.0107 66.0521 28.1617 66.4219Z" fill="#D48B74"/>
<path d="M23.6719 67.5732C23.6719 68.0264 23.4479 68.4014 23.1719 68.4014C22.8958 68.4014 22.6719 68.0264 22.6719 67.5732C22.6719 67.1149 22.8958 66.7451 23.1719 66.7451C23.4479 66.7451 23.6719 67.1149 23.6719 67.5732Z" fill="#344973"/>
<path d="M29.5785 77.896C29.5785 78.6929 28.9326 79.3387 28.1357 79.3387C27.3441 79.3387 26.6982 78.6929 26.6982 77.896C26.6982 77.1043 27.3441 76.4585 28.1357 76.4585C28.9326 76.4585 29.5785 77.1043 29.5785 77.896Z" fill="#EAC1A2"/>
<path d="M19.0781 72.5316C19.0781 73.3232 18.4375 73.9691 17.6406 73.9691C16.8437 73.9691 16.2031 73.3232 16.2031 72.5316C16.2031 71.7347 16.8437 71.0889 17.6406 71.0889C18.4375 71.0889 19.0781 71.7347 19.0781 72.5316Z" fill="#EAC1A2"/>
<path d="M25.1875 75.1876C25.4271 75.5053 25.599 75.8647 25.6979 76.2501C25.7969 76.6407 25.8177 77.0313 25.7604 77.4272C25.7032 77.823 25.5729 78.198 25.3698 78.5418C25.1667 78.8855 24.9063 79.1772 24.5834 79.4168C24.2657 79.6616 23.9115 79.8282 23.5209 79.9272C23.1354 80.0313 22.7396 80.0522 22.3438 79.9949C21.9479 79.9376 21.5782 79.8074 21.2292 79.6043C20.8854 79.4011 20.5938 79.1355 20.3542 78.8178C20.1094 78.4949 19.9427 78.1407 19.8438 77.7553C19.7448 77.3647 19.7188 76.9741 19.7761 76.573C19.8334 76.1772 19.9636 75.8074 20.1667 75.4636C20.3698 75.1199 20.6354 74.823 20.9532 74.5834C21.2761 74.3438 21.6302 74.172 22.0209 74.073C22.4063 73.9741 22.7969 73.9532 23.1979 74.0105C23.5938 74.0678 23.9636 74.198 24.3073 74.4011C24.6563 74.6043 24.9479 74.8647 25.1875 75.1876Z" fill="#FFE7D2"/>
<path d="M24 76.167C24 76.6253 23.6302 77.0003 23.1719 77.0003C22.7135 77.0003 22.3438 76.6253 22.3438 76.167C22.3438 75.7087 22.7135 75.3389 23.1719 75.3389C23.6302 75.3389 24 75.7087 24 76.167Z" fill="#344973"/>
<path d="M18.5366 79.0469C18.5366 79.3177 18.4481 79.5833 18.2814 79.8333C18.1147 80.0833 17.8752 80.3073 17.5627 80.5C17.2502 80.6927 16.8908 80.8385 16.4845 80.9427C16.0783 81.0469 15.6564 81.099 15.2137 81.099C14.7762 81.099 14.3543 81.0469 13.9481 80.9427C13.5366 80.8385 13.1825 80.6927 12.87 80.5C12.5575 80.3073 12.3179 80.0833 12.1512 79.8333C11.9793 79.5833 11.896 79.3177 11.896 79.0469C11.896 78.776 11.9793 78.5156 12.1512 78.2656C12.3179 78.0104 12.5575 77.7917 12.87 77.599C13.1825 77.4062 13.5366 77.2552 13.9481 77.151C14.3543 77.0521 14.7762 77 15.2137 77C15.6564 77 16.0783 77.0521 16.4845 77.151C16.8908 77.2552 17.2502 77.4062 17.5627 77.599C17.8752 77.7917 18.1147 78.0104 18.2814 78.2656C18.4481 78.5156 18.5366 78.776 18.5366 79.0469Z" fill="#D48B74"/>
<path d="M18.1563 79.047C18.1563 79.4012 17.9219 79.6825 17.6406 79.6825C17.3594 79.6825 17.125 79.4012 17.125 79.047C17.125 78.6981 17.3594 78.4116 17.6406 78.4116C17.9219 78.4116 18.1563 78.6981 18.1563 79.047Z" fill="#344973"/>
<path d="M25.6302 80.3337L27.4323 80.0369C27.948 79.9535 28.4584 80.2035 28.7032 80.6619L29.5469 82.2348C29.9323 82.9587 29.5157 83.8442 28.7136 84.0056L26.9011 84.3754C26.3646 84.4848 25.8177 84.2192 25.573 83.7296L24.7396 82.0837C24.3698 81.3494 24.8177 80.464 25.6302 80.3337Z" fill="#FFE7D2"/>
<path d="M27.6045 81.9219C27.6045 82.1719 27.4014 82.375 27.1514 82.375C26.9014 82.375 26.6982 82.1719 26.6982 81.9219C26.6982 81.6719 26.9014 81.4688 27.1514 81.4688C27.4014 81.4688 27.6045 81.6719 27.6045 81.9219Z" fill="#344973"/>
<path d="M67.6304 14.646L67.8179 15.2554C67.8179 15.2554 53.6408 22.2658 52.521 22.7502C51.4012 23.2293 49.4429 23.7085 49.4429 23.7085L49.271 23.1616C49.271 23.1616 50.5575 22.7918 50.1668 20.1356L53.0002 19.2554C53.0002 19.2554 54.5627 19.9689 55.62 18.4377L67.6304 14.646Z" fill="#FFE7D2"/>
<path d="M64.3594 7.69808L63.974 7.19287C63.974 7.19287 49.9687 15.2085 48.9323 15.8439C47.8906 16.4845 46.375 17.8127 46.375 17.8127L46.724 18.2658C46.724 18.2658 47.7708 17.4272 49.7135 19.271L52.0677 17.4585C52.0677 17.4585 52.3802 15.771 54.2448 15.7866L64.3594 7.69808Z" fill="#FFE7D2"/>
<path d="M45.4376 21.9948C44.6876 20.5468 45.2501 18.7656 46.698 18.0104C48.146 17.2604 49.9272 17.8229 50.6824 19.2708C51.4324 20.7187 50.8699 22.5052 49.422 23.2552C47.9741 24.0052 46.1928 23.4427 45.4376 21.9948Z" fill="#FFE7D2"/>
<path d="M47.3125 19.1982C48.1041 18.7867 49.0833 19.094 49.4948 19.8857C49.9062 20.6774 49.5989 21.6565 48.8073 22.068C48.0156 22.4795 47.0364 22.1722 46.625 21.3805C46.2135 20.5888 46.5208 19.6097 47.3125 19.1982Z" fill="#344973"/>
<path d="M47.5679 23.9793C47.495 24.5002 47.1981 24.9585 46.7502 25.2293L45.3283 26.0939L43.1304 24.8127L45.2293 23.1147L46.7345 22.3335L47.5575 23.9168C47.5679 23.9377 47.5731 23.9585 47.5679 23.9793Z" fill="#FFE7D2"/>
<path d="M45.4482 25.1302L45.9014 25.7917C46.2816 26.3438 46.318 27.0729 45.9691 27.6458C45.8076 27.9167 45.693 28.2448 45.7503 28.599C45.9014 29.5469 46.8493 29.474 46.2191 30.1354C45.7243 30.6562 45.5628 31.3594 44.9743 30.9896C44.3857 30.6146 43.4795 30.0156 41.542 32.1198C39.6045 34.2188 38.5784 36.6875 34.4066 39.3229C30.2295 41.9531 24.4743 44.8958 23.1253 44.2708C21.7764 43.6406 20.4743 42.9844 23.4795 40.9844C26.4847 38.9844 28.6826 39.6927 33.5368 35.5417C38.3909 31.3958 40.1097 27.0938 41.2191 26.1406C43.2087 24.4271 44.6409 23.5938 44.6409 23.5938L45.4482 25.1302Z" fill="#F26849"/>
<path d="M45.2448 19.5106C44.7813 19.271 44.2344 19.2554 43.75 19.4637L42.2344 20.1304L42.0156 22.6668L44.6094 21.922L46.1146 21.1408L45.2917 19.5575C45.2813 19.5366 45.2656 19.521 45.2448 19.5106Z" fill="#FFE7D2"/>
<path d="M43.0889 20.5886L42.8076 19.8334C42.5732 19.2084 41.9951 18.7553 41.3285 18.7136C41.016 18.6928 40.6826 18.599 40.4222 18.349C39.7347 17.6824 40.3389 16.9428 39.4326 17.0782C38.7243 17.1876 38.0524 16.9167 38.0212 17.6094C37.9899 18.3074 37.9587 19.3907 35.1253 19.7709C32.292 20.1511 29.6826 19.5678 25.1253 21.4688C20.5732 23.3699 14.8597 26.3907 14.5941 27.8594C14.3337 29.323 14.1253 30.7657 17.4899 29.4532C20.8493 28.1459 21.5368 25.9376 27.7191 24.349C33.9066 22.7605 38.4118 23.8282 39.8285 23.4688C42.3753 22.823 43.8805 22.1355 43.8805 22.1355L43.0889 20.5886Z" fill="#F26849"/>
</svg>
