<svg width="160" height="136" viewBox="0 0 160 136" fill="none" xmlns="http://www.w3.org/2000/svg">
<path fill-rule="evenodd" clip-rule="evenodd" d="M32.4897 104.135H43.1147V97.5417H32.4897V104.135ZM45.5314 108.964H30.0418C28.7085 108.964 27.6304 107.885 27.6304 106.552V95.099C27.6304 93.7656 28.7085 92.6875 30.0418 92.6875H45.5314C46.8595 92.6875 47.9429 93.7656 47.9429 95.099V106.547C47.9429 107.88 46.8595 108.964 45.5314 108.964Z" fill="#865C47"/>
<path fill-rule="evenodd" clip-rule="evenodd" d="M21.5729 130.828H85.9427V108.963H21.5729V130.828ZM88.3594 135.656H19.1615C17.8333 135.656 16.75 134.573 16.75 133.245V106.547C16.75 105.213 17.8333 104.135 19.1615 104.135H88.3594C89.6875 104.135 90.7708 105.213 90.7708 106.547V133.239C90.7708 134.573 89.6875 135.656 88.3594 135.656Z" fill="#865C47"/>
<mask id="mask0_200_2375" style="mask-type:luminance" maskUnits="userSpaceOnUse" x="84" y="103" width="77" height="33">
<path d="M84.6514 103.875H160V135.875H84.6514V103.875Z" fill="white"/>
</mask>
<g mask="url(#mask0_200_2375)">
<path fill-rule="evenodd" clip-rule="evenodd" d="M90.7712 130.828H155.136V108.963H90.7712V130.828ZM157.589 135.656H88.3597C87.0264 135.656 85.9482 134.573 85.9482 133.245V106.547C85.9482 105.213 87.0264 104.135 88.3597 104.135H157.552C158.886 104.135 159.964 105.213 159.964 106.547V133.239C160 134.573 158.922 135.656 157.589 135.656Z" fill="#865C47"/>
</g>
<path fill-rule="evenodd" clip-rule="evenodd" d="M133.599 104.135H144.224V97.5417H133.599V104.135ZM146.672 108.964H131.182C129.849 108.964 128.771 107.885 128.771 106.552V95.099C128.771 93.7656 129.849 92.6875 131.182 92.6875H146.672C148.005 92.6875 149.083 93.7656 149.083 95.099V106.547C149.089 107.88 148.005 108.964 146.672 108.964Z" fill="#865C47"/>
<path fill-rule="evenodd" clip-rule="evenodd" d="M56.1929 104.135H120.557V82.3071H56.1929V104.135ZM122.974 108.963H53.745C52.4116 108.963 51.3335 107.885 51.3335 106.552V79.8592C51.3335 78.5311 52.4116 77.4478 53.745 77.4478H122.938C124.271 77.4478 125.349 78.5311 125.349 79.8592V106.547C125.386 107.88 124.307 108.963 122.974 108.963Z" fill="#865C47"/>
<path fill-rule="evenodd" clip-rule="evenodd" d="M67.1045 77.4479H77.7295V70.8542H67.1045V77.4479ZM80.1462 82.3073H64.6566C63.3232 82.3073 62.2451 81.224 62.2451 79.8958V68.4427C62.2451 67.1094 63.3232 66.0312 64.6566 66.0312H80.1462C81.4743 66.0312 82.5576 67.1094 82.5576 68.4427V79.8958C82.5576 81.1875 81.4743 82.3073 80.1462 82.3073Z" fill="#865C47"/>
<mask id="mask1_200_2375" style="mask-type:luminance" maskUnits="userSpaceOnUse" x="84" y="49" width="77" height="34">
<path d="M84.6514 49.208H160V82.5413H84.6514V49.208Z" fill="white"/>
</mask>
<g mask="url(#mask1_200_2375)">
<path fill-rule="evenodd" clip-rule="evenodd" d="M90.7712 76.3953H155.136V54.5724H90.7712V76.3953ZM157.589 81.2599H88.3597C87.0264 81.2599 85.9482 80.1818 85.9482 78.8485V52.161C85.9482 50.8276 87.0264 49.7495 88.3597 49.7495H157.552C158.886 49.7495 159.964 50.8276 159.964 52.161V78.8485C160 80.1818 158.922 81.2599 157.589 81.2599Z" fill="#865C47"/>
</g>
<path fill-rule="evenodd" clip-rule="evenodd" d="M133.599 49.7082H144.224V43.1144H133.599V49.7082ZM146.672 54.5728H131.182C129.849 54.5728 128.771 53.4894 128.771 52.1613V40.703C128.771 39.3696 129.849 38.2915 131.182 38.2915H146.672C148.005 38.2915 149.083 39.3696 149.083 40.703V52.1561C149.089 53.4894 148.005 54.5728 146.672 54.5728Z" fill="#865C47"/>
<path fill-rule="evenodd" clip-rule="evenodd" d="M57.0212 49.7082H121.386V27.88H57.0212V49.7082ZM123.839 54.5728H54.6097C53.2764 54.5728 52.1982 53.4894 52.1982 52.1613V25.4686C52.1982 24.1405 53.2764 23.0571 54.6097 23.0571H123.802C125.136 23.0571 126.214 24.1405 126.214 25.4686V52.1613C126.25 53.4894 125.172 54.5728 123.839 54.5728Z" fill="#865C47"/>
<path fill-rule="evenodd" clip-rule="evenodd" d="M67.9323 23.0518H78.5573V16.4632H67.9323V23.0518ZM81.0104 27.8799H65.5208C64.1875 27.8799 63.1094 26.8018 63.1094 25.4684V14.0101C63.1094 12.682 64.1875 11.5986 65.5208 11.5986H81.0104C82.3385 11.5986 83.4219 12.682 83.4219 14.0101V25.4632C83.4219 26.8018 82.3385 27.8799 81.0104 27.8799Z" fill="#865C47"/>
<path fill-rule="evenodd" clip-rule="evenodd" d="M99.8491 23.0518H110.474V16.4632H99.8491V23.0518ZM112.922 27.8799H97.4325C96.0991 27.8799 95.021 26.8018 95.021 25.4684V14.0101C95.021 12.682 96.0991 11.5986 97.4325 11.5986H112.922C114.25 11.5986 115.333 12.682 115.333 14.0101V25.4632C115.339 26.8018 114.255 27.8799 112.922 27.8799Z" fill="#865C47"/>
<mask id="mask2_200_2375" style="mask-type:luminance" maskUnits="userSpaceOnUse" x="11" y="0" width="33" height="75">
<path d="M11.3179 0H43.3179V74.5417H11.3179V0Z" fill="white"/>
</mask>
<g mask="url(#mask2_200_2375)">
<path fill-rule="evenodd" clip-rule="evenodd" d="M16.2814 69.1615H38.1095V4.79167H16.2814V69.1615ZM40.521 74.0208H13.87C12.5366 74.0208 11.4585 72.9427 11.4585 71.6094V2.41146C11.4585 1.08333 12.5366 0 13.87 0H40.5575C41.8908 0 42.9689 1.08333 42.9689 2.41146V71.6094C42.9689 72.9063 41.8908 74.0208 40.521 74.0208Z" fill="#865C47"/>
</g>
<mask id="mask3_200_2375" style="mask-type:luminance" maskUnits="userSpaceOnUse" x="0" y="10" width="17" height="22">
<path d="M0 10.5415H16.651V31.8748H0V10.5415Z" fill="white"/>
</mask>
<g mask="url(#mask3_200_2375)">
<path fill-rule="evenodd" clip-rule="evenodd" d="M4.82813 26.3278H11.4167V15.7028H4.82813V26.3278ZM13.8698 31.1924H2.41146C1.07813 31.1924 0 30.1143 0 28.7809V13.2913C0 11.9632 1.07813 10.8799 2.41146 10.8799H13.8646C15.1979 10.8799 16.276 11.9632 16.276 13.2913V28.7809C16.2813 30.0778 15.2031 31.1924 13.8698 31.1924Z" fill="#865C47"/>
</g>
<mask id="mask4_200_2375" style="mask-type:luminance" maskUnits="userSpaceOnUse" x="0" y="42" width="17" height="22">
<path d="M0 42.5415H16.651V63.8748H0V42.5415Z" fill="white"/>
</mask>
<g mask="url(#mask4_200_2375)">
<path fill-rule="evenodd" clip-rule="evenodd" d="M4.82813 58.2448H11.4167V47.6198H4.82813V58.2448ZM13.8698 63.1094H2.41146C1.07813 63.1094 0 62.0313 0 60.6979V45.2083C0 43.8802 1.07813 42.7969 2.41146 42.7969H13.8646C15.1979 42.7969 16.276 43.8802 16.276 45.2083V60.6979C16.2813 62.0313 15.2031 63.1094 13.8698 63.1094Z" fill="#865C47"/>
</g>
</svg>
