<svg width="120" height="117" viewBox="0 0 120 117" fill="none" xmlns="http://www.w3.org/2000/svg">
<path d="M88.6825 92.1979H30.9064C29.7866 92.1979 28.8804 91.2917 28.8804 90.1719V65.1823C28.8804 64.0625 29.7866 63.1562 30.9064 63.1562H88.6825C89.797 63.1562 90.7085 64.0625 90.7085 65.1823V90.1719C90.7085 91.2917 89.797 92.1979 88.6825 92.1979ZM32.9325 88.1458H86.6564V67.2083H32.9325V88.1458Z" fill="#865C47"/>
<path d="M51.3491 67.208H37.5002C36.3804 67.208 35.4741 66.3018 35.4741 65.182V57.0309C35.4741 55.9111 36.3804 55.0049 37.5002 55.0049H51.3491C52.4689 55.0049 53.3752 55.9111 53.3752 57.0309V65.182C53.3752 66.3018 52.4689 67.208 51.3491 67.208ZM39.5262 63.1559H49.3231V59.057H39.5262V63.1559Z" fill="#865C47"/>
<path d="M82.0887 67.208H68.2345C67.1147 67.208 66.2085 66.3018 66.2085 65.182V57.0309C66.2085 55.9111 67.1147 55.0049 68.2345 55.0049H82.0887C83.2085 55.0049 84.1147 55.9111 84.1147 57.0309V65.182C84.1147 66.3018 83.2085 67.208 82.0887 67.208ZM70.2606 63.1559H80.0627V59.057H70.2606V63.1559Z" fill="#865C47"/>
<path d="M54.8389 50.2655C54.5003 50.2655 54.167 50.1821 53.8649 50.0155C53.3962 49.755 53.0472 49.3228 52.8962 48.8071L45.917 24.8071C45.6097 23.7342 46.2243 22.6092 47.2972 22.2967L102.782 6.17171C103.855 5.85921 104.98 6.47379 105.292 7.55192L112.266 31.5467C112.417 32.0623 112.355 32.6196 112.094 33.0884C111.839 33.5623 111.401 33.9113 110.886 34.0571L55.4066 50.1873C55.2191 50.2394 55.0316 50.2655 54.8389 50.2655ZM50.3753 25.6196L56.2191 45.729L107.808 30.7342L101.964 10.6248L50.3753 25.6196Z" fill="#865C47"/>
<path d="M54.1981 24.4271C53.8596 24.4271 53.521 24.3438 53.2189 24.1771C52.7502 23.9167 52.4012 23.4844 52.2502 22.9636L49.9741 15.1406C49.6668 14.0677 50.2814 12.9427 51.3543 12.6302L64.6616 8.76564C65.1773 8.6146 65.7293 8.6771 66.1981 8.93231C66.6721 9.19273 67.021 9.62502 67.1721 10.1459L69.4429 17.9688C69.7554 19.0417 69.1408 20.1667 68.0627 20.4792L54.7606 24.3438C54.5783 24.4011 54.3856 24.4271 54.1981 24.4271ZM54.4325 15.9531L55.5783 19.8906L64.9898 17.1563L63.8439 13.2188L54.4325 15.9531Z" fill="#865C47"/>
<mask id="mask0_200_2374" style="mask-type:luminance" maskUnits="userSpaceOnUse" x="79" y="0" width="21" height="17">
<path d="M79.3179 0H99.3179V16.6667H79.3179V0Z" fill="white"/>
</mask>
<g mask="url(#mask0_200_2374)">
<path d="M83.7136 15.8488C83.3751 15.8488 83.0365 15.7655 82.7345 15.5988C82.2657 15.3384 81.9168 14.9009 81.7657 14.3853L79.4897 6.56236C79.1772 5.48944 79.797 4.36444 80.8699 4.05194L94.172 0.187359C94.6876 0.0363179 95.2449 0.0936085 95.7136 0.354026C96.1876 0.614443 96.5365 1.04673 96.6824 1.56236L98.9584 9.39048C99.2709 10.4634 98.6511 11.5884 97.5782 11.9009L84.2761 15.7655C84.0938 15.8228 83.9011 15.8488 83.7136 15.8488ZM83.948 7.37486L85.0938 11.3124L94.5053 8.57278L93.3595 4.64048L83.948 7.37486Z" fill="#865C47"/>
</g>
<mask id="mask1_200_2374" style="mask-type:luminance" maskUnits="userSpaceOnUse" x="56" y="87" width="65" height="30">
<path d="M56.6514 87.333H120V117H56.6514V87.333Z" fill="white"/>
</mask>
<g mask="url(#mask1_200_2374)">
<path d="M117.568 117.307H59.7922C58.6724 117.307 57.7661 116.401 57.7661 115.281V90.2912C57.7661 89.1714 58.6724 88.2651 59.7922 88.2651H117.568C118.688 88.2651 119.594 89.1714 119.594 90.2912V115.281C119.594 116.401 118.688 117.307 117.568 117.307ZM61.8182 113.255H115.542V92.3172H61.8182V113.255Z" fill="#865C47"/>
</g>
<path d="M110.974 92.3174H97.1198C96.0052 92.3174 95.0938 91.4059 95.0938 90.2913V82.1403C95.0938 81.0205 96.0052 80.1143 97.1198 80.1143H110.974C112.094 80.1143 113 81.0205 113 82.1403V90.2913C113 91.4059 112.094 92.3174 110.974 92.3174ZM99.1458 88.2653H108.948V84.1663H99.1458V88.2653Z" fill="#865C47"/>
<mask id="mask2_200_2374" style="mask-type:luminance" maskUnits="userSpaceOnUse" x="0" y="87" width="62" height="30">
<path d="M0 87.333H61.9844V117H0V87.333Z" fill="white"/>
</mask>
<g mask="url(#mask2_200_2374)">
<path d="M59.7918 117.307H2.01579C0.895996 117.307 -0.0102539 116.401 -0.0102539 115.281V90.2912C-0.0102539 89.1714 0.895996 88.2651 2.01579 88.2651H59.7918C60.9116 88.2651 61.8179 89.1714 61.8179 90.2912V115.281C61.8179 116.401 60.9116 117.307 59.7918 117.307ZM4.04183 113.255H57.7658V92.3172H4.04183V113.255Z" fill="#865C47"/>
</g>
<path d="M22.4637 92.3174H8.60954C7.48975 92.3174 6.5835 91.4059 6.5835 90.2913V82.1403C6.5835 81.0205 7.48975 80.1143 8.60954 80.1143H22.4637C23.5835 80.1143 24.4897 81.0205 24.4897 82.1403V90.2913C24.4897 91.4059 23.5835 92.3174 22.4637 92.3174ZM10.6356 88.2653H20.4377V84.1663H10.6356V88.2653Z" fill="#865C47"/>
</svg>
