<svg width="109" height="200" viewBox="0 0 109 200" fill="none" xmlns="http://www.w3.org/2000/svg">
<path d="M65.4323 60.0365L85.3229 68.6354L85.9688 67.151L66.0729 58.5521L65.4323 60.0365ZM57.901 169.432L66.5833 158.854L64.7083 157.313L56.8125 166.927V73.7396H52.1771V169.531L17.4635 156.943L16.6354 159.224L52.4688 172.224L51.0885 173.901L93.2604 161.865L92.5938 159.531L57.901 169.432ZM90.0625 17.2188H85.3385V50.7188H90.0625V17.2188ZM25.349 50.3698H76.9531V17.5677H25.349C19.9323 17.5677 15.5365 21.9635 15.5365 27.3802V40.5625C15.5365 45.9792 19.9323 50.3698 25.349 50.3698ZM10.3906 20.8438H5.8125V33.3542H10.3906V20.8438Z" fill="#E6B779"/>
<mask id="mask0_197_957" style="mask-type:luminance" maskUnits="userSpaceOnUse" x="0" y="0" width="106" height="185">
<path d="M0 0H105.089V184.938H0V0Z" fill="white"/>
</mask>
<g mask="url(#mask0_197_957)">
<path d="M29.5519 11.8283V4.00016C29.5519 1.98454 31.1821 0.349121 33.1978 0.349121H50.3384C51.6457 0.349121 52.8592 1.05225 53.505 2.18766L57.979 10.0158C59.3696 12.4481 57.6144 15.4741 54.8123 15.4741H33.1978C31.1821 15.4741 29.5519 13.8439 29.5519 11.8283ZM46.1665 56.4897C43.9217 56.4897 42.0155 57.5054 41.6978 58.8804L39.8696 66.8179C39.4842 68.495 41.5936 69.9897 44.3384 69.9897H64.1353C66.8748 69.9897 68.9842 68.5002 68.6092 66.8231L66.8175 58.8856C66.505 57.5106 64.5988 56.4897 62.3488 56.4897H46.1665ZM62.2394 71.1252L56.9373 73.12L98.5988 183.802H104.651L62.2394 71.1252ZM50.0311 178.573H58.9061V175.781H50.0311V178.573ZM51.7863 73.021L46.755 71.1252L4.33838 183.802H10.3957L51.3488 75.0002L66.328 183.802H72.0467L56.6978 72.3439L51.7863 73.021ZM94.6613 18.0366H89.9373V49.9012H94.6613V18.0366ZM5.81234 22.7085L0.197754 19.4377V34.7606L5.81234 31.6043V22.7085Z" fill="#C2702D"/>
</g>
<mask id="mask1_197_957" style="mask-type:luminance" maskUnits="userSpaceOnUse" x="1" y="10" width="108" height="190">
<path d="M1.08838 10.2705H109V200H1.08838V10.2705Z" fill="white"/>
</mask>
<g mask="url(#mask1_197_957)">
<path d="M62.7809 27.4058H41.3122V22.2547H62.7809V27.4058ZM71.4945 66.3224V63.9266H36.9788V73.7391H71.4945V66.3224ZM10.8538 160.578L19.9111 163.989L22.9841 155.812L13.932 152.406L10.8538 160.578ZM50.3799 175.781H58.6143V167.546H50.3799V175.781ZM10.3903 47.7287V20.2131C10.3903 15.3745 14.3122 11.4526 19.1507 11.4526H78.9424C83.7809 11.4526 87.7028 15.3745 87.7028 20.2131V47.7287C87.7028 52.5672 83.7809 56.4891 78.9424 56.4891H19.1507C14.3122 56.4891 10.3903 52.5672 10.3903 47.7287ZM15.5361 40.562C15.5361 45.9787 19.932 50.3693 25.3486 50.3693H76.9528V17.5672H25.3486C19.932 17.5672 15.5361 21.9631 15.5361 27.3797V40.562ZM11.2809 193.682H3.15072V195.927H2.30176V199.656H12.1299V195.927H11.2809V193.682ZM95.6768 154.395L86.6195 157.807L89.6976 165.979L98.7497 162.572L95.6768 154.395ZM70.6507 156.942L60.5153 158.338L61.7497 167.312L71.8903 165.916L70.6507 156.942ZM99.1924 13.1818V13.1974C96.6611 13.3641 94.6611 15.4578 94.6611 18.0256V49.911C94.6611 52.4787 96.6611 54.5776 99.1924 54.7391V54.7547H108.88V13.1818H99.1924ZM105.927 193.635H97.7966V195.88H96.9476V199.604H106.776V195.88H105.927V193.635ZM73.2236 193.682H65.0934V195.927H64.2445V199.656H74.0726V195.927H73.2236V193.682ZM101 74.7547L101.698 73.0256C102.229 71.7078 101.687 70.2756 100.515 69.8641L81.3122 63.1766C80.2028 62.7912 78.9372 63.4683 78.4372 64.7026C77.9372 65.9422 78.3903 67.312 79.458 67.7964L97.9632 76.2131C99.0934 76.7287 100.474 76.062 101 74.7547Z" fill="#F6BE74"/>
</g>
<path d="M41.3122 22.2549H62.7809V27.4059H41.3122V22.2549ZM2.30176 193.635H12.1299V183.802H2.30176V193.635ZM64.2445 193.635H74.0726V183.802H64.2445V193.635ZM96.9476 183.802V193.635H106.776V183.802H96.9476Z" fill="#3D827A"/>
<mask id="mask2_197_957" style="mask-type:luminance" maskUnits="userSpaceOnUse" x="0" y="0" width="109" height="200">
<path d="M0 0H109V200H0V0Z" fill="white"/>
</mask>
<g mask="url(#mask2_197_957)">
<path d="M109.078 54.953V12.9842H99.1927L98.9896 12.9998V13.0155C96.5 13.2707 94.5625 15.3384 94.4688 17.8384H90.2656V17.0207H87.3125C86.0208 13.6509 82.7604 11.2498 78.9427 11.2498H58.6146C58.5469 10.7863 58.3958 10.3384 58.151 9.9165L53.6823 2.08838C52.9948 0.895671 51.7188 0.150879 50.3385 0.150879H33.1979C31.0781 0.150879 29.349 1.87484 29.349 3.99984V11.255H19.151C14.2135 11.255 10.1927 15.2707 10.1927 20.2134V20.6457H5.60938V22.3592L0 19.0884V35.0988L5.60938 31.9425V33.5519H10.1927V47.729C10.1927 52.6665 14.2135 56.6873 19.151 56.6873H43.7969C42.5885 57.1248 41.7188 57.9009 41.5052 58.8332L40.3802 63.729H36.7813V73.9425H45.4792L15.7656 152.88L13.8177 152.146L10.599 160.698L12.5469 161.432L4.20313 183.604H2.10417V193.833H2.94792V195.729H2.10417V199.854H12.3281V195.729H11.4792V193.833H12.3281V183.604H10.6823L18.224 163.568L20.026 164.245L21.2083 161.094L50.1771 171.604V175.583H49.8333V178.776H59.1042V175.583H58.8125V171.901L64.2708 170.344L66.099 183.604H64.0469V193.833H64.8958V195.729H64.0469V199.854H74.2708V195.729H73.4219V193.833H74.2708V183.604H72.2188L70.1615 168.661L88.5208 163.422L89.5833 166.239L91.5 165.515L98.3073 183.604H96.7448V193.833H97.5938V195.682H96.7448V199.807H106.974V195.682H106.125V193.833H106.974V183.604H104.786L97.1771 163.38L99.0104 162.687L95.7917 154.14L93.9583 154.833L63.5104 73.9425H71.6927V63.729H68.1146L67.5365 61.1665L78.0365 65.703C78.0208 66.6873 78.5156 67.5884 79.375 67.979L97.8802 76.3957C98.1615 76.5259 98.4635 76.5884 98.7708 76.5884C99.0625 76.5884 99.3542 76.5311 99.6406 76.4165C100.328 76.1405 100.891 75.5623 101.188 74.828L101.885 73.0988C102.182 72.3644 102.172 71.5519 101.865 70.88C101.604 70.3019 101.146 69.8748 100.578 69.6769L81.375 62.9894C80.4427 62.6665 79.4167 63.0207 78.7448 63.8123L66.9792 58.7238C66.724 57.8384 65.8802 57.1092 64.7188 56.6873H78.9427C82.7604 56.6873 86.0208 54.2863 87.3125 50.9217H90.2656V50.104H94.4688C94.5625 52.604 96.5 54.6717 98.9896 54.9217V54.953H109.078ZM29.75 3.99984C29.75 2.0988 31.2969 0.546712 33.1979 0.546712H50.3385C51.5729 0.546712 52.724 1.21338 53.3333 2.2863L57.8073 10.1144C58.0156 10.4738 58.1458 10.8592 58.2135 11.255H29.75V3.99984ZM0.395833 34.4217V19.7863L5.60938 22.8228V31.4842L0.395833 34.4217ZM6.01042 33.1509V21.0467H10.1927V33.1509H6.01042ZM45.9063 73.9425H51.026L51.1563 74.9373L21.0677 154.875L16.1406 153.021L45.9063 73.9425ZM70.8229 156.719L68.5573 157.026L57.1719 74.3123L88.2813 156.969L86.3646 157.687L87.526 160.771L71.9896 165.203L70.8229 156.719ZM61.9219 167.088L60.7396 158.505L70.4844 157.167L71.6667 165.745L61.9219 167.088ZM63.8854 167.515L58.8125 168.963V168.635L61.3125 165.588L61.5833 167.536L63.8438 167.224L63.8854 167.515ZM50.1771 167.349V168.594L22.2083 158.448L23.2448 155.698L21.4427 155.015L51.2552 75.8071L51.9063 80.5363L51.9167 80.5884L52.0052 81.2394H51.9792V167.349H50.1771ZM52.375 83.9425L56.6146 114.713V167.349H52.375V83.9425ZM57.0104 117.609L62.5521 157.854L60.2917 158.167L60.7865 161.771L57.0104 166.37V117.609ZM57.0104 167L60.8594 162.312L61.2396 165.047L58.8125 168.005V167.349H57.0104V167ZM56.7188 73.9425L68.1667 157.083L62.9479 157.802L52.3073 80.5311L51.4271 73.9425H56.7188ZM11.9323 199.453H2.5V196.13H11.9323V199.453ZM11.0833 195.729H3.34896V193.833H11.0833V195.729ZM11.9323 193.432H2.5V184.005H11.9323V193.432ZM10.2552 183.604H4.63021L12.9219 161.568L17.8542 163.427L10.2552 183.604ZM19.7917 163.729L11.1146 160.463L14.0521 152.661L22.7292 155.927L19.7917 163.729ZM21.349 160.724L22.0677 158.823L50.1771 169.021V171.177L21.349 160.724ZM58.7083 178.375H50.2292V175.979H58.7083V178.375ZM50.5781 175.583V167.745H58.4115V175.583H50.5781ZM58.8125 171.489V169.38L63.9375 167.917L64.2188 169.948L58.8125 171.489ZM73.875 199.453H64.4427V196.13H73.875V199.453ZM73.026 195.729H65.2917V193.833H73.026V195.729ZM73.875 193.432H64.4427V184.005H73.875V193.432ZM66.5 183.604L64.2396 167.172L69.4531 166.453L71.8177 183.604H66.5ZM70.1042 168.265L69.849 166.401L72.1146 166.088L72.0469 165.599L87.6667 161.146L88.3802 163.047L70.1042 168.265ZM106.578 199.406H97.1458V196.078H106.578V199.406ZM105.729 195.682H97.9948V193.833H105.729V195.682ZM106.578 193.432H97.1458V184.005H106.578V193.432ZM104.365 183.604H98.7344L91.875 165.375L96.8021 163.521L104.365 183.604ZM98.4948 162.458L89.8177 165.724L86.8802 157.922L95.5573 154.656L98.4948 162.458ZM93.5833 154.974L88.6563 156.828L57.4583 73.9425H63.0833L93.5833 154.974ZM71.2969 73.5415H37.1771V66.4373H71.2969V73.5415ZM71.2969 66.0415H37.1771V64.1248H71.2969V66.0415ZM80.6615 63.2707C80.8594 63.2707 81.0521 63.3019 81.2448 63.3696L100.448 70.0519C100.911 70.2134 101.286 70.5675 101.505 71.0415C101.766 71.6196 101.771 72.3123 101.516 72.9478L100.818 74.6821C100.563 75.3123 100.078 75.8123 99.4896 76.0467C99.0052 76.2394 98.4948 76.2342 98.0469 76.0311L79.5417 67.6144C78.5625 67.1717 78.1615 65.9269 78.625 64.7759C78.9948 63.854 79.8229 63.2707 80.6615 63.2707ZM78.2552 64.63C78.1667 64.8436 78.1094 65.0675 78.0729 65.2863L67.4271 60.6821L67.0938 59.2134L78.5052 64.1405C78.4063 64.2915 78.3229 64.453 78.2552 64.63ZM66.625 58.9321L67.7031 63.729H40.7865L41.8906 58.9217C42.1875 57.6509 44.026 56.6873 46.1667 56.6873H46.2188V58.7498H62.2552V56.6873H62.349C64.4948 56.6873 66.3333 57.6509 66.625 58.9321ZM46.6198 56.6873H61.8594V58.354H46.6198V56.6873ZM78.9427 56.2863H19.151C14.4323 56.2863 10.5885 52.4478 10.5885 47.729V20.2134C10.5885 15.4894 14.4323 11.6509 19.151 11.6509H78.9427C83.6615 11.6509 87.5052 15.4894 87.5052 20.2134V47.729C87.5052 52.4478 83.6615 56.2863 78.9427 56.2863ZM89.8646 50.5207H87.4531C87.7448 49.6405 87.901 48.703 87.901 47.729V20.2134C87.901 19.2394 87.7448 18.2967 87.4531 17.4217H89.8646V50.5207ZM90.2656 18.2342H94.4583V49.703H90.2656V18.2342ZM94.8594 49.9113V18.0311C94.8594 15.5884 96.7656 13.5571 99.2031 13.4009L108.682 13.3853V54.5571H99.3906L99.2031 54.5415C96.7656 54.3853 94.8594 52.3488 94.8594 49.9113ZM67.0833 17.3696H25.349C19.8281 17.3696 15.3385 21.8592 15.3385 27.38V40.5623C15.3385 46.078 19.8281 50.5675 25.349 50.5675H77.151V17.3696H67.0833ZM66.8854 50.1717H25.349C20.0469 50.1717 15.7396 45.8592 15.7396 40.5623V27.38C15.7396 22.078 20.0469 17.7707 25.349 17.7707H66.8854V50.1717ZM76.75 17.7707V50.1717H67.2865V17.7707H76.75ZM62.9792 22.0571H41.1146V27.6092H62.9792V22.0571ZM62.5781 27.2082H41.5104V22.453H62.5781V27.2082Z" fill="black"/>
</g>
</svg>
