<svg width="132" height="135" viewBox="0 0 132 135" fill="none" xmlns="http://www.w3.org/2000/svg">
<mask id="mask0_197_958" style="mask-type:luminance" maskUnits="userSpaceOnUse" x="0" y="58" width="44" height="49">
<path d="M0 58.792H43.7552V106.792H0V58.792Z" fill="white"/>
</mask>
<g mask="url(#mask0_197_958)">
<path d="M4.1459 106.12C2.94277 106.12 1.76048 105.526 1.06256 104.433C-0.0311862 102.724 0.463606 100.453 2.16152 99.3597C5.65631 97.1097 8.41673 94.3493 10.3751 91.1461C13.224 86.4951 13.6511 82.0993 14.0626 77.8597C14.5001 73.3232 14.9584 68.6357 18.5834 64.8388C22.9584 60.2607 30.349 58.8024 40.5365 60.4951C42.5365 60.8232 43.8855 62.719 43.5522 64.7138C43.224 66.7138 41.3438 68.0576 39.3438 67.7347C34.0678 66.8597 27.1094 66.5315 23.8699 69.917C22.0834 71.792 21.7605 74.2972 21.349 78.5784C20.9011 83.1774 20.3542 88.8909 16.6199 94.9847C14.0834 99.1305 10.5469 102.683 6.11465 105.532C5.50527 105.933 4.81777 106.12 4.1459 106.12Z" fill="#664445"/>
</g>
<path d="M127.812 106.12C127.135 106.12 126.448 105.932 125.838 105.531C121.406 102.682 117.875 99.1304 115.338 94.9845C111.609 88.8908 111.052 83.1668 110.604 78.5783C110.193 74.3022 109.87 71.7918 108.083 69.9168C104.844 66.5314 97.88 66.8595 92.6092 67.7345C90.6144 68.0574 88.729 66.7137 88.4009 64.7137C88.0727 62.7085 89.4165 60.8231 91.4165 60.4949C101.609 58.8074 109.005 60.2658 113.37 64.8387C117 68.6356 117.458 73.3231 117.89 77.8595C118.302 82.0991 118.729 86.4949 121.578 91.146C123.536 94.3387 126.297 97.0991 129.791 99.3595C131.495 100.453 131.989 102.724 130.89 104.432C130.203 105.526 129.026 106.12 127.812 106.12Z" fill="#664445"/>
<mask id="mask1_197_958" style="mask-type:luminance" maskUnits="userSpaceOnUse" x="47" y="0" width="11" height="27">
<path d="M47.7549 0H57.0882V26.7917H47.7549V0Z" fill="white"/>
</mask>
<g mask="url(#mask1_197_958)">
<path d="M56.2183 25.9585H48.8901V1.271C48.8901 0.57308 49.4526 0.00537109 50.1506 0.00537109H54.9526C55.6558 0.00537109 56.2183 0.57308 56.2183 1.271V25.9585Z" fill="#664445"/>
</g>
<mask id="mask2_197_958" style="mask-type:luminance" maskUnits="userSpaceOnUse" x="74" y="0" width="10" height="27">
<path d="M74.4219 0H83.7552V26.7917H74.4219V0Z" fill="white"/>
</mask>
<g mask="url(#mask2_197_958)">
<path d="M83.0729 25.9585H75.75V1.271C75.75 0.57308 76.3125 0.00537109 77.0156 0.00537109H81.8125C82.5156 0.00537109 83.0781 0.57308 83.0781 1.271V25.9585H83.0729Z" fill="#664445"/>
</g>
<mask id="mask3_197_958" style="mask-type:luminance" maskUnits="userSpaceOnUse" x="27" y="24" width="79" height="111">
<path d="M27.7549 24.125H105.088V135H27.7549V24.125Z" fill="white"/>
</mask>
<g mask="url(#mask3_197_958)">
<path d="M103.817 129.953V130.078C103.817 131.427 102.599 132.505 101.104 132.505C89.4631 134.141 77.7183 134.974 65.9787 134.974C54.2339 134.974 42.4943 134.141 30.8485 132.505C29.3068 132.505 28.0673 131.354 28.135 129.953C28.161 129.516 28.1818 129.104 28.2079 128.662C29.26 107.568 30.3121 86.4325 31.3537 65.3387C31.385 64.6772 31.7183 64.0679 32.2808 63.6252C44.4371 53.8856 46.0985 33.797 44.5829 25.6564C44.4579 24.896 45.0985 24.2397 45.9214 24.2397H86.0048C86.8329 24.2397 87.4683 24.896 87.3433 25.6564C85.8329 33.8075 87.4891 53.8908 99.6402 63.6252C100.208 64.0679 100.552 64.6772 100.572 65.3387C101.666 86.87 102.739 108.422 103.817 129.953Z" fill="#865C47"/>
</g>
<path d="M101.25 128V128.125C101.25 129.448 100.078 130.521 98.6406 130.521C87.4115 132.136 76.0573 132.943 64.7135 132.943C53.3594 132.943 42.0156 132.136 30.7604 130.521C29.5156 130.521 28.4844 129.714 28.2188 128.662C29.2708 107.568 30.3177 86.4325 31.3646 65.3387C31.3906 64.6772 31.7292 64.0679 32.2917 63.6252C44.4479 53.8856 46.1094 33.797 44.5885 25.6564C44.4688 24.896 45.1042 24.2397 45.9323 24.2397H84.0625C84.8646 24.2397 85.5 24.896 85.349 25.6356C83.8906 33.6356 85.4948 53.3543 97.2604 62.922C97.776 63.3387 98.1094 63.9481 98.1406 64.5887C99.2031 85.7241 100.229 106.86 101.25 128Z" fill="#9A6B54"/>
<path d="M82.4582 121.615H49.4998C46.8019 121.615 44.6196 119.422 44.6196 116.719V97.146H87.3384V116.719C87.3436 119.422 85.1509 121.615 82.4582 121.615Z" fill="#664445"/>
<path d="M63.5361 95.9375H68.4215V121.615H63.5361V95.9375Z" fill="#54393B"/>
<path d="M87.3438 97.1458H44.625V92.2552C44.625 90.9063 45.7187 89.8125 47.0625 89.8125H84.8958C86.2448 89.8125 87.3385 90.9063 87.3385 92.2552V97.1458H87.3438Z" fill="#F6F4E6"/>
</svg>
