<svg width="393" height="221" viewBox="0 0 393 221" fill="none" xmlns="http://www.w3.org/2000/svg">
<mask id="mask0_46_314" style="mask-type:luminance" maskUnits="userSpaceOnUse" x="125" y="0" width="268" height="159">
<path d="M125.625 0H393V158.501H125.625V0Z" fill="white"/>
</mask>
<g mask="url(#mask0_46_314)">
<path d="M392.744 43.2303L365.589 149.265C365.589 149.769 365.534 150.27 365.429 150.763C365.321 151.256 365.165 151.739 364.959 152.203C364.753 152.67 364.501 153.112 364.201 153.532C363.902 153.949 363.564 154.336 363.187 154.694C362.806 155.052 362.394 155.37 361.948 155.651C361.501 155.933 361.031 156.166 360.537 156.36C360.04 156.557 359.531 156.703 359.006 156.802C358.477 156.901 357.949 156.952 357.413 156.956L174.44 158.201C173.903 158.198 173.371 158.147 172.846 158.048C172.318 157.949 171.809 157.803 171.311 157.609C170.818 157.416 170.348 157.178 169.901 156.897C169.454 156.616 169.042 156.298 168.665 155.94C168.284 155.586 167.946 155.198 167.647 154.778C167.348 154.358 167.095 153.916 166.889 153.452C166.683 152.984 166.528 152.506 166.423 152.009C166.314 151.516 166.264 151.015 166.26 150.511V43.2156C166.256 43.0037 166.268 42.7955 166.287 42.5873L163.816 21.8252H136.769C136.027 21.7997 135.297 21.7047 134.574 21.5439C133.851 21.3832 133.152 21.1603 132.475 20.8754C131.799 20.5904 131.158 20.247 130.552 19.8451C129.946 19.4433 129.386 18.9902 128.869 18.4861C128.356 17.9856 127.898 17.4412 127.498 16.853C127.093 16.2685 126.751 15.6511 126.476 15.0044C126.2 14.3578 125.99 13.6929 125.85 13.0097C125.706 12.3229 125.636 11.6324 125.636 10.9346C125.636 10.2368 125.706 9.54632 125.85 8.86314C125.99 8.17997 126.2 7.5114 126.476 6.86476C126.751 6.21811 127.093 5.6007 127.498 5.01616C127.898 4.43162 128.356 3.88728 128.869 3.38311C129.386 2.8826 129.946 2.42959 130.552 2.02772C131.158 1.62585 131.799 1.28243 132.475 0.997471C133.152 0.708856 133.851 0.486001 134.574 0.325254C135.297 0.168159 136.027 0.0731722 136.769 0.0439453H184.512C184.516 0.0841325 184.516 0.124319 184.512 0.164506L187.096 21.8399L188.728 35.5363H384.568C385.104 35.5363 385.632 35.5874 386.161 35.6861C386.685 35.7884 387.198 35.9345 387.692 36.1281C388.189 36.3218 388.66 36.5592 389.103 36.8405C389.549 37.1218 389.961 37.4397 390.342 37.7977C390.723 38.1521 391.061 38.543 391.36 38.9595C391.656 39.3796 391.908 39.8217 392.114 40.2893C392.32 40.7533 392.479 41.2355 392.584 41.7287C392.689 42.2256 392.744 42.7261 392.744 43.2303Z" fill="#E09945"/>
</g>
<mask id="mask1_46_314" style="mask-type:luminance" maskUnits="userSpaceOnUse" x="163" y="165" width="62" height="56">
<path d="M163.426 165.048H224.109V220.849H163.426V165.048Z" fill="white"/>
</mask>
<g mask="url(#mask1_46_314)">
<path d="M223.192 193.069C223.192 193.986 223.145 194.903 223.052 195.816C222.955 196.73 222.811 197.636 222.621 198.534C222.43 199.437 222.193 200.324 221.909 201.205C221.626 202.082 221.299 202.944 220.926 203.791C220.553 204.639 220.134 205.468 219.675 206.279C219.213 207.087 218.711 207.872 218.171 208.636C217.627 209.399 217.048 210.134 216.43 210.846C215.809 211.555 215.156 212.234 214.464 212.881C213.776 213.531 213.053 214.145 212.296 214.73C211.542 215.31 210.761 215.855 209.949 216.366C209.136 216.878 208.301 217.349 207.438 217.78C206.579 218.211 205.697 218.606 204.796 218.957C203.894 219.307 202.977 219.614 202.041 219.881C201.108 220.148 200.164 220.37 199.204 220.549C198.248 220.728 197.284 220.864 196.313 220.955C195.341 221.043 194.366 221.09 193.391 221.09C192.415 221.09 191.44 221.043 190.468 220.955C189.497 220.864 188.533 220.728 187.577 220.549C186.621 220.37 185.673 220.148 184.74 219.881C183.808 219.614 182.887 219.307 181.985 218.957C181.084 218.606 180.202 218.211 179.343 217.78C178.48 217.349 177.645 216.878 176.833 216.366C176.02 215.855 175.239 215.31 174.486 214.73C173.732 214.145 173.009 213.531 172.317 212.881C171.629 212.234 170.973 211.555 170.355 210.846C169.733 210.134 169.154 209.399 168.61 208.636C168.07 207.872 167.569 207.087 167.106 206.279C166.648 205.468 166.232 204.639 165.859 203.791C165.486 202.944 165.155 202.082 164.872 201.205C164.588 200.324 164.351 199.437 164.161 198.534C163.97 197.636 163.826 196.73 163.733 195.816C163.636 194.903 163.589 193.986 163.589 193.069C163.589 192.152 163.636 191.235 163.733 190.325C163.826 189.412 163.97 188.502 164.161 187.603C164.351 186.705 164.588 185.813 164.872 184.936C165.155 184.06 165.486 183.194 165.859 182.346C166.232 181.499 166.648 180.669 167.106 179.862C167.569 179.051 168.07 178.265 168.61 177.502C169.154 176.742 169.733 176.004 170.355 175.295C170.973 174.587 171.629 173.907 172.317 173.257C173.009 172.61 173.732 171.993 174.486 171.412C175.239 170.827 176.02 170.283 176.833 169.771C177.645 169.264 178.48 168.792 179.343 168.361C180.202 167.926 181.084 167.536 181.985 167.185C182.887 166.834 183.808 166.524 184.74 166.257C185.673 165.99 186.621 165.767 187.577 165.588C188.533 165.409 189.497 165.274 190.468 165.186C191.44 165.095 192.415 165.051 193.391 165.051C194.366 165.051 195.341 165.095 196.313 165.186C197.284 165.274 198.248 165.409 199.204 165.588C200.164 165.767 201.108 165.99 202.041 166.257C202.977 166.524 203.894 166.834 204.796 167.185C205.697 167.536 206.579 167.926 207.438 168.361C208.301 168.792 209.136 169.264 209.949 169.771C210.761 170.283 211.542 170.827 212.296 171.412C213.053 171.993 213.776 172.61 214.464 173.257C215.156 173.907 215.809 174.587 216.43 175.295C217.048 176.004 217.627 176.742 218.171 177.502C218.711 178.265 219.213 179.051 219.675 179.862C220.134 180.669 220.553 181.499 220.926 182.346C221.299 183.194 221.626 184.06 221.909 184.936C222.193 185.813 222.43 186.705 222.621 187.603C222.811 188.502 222.955 189.412 223.052 190.325C223.145 191.235 223.192 192.152 223.192 193.069Z" fill="#9F5E52"/>
</g>
<mask id="mask2_46_314" style="mask-type:luminance" maskUnits="userSpaceOnUse" x="246" y="165" width="62" height="56">
<path d="M246.989 165.048H307.672V220.849H246.989V165.048Z" fill="white"/>
</mask>
<g mask="url(#mask2_46_314)">
<path d="M307.307 193.069C307.307 193.986 307.256 194.903 307.163 195.816C307.066 196.73 306.922 197.636 306.732 198.534C306.541 199.437 306.304 200.324 306.021 201.205C305.741 202.082 305.411 202.944 305.038 203.791C304.665 204.639 304.245 205.468 303.786 206.279C303.328 207.087 302.827 207.872 302.283 208.636C301.742 209.399 301.159 210.134 300.542 210.846C299.92 211.555 299.267 212.234 298.575 212.881C297.888 213.531 297.165 214.145 296.411 214.73C295.657 215.31 294.872 215.855 294.06 216.366C293.248 216.878 292.412 217.349 291.553 217.78C290.691 218.211 289.809 218.606 288.907 218.957C288.006 219.307 287.089 219.614 286.156 219.881C285.219 220.148 284.275 220.37 283.319 220.549C282.359 220.728 281.396 220.864 280.424 220.955C279.453 221.043 278.481 221.09 277.502 221.09C276.527 221.09 275.555 221.043 274.584 220.955C273.612 220.864 272.648 220.728 271.689 220.549C270.733 220.37 269.784 220.148 268.852 219.881C267.919 219.614 267.002 219.307 266.097 218.957C265.195 218.606 264.317 218.211 263.454 217.78C262.595 217.349 261.756 216.878 260.948 216.366C260.136 215.855 259.351 215.31 258.597 214.73C257.843 214.145 257.12 213.531 256.428 212.881C255.741 212.234 255.084 211.555 254.466 210.846C253.848 210.134 253.265 209.399 252.725 208.636C252.181 207.872 251.68 207.087 251.221 206.279C250.759 205.468 250.343 204.639 249.97 203.791C249.597 202.944 249.267 202.082 248.983 201.205C248.699 200.324 248.462 199.437 248.272 198.534C248.082 197.636 247.942 196.73 247.844 195.816C247.747 194.903 247.701 193.986 247.701 193.069C247.701 192.152 247.747 191.235 247.844 190.325C247.942 189.412 248.082 188.502 248.272 187.603C248.462 186.705 248.699 185.813 248.983 184.936C249.267 184.06 249.597 183.194 249.97 182.346C250.343 181.499 250.759 180.669 251.221 179.862C251.68 179.051 252.181 178.265 252.725 177.502C253.265 176.742 253.848 176.004 254.466 175.295C255.084 174.587 255.741 173.907 256.428 173.257C257.12 172.61 257.843 171.993 258.597 171.412C259.351 170.827 260.136 170.283 260.948 169.771C261.756 169.264 262.595 168.792 263.454 168.361C264.317 167.926 265.195 167.536 266.097 167.185C267.002 166.834 267.919 166.524 268.852 166.257C269.784 165.99 270.733 165.767 271.689 165.588C272.648 165.409 273.612 165.274 274.584 165.186C275.555 165.095 276.527 165.051 277.502 165.051C278.481 165.051 279.453 165.095 280.424 165.186C281.396 165.274 282.359 165.409 283.319 165.588C284.275 165.767 285.219 165.99 286.156 166.257C287.089 166.524 288.006 166.834 288.907 167.185C289.809 167.536 290.691 167.926 291.553 168.361C292.412 168.792 293.248 169.264 294.06 169.771C294.872 170.283 295.657 170.827 296.411 171.412C297.165 171.993 297.888 172.61 298.575 173.257C299.267 173.907 299.92 174.587 300.542 175.295C301.159 176.004 301.742 176.742 302.283 177.502C302.827 178.265 303.328 179.051 303.786 179.862C304.245 180.669 304.665 181.499 305.038 182.346C305.411 183.194 305.741 184.06 306.021 184.936C306.304 185.813 306.541 186.705 306.732 187.603C306.922 188.502 307.066 189.412 307.163 190.325C307.256 191.235 307.307 192.152 307.307 193.069Z" fill="#9F5E52"/>
</g>
<path d="M78.1499 44.8743H146.367C146.892 44.8743 147.409 44.9218 147.918 45.0204C148.431 45.1154 148.928 45.2579 149.41 45.4442C149.892 45.6305 150.35 45.8607 150.786 46.1347C151.217 46.4087 151.621 46.7156 151.986 47.0626C152.356 47.4097 152.686 47.7896 152.977 48.1952C153.265 48.6043 153.51 49.0354 153.712 49.4885C153.91 49.9415 154.062 50.4091 154.163 50.8877C154.264 51.3699 154.314 51.8558 154.314 52.3454V54.2159C154.314 54.7054 154.264 55.1913 154.163 55.6736C154.062 56.1522 153.91 56.6198 153.712 57.0728C153.51 57.5258 153.265 57.9569 152.977 58.3661C152.686 58.7753 152.356 59.1516 151.986 59.4986C151.621 59.8457 151.217 60.1563 150.786 60.4266C150.35 60.7006 149.892 60.9308 149.41 61.1171C148.928 61.3071 148.431 61.4459 147.918 61.5445C147.409 61.6395 146.892 61.687 146.367 61.687H78.1499C77.6291 61.687 77.1123 61.6395 76.5994 61.5445C76.0903 61.4459 75.5929 61.3071 75.1111 61.1171C74.6292 60.9308 74.1707 60.7006 73.7354 60.4266C73.3041 60.1563 72.9 59.8457 72.5308 59.4986C72.1616 59.1516 71.8352 58.7753 71.5438 58.3661C71.2523 57.9569 71.0075 57.5258 70.8093 57.0728C70.6111 56.6198 70.4596 56.1522 70.3586 55.6736C70.2536 55.1913 70.2031 54.7054 70.2031 54.2159V52.3454C70.2031 51.8558 70.2536 51.3699 70.3586 50.8877C70.4596 50.4091 70.6111 49.9415 70.8093 49.4885C71.0075 49.0354 71.2523 48.6043 71.5438 48.1952C71.8352 47.7896 72.1616 47.4097 72.5308 47.0626C72.9 46.7156 73.3041 46.4087 73.7354 46.1347C74.1707 45.8607 74.6292 45.6305 75.1111 45.4442C75.5929 45.2579 76.0903 45.1154 76.5994 45.0204C77.1123 44.9218 77.6291 44.8743 78.1499 44.8743Z" fill="#E09945"/>
<path d="M78.1499 149.48H146.367C146.892 149.48 147.409 149.532 147.918 149.627C148.431 149.722 148.928 149.864 149.41 150.05C149.892 150.24 150.35 150.467 150.786 150.741C151.217 151.015 151.621 151.322 151.986 151.669C152.356 152.016 152.686 152.396 152.977 152.801C153.265 153.211 153.51 153.642 153.712 154.095C153.91 154.548 154.062 155.015 154.163 155.498C154.264 155.976 154.314 156.462 154.314 156.955V158.822C154.314 159.312 154.264 159.798 154.163 160.28C154.062 160.762 153.91 161.226 153.712 161.683C153.51 162.136 153.265 162.563 152.977 162.972C152.686 163.381 152.356 163.758 151.986 164.105C151.621 164.452 151.217 164.762 150.786 165.033C150.35 165.307 149.892 165.537 149.41 165.723C148.928 165.913 148.431 166.056 147.918 166.151C147.409 166.246 146.892 166.293 146.367 166.293H78.1499C77.6291 166.293 77.1123 166.246 76.5994 166.151C76.0903 166.056 75.5929 165.913 75.1111 165.723C74.6292 165.537 74.1707 165.307 73.7354 165.033C73.3041 164.762 72.9 164.452 72.5308 164.105C72.1616 163.758 71.8352 163.381 71.5438 162.972C71.2523 162.563 71.0075 162.136 70.8093 161.683C70.6111 161.226 70.4596 160.762 70.3586 160.28C70.2536 159.798 70.2031 159.312 70.2031 158.822V156.955C70.2031 156.462 70.2536 155.976 70.3586 155.498C70.4596 155.015 70.6111 154.548 70.8093 154.095C71.0075 153.642 71.2523 153.211 71.5438 152.801C71.8352 152.396 72.1616 152.016 72.5308 151.669C72.9 151.322 73.3041 151.015 73.7354 150.741C74.1707 150.467 74.6292 150.24 75.1111 150.05C75.5929 149.864 76.0903 149.722 76.5994 149.627C77.1123 149.532 77.6291 149.48 78.1499 149.48Z" fill="#E09945"/>
<mask id="mask3_46_314" style="mask-type:luminance" maskUnits="userSpaceOnUse" x="0" y="95" width="155" height="19">
<path d="M0 95.8386H154.474V113.609H0V95.8386Z" fill="white"/>
</mask>
<g mask="url(#mask3_46_314)">
<path d="M8.94153 95.9333H145.377C145.963 95.9333 146.542 95.9881 147.121 96.0941C147.697 96.2037 148.256 96.3644 148.796 96.5727C149.34 96.7846 149.853 97.044 150.343 97.3509C150.833 97.6577 151.283 98.0048 151.699 98.3957C152.111 98.7866 152.484 99.2104 152.81 99.6707C153.137 100.127 153.413 100.613 153.634 101.121C153.86 101.633 154.031 102.159 154.143 102.699C154.26 103.24 154.314 103.788 154.314 104.34C154.314 104.891 154.26 105.439 154.143 105.98C154.031 106.521 153.86 107.047 153.634 107.555C153.413 108.066 153.137 108.552 152.81 109.009C152.484 109.469 152.111 109.893 151.699 110.284C151.283 110.675 150.833 111.022 150.343 111.329C149.853 111.635 149.34 111.895 148.796 112.107C148.256 112.315 147.697 112.476 147.121 112.585C146.542 112.691 145.963 112.746 145.377 112.746H8.94153C8.35476 112.746 7.77187 112.691 7.19675 112.585C6.62163 112.476 6.06206 112.315 5.51803 112.107C4.97788 111.895 4.46105 111.635 3.97531 111.329C3.48568 111.022 3.03491 110.675 2.61912 110.284C2.20333 109.893 1.83416 109.469 1.50774 109.009C1.18132 108.552 0.905422 108.066 0.680038 107.555C0.454654 107.047 0.287559 106.521 0.170981 105.98C0.0582893 105.439 0 104.891 0 104.34C0 103.788 0.0582893 103.24 0.170981 102.699C0.287559 102.159 0.454654 101.633 0.680038 101.121C0.905422 100.613 1.18132 100.127 1.50774 99.6707C1.83416 99.2104 2.20333 98.7866 2.61912 98.3957C3.03491 98.0048 3.48568 97.6577 3.97531 97.3509C4.46105 97.044 4.97788 96.7846 5.51803 96.5727C6.06206 96.3644 6.62163 96.2037 7.19675 96.0941C7.77187 95.9881 8.35476 95.9333 8.94153 95.9333Z" fill="#E09945"/>
</g>
</svg>
