<svg width="171" height="147" viewBox="0 0 171 147" fill="none" xmlns="http://www.w3.org/2000/svg">
<mask id="mask0_204_3447" style="mask-type:luminance" maskUnits="userSpaceOnUse" x="78" y="17" width="86" height="122">
<path d="M78.6665 17.3335H164V138.667H78.6665V17.3335Z" fill="white"/>
</mask>
<g mask="url(#mask0_204_3447)">
<mask id="mask1_204_3447" style="mask-type:luminance" maskUnits="userSpaceOnUse" x="61" y="-6" width="115" height="156">
<path d="M101.047 -5.5415L175.755 16.8804L136.094 149.052L61.3853 126.636L101.047 -5.5415Z" fill="white"/>
</mask>
<g mask="url(#mask1_204_3447)">
<mask id="mask2_204_3447" style="mask-type:luminance" maskUnits="userSpaceOnUse" x="61" y="-6" width="115" height="156">
<path d="M101.047 -5.5415L175.755 16.8804L136.094 149.052L61.3853 126.636L101.047 -5.5415Z" fill="white"/>
</mask>
<g mask="url(#mask2_204_3447)">
<path fill-rule="evenodd" clip-rule="evenodd" d="M134.714 27.7295C134.589 27.7035 134.474 27.6618 134.365 27.6097L132.01 26.9066L129.625 26.1826C129.552 26.1722 129.484 26.1566 129.417 26.1357L101.229 17.7607C101.141 18.1826 101.099 18.542 101.094 18.8441C101.094 19.0628 101.052 19.1514 101.057 19.1826C101.531 19.542 101.786 20.1514 101.651 20.7764L80.9115 119.49L80.9063 119.485L80.8854 119.578C80.5625 120.756 80.2552 121.87 79.9583 122.901C79.7187 123.714 79.4948 124.474 79.2812 125.167C79.7187 125.959 81.2292 127.006 83.8177 128.308C87.1198 129.969 91.9323 131.823 98.2552 133.86C98.4063 133.896 98.5469 133.953 98.6771 134.026L99.7344 134.328L99.7552 134.334L99.7813 134.344L100.875 134.683C100.974 134.693 101.078 134.709 101.182 134.74C107.63 136.537 112.708 137.651 116.401 138.089C119.281 138.427 121.125 138.386 121.922 137.964C122.13 137.256 122.359 136.49 122.62 135.667C122.922 134.688 123.26 133.636 123.625 132.532C123.641 132.464 123.661 132.391 123.688 132.323L160.729 38.5055H160.734C160.948 37.9587 161.464 37.5524 162.094 37.5107C162.12 37.5107 162.12 37.4066 162.255 37.1982C162.422 36.9482 162.583 36.6201 162.74 36.2243L134.714 27.7295Z" fill="#EBE0DE"/>
</g>
</g>
</g>
<mask id="mask3_204_3447" style="mask-type:luminance" maskUnits="userSpaceOnUse" x="76" y="0" width="95" height="143">
<path d="M76 0H170.667V142.667H76V0Z" fill="white"/>
</mask>
<g mask="url(#mask3_204_3447)">
<mask id="mask4_204_3447" style="mask-type:luminance" maskUnits="userSpaceOnUse" x="61" y="-6" width="115" height="156">
<path d="M101.047 -5.5415L175.755 16.8804L136.094 149.052L61.3853 126.636L101.047 -5.5415Z" fill="white"/>
</mask>
<g mask="url(#mask4_204_3447)">
<mask id="mask5_204_3447" style="mask-type:luminance" maskUnits="userSpaceOnUse" x="61" y="-6" width="115" height="156">
<path d="M101.047 -5.5415L175.755 16.8804L136.094 149.052L61.3853 126.636L101.047 -5.5415Z" fill="white"/>
</mask>
<g mask="url(#mask5_204_3447)">
<path d="M104.823 10.6614L164.021 28.4271C164.125 27.4635 164.234 26.3958 164.359 25.1198L164.573 22.9635C164.583 22.9114 164.526 22.7916 164.442 22.651L164.401 22.5781C164.276 22.3906 164.114 22.2291 163.953 22.1302C156.781 17.9896 150.844 14.7812 146.146 12.5156C141.51 10.276 138.083 8.94268 135.87 8.5208L135.807 8.50518V8.51038C132.833 7.82809 129.255 7.16143 125.083 6.51559C120.854 5.85934 116.067 5.22913 110.724 4.61976C110.661 4.61455 110.604 4.60413 110.547 4.58851L110.541 4.59372C109.677 4.3958 109.015 4.32809 108.562 4.3958C108.427 4.41663 108.375 4.39059 108.364 4.40622L108.312 4.49476L104.823 10.6614ZM101.219 17.8073C101.135 18.2083 101.099 18.5521 101.099 18.8437C101.094 19.0625 101.052 19.151 101.057 19.1823C101.531 19.5416 101.786 20.1562 101.651 20.776L80.9112 119.49L80.8852 119.578C80.5623 120.755 80.255 121.87 79.9581 122.901C79.7185 123.714 79.4945 124.474 79.281 125.167C79.7185 125.958 81.2289 127.005 83.8175 128.307C87.1195 129.969 91.9373 131.823 98.255 133.859C98.406 133.896 98.5466 133.953 98.682 134.026L99.7341 134.328L99.7602 134.339L99.781 134.344L100.875 134.687C100.974 134.693 101.078 134.714 101.182 134.74C107.635 136.536 112.708 137.651 116.406 138.089C119.281 138.427 121.125 138.385 121.922 137.964C122.13 137.255 122.364 136.49 122.62 135.667C122.922 134.687 123.26 133.641 123.625 132.531C123.64 132.464 123.661 132.396 123.687 132.328L160.729 38.5052H160.734C160.948 37.9583 161.463 37.5521 162.094 37.5104C162.12 37.5104 162.12 37.4062 162.255 37.1979C162.416 36.9531 162.573 36.6458 162.724 36.2656L101.219 17.8073ZM165.745 37.1718C165.479 37.8646 165.198 38.4479 164.89 38.9166C164.453 39.5885 163.948 40.0677 163.39 40.3489L126.62 133.474L126.609 133.505C126.239 134.63 125.906 135.661 125.62 136.594C125.307 137.599 125.031 138.516 124.791 139.333C124.713 139.599 124.573 139.828 124.39 140.01L124.38 140.016L124.344 140.057C123.01 141.323 120.234 141.708 116.031 141.219C112.286 140.776 107.161 139.661 100.682 137.865C100.51 137.854 100.344 137.823 100.177 137.76L98.8643 137.349L97.4477 136.943C97.3175 136.906 97.1925 136.849 97.0831 136.781C90.6716 134.714 85.781 132.823 82.406 131.125C78.5831 129.203 76.4789 127.328 76.0935 125.516C76.0362 125.25 76.0518 124.979 76.13 124.734L76.1352 124.708C76.3852 123.906 76.656 123.01 76.9425 122.021C77.2133 121.068 77.5154 120.005 77.8331 118.833L98.4164 20.8541C98.0987 20.3073 97.9477 19.6302 97.9529 18.8281C97.9529 18.2708 98.0362 17.625 98.1977 16.901L96.88 16.5052C96.2602 16.3177 95.7758 15.8958 95.4945 15.3698H95.4893C95.2081 14.8437 95.1248 14.2031 95.307 13.5885L95.6039 12.5937C95.7914 11.9791 96.2081 11.4948 96.7393 11.2135L96.7445 11.2083L96.781 11.1875C97.2862 10.9323 97.88 10.8489 98.4633 11.0104C98.7289 10.5573 99.1143 10.1979 99.5623 9.9583C100.203 9.60934 100.979 9.51038 101.734 9.73434L105.583 2.93747L105.604 2.8958C106.094 1.99476 106.927 1.4583 108.094 1.28643C108.927 1.16143 109.963 1.23434 111.198 1.51559C116.62 2.13018 121.411 2.76038 125.567 3.40622C129.823 4.06767 133.479 4.74476 136.521 5.44268C139 5.92705 142.666 7.34372 147.51 9.68226C152.333 12.0104 158.338 15.25 165.515 19.401V19.4062L165.526 19.4114C166.12 19.7552 166.677 20.3073 167.073 20.9271L167.151 21.0468C167.552 21.7239 167.786 22.5156 167.708 23.2864L167.489 25.4479C167.338 26.9896 167.213 28.2187 167.062 29.4531C167.484 29.7187 167.817 30.0885 168.047 30.5104C168.286 30.9583 168.411 31.4687 168.39 31.9948C168.979 32.1875 169.442 32.5989 169.719 33.1093C169.75 33.1718 169.781 33.2343 169.802 33.2968C170.01 33.7864 170.062 34.3437 169.896 34.8906L169.599 35.8854C169.416 36.5 168.995 36.9896 168.469 37.2708C167.942 37.5573 167.302 37.6406 166.687 37.4531L165.745 37.1718Z" fill="#694F33"/>
</g>
</g>
</g>
<mask id="mask6_204_3447" style="mask-type:luminance" maskUnits="userSpaceOnUse" x="104" y="4" width="62" height="26">
<path d="M104 4H165.333V29.3333H104V4Z" fill="white"/>
</mask>
<g mask="url(#mask6_204_3447)">
<mask id="mask7_204_3447" style="mask-type:luminance" maskUnits="userSpaceOnUse" x="61" y="-6" width="115" height="156">
<path d="M101.047 -5.5415L175.755 16.8804L136.094 149.052L61.3853 126.636L101.047 -5.5415Z" fill="white"/>
</mask>
<g mask="url(#mask7_204_3447)">
<mask id="mask8_204_3447" style="mask-type:luminance" maskUnits="userSpaceOnUse" x="61" y="-6" width="115" height="156">
<path d="M101.047 -5.5415L175.755 16.8804L136.094 149.052L61.3853 126.636L101.047 -5.5415Z" fill="white"/>
</mask>
<g mask="url(#mask8_204_3447)">
<path fill-rule="evenodd" clip-rule="evenodd" d="M104.823 10.6617L164.021 28.4273C164.125 27.4638 164.234 26.3961 164.359 25.12L164.573 22.9638C164.583 22.9117 164.526 22.7919 164.443 22.6513L164.401 22.5784C164.276 22.3909 164.114 22.2294 163.953 22.1305C156.781 17.9898 150.844 14.7815 146.146 12.5159C141.51 10.2763 138.083 8.94295 135.87 8.52108L135.807 8.50545V8.51066C132.833 7.82837 129.255 7.1617 125.083 6.51587C120.854 5.85962 116.068 5.22941 110.724 4.62004C110.661 4.61483 110.604 4.60441 110.547 4.58879L110.542 4.59399C109.677 4.39608 109.015 4.32837 108.562 4.39608C108.427 4.41691 108.375 4.39087 108.364 4.40649L108.312 4.49504L104.823 10.6617Z" fill="#E6B779"/>
</g>
</g>
</g>
<mask id="mask9_204_3447" style="mask-type:luminance" maskUnits="userSpaceOnUse" x="96" y="12" width="74" height="24">
<path d="M96 12H169.333V36H96V12Z" fill="white"/>
</mask>
<g mask="url(#mask9_204_3447)">
<mask id="mask10_204_3447" style="mask-type:luminance" maskUnits="userSpaceOnUse" x="61" y="-6" width="115" height="156">
<path d="M101.047 -5.5415L175.755 16.8804L136.094 149.052L61.3853 126.636L101.047 -5.5415Z" fill="white"/>
</mask>
<g mask="url(#mask10_204_3447)">
<mask id="mask11_204_3447" style="mask-type:luminance" maskUnits="userSpaceOnUse" x="61" y="-6" width="115" height="156">
<path d="M101.047 -5.5415L175.755 16.8804L136.094 149.052L61.3853 126.636L101.047 -5.5415Z" fill="white"/>
</mask>
<g mask="url(#mask11_204_3447)">
<path fill-rule="evenodd" clip-rule="evenodd" d="M98.0674 12.5367L167.875 33.4846C168.276 33.6044 168.51 34.0367 168.385 34.4377L168.088 35.4273C167.968 35.8336 167.541 36.0627 167.135 35.9429L97.333 14.995C96.9268 14.87 96.6976 14.4429 96.8174 14.0419L97.1143 13.0471C97.2393 12.6461 97.6664 12.4169 98.0674 12.5367Z" fill="#E6B779"/>
</g>
</g>
</g>
<mask id="mask12_204_3447" style="mask-type:luminance" maskUnits="userSpaceOnUse" x="0" y="56" width="90" height="80">
<path d="M0 56H89.3333V136H0V56Z" fill="white"/>
</mask>
<g mask="url(#mask12_204_3447)">
<mask id="mask13_204_3447" style="mask-type:luminance" maskUnits="userSpaceOnUse" x="-16" y="38" width="126" height="111">
<path d="M6.45313 38.9741L109.943 66.1564L88.349 148.37L-15.1406 121.188L6.45313 38.9741Z" fill="white"/>
</mask>
<g mask="url(#mask13_204_3447)">
<mask id="mask14_204_3447" style="mask-type:luminance" maskUnits="userSpaceOnUse" x="-16" y="38" width="126" height="111">
<path d="M6.45313 38.9741L109.943 66.1564L88.349 148.37L-15.1406 121.188L6.45313 38.9741Z" fill="white"/>
</mask>
<g mask="url(#mask14_204_3447)">
<mask id="mask15_204_3447" style="mask-type:luminance" maskUnits="userSpaceOnUse" x="-16" y="38" width="126" height="111">
<path d="M6.45313 38.9741L109.943 66.1564L88.349 148.37L-15.1406 121.188L6.45313 38.9741Z" fill="white"/>
</mask>
<g mask="url(#mask15_204_3447)">
<path d="M53.6092 127.979C47.2446 129.078 42.1769 121.99 43.2707 119.089C44.755 115.151 48.7394 112.235 54.5571 116.026C60.38 119.818 59.979 126.88 53.6092 127.979ZM48.1196 56.7762C23.7811 57.1721 -3.30225 76.3387 1.82796 95.3283C6.95296 114.323 30.755 102.271 34.7446 118.766C36.8436 127.417 44.3123 136.807 55.7082 134.719C64.479 133.11 84.4217 123.932 88.729 99.9325C93.0363 75.9273 72.6821 56.37 48.1196 56.7762Z" fill="#FCD6B6"/>
</g>
</g>
</g>
</g>
<mask id="mask16_204_3447" style="mask-type:luminance" maskUnits="userSpaceOnUse" x="5" y="85" width="14" height="14">
<path d="M5.33301 85.3335H18.6663V98.6668H5.33301V85.3335Z" fill="white"/>
</mask>
<g mask="url(#mask16_204_3447)">
<mask id="mask17_204_3447" style="mask-type:luminance" maskUnits="userSpaceOnUse" x="-16" y="38" width="126" height="111">
<path d="M6.45264 38.9741L109.942 66.1564L88.3485 148.37L-15.1411 121.188L6.45264 38.9741Z" fill="white"/>
</mask>
<g mask="url(#mask17_204_3447)">
<mask id="mask18_204_3447" style="mask-type:luminance" maskUnits="userSpaceOnUse" x="-16" y="38" width="126" height="111">
<path d="M6.45264 38.9741L109.942 66.1564L88.3485 148.37L-15.1411 121.188L6.45264 38.9741Z" fill="white"/>
</mask>
<g mask="url(#mask18_204_3447)">
<mask id="mask19_204_3447" style="mask-type:luminance" maskUnits="userSpaceOnUse" x="-16" y="38" width="126" height="111">
<path d="M6.45264 38.9741L109.942 66.1564L88.3485 148.37L-15.1411 121.188L6.45264 38.9741Z" fill="white"/>
</mask>
<g mask="url(#mask19_204_3447)">
<path d="M18.1087 89.9219C18.9368 93.099 17.0358 96.3437 13.8535 97.1719C10.6764 97.9948 7.42643 96.0937 6.59831 92.9167C5.77018 89.7396 7.67643 86.4948 10.8535 85.6667C14.0306 84.8385 17.2806 86.7448 18.1087 89.9219Z" fill="#EF373B"/>
</g>
</g>
</g>
</g>
<mask id="mask20_204_3447" style="mask-type:luminance" maskUnits="userSpaceOnUse" x="14" y="69" width="14" height="14">
<path d="M14.6665 69.3335H27.9998V82.6668H14.6665V69.3335Z" fill="white"/>
</mask>
<g mask="url(#mask20_204_3447)">
<mask id="mask21_204_3447" style="mask-type:luminance" maskUnits="userSpaceOnUse" x="-16" y="38" width="126" height="111">
<path d="M6.45313 38.9741L109.943 66.1564L88.349 148.37L-15.1406 121.188L6.45313 38.9741Z" fill="white"/>
</mask>
<g mask="url(#mask21_204_3447)">
<mask id="mask22_204_3447" style="mask-type:luminance" maskUnits="userSpaceOnUse" x="-16" y="38" width="126" height="111">
<path d="M6.45313 38.9741L109.943 66.1564L88.349 148.37L-15.1406 121.188L6.45313 38.9741Z" fill="white"/>
</mask>
<g mask="url(#mask22_204_3447)">
<mask id="mask23_204_3447" style="mask-type:luminance" maskUnits="userSpaceOnUse" x="-16" y="38" width="126" height="111">
<path d="M6.45313 38.9741L109.943 66.1564L88.349 148.37L-15.1406 121.188L6.45313 38.9741Z" fill="white"/>
</mask>
<g mask="url(#mask23_204_3447)">
<path d="M27.3333 74.5835C28.1615 77.7606 26.2604 81.0054 23.0833 81.8283C19.901 82.6564 16.651 80.7554 15.8229 77.5783C14.9948 74.4012 16.901 71.1564 20.0781 70.3283C23.2552 69.5002 26.5052 71.4064 27.3333 74.5835Z" fill="#E18225"/>
</g>
</g>
</g>
</g>
<mask id="mask24_204_3447" style="mask-type:luminance" maskUnits="userSpaceOnUse" x="32" y="61" width="14" height="14">
<path d="M32 61.3335H45.3333V74.6668H32V61.3335Z" fill="white"/>
</mask>
<g mask="url(#mask24_204_3447)">
<mask id="mask25_204_3447" style="mask-type:luminance" maskUnits="userSpaceOnUse" x="-16" y="38" width="126" height="111">
<path d="M6.45313 38.9741L109.943 66.1564L88.349 148.37L-15.1406 121.188L6.45313 38.9741Z" fill="white"/>
</mask>
<g mask="url(#mask25_204_3447)">
<mask id="mask26_204_3447" style="mask-type:luminance" maskUnits="userSpaceOnUse" x="-16" y="38" width="126" height="111">
<path d="M6.45313 38.9741L109.943 66.1564L88.349 148.37L-15.1406 121.188L6.45313 38.9741Z" fill="white"/>
</mask>
<g mask="url(#mask26_204_3447)">
<mask id="mask27_204_3447" style="mask-type:luminance" maskUnits="userSpaceOnUse" x="-16" y="38" width="126" height="111">
<path d="M6.45313 38.9741L109.943 66.1564L88.349 148.37L-15.1406 121.188L6.45313 38.9741Z" fill="white"/>
</mask>
<g mask="url(#mask27_204_3447)">
<path d="M44.9686 66.7604C45.7967 69.9375 43.8905 73.1823 40.7134 74.0104C37.5363 74.8386 34.2863 72.9323 33.4582 69.7552C32.63 66.5781 34.5363 63.3334 37.7134 62.5104C40.8905 61.6823 44.1405 63.5886 44.9686 66.7604Z" fill="#D6CE43"/>
</g>
</g>
</g>
</g>
<mask id="mask28_204_3447" style="mask-type:luminance" maskUnits="userSpaceOnUse" x="52" y="62" width="14" height="13">
<path d="M52 62.667H65.3333V74.667H52V62.667Z" fill="white"/>
</mask>
<g mask="url(#mask28_204_3447)">
<mask id="mask29_204_3447" style="mask-type:luminance" maskUnits="userSpaceOnUse" x="-16" y="38" width="126" height="111">
<path d="M6.45313 38.9741L109.943 66.1564L88.349 148.37L-15.1406 121.188L6.45313 38.9741Z" fill="white"/>
</mask>
<g mask="url(#mask29_204_3447)">
<mask id="mask30_204_3447" style="mask-type:luminance" maskUnits="userSpaceOnUse" x="-16" y="38" width="126" height="111">
<path d="M6.45313 38.9741L109.943 66.1564L88.349 148.37L-15.1406 121.188L6.45313 38.9741Z" fill="white"/>
</mask>
<g mask="url(#mask30_204_3447)">
<mask id="mask31_204_3447" style="mask-type:luminance" maskUnits="userSpaceOnUse" x="-16" y="38" width="126" height="111">
<path d="M6.45313 38.9741L109.943 66.1564L88.349 148.37L-15.1406 121.188L6.45313 38.9741Z" fill="white"/>
</mask>
<g mask="url(#mask31_204_3447)">
<path d="M64.8905 67.2085C65.7186 70.3856 63.8175 73.6304 60.6353 74.4533C57.4582 75.2814 54.2082 73.3804 53.38 70.2033C52.5519 67.0262 54.4582 63.7814 57.6353 62.9533C60.8175 62.1252 64.0623 64.0314 64.8905 67.2085Z" fill="#5F9ABB"/>
</g>
</g>
</g>
</g>
<mask id="mask32_204_3447" style="mask-type:luminance" maskUnits="userSpaceOnUse" x="66" y="73" width="14" height="14">
<path d="M66.6665 73.3335H79.9998V86.6668H66.6665V73.3335Z" fill="white"/>
</mask>
<g mask="url(#mask32_204_3447)">
<mask id="mask33_204_3447" style="mask-type:luminance" maskUnits="userSpaceOnUse" x="-16" y="38" width="126" height="111">
<path d="M6.45313 38.9741L109.943 66.1564L88.349 148.37L-15.1406 121.188L6.45313 38.9741Z" fill="white"/>
</mask>
<g mask="url(#mask33_204_3447)">
<mask id="mask34_204_3447" style="mask-type:luminance" maskUnits="userSpaceOnUse" x="-16" y="38" width="126" height="111">
<path d="M6.45313 38.9741L109.943 66.1564L88.349 148.37L-15.1406 121.188L6.45313 38.9741Z" fill="white"/>
</mask>
<g mask="url(#mask34_204_3447)">
<mask id="mask35_204_3447" style="mask-type:luminance" maskUnits="userSpaceOnUse" x="-16" y="38" width="126" height="111">
<path d="M6.45313 38.9741L109.943 66.1564L88.349 148.37L-15.1406 121.188L6.45313 38.9741Z" fill="white"/>
</mask>
<g mask="url(#mask35_204_3447)">
<path d="M78.9479 78.4795C79.7812 81.6566 77.875 84.9014 74.6979 85.7295C71.5156 86.5576 68.2708 84.6514 67.4427 81.4743C66.6093 78.2972 68.5156 75.0524 71.6979 74.2243C74.875 73.3962 78.1198 75.3024 78.9479 78.4795Z" fill="#6A4C62"/>
</g>
</g>
</g>
</g>
<mask id="mask36_204_3447" style="mask-type:luminance" maskUnits="userSpaceOnUse" x="72" y="90" width="14" height="15">
<path d="M72 90.667H85.3333V104H72V90.667Z" fill="white"/>
</mask>
<g mask="url(#mask36_204_3447)">
<mask id="mask37_204_3447" style="mask-type:luminance" maskUnits="userSpaceOnUse" x="-16" y="38" width="126" height="111">
<path d="M6.45313 38.9741L109.943 66.1564L88.349 148.37L-15.1406 121.188L6.45313 38.9741Z" fill="white"/>
</mask>
<g mask="url(#mask37_204_3447)">
<mask id="mask38_204_3447" style="mask-type:luminance" maskUnits="userSpaceOnUse" x="-16" y="38" width="126" height="111">
<path d="M6.45313 38.9741L109.943 66.1564L88.349 148.37L-15.1406 121.188L6.45313 38.9741Z" fill="white"/>
</mask>
<g mask="url(#mask38_204_3447)">
<mask id="mask39_204_3447" style="mask-type:luminance" maskUnits="userSpaceOnUse" x="-16" y="38" width="126" height="111">
<path d="M6.45313 38.9741L109.943 66.1564L88.349 148.37L-15.1406 121.188L6.45313 38.9741Z" fill="white"/>
</mask>
<g mask="url(#mask39_204_3447)">
<path d="M84.9896 95.9741C85.8177 99.1512 83.9115 102.396 80.7344 103.224C77.5573 104.052 74.3073 102.146 73.4792 98.9689C72.651 95.7918 74.5573 92.547 77.7344 91.7189C80.9115 90.8908 84.1615 92.797 84.9896 95.9741Z" fill="#70BE7A"/>
</g>
</g>
</g>
</g>
<mask id="mask40_204_3447" style="mask-type:luminance" maskUnits="userSpaceOnUse" x="18" y="96" width="9" height="7">
<path d="M18.6665 96H26.6665V102.667H18.6665V96Z" fill="white"/>
</mask>
<g mask="url(#mask40_204_3447)">
<mask id="mask41_204_3447" style="mask-type:luminance" maskUnits="userSpaceOnUse" x="-16" y="38" width="126" height="111">
<path d="M6.45313 38.9741L109.943 66.1564L88.349 148.37L-15.1406 121.188L6.45313 38.9741Z" fill="white"/>
</mask>
<g mask="url(#mask41_204_3447)">
<mask id="mask42_204_3447" style="mask-type:luminance" maskUnits="userSpaceOnUse" x="-16" y="38" width="126" height="111">
<path d="M6.45313 38.9741L109.943 66.1564L88.349 148.37L-15.1406 121.188L6.45313 38.9741Z" fill="white"/>
</mask>
<g mask="url(#mask42_204_3447)">
<mask id="mask43_204_3447" style="mask-type:luminance" maskUnits="userSpaceOnUse" x="-16" y="38" width="126" height="111">
<path d="M6.45313 38.9741L109.943 66.1564L88.349 148.37L-15.1406 121.188L6.45313 38.9741Z" fill="white"/>
</mask>
<g mask="url(#mask43_204_3447)">
<path d="M25.8124 98.8127C26.2291 100.412 25.2707 102.047 23.6718 102.464C22.0728 102.88 20.4374 101.922 20.0155 100.318C19.5989 98.719 20.5624 97.0836 22.1614 96.6669C23.7603 96.2502 25.3957 97.2138 25.8124 98.8127Z" fill="#EF373B"/>
</g>
</g>
</g>
</g>
<mask id="mask44_204_3447" style="mask-type:luminance" maskUnits="userSpaceOnUse" x="50" y="57" width="8" height="9">
<path d="M50.6665 57.3335H57.3332V65.3335H50.6665V57.3335Z" fill="white"/>
</mask>
<g mask="url(#mask44_204_3447)">
<mask id="mask45_204_3447" style="mask-type:luminance" maskUnits="userSpaceOnUse" x="-16" y="38" width="126" height="111">
<path d="M6.45313 38.9741L109.943 66.1564L88.349 148.37L-15.1406 121.188L6.45313 38.9741Z" fill="white"/>
</mask>
<g mask="url(#mask45_204_3447)">
<mask id="mask46_204_3447" style="mask-type:luminance" maskUnits="userSpaceOnUse" x="-16" y="38" width="126" height="111">
<path d="M6.45313 38.9741L109.943 66.1564L88.349 148.37L-15.1406 121.188L6.45313 38.9741Z" fill="white"/>
</mask>
<g mask="url(#mask46_204_3447)">
<mask id="mask47_204_3447" style="mask-type:luminance" maskUnits="userSpaceOnUse" x="-16" y="38" width="126" height="111">
<path d="M6.45313 38.9741L109.943 66.1564L88.349 148.37L-15.1406 121.188L6.45313 38.9741Z" fill="white"/>
</mask>
<g mask="url(#mask47_204_3447)">
<path d="M56.5833 60.3751C56.9999 61.974 56.0416 63.6094 54.4426 64.0261C52.8385 64.4428 51.2031 63.4792 50.7864 61.8803C50.3697 60.2813 51.3281 58.6459 52.927 58.2292C54.5312 57.8126 56.1666 58.7709 56.5833 60.3751Z" fill="#5F9ABB"/>
</g>
</g>
</g>
</g>
<mask id="mask48_204_3447" style="mask-type:luminance" maskUnits="userSpaceOnUse" x="14" y="98" width="6" height="5">
<path d="M14.6665 98.667H19.9998V102.667H14.6665V98.667Z" fill="white"/>
</mask>
<g mask="url(#mask48_204_3447)">
<mask id="mask49_204_3447" style="mask-type:luminance" maskUnits="userSpaceOnUse" x="-16" y="38" width="126" height="111">
<path d="M6.45313 38.9741L109.943 66.1564L88.349 148.37L-15.1406 121.188L6.45313 38.9741Z" fill="white"/>
</mask>
<g mask="url(#mask49_204_3447)">
<mask id="mask50_204_3447" style="mask-type:luminance" maskUnits="userSpaceOnUse" x="-16" y="38" width="126" height="111">
<path d="M6.45313 38.9741L109.943 66.1564L88.349 148.37L-15.1406 121.188L6.45313 38.9741Z" fill="white"/>
</mask>
<g mask="url(#mask50_204_3447)">
<mask id="mask51_204_3447" style="mask-type:luminance" maskUnits="userSpaceOnUse" x="-16" y="38" width="126" height="111">
<path d="M6.45313 38.9741L109.943 66.1564L88.349 148.37L-15.1406 121.188L6.45313 38.9741Z" fill="white"/>
</mask>
<g mask="url(#mask51_204_3447)">
<path d="M18.7241 100.287C18.9376 101.12 18.4428 101.964 17.6147 102.182C16.7814 102.396 15.9324 101.896 15.7189 101.068C15.5001 100.24 16.0001 99.3908 16.8283 99.1772C17.6616 98.9585 18.5105 99.4533 18.7241 100.287Z" fill="#EF373B"/>
</g>
</g>
</g>
</g>
<mask id="mask52_204_3447" style="mask-type:luminance" maskUnits="userSpaceOnUse" x="53" y="78" width="6" height="5">
<path d="M53.333 78.667H58.6663V82.667H53.333V78.667Z" fill="white"/>
</mask>
<g mask="url(#mask52_204_3447)">
<mask id="mask53_204_3447" style="mask-type:luminance" maskUnits="userSpaceOnUse" x="-16" y="38" width="126" height="111">
<path d="M6.45264 38.9741L109.942 66.1564L88.3485 148.37L-15.1411 121.188L6.45264 38.9741Z" fill="white"/>
</mask>
<g mask="url(#mask53_204_3447)">
<mask id="mask54_204_3447" style="mask-type:luminance" maskUnits="userSpaceOnUse" x="-16" y="38" width="126" height="111">
<path d="M6.45264 38.9741L109.942 66.1564L88.3485 148.37L-15.1411 121.188L6.45264 38.9741Z" fill="white"/>
</mask>
<g mask="url(#mask54_204_3447)">
<mask id="mask55_204_3447" style="mask-type:luminance" maskUnits="userSpaceOnUse" x="-16" y="38" width="126" height="111">
<path d="M6.45264 38.9741L109.942 66.1564L88.3485 148.37L-15.1411 121.188L6.45264 38.9741Z" fill="white"/>
</mask>
<g mask="url(#mask55_204_3447)">
<path d="M57.666 80.4791C57.8847 81.3073 57.3847 82.1562 56.5566 82.375C55.7285 82.5885 54.8743 82.0885 54.6608 81.2604C54.442 80.4323 54.942 79.5833 55.7702 79.3698C56.6035 79.151 57.4472 79.651 57.666 80.4791Z" fill="#5F9ABB"/>
</g>
</g>
</g>
</g>
<mask id="mask56_204_3447" style="mask-type:luminance" maskUnits="userSpaceOnUse" x="30" y="74" width="8" height="9">
<path d="M30.6665 74.667H37.3332V82.667H30.6665V74.667Z" fill="white"/>
</mask>
<g mask="url(#mask56_204_3447)">
<mask id="mask57_204_3447" style="mask-type:luminance" maskUnits="userSpaceOnUse" x="-16" y="38" width="126" height="111">
<path d="M6.45313 38.9741L109.943 66.1564L88.349 148.37L-15.1406 121.188L6.45313 38.9741Z" fill="white"/>
</mask>
<g mask="url(#mask57_204_3447)">
<mask id="mask58_204_3447" style="mask-type:luminance" maskUnits="userSpaceOnUse" x="-16" y="38" width="126" height="111">
<path d="M6.45313 38.9741L109.943 66.1564L88.349 148.37L-15.1406 121.188L6.45313 38.9741Z" fill="white"/>
</mask>
<g mask="url(#mask58_204_3447)">
<mask id="mask59_204_3447" style="mask-type:luminance" maskUnits="userSpaceOnUse" x="-16" y="38" width="126" height="111">
<path d="M6.45313 38.9741L109.943 66.1564L88.349 148.37L-15.1406 121.188L6.45313 38.9741Z" fill="white"/>
</mask>
<g mask="url(#mask59_204_3447)">
<path d="M36.9113 78.1563C37.3227 79.7448 36.3696 81.3646 34.7863 81.7813C33.1977 82.1927 31.5727 81.2396 31.1613 79.6563C30.7446 78.0677 31.6977 76.4427 33.2863 76.0313C34.8748 75.6198 36.4946 76.5729 36.9113 78.1563Z" fill="#D6CE43"/>
</g>
</g>
</g>
</g>
<mask id="mask60_204_3447" style="mask-type:luminance" maskUnits="userSpaceOnUse" x="42" y="74" width="6" height="7">
<path d="M42.6665 74.667H47.9998V80.0003H42.6665V74.667Z" fill="white"/>
</mask>
<g mask="url(#mask60_204_3447)">
<mask id="mask61_204_3447" style="mask-type:luminance" maskUnits="userSpaceOnUse" x="-16" y="38" width="126" height="111">
<path d="M6.45313 38.9741L109.943 66.1564L88.349 148.37L-15.1406 121.188L6.45313 38.9741Z" fill="white"/>
</mask>
<g mask="url(#mask61_204_3447)">
<mask id="mask62_204_3447" style="mask-type:luminance" maskUnits="userSpaceOnUse" x="-16" y="38" width="126" height="111">
<path d="M6.45313 38.9741L109.943 66.1564L88.349 148.37L-15.1406 121.188L6.45313 38.9741Z" fill="white"/>
</mask>
<g mask="url(#mask62_204_3447)">
<mask id="mask63_204_3447" style="mask-type:luminance" maskUnits="userSpaceOnUse" x="-16" y="38" width="126" height="111">
<path d="M6.45313 38.9741L109.943 66.1564L88.349 148.37L-15.1406 121.188L6.45313 38.9741Z" fill="white"/>
</mask>
<g mask="url(#mask63_204_3447)">
<path d="M46.9322 77.0939C47.1562 77.948 46.6406 78.823 45.7864 79.0418C44.9374 79.2657 44.0624 78.7553 43.8385 77.9012C43.6145 77.047 44.1301 76.1772 44.9843 75.9532C45.8385 75.7293 46.7083 76.2449 46.9322 77.0939Z" fill="#D6CE43"/>
</g>
</g>
</g>
</g>
<mask id="mask64_204_3447" style="mask-type:luminance" maskUnits="userSpaceOnUse" x="36" y="78" width="8" height="8">
<path d="M36 78.667H44V85.3337H36V78.667Z" fill="white"/>
</mask>
<g mask="url(#mask64_204_3447)">
<mask id="mask65_204_3447" style="mask-type:luminance" maskUnits="userSpaceOnUse" x="-16" y="38" width="126" height="111">
<path d="M6.45313 38.9741L109.943 66.1564L88.349 148.37L-15.1406 121.188L6.45313 38.9741Z" fill="white"/>
</mask>
<g mask="url(#mask65_204_3447)">
<mask id="mask66_204_3447" style="mask-type:luminance" maskUnits="userSpaceOnUse" x="-16" y="38" width="126" height="111">
<path d="M6.45313 38.9741L109.943 66.1564L88.349 148.37L-15.1406 121.188L6.45313 38.9741Z" fill="white"/>
</mask>
<g mask="url(#mask66_204_3447)">
<mask id="mask67_204_3447" style="mask-type:luminance" maskUnits="userSpaceOnUse" x="-16" y="38" width="126" height="111">
<path d="M6.45313 38.9741L109.943 66.1564L88.349 148.37L-15.1406 121.188L6.45313 38.9741Z" fill="white"/>
</mask>
<g mask="url(#mask67_204_3447)">
<path d="M42.9009 81.7136C43.2968 83.2292 42.3905 84.7761 40.8749 85.1719C39.3593 85.5678 37.8072 84.6563 37.4113 83.1407C37.0155 81.625 37.927 80.0782 39.4426 79.6823C40.9582 79.2865 42.5051 80.198 42.9009 81.7136Z" fill="#D6CE43"/>
</g>
</g>
</g>
</g>
<mask id="mask68_204_3447" style="mask-type:luminance" maskUnits="userSpaceOnUse" x="70" y="102" width="6" height="7">
<path d="M70.6665 102.667H75.9998V108H70.6665V102.667Z" fill="white"/>
</mask>
<g mask="url(#mask68_204_3447)">
<mask id="mask69_204_3447" style="mask-type:luminance" maskUnits="userSpaceOnUse" x="-16" y="38" width="126" height="111">
<path d="M6.45313 38.9741L109.943 66.1564L88.349 148.37L-15.1406 121.188L6.45313 38.9741Z" fill="white"/>
</mask>
<g mask="url(#mask69_204_3447)">
<mask id="mask70_204_3447" style="mask-type:luminance" maskUnits="userSpaceOnUse" x="-16" y="38" width="126" height="111">
<path d="M6.45313 38.9741L109.943 66.1564L88.349 148.37L-15.1406 121.188L6.45313 38.9741Z" fill="white"/>
</mask>
<g mask="url(#mask70_204_3447)">
<mask id="mask71_204_3447" style="mask-type:luminance" maskUnits="userSpaceOnUse" x="-16" y="38" width="126" height="111">
<path d="M6.45313 38.9741L109.943 66.1564L88.349 148.37L-15.1406 121.188L6.45313 38.9741Z" fill="white"/>
</mask>
<g mask="url(#mask71_204_3447)">
<path d="M75.3385 104.625C75.5937 105.589 75.0156 106.573 74.052 106.818C73.0885 107.073 72.1041 106.495 71.8541 105.531C71.6041 104.568 72.1823 103.589 73.1458 103.339C74.1093 103.083 75.0885 103.662 75.3385 104.625Z" fill="#70BE7A"/>
</g>
</g>
</g>
</g>
<mask id="mask72_204_3447" style="mask-type:luminance" maskUnits="userSpaceOnUse" x="76" y="104" width="7" height="8">
<path d="M76 104H82.6667V112H76V104Z" fill="white"/>
</mask>
<g mask="url(#mask72_204_3447)">
<mask id="mask73_204_3447" style="mask-type:luminance" maskUnits="userSpaceOnUse" x="-16" y="38" width="126" height="111">
<path d="M6.45313 38.9741L109.943 66.1564L88.349 148.37L-15.1406 121.188L6.45313 38.9741Z" fill="white"/>
</mask>
<g mask="url(#mask73_204_3447)">
<mask id="mask74_204_3447" style="mask-type:luminance" maskUnits="userSpaceOnUse" x="-16" y="38" width="126" height="111">
<path d="M6.45313 38.9741L109.943 66.1564L88.349 148.37L-15.1406 121.188L6.45313 38.9741Z" fill="white"/>
</mask>
<g mask="url(#mask74_204_3447)">
<mask id="mask75_204_3447" style="mask-type:luminance" maskUnits="userSpaceOnUse" x="-16" y="38" width="126" height="111">
<path d="M6.45313 38.9741L109.943 66.1564L88.349 148.37L-15.1406 121.188L6.45313 38.9741Z" fill="white"/>
</mask>
<g mask="url(#mask75_204_3447)">
<path d="M82.3489 107.052C82.7551 108.604 81.8228 110.193 80.2707 110.599C78.7135 111.005 77.1249 110.073 76.7187 108.516C76.3124 106.964 77.2447 105.375 78.802 104.969C80.3541 104.563 81.9478 105.5 82.3489 107.052Z" fill="#70BE7A"/>
</g>
</g>
</g>
</g>
<mask id="mask76_204_3447" style="mask-type:luminance" maskUnits="userSpaceOnUse" x="54" y="100" width="36" height="47">
<path d="M54.6665 100H89.3332V146.667H54.6665V100Z" fill="white"/>
</mask>
<g mask="url(#mask76_204_3447)">
<mask id="mask77_204_3447" style="mask-type:luminance" maskUnits="userSpaceOnUse" x="-16" y="38" width="126" height="111">
<path d="M6.45313 38.9741L109.943 66.1564L88.349 148.37L-15.1406 121.188L6.45313 38.9741Z" fill="white"/>
</mask>
<g mask="url(#mask77_204_3447)">
<mask id="mask78_204_3447" style="mask-type:luminance" maskUnits="userSpaceOnUse" x="-16" y="38" width="126" height="111">
<path d="M6.45313 38.9741L109.943 66.1564L88.349 148.37L-15.1406 121.188L6.45313 38.9741Z" fill="white"/>
</mask>
<g mask="url(#mask78_204_3447)">
<mask id="mask79_204_3447" style="mask-type:luminance" maskUnits="userSpaceOnUse" x="-16" y="38" width="126" height="111">
<path d="M6.45313 38.9741L109.943 66.1564L88.349 148.37L-15.1406 121.188L6.45313 38.9741Z" fill="white"/>
</mask>
<g mask="url(#mask79_204_3447)">
<path d="M55.4634 104.167L85.2707 145.683C85.8384 146.464 86.9009 146.667 87.6561 146.136L88.3853 145.625C89.1405 145.099 89.3123 144.032 88.7707 143.235L59.8436 101.104C58.3957 102.12 56.9269 103.146 55.4634 104.167Z" fill="#F1486F"/>
</g>
</g>
</g>
</g>
<mask id="mask80_204_3447" style="mask-type:luminance" maskUnits="userSpaceOnUse" x="52" y="96" width="8" height="10">
<path d="M52 96H60V105.333H52V96Z" fill="white"/>
</mask>
<g mask="url(#mask80_204_3447)">
<mask id="mask81_204_3447" style="mask-type:luminance" maskUnits="userSpaceOnUse" x="-16" y="38" width="126" height="111">
<path d="M6.45313 38.9741L109.943 66.1564L88.349 148.37L-15.1406 121.188L6.45313 38.9741Z" fill="white"/>
</mask>
<g mask="url(#mask81_204_3447)">
<mask id="mask82_204_3447" style="mask-type:luminance" maskUnits="userSpaceOnUse" x="-16" y="38" width="126" height="111">
<path d="M6.45313 38.9741L109.943 66.1564L88.349 148.37L-15.1406 121.188L6.45313 38.9741Z" fill="white"/>
</mask>
<g mask="url(#mask82_204_3447)">
<mask id="mask83_204_3447" style="mask-type:luminance" maskUnits="userSpaceOnUse" x="-16" y="38" width="126" height="111">
<path d="M6.45313 38.9741L109.943 66.1564L88.349 148.37L-15.1406 121.188L6.45313 38.9741Z" fill="white"/>
</mask>
<g mask="url(#mask83_204_3447)">
<path d="M56.7342 96.5625L52.2446 99.7031L55.4634 104.167C56.9269 103.146 58.3957 102.12 59.8436 101.104L56.7342 96.5625Z" fill="#D3D2D2"/>
</g>
</g>
</g>
</g>
<mask id="mask84_204_3447" style="mask-type:luminance" maskUnits="userSpaceOnUse" x="42" y="85" width="16" height="15">
<path d="M42.6665 85.3335H57.3332V100H42.6665V85.3335Z" fill="white"/>
</mask>
<g mask="url(#mask84_204_3447)">
<mask id="mask85_204_3447" style="mask-type:luminance" maskUnits="userSpaceOnUse" x="-16" y="38" width="126" height="111">
<path d="M6.45313 38.9741L109.943 66.1564L88.349 148.37L-15.1406 121.188L6.45313 38.9741Z" fill="white"/>
</mask>
<g mask="url(#mask85_204_3447)">
<mask id="mask86_204_3447" style="mask-type:luminance" maskUnits="userSpaceOnUse" x="-16" y="38" width="126" height="111">
<path d="M6.45313 38.9741L109.943 66.1564L88.349 148.37L-15.1406 121.188L6.45313 38.9741Z" fill="white"/>
</mask>
<g mask="url(#mask86_204_3447)">
<mask id="mask87_204_3447" style="mask-type:luminance" maskUnits="userSpaceOnUse" x="-16" y="38" width="126" height="111">
<path d="M6.45313 38.9741L109.943 66.1564L88.349 148.37L-15.1406 121.188L6.45313 38.9741Z" fill="white"/>
</mask>
<g mask="url(#mask87_204_3447)">
<path d="M56.7345 96.5628C56.7345 96.5628 56.12 90.818 53.7293 85.9274C53.7293 85.9274 51.5575 85.0107 47.6043 87.7764L49.1877 90.5889L47.0106 88.193L46.12 88.8128L48.1616 91.3076L45.5262 89.2295C45.5262 89.2295 43.9325 90.8597 43.8022 92.9326C43.9533 93.1357 47.3075 96.9274 52.245 99.7035L56.7345 96.5628Z" fill="#F9AC2E"/>
</g>
</g>
</g>
</g>
</svg>
